<svg xmlns="http://www.w3.org/2000/svg" viewBox="0 0 408.74 333.8"><defs><style>.cls-1{fill:#3babb4;}</style></defs><g id="Layer_2" data-name="Layer 2"><g id="Layer_1-2" data-name="Layer 1"><path class="cls-1" d="M408.74,168.35c-2.53,8.2-4.14,16.83-7.75,24.52-13.05,27.78-44.27,43-75.48,37.59-29.05-5.05-52.91-30.2-56.55-59.6-5.24-42.34,25.9-78.57,68.57-79.72,3.16-.08,6.33.33,10.91.6-3.29-8.63-5.57-16.86-9.4-24.28C319.24,29.1,280.72,10,238.3,17.64,220.88,20.76,205.8,29.07,193,41.39c-9.56,9.22-11,9.27-20.42.07C135.88,5.58,75.36,7.77,41.22,46.13a97.2,97.2,0,0,0-25.16,61.06c-.85,15.83,4.54,30,11.66,43.74a4.1,4.1,0,0,0,3.15,1.53c23.29.09,46.58,0,69.86.14,3,0,3.11-1.84,3.64-3.69q8.86-30.82,17.7-61.66a23,23,0,0,1,1.76-4.85,7.79,7.79,0,0,1,13.49-.16,19.12,19.12,0,0,1,1.62,4.06q18.31,58.56,36.61,117.13c.39,1.25.83,2.47,1.65,4.87.76-2.28,1.22-3.55,1.62-4.84,4.41-14.07,8.78-28.14,13.21-42.21,2-6.24,4.21-7.9,10.69-7.91q18.38,0,36.73,0a18.57,18.57,0,0,1,2.79.15c4.68.72,7.76,4.15,7.51,8.29s-3.48,7.38-8.32,7.46c-9.18.14-18.36,0-27.54.06H206.3c-1.45,4.56-2.91,9.06-4.32,13.58q-8.13,26.06-16.23,52.12c-.28.88-.53,1.78-.87,2.65-1.37,3.54-3.77,5.78-7.76,5.75s-6.48-2.3-7.66-5.87c-2.3-6.94-4.4-13.94-6.58-20.91q-15.19-48.69-30.37-97.38c-.36-1.13-.75-2.26-1.54-4.62-.78,2.43-1.27,3.81-1.67,5.21-3.94,13.66-7.84,27.33-11.8,41-1.78,6.12-3.87,7.68-10.31,7.69q-32.13,0-64.27,0h-4.4C50.19,195,144.92,291.17,183.06,315.36c9-7.44,18.31-14.78,27.23-22.52,12.36-10.72,24.45-21.76,36.66-32.65,3.86-3.45,7.12-4.19,10.44-2.38a7.74,7.74,0,0,1,2.84,11.26,12.87,12.87,0,0,1-2.37,2.68q-34.47,29.67-69,59.27c-4.38,3.75-7.61,3.66-12.19,0C131.1,294.72,87.6,256.18,50.14,211.37c-10.46-12.51-19.46-26.25-28.94-39.56-1.63-2.29-3.06-3.7-6-3.36a42.62,42.62,0,0,1-6.78,0c-4.86-.23-8.08-3.12-8.39-7.41-.29-4,2.55-7.33,7-8.28,1-.21,2.05-.38,3.12-.58-25.35-48.43.64-106.67,36.1-132.1C78.48-3,137.16-13,182.58,28.35c6.43-4.54,12.5-9.57,19.24-13.47C263.9-21.06,341.91,11,361.06,80.14c1.17,4.22,1.78,8.59,3,12.78.49,1.66,1.7,3.68,3.15,4.39,23.34,11.47,37.08,29.9,40.91,55.67,0,.35.38.66.58,1ZM338.5,215.58a54.27,54.27,0,0,0,.15-108.53c-29.72-.2-54.42,24.41-54.46,54.26A54.28,54.28,0,0,0,338.5,215.58Z"/><path class="cls-1" d="M268.12,243a8.37,8.37,0,0,1,8.14-8.13,8.23,8.23,0,0,1,7.86,8,8.41,8.41,0,0,1-8.21,8.07A7.9,7.9,0,0,1,268.12,243Z"/><path class="cls-1" d="M330.49,169.29c-7.08,0-13.7.08-20.32,0-4.95-.07-7.95-2.5-8.56-6.63-.8-5.33,2.62-9.06,8.78-9.27,5.05-.17,10.11,0,15.17,0h4.93v-16c0-1.73-.09-3.47.06-5.19.41-4.74,3.62-7.81,8-7.78s7.66,3.13,7.85,7.9c.22,5.85.07,11.71.08,17.56v3.52c6.73,0,13.07-.05,19.42,0,5.17.06,8.37,2.13,9.33,5.85,1.36,5.3-2,9.86-7.75,10-6.77.2-13.55.05-21,.05v14.38c0,2.39.12,4.8-.09,7.18a8.1,8.1,0,0,1-7.76,7.69,8,8,0,0,1-8-7.81c-.26-5.31-.09-10.64-.1-16Z"/></g></g></svg>