<svg xmlns="http://www.w3.org/2000/svg" viewBox="0 0 408.76 287.48"><defs><style>.cls-1{fill:#3babb4;}</style></defs><g id="Layer_2" data-name="Layer 2"><g id="Layer_1-2" data-name="Layer 1"><path class="cls-1" d="M408.76,136.61q-12,25.59-24,51.17-21.69,46.6-43.3,93.24c-3.22,6.93-5.62,7.94-12.5,4.65a312.52,312.52,0,0,0-82-26.37C190,249.48,135.18,255.89,83,281.42c-12.45,6.09-12.71,6.07-18.55-6.53Q33.24,207.68,2,140.44c-3.18-6.84-2.89-7.87,2.75-13A281,281,0,0,1,60.21,88c2.86-1.55,3.82-3.35,3.68-6.51C63.14,65.2,66.05,49.68,75,35.74,89.92,12.27,111.53.38,139.29.13c28.6-.26,57.2-.06,85.8-.06,14.64,0,29.27,0,43.9,0,43.08.15,75.93,32.74,75.65,75.8-.05,7.74,2.26,11.65,9,15.2,19,10.06,35.92,23.21,51.77,37.71a46.11,46.11,0,0,1,3.39,3.83Zm-14.25-.26C284.15,35.54,111,44.92,14.3,136.56L66.48,248.94c92-44.61,183.35-40.07,274.72,2.22ZM76.93,79.06q127.44-55.42,255,0c2.44-36.21-25.67-66.09-62.2-66.21-43.5-.16-87-.22-130.52.14A71.82,71.82,0,0,0,117,16.93C91.44,25.66,73.89,53.29,76.93,79.06ZM335.81,262.75c-87.94-40.66-175.5-45.17-263.94-2.21l4.5,9.72c85.49-40.76,170.37-34.9,255,2.07C332.83,269.18,334.17,266.3,335.81,262.75Z"/><path class="cls-1" d="M223.88,121.44H252.7c7.19,0,9.13,2,9.14,9.31,0,7.05.05,14.1,0,21.15-.05,5.46-2.36,7.81-7.78,7.84-10,.07-19.94,0-30.53,0v3.94c0,8.91,0,17.82,0,26.74-.05,5.19-2.43,7.57-7.6,7.62q-11.57.12-23.14,0c-5.15-.05-7.51-2.45-7.55-7.67-.06-10.07,0-20.15,0-30.63-9.9,0-19.44,0-29,0-7.46,0-9.34-1.92-9.34-9.51,0-6.91,0-13.83,0-20.75,0-5.7,2.32-8,8-8,9.95,0,19.9,0,30.33,0V105.73c0-4.66,0-9.31,0-14,0-6.48,2.15-8.62,8.6-8.64q10.77,0,21.55,0c5.9,0,8.13,2.31,8.16,8.29,0,9.57,0,19.15.05,28.73A8.53,8.53,0,0,0,223.88,121.44ZM210.74,96.21H198v24.65c0,13-.38,13.35-13.47,13.35H159.93V147c9.59,0,18.88,0,28.18,0,8.09,0,9.85,1.75,9.86,9.78v28.29h12.77c0-10.08,0-19.89,0-29.71,0-6.15,2.25-8.33,8.48-8.36,7,0,14.09,0,21.13,0h8.49V134.21H219.61c-6.75,0-8.85-2.1-8.86-8.78C210.73,115.75,210.74,106.07,210.74,96.21Z"/><path class="cls-1" d="M74.58,206.85c-1.32,1.5-2.59,3.72-4.5,4.93-2.5,1.58-5.17.66-7.13-1.57a13.6,13.6,0,0,1-1.78-3.08q-9.42-20.19-18.78-40.39a18.14,18.14,0,0,1-1.22-3.35,5.78,5.78,0,0,1,3.26-6.95A5.74,5.74,0,0,1,52,158a14.72,14.72,0,0,1,2,3.4q9.32,20,18.56,40C73.21,202.85,73.67,204.38,74.58,206.85Z"/><path class="cls-1" d="M45.52,144.69a6.16,6.16,0,0,1-6.11,6.43c-3.92.12-8-4.72-8.17-9.69A6.44,6.44,0,0,1,37.43,135C41.4,134.87,45.4,139.67,45.52,144.69Z"/><path class="cls-1" d="M191.51,31.82a6.32,6.32,0,1,1-12.64.21,6.32,6.32,0,0,1,12.64-.21Z"/><path class="cls-1" d="M217.06,32a6.32,6.32,0,1,1-12.64-.13,6.32,6.32,0,0,1,12.64.13Z"/><path class="cls-1" d="M230,31.83a6.32,6.32,0,0,1,12.64.19A6.32,6.32,0,1,1,230,31.83Z"/></g></g></svg>