<svg xmlns="http://www.w3.org/2000/svg" viewBox="0 0 383.25 371.74"><defs><style>.cls-1{fill:#3babb4;}</style></defs><g id="Layer_2" data-name="Layer 2"><g id="Layer_1-2" data-name="Layer 1"><path class="cls-1" d="M0,246.58c1.33-6.08,2.18-12.31,4.07-18.21,7.19-22.52,22.36-38.58,42-50.83,14.4-9,30.05-15,46.38-19.35L96.94,157c-22.48-25.86-30.49-55.31-21.88-88.46,5.6-21.58,18.08-38.72,36.23-51.65,35.09-25,84-21.91,115.64,7.35,18.95,17.55,29.25,39.33,30.3,65.12s-7.78,48.19-24.91,67.23c9.09,3.08,18.12,5.51,26.62,9.19,9.33,4,18.16,9.25,27.25,13.88a12.26,12.26,0,0,0,4.81,1.59c53.4,1.95,94.31,46.18,92.17,99.77-1.86,46.82-39.81,86.48-86.35,90.19-4.34.35-8.71.53-13.07.53q-113.94,0-227.88,0c-17.83,0-33.22-5.82-45.21-19.5C4.83,345.57,1.81,337.6,0,329.08Zm257.08-60.36a8.52,8.52,0,0,0-1.22-.81A180.86,180.86,0,0,0,214,173.25a8,8,0,0,0-4.52,1.1q-45.14,23.61-90.19-.09a7.3,7.3,0,0,0-4.17-1C91.46,177.45,68.86,184.5,49.21,199c-19.8,14.56-30.32,33.79-29.83,58.89.41,21.49.15,43,.05,64.49,0,9.21,3.74,16.39,10.87,21.93,7.51,5.84,16.21,8,25.56,8h171c.92,0,1.84-.08,3.19-.14C171.54,306.85,184.31,213.11,257.08,186.22Zm-92.69-19.81a73.55,73.55,0,0,0,73.47-73.28c.15-40.45-33.07-73.76-73.51-73.71S91.15,52.52,91.17,93A73.34,73.34,0,0,0,164.39,166.41Zm124,34.33A75.68,75.68,0,0,0,212.59,276c-.19,42,33.81,76.27,75.6,76.27,41.47,0,75.5-34,75.6-75.53A75.68,75.68,0,0,0,288.36,200.74Z"/><path class="cls-1" d="M276.33,285.76l42.1-42.22a32.65,32.65,0,0,1,3.27-3.07,9.41,9.41,0,0,1,12.34.61,9.68,9.68,0,0,1,1.4,12.61,25.59,25.59,0,0,1-3,3.36q-23.79,23.86-47.62,47.72c-6.13,6.13-11.13,6.12-17.3,0Q255,292.14,242.41,279.53a9.7,9.7,0,0,1-2.62-10.33,9.24,9.24,0,0,1,7.94-6.54c3.47-.52,6.29.91,8.71,3.35q8.44,8.5,16.94,17C274.25,283.84,275.16,284.66,276.33,285.76Z"/></g></g></svg>