<svg xmlns="http://www.w3.org/2000/svg" viewBox="0 0 384 383.26"><defs><style>.cls-1{fill:#3babb4;}</style></defs><g id="Layer_2" data-name="Layer 2"><g id="Layer_1-2" data-name="Layer 1"><path class="cls-1" d="M384,299.42c-.33.92-.68,1.83-1,2.76-3.24,10.56-12.34,17.15-24.08,17.24-12.5.09-25,0-37.5.07a9.6,9.6,0,0,0-1.21.23c-.06,1.19-.17,2.5-.17,3.81,0,11.23,0,22.46,0,33.68-.05,16.16-10,26-26.29,26-4.25,0-8.5,0-12.75,0-14.7-.09-24.93-10.22-25.06-25-.1-12,0-23.95,0-35.92,0-.75-.08-1.49-.14-2.72-1.31-.06-2.62-.17-3.94-.17-11.24,0-22.49,0-33.74,0-16.18,0-26.09-10-26.11-26.21,0-4.24,0-8.48,0-12.72.08-14.71,10.2-24.91,25-25,11.5-.1,23,0,34.5,0h4.44V251c0-11.35-.06-22.7,0-34.06.09-15.23,10.24-25.28,25.46-25.33q6.75,0,13.5,0c14.76.07,25,10.12,25.13,24.91.12,11.48,0,23,0,34.43v4.47h10.39c9.25,0,18.5,0,27.75,0,13.18,0,21.59,6.42,25.24,19.06a4.39,4.39,0,0,0,.56.95Zm-80.07-60.19c0-7.61.07-15.22,0-22.83-.06-5.74-3-8.69-8.84-8.84-4.24-.11-8.49,0-12.74,0-7.51,0-10.25,2.7-10.26,10.08q0,20.76,0,41.53c0,10.22-2.13,12.38-12.21,12.38q-20.82,0-41.62,0c-7.68,0-10.27,2.65-10.29,10.42,0,3.74,0,7.49,0,11.23,0,7.44,2.73,10.14,10.2,10.15q21.56,0,43.11,0c8.08,0,10.8,2.72,10.81,10.78,0,14.59,0,29.18,0,43.78,0,6.44,2.93,9.33,9.4,9.42,4,.06,8,0,12,0,7.77,0,10.44-2.62,10.45-10.27q0-20.77,0-41.54c0-10.08,2.14-12.18,12.39-12.19,14.25,0,28.5.05,42.74,0,5.78,0,8.8-3,9-8.73.13-4.36.05-8.73,0-13.09-.05-7.18-2.81-9.95-10-10-14.75,0-29.5,0-44.24,0-6.81,0-9.82-3-9.86-9.84C303.9,254.2,303.94,246.71,303.93,239.23Z"/><path class="cls-1" d="M0,256c1.75-6.45,2.91-13.13,5.34-19.32a71.18,71.18,0,0,1,65.42-45c48-.18,96-.07,143.94-.05,5.67,0,9.34,3.24,9.29,8s-3.66,7.85-9.43,7.85q-70.67,0-141.32,0c-27,0-49.24,17.07-55.54,42.57A56.37,56.37,0,0,0,16,263.05c-.19,18-.09,35.91-.08,53.87,0,.62.1,1.23.22,2.52h4.68q64.65,0,129.32,0c6,0,9.28,2.47,9.67,7.09a7.86,7.86,0,0,1-7.27,8.75,30,30,0,0,1-3,0q-69.52,0-139.07.07C5.58,335.42,2,334,0,329.36Z"/><path class="cls-1" d="M151.5,0c6.87,1.71,14,2.78,20.58,5.24,34.55,12.84,54.79,46.07,51.4,83.7-3.07,34-30.77,63.34-65.68,69.57-51.13,9.13-97.89-33.33-93.48-84.88C67.59,35.3,95.89,5.82,134.37.63A14.82,14.82,0,0,0,136.5,0Zm56.42,79.81a63.92,63.92,0,1,0-63.71,63.91A64,64,0,0,0,207.92,79.81Z"/></g></g></svg>