<svg id="Capa_1" data-name="Capa 1" xmlns="http://www.w3.org/2000/svg" viewBox="0 0 800 769.38"><defs><style>.cls-1{fill:#15a2ae;}</style></defs><path class="cls-1" d="M317.68,573.61H221.42a10.77,10.77,0,0,0-10.77,10.76v87.21a10.76,10.76,0,0,0,5,9.1l48.13,30.41a10.73,10.73,0,0,0,11.5,0l48.13-30.41a10.76,10.76,0,0,0,5-9.1V584.37A10.78,10.78,0,0,0,317.68,573.61Zm-10.77,92-37.37,23.61-37.37-23.61V595.14H306.9v70.52Zm-61.44-359.9c9.95,89.54,80.86,129.89,129.06,129.89S493.62,395.3,503.59,305.76c14.34-7.55,33.68-26.33,32.7-59.7-.19-6.45-.76-26-15.13-31.47-14.13-5.35-28.39,8.82-31.11,11.71A10.76,10.76,0,1,0,505.77,241a30.3,30.3,0,0,1,7.39-5.61c.6,1.63,1.44,5,1.62,11.3C515.7,277.82,493,287.16,490.7,288l-41.91,9.18a694.34,694.34,0,0,0-148.52,0l-42-9.19c-3.17-1.25-24.91-10.92-24-41.28.18-6.33,1-9.68,1.62-11.3a29.74,29.74,0,0,1,7.38,5.6A10.76,10.76,0,1,0,259,226.31c-2.71-2.89-16.91-17.1-31.11-11.71-14.36,5.43-14.94,25-15.13,31.47C211.77,279.44,231.12,298.22,245.47,305.76Zm22.7,6.42,21.5,4.71L296,374.34C283,359.05,272.6,338.66,268.17,312.18ZM453,374.33l6.34-57.45,21.5-4.71C476.44,338.66,466.06,359.05,453,374.33Zm-15.39-56.71-8.55,77.46c0,.18.05.35,0,.52-19.75,13.18-40.63,18.53-54.6,18.53s-34.78-5.34-54.5-18.47l-8.61-78A675.4,675.4,0,0,1,437.63,317.62ZM316.79,459.75,285.56,474.4l-2.74-50.1a10.76,10.76,0,0,0-21.49,1.17l.57,10.46c-36.89,13.32-70.35,37.51-95.54,68.53-1.47-8.64-4.61-16.92-11.39-23.74a40.67,40.67,0,0,0-9.73-7V392.5a23.55,23.55,0,0,1,9.26,4.93c7.21,6.32,10.86,17.54,10.86,33.37v34.09a10.76,10.76,0,0,0,21.52,0V430.81c0-22.3-6.12-39-18.2-49.55a46,46,0,0,0-23.51-10.71,10.72,10.72,0,0,0-10.7-10.45H10.76A10.76,10.76,0,0,0,0,370.86v32.69a10.76,10.76,0,0,0,10.76,10.76H44c1.51,15.89,6.81,45.33,25.08,61.74A39.08,39.08,0,0,0,63,480.74c-12.85,12.93-12.76,31.06-12.67,47v74.69A58.53,58.53,0,0,0,75,650.22c-6.22,9.37-12.36,17.25-12.32,17.25C30.17,703,33.68,771.63,33.84,774.54A10.78,10.78,0,0,0,44.6,784.69H185.9a10.77,10.77,0,0,0,10.75-10.15c.16-2.91,3.67-71.54-28.64-106.81A249.53,249.53,0,0,1,150.35,644a58.44,58.44,0,0,0,17.28-41.53V539.63a200.84,200.84,0,0,1,95.5-81.09l1.8,33a10.77,10.77,0,0,0,10.74,10.18,10.63,10.63,0,0,0,4.58-1l45.68-21.43a10.77,10.77,0,0,0-9.15-19.5ZM21.52,381.61H33.68v11.18H21.52Zm79.54,84.77c-35.4,0-36.13-62.25-36.13-62.87A10.7,10.7,0,0,0,55.21,393V381.6h68.5v84.79H101.06ZM71.83,527.67c-.06-12.94-.14-25.18,6.41-31.75,5.27-5.31,15.58-8,30.61-8h.26c15,0,25.34,2.7,30.6,8,4.37,4.4,5.77,11.34,6.21,19.31h-25a10.77,10.77,0,0,0,0,21.53h25.22v19.59H120.9a10.76,10.76,0,0,0,0,21.52h25.21V596H120.9a10.76,10.76,0,0,0,0,21.52h21.92a37.08,37.08,0,0,1-71-15.1ZM55.24,763.16c.07-4.23.33-9.65.85-15.61H174.41c.52,6,.76,11.38.84,15.61ZM151.9,682c10.48,11.44,16.24,28.07,19.45,44H59.2c3.28-16.08,9.18-32.9,19.93-44.65.4-.51,8.25-10.56,15.67-22a57.63,57.63,0,0,0,37.75-3.19A266.52,266.52,0,0,0,151.9,682ZM228.14,180.3v11.25a10.76,10.76,0,1,0,21.52,0V176.81C281.89,164.09,328.56,152,374.52,152s92.62,12.12,124.85,24.84v14.74a10.76,10.76,0,1,0,21.52,0V180.3a10.73,10.73,0,0,0,4.61-8.77V56.39a10.78,10.78,0,0,0-6.39-9.84c-34-15.11-89.79-31.25-144.59-31.25S263.88,31.44,229.93,46.55a10.78,10.78,0,0,0-6.39,9.84V171.51A10.8,10.8,0,0,0,228.14,180.3ZM245.06,63.49c32.27-13.35,81.31-26.65,129.46-26.65S471.69,50.14,504,63.49v92c-34.11-13-82.17-25-129.46-25s-95.35,12-129.46,25Zm544.18,291H517.73A10.76,10.76,0,0,0,507,365.24v37.91a10.76,10.76,0,0,0,10.76,10.76h25.13l104.61,74.43V589.78c-18,.86-31.35,5.31-40,14-12.85,12.92-12.75,31.05-12.67,47.05v74.68a58.65,58.65,0,0,0,117.3,0V650.83c.09-16,.19-34.13-12.66-47.05-7.08-7.13-17.17-11.5-30.49-13.34V488c45.56-35.6,84.65-65.84,95.36-74.13h24.89A10.76,10.76,0,0,0,800,403.15V365.24A10.76,10.76,0,0,0,789.24,354.48ZM690.62,650.72v74.8a37.08,37.08,0,0,1-71,15.1h21.92a10.76,10.76,0,1,0,0-21.52h-25.2V700.93h25.2a10.76,10.76,0,1,0,0-21.52H616.35v-19.6h25.21a10.76,10.76,0,1,0,0-21.52h-25c.44-8,1.84-14.92,6.21-19.32,5.28-5.31,15.64-8,30.73-8s25.45,2.69,30.74,8C690.76,625.54,690.7,637.76,690.62,650.72Zm87.86-258.33h-17.8a10.81,10.81,0,0,0-6.58,2.24s-43.46,33.56-96.17,74.73l-105.4-75a10.79,10.79,0,0,0-6.24-2h-17.8V376h250ZM484.51,457l-1.89,34.56a10.74,10.74,0,0,1-10.74,10.18,10.62,10.62,0,0,1-4.58-1l-45.68-21.43a10.76,10.76,0,1,1,9.15-19.48L462,474.41l2.74-50.1a10.76,10.76,0,1,1,21.49,1.17l-.49,9c62.48,21.12,114.38,72.58,135.5,134.43a10.76,10.76,0,1,1-20.36,7C582.5,522.09,538.23,477.09,484.51,457Zm-99.23,51.49v263a10.76,10.76,0,0,1-21.52,0v-263a10.76,10.76,0,0,1,21.52,0ZM524.35,323.37H782.62a10.76,10.76,0,0,1,0,21.52H524.35a10.76,10.76,0,0,1,0-21.52Z" transform="translate(0 -15.3)"/></svg>