<svg id="_2" data-name="2" xmlns="http://www.w3.org/2000/svg" viewBox="0 0 609.52 800"><defs><style>.cls-1{fill:#15a2ae;}</style></defs><path class="cls-1" d="M400,643c85.16,0,143.7-11.06,144.6-21.69,3.7-44.41-53.92-67.6-77.16-76.31-12.46-4.66-30.61-18.26-30.61-26.72V496.08c7.21-8,12.65-24.27,15.91-42.68,7.59-2.72,11.92-7.07,17.34-26,5.76-20.2-8.67-19.53-8.67-19.53,11.67-38.62-3.68-74.91-29.41-72.26-17.75-31-77.19,7.1-95.8,4.44a42.08,42.08,0,0,0,4.43,18.63c-6.48,12.31-4,36.81-2.17,49.19-1.05,0-14.09.13-8.55,19.53,5.4,18.95,9.74,23.3,17.33,26,3.25,18.41,8.7,34.68,15.93,42.68v22.21c0,8.46-19.29,22.73-30.64,26.72-23.36,8.23-80.85,31.9-77.14,76.31C256.29,631.94,314.83,643,400,643Z" transform="translate(-95.24)"/><path class="cls-1" d="M632.78,88.89H514.29v25.4a89,89,0,0,1-88.89,88.88H374.6a89,89,0,0,1-88.89-88.88V88.89H167.22a72,72,0,0,0-72,72V728a72,72,0,0,0,72,72H632.77a72,72,0,0,0,72-72V160.87A72,72,0,0,0,632.78,88.89Zm-4.21,634.92H171.43V234.92H628.57V723.81Z" transform="translate(-95.24)"/><path class="cls-1" d="M374.6,177.78h50.8a63.57,63.57,0,0,0,63.49-63.49V63.49A63.57,63.57,0,0,0,425.4,0H374.6a63.56,63.56,0,0,0-63.49,63.49v50.8A63.57,63.57,0,0,0,374.6,177.78ZM361.9,63.49a12.69,12.69,0,0,1,12.7-12.7h50.8a12.69,12.69,0,0,1,12.7,12.7v25.4a12.69,12.69,0,0,1-12.7,12.7H374.6a12.69,12.69,0,0,1-12.7-12.7Z" transform="translate(-95.24)"/></svg>