<svg id="Layer_1" data-name="Layer 1" xmlns="http://www.w3.org/2000/svg" viewBox="0 0 800 800"><defs><style>.cls-1{fill:#fff;}.cls-2{fill:#15a2ae;}</style></defs><g id="Layer_2" data-name="Layer 2"><g id="invisible_box" data-name="invisible box"><rect class="cls-1" width="800" height="800"/></g><g id="Layer_4" data-name="Layer 4"><path class="cls-2" d="M688.33,500l-91.66-48.33H595a50,50,0,0,0-56.67,10L400,598.33,261.67,460A50,50,0,0,0,205,450l-93.33,50a51.69,51.69,0,0,0-28.34,45V716.67a50,50,0,0,0,50,50H666.67a50,50,0,0,0,50-50V545A51.69,51.69,0,0,0,688.33,500Z"/><path class="cls-2" d="M400,450A180,180,0,0,0,580,270v-3.33H220V270A180,180,0,0,0,400,450Z"/><path class="cls-2" d="M580,120a35,35,0,0,0-28.33-35L400,33.33,248.33,85A35,35,0,0,0,220,120V233.33H580ZM450,150H416.67v33.33a16.67,16.67,0,0,1-33.34,0V150H350a16.67,16.67,0,1,1,0-33.33h33.33V83.33a16.67,16.67,0,0,1,33.34,0v33.34H450A16.67,16.67,0,1,1,450,150Z"/></g></g></svg>