<svg xmlns="http://www.w3.org/2000/svg" viewBox="0 0 389.68 329.02"><defs><style>.cls-1{fill:#70acb4;}.cls-2{opacity:0.7;}.cls-3,.cls-4,.cls-5{fill:#fff;}.cls-4{opacity:0.5;}.cls-5,.cls-6,.cls-7{stroke:#263238;}.cls-5,.cls-6,.cls-7,.cls-8{stroke-linecap:round;stroke-linejoin:round;stroke-width:0.75px;}.cls-6,.cls-8{fill:none;}.cls-7{fill:#263238;}.cls-8{stroke:#fff;}</style></defs><g id="Layer_2" data-name="Layer 2"><g id="Background_Simple" data-name="Background Simple"><path class="cls-1" d="M233.94,25.59V4c-16.57,4.12-31.79,11.38-46.7,21.6Z"/><rect class="cls-1" x="240.45" y="33.38" width="114.36" height="141.94"/><path class="cls-1" d="M233.94,33.38H176.53c-12.83,9.6-26,19.32-41.37,24.87-5.14,1.85-10.34,3.48-15.58,5V175.33H233.94Z"/><path class="cls-1" d="M377.43,56.09a92.74,92.74,0,0,0-16.11-21.15V175.33h11.76C391.16,139.15,397.11,91.75,377.43,56.09Z"/><path class="cls-1" d="M113.07,65.08c-6.24,1.7-12.51,3.31-18.79,5C45.1,83.22,14.57,127.44,20.22,175.33h92.85Z"/><path class="cls-1" d="M361.32,183.12V194.8q2.18-2.9,4.15-6c1.18-1.85,2.32-3.76,3.43-5.69Z"/><path class="cls-1" d="M354.81,183.12H240.45V243c9.51.12,18.94.88,28.55-.17,31.59-3.44,63.95-16.35,85.81-40.18Z"/><path class="cls-1" d="M240.45,25.59H350.39C328.1,9,299.14.71,271.76.05a144.58,144.58,0,0,0-31.31,2.49Z"/><path class="cls-1" d="M233.94,183.12H119.58v85.19c19.82.35,39.75-5.36,58.55-11.73,14.94-5.07,30-10.31,45.78-12.67a85.38,85.38,0,0,1,10-.86Z"/><path class="cls-1" d="M113.07,183.12H21.46c7.21,35,35.08,66.9,70.11,80.05a81.36,81.36,0,0,0,21.5,4.81Z"/><g class="cls-2"><path class="cls-3" d="M233.94,25.59V4c-16.57,4.12-31.79,11.38-46.7,21.6Z"/><rect class="cls-3" x="240.45" y="33.38" width="114.36" height="141.94"/><path class="cls-3" d="M233.94,33.38H176.53c-12.83,9.6-26,19.32-41.37,24.87-5.14,1.85-10.34,3.48-15.58,5V175.33H233.94Z"/><path class="cls-3" d="M377.43,56.09a92.74,92.74,0,0,0-16.11-21.15V175.33h11.76C391.16,139.15,397.11,91.75,377.43,56.09Z"/><path class="cls-3" d="M113.07,65.08c-6.24,1.7-12.51,3.31-18.79,5C45.1,83.22,14.57,127.44,20.22,175.33h92.85Z"/><path class="cls-3" d="M361.32,183.12V194.8q2.18-2.9,4.15-6c1.18-1.85,2.32-3.76,3.43-5.69Z"/><path class="cls-3" d="M354.81,183.12H240.45V243c9.51.12,18.94.88,28.55-.17,31.59-3.44,63.95-16.35,85.81-40.18Z"/><path class="cls-3" d="M240.45,25.59H350.39C328.1,9,299.14.71,271.76.05a144.58,144.58,0,0,0-31.31,2.49Z"/><path class="cls-3" d="M233.94,183.12H119.58v85.19c19.82.35,39.75-5.36,58.55-11.73,14.94-5.07,30-10.31,45.78-12.67a85.38,85.38,0,0,1,10-.86Z"/><path class="cls-3" d="M113.07,183.12H21.46c7.21,35,35.08,66.9,70.11,80.05a81.36,81.36,0,0,0,21.5,4.81Z"/></g></g><g id="Desk"><polygon class="cls-1" points="377.25 207 373.01 207 181.54 207 177.3 207 177.3 215.47 181.54 215.47 181.54 301.67 373.01 301.67 373.01 215.47 377.25 215.47 377.25 207"/><polygon class="cls-4" points="377.25 207 373.01 207 181.54 207 177.3 207 177.3 215.47 181.54 215.47 181.54 301.67 373.01 301.67 373.01 215.47 377.25 215.47 377.25 207"/><path class="cls-3" d="M186.66,252h52.22V224.13H186.66Zm1.06-26.85h50.1V251h-50.1Z"/><path class="cls-3" d="M251.52,252h52.22V224.13H251.52Zm1-26.85h50.11V251H252.57Z"/><path class="cls-3" d="M316.37,224.13V252h52.22V224.13ZM367.53,251h-50.1V225.19h50.1Z"/><path class="cls-3" d="M186.66,289.48h52.22V261.57H186.66Zm1.06-26.85h50.1v25.79h-50.1Z"/><path class="cls-3" d="M251.52,289.48h52.22V261.57H251.52Zm1-26.85h50.11v25.79H252.57Z"/><path class="cls-3" d="M316.37,289.48h52.22V261.57H316.37Zm1.06-26.85h50.1v25.79h-50.1Z"/><ellipse class="cls-3" cx="213.33" cy="238.44" rx="8.48" ry="3.18"/><ellipse class="cls-3" cx="277.87" cy="238.44" rx="8.48" ry="3.18"/><ellipse class="cls-3" cx="344.29" cy="238.44" rx="8.48" ry="3.18"/><path class="cls-3" d="M213.33,272.7c-4.68,0-8.48,1.43-8.48,3.18s3.8,3.18,8.48,3.18,8.48-1.42,8.48-3.18S218,272.7,213.33,272.7Z"/><path class="cls-3" d="M277.87,272.7c-4.68,0-8.48,1.43-8.48,3.18s3.8,3.18,8.48,3.18,8.48-1.42,8.48-3.18S282.56,272.7,277.87,272.7Z"/><path class="cls-3" d="M344.29,272.7c-4.69,0-8.48,1.43-8.48,3.18s3.79,3.18,8.48,3.18,8.48-1.42,8.48-3.18S349,272.7,344.29,272.7Z"/></g><g id="Plants"><path class="cls-1" d="M104.44,199.59c-3.86,5.73-9.24,13.18-12.11,19.15,1.09-3.94,2.15-7.66,3.13-11,1.47-2.88,5.41-10.18,10-15,5.77-6.17,8.23-10.14,5.13-10.49-2.15-.23-8.45,8.16-12.4,16.49.86-2.85,1.54-5,2-6.3.18-.57.37-1.21.55-1.88a165.38,165.38,0,0,0,11.14-17.86c5.83-10.89,7.71-21.17,3.82-16.75-3.58,4.07-9.81,24.3-14.76,33.83.42-1.64.81-3.45,1.17-5.24.7-1.74,1.62-3.49,2.14-5.09.81-2.46,1.52-4.95,2.09-7.47a51.84,51.84,0,0,0,1.42-12,24.29,24.29,0,0,0-3.72-13.44c-.67-1-4.77-7.13-6-4a3.33,3.33,0,0,0-.09,1.6c.6,5.22,2.49,10,3.66,15.07,1.75,7.6.58,20.34,0,25.76-.22.85-.5,1.92-.83,3.15.81-9.44-3.28-20.63-7.07-22.59-4.69-2.42-.09,7.08,3.53,15.37a24.83,24.83,0,0,1,2.35,11.64c-.74,2.73-1.59,5.79-2.47,8.89-.18.43-.34.85-.5,1.27a25.91,25.91,0,0,0,.49-6.14c-.34-5.42-6.49-16.28-10.56-14.74s2.83,7.25,6.52,13.91a20.08,20.08,0,0,1,2.13,12c0,.24-.08.48-.11.72-.43,1.41-.85,2.78-1.25,4.07-1,3-1.85,5.88-2.7,8.66a43.32,43.32,0,0,0,1.36-12.35c-.51-8-5.16-15.45-9-16.47s3.49,11.93,5.95,19.21a26.12,26.12,0,0,1,.66,13.14c-1.19,3.94-2.31,7.82-3.46,11.94a99.49,99.49,0,0,0-.35-16.15c-.75-8.84-6-14.49-9.62-14.25s.16,5.25,5.38,16a35.89,35.89,0,0,1,3.56,18.17c-.47,1.74-1,3.52-1.44,5.38-.56,2.12-1,4.42-1.4,6.79-.52-2.11-1.3-5.19-2.21-8.59a76.25,76.25,0,0,1-2.3-11.48c-.49-4.5-1.68-10.13-6.1-12.47a2.5,2.5,0,0,0-3.71,1A4.91,4.91,0,0,0,68,224a33.58,33.58,0,0,0,3,8.82,10.27,10.27,0,0,0-1.14,5.41c0,.71.06,1.41.11,2.1-.39-.71-.76-1.37-1.11-2a13.21,13.21,0,0,0-2.32-2.86,38.56,38.56,0,0,0,.34-5c0-2.2-2.57-7.78-4.89-3.64-.93,1.66-.75,4.91-.84,7.07-.64.59-.82,1.81-.29,3.74a47.53,47.53,0,0,0,.78,15c-.27-.46-.53-.93-.8-1.4a110.31,110.31,0,0,1-2-17.54c-.29-9.72,1.26-17.71-1.39-20.7s-4.13,7.55-3,19a47.44,47.44,0,0,0,4.14,15.17c-2.6-4.67-5.17-9.43-7.6-14-1-2.46-3.49-9.08-2.87-15.8.77-8.48,1.33-15.41-1.89-20.18s-3.89-1.68-2.31,8.27c1.08,6.82,2.23,15.94,4.21,22.27-1.89-3.63-3.65-7.08-5.23-10.21-.9-3.11-3-11.12-3-17.78,0-8.45-.9-13-3.41-11.17-1.73,1.3-.61,11.73,2.19,20.52-1.31-2.67-2.3-4.72-2.87-5.93-.26-.55-.55-1.14-.88-1.76a167.61,167.61,0,0,0-4-20.65C27.69,168.75,22,160,22.22,165.84c.16,5.42,9.42,24.46,12.3,34.8-.81-1.48-1.76-3.08-2.72-4.63-.67-1.74-1.2-3.65-1.91-5.18-1.09-2.34-2.27-4.65-3.57-6.88a51.21,51.21,0,0,0-7.17-9.76,24.26,24.26,0,0,0-11.89-7.28c-1.18-.28-8.35-2-7.12,1.2a3.33,3.33,0,0,0,1,1.24c4,3.4,8.64,5.61,13,8.52,6.46,4.35,14.3,14.46,17.55,18.85.42.77.94,1.75,1.54,2.87-5.85-7.46-16.48-12.85-20.58-11.69-5.08,1.44,4.76,5.24,13.07,8.83a24.79,24.79,0,0,1,9.66,6.91c1.32,2.49,2.79,5.31,4.26,8.18.16.43.33.85.5,1.27a26,26,0,0,0-3.83-4.83c-4-3.73-15.85-7.47-17.78-3.57s7,3.38,14.26,5.72a20.17,20.17,0,0,1,9.71,7.28c.13.21.27.41.41.61.66,1.32,1.28,2.61,1.87,3.83,1.36,2.86,2.66,5.56,3.93,8.17a42.93,42.93,0,0,0-7.43-10c-5.8-5.46-14.32-7.77-17.85-5.87s10.69,6.34,17.46,10a26.11,26.11,0,0,1,9.45,9.16C52.15,237.3,54,240.9,56,244.7a99.53,99.53,0,0,0-11.27-11.57c-6.59-5.95-14.29-6.49-16.77-3.85s3.7,3.73,14.84,8a36,36,0,0,1,15,10.86c.84,1.59,1.7,3.22,2.62,4.91,1,1.93,2.27,3.93,3.6,5.92-1.81-1.18-4.49-2.9-7.47-4.77A76.32,76.32,0,0,1,47,247.38c-3.43-3-8.14-6.26-13-5a2.51,2.51,0,0,0-2,3.27,4.93,4.93,0,0,0,1.9,2.41c4.56,3.54,10.69,5.24,16,7.33a120.65,120.65,0,0,0,14.94,4.76c1.25,1.81,2.57,3.6,3.89,5.3l-2.39.07c-2.81.09-15.53-5.68-22-7.54s-12.5,1.66-5.73,5.3,25.18,2.83,25.18,2.83l5.31-.16c1.25,1.6,2.47,3.12,3.63,4.5H47.49v7h5l4.05,24.89H90.05l4-24.89h5v-7H82.36a62.31,62.31,0,0,1,.24-9.06,21.26,21.26,0,0,1,3.69-3c7.34-5.07,19.78-5.49,23.09-15.25.8-2.36-.11-5.37-2.92-5.24-2,.09-4.17,1.86-5.43,3.32-4.2,4.85-7.36,9.88-12.82,13.55-.25.17-3.69,2.91-5.4,4.61.19-1.59.43-3.29.73-5.11a50.65,50.65,0,0,1,4.51-6.67c4.47-5.55,11.26-8.8,16.1-14.09,1.48-1.62,3.43-7.44-1.09-6-2,.64-4.38,3.68-6,5.08-4.45,4-9,8.26-11.9,13.52.12-.52.25-1,.37-1.56a110.66,110.66,0,0,1,10.51-14.19c6.42-7.31,13-12.08,13.11-16.08S101,217,94,226.2a47.92,47.92,0,0,0-7.32,13.91c1.29-5.19,2.66-10.42,4-15.44.91-2.5,3.65-9,8.68-13.51,6.35-5.67,11.49-10.35,12.39-16S110.07,191.24,104.44,199.59ZM68.92,263.91c-.94-1.29-1.93-2.7-3-4.24a51.18,51.18,0,0,1-1.26-8,33.64,33.64,0,0,1,.32-6.87,80.69,80.69,0,0,0,5.43,6.07,31,31,0,0,1-.73,5.94C69.66,257.15,69,261.5,68.92,263.91Zm5.45,6.58c-1.29-1.37-2.7-3-4.23-5a21,21,0,0,1,.65-4.69,33.44,33.44,0,0,1,2.62-7c2.37,2.24,4.11,3.74,4.11,3.74l4,3.51c-.31,3.49-.5,6.76-.6,9.42Zm7.2-10.05-1.79-1.58c-1-.9-2.8-4.38-4.76-8.38a49.81,49.81,0,0,0,2.22-5.2c2.11,3.93,4,7,5.11,8.63C82,256.09,81.78,258.3,81.57,260.44Z"/><path class="cls-4" d="M104.44,199.59c-3.86,5.73-9.24,13.18-12.11,19.15,1.09-3.94,2.15-7.66,3.13-11,1.47-2.88,5.41-10.18,10-15,5.77-6.17,8.23-10.14,5.13-10.49-2.15-.23-8.45,8.16-12.4,16.49.86-2.85,1.54-5,2-6.3.18-.57.37-1.21.55-1.88a165.38,165.38,0,0,0,11.14-17.86c5.83-10.89,7.71-21.17,3.82-16.75-3.58,4.07-9.81,24.3-14.76,33.83.42-1.64.81-3.45,1.17-5.24.7-1.74,1.62-3.49,2.14-5.09.81-2.46,1.52-4.95,2.09-7.47a51.84,51.84,0,0,0,1.42-12,24.29,24.29,0,0,0-3.72-13.44c-.67-1-4.77-7.13-6-4a3.33,3.33,0,0,0-.09,1.6c.6,5.22,2.49,10,3.66,15.07,1.75,7.6.58,20.34,0,25.76-.22.85-.5,1.92-.83,3.15.81-9.44-3.28-20.63-7.07-22.59-4.69-2.42-.09,7.08,3.53,15.37a24.83,24.83,0,0,1,2.35,11.64c-.74,2.73-1.59,5.79-2.47,8.89-.18.43-.34.85-.5,1.27a25.91,25.91,0,0,0,.49-6.14c-.34-5.42-6.49-16.28-10.56-14.74s2.83,7.25,6.52,13.91a20.08,20.08,0,0,1,2.13,12c0,.24-.08.48-.11.72-.43,1.41-.85,2.78-1.25,4.07-1,3-1.85,5.88-2.7,8.66a43.32,43.32,0,0,0,1.36-12.35c-.51-8-5.16-15.45-9-16.47s3.49,11.93,5.95,19.21a26.12,26.12,0,0,1,.66,13.14c-1.19,3.94-2.31,7.82-3.46,11.94a99.49,99.49,0,0,0-.35-16.15c-.75-8.84-6-14.49-9.62-14.25s.16,5.25,5.38,16a35.89,35.89,0,0,1,3.56,18.17c-.47,1.74-1,3.52-1.44,5.38-.56,2.12-1,4.42-1.4,6.79-.52-2.11-1.3-5.19-2.21-8.59a76.25,76.25,0,0,1-2.3-11.48c-.49-4.5-1.68-10.13-6.1-12.47a2.5,2.5,0,0,0-3.71,1A4.91,4.91,0,0,0,68,224a33.58,33.58,0,0,0,3,8.82,10.27,10.27,0,0,0-1.14,5.41c0,.71.06,1.41.11,2.1-.39-.71-.76-1.37-1.11-2a13.21,13.21,0,0,0-2.32-2.86,38.56,38.56,0,0,0,.34-5c0-2.2-2.57-7.78-4.89-3.64-.93,1.66-.75,4.91-.84,7.07-.64.59-.82,1.81-.29,3.74a47.53,47.53,0,0,0,.78,15c-.27-.46-.53-.93-.8-1.4a110.31,110.31,0,0,1-2-17.54c-.29-9.72,1.26-17.71-1.39-20.7s-4.13,7.55-3,19a47.44,47.44,0,0,0,4.14,15.17c-2.6-4.67-5.17-9.43-7.6-14-1-2.46-3.49-9.08-2.87-15.8.77-8.48,1.33-15.41-1.89-20.18s-3.89-1.68-2.31,8.27c1.08,6.82,2.23,15.94,4.21,22.27-1.89-3.63-3.65-7.08-5.23-10.21-.9-3.11-3-11.12-3-17.78,0-8.45-.9-13-3.41-11.17-1.73,1.3-.61,11.73,2.19,20.52-1.31-2.67-2.3-4.72-2.87-5.93-.26-.55-.55-1.14-.88-1.76a167.61,167.61,0,0,0-4-20.65C27.69,168.75,22,160,22.22,165.84c.16,5.42,9.42,24.46,12.3,34.8-.81-1.48-1.76-3.08-2.72-4.63-.67-1.74-1.2-3.65-1.91-5.18-1.09-2.34-2.27-4.65-3.57-6.88a51.21,51.21,0,0,0-7.17-9.76,24.26,24.26,0,0,0-11.89-7.28c-1.18-.28-8.35-2-7.12,1.2a3.33,3.33,0,0,0,1,1.24c4,3.4,8.64,5.61,13,8.52,6.46,4.35,14.3,14.46,17.55,18.85.42.77.94,1.75,1.54,2.87-5.85-7.46-16.48-12.85-20.58-11.69-5.08,1.44,4.76,5.24,13.07,8.83a24.79,24.79,0,0,1,9.66,6.91c1.32,2.49,2.79,5.31,4.26,8.18.16.43.33.85.5,1.27a26,26,0,0,0-3.83-4.83c-4-3.73-15.85-7.47-17.78-3.57s7,3.38,14.26,5.72a20.17,20.17,0,0,1,9.71,7.28c.13.21.27.41.41.61.66,1.32,1.28,2.61,1.87,3.83,1.36,2.86,2.66,5.56,3.93,8.17a42.93,42.93,0,0,0-7.43-10c-5.8-5.46-14.32-7.77-17.85-5.87s10.69,6.34,17.46,10a26.11,26.11,0,0,1,9.45,9.16C52.15,237.3,54,240.9,56,244.7a99.53,99.53,0,0,0-11.27-11.57c-6.59-5.95-14.29-6.49-16.77-3.85s3.7,3.73,14.84,8a36,36,0,0,1,15,10.86c.84,1.59,1.7,3.22,2.62,4.91,1,1.93,2.27,3.93,3.6,5.92-1.81-1.18-4.49-2.9-7.47-4.77A76.32,76.32,0,0,1,47,247.38c-3.43-3-8.14-6.26-13-5a2.51,2.51,0,0,0-2,3.27,4.93,4.93,0,0,0,1.9,2.41c4.56,3.54,10.69,5.24,16,7.33a120.65,120.65,0,0,0,14.94,4.76c1.25,1.81,2.57,3.6,3.89,5.3l-2.39.07c-2.81.09-15.53-5.68-22-7.54s-12.5,1.66-5.73,5.3,25.18,2.83,25.18,2.83l5.31-.16c1.25,1.6,2.47,3.12,3.63,4.5H47.49v7h5l4.05,24.89H90.05l4-24.89h5v-7H82.36a62.31,62.31,0,0,1,.24-9.06,21.26,21.26,0,0,1,3.69-3c7.34-5.07,19.78-5.49,23.09-15.25.8-2.36-.11-5.37-2.92-5.24-2,.09-4.17,1.86-5.43,3.32-4.2,4.85-7.36,9.88-12.82,13.55-.25.17-3.69,2.91-5.4,4.61.19-1.59.43-3.29.73-5.11a50.65,50.65,0,0,1,4.51-6.67c4.47-5.55,11.26-8.8,16.1-14.09,1.48-1.62,3.43-7.44-1.09-6-2,.64-4.38,3.68-6,5.08-4.45,4-9,8.26-11.9,13.52.12-.52.25-1,.37-1.56a110.66,110.66,0,0,1,10.51-14.19c6.42-7.31,13-12.08,13.11-16.08S101,217,94,226.2a47.92,47.92,0,0,0-7.32,13.91c1.29-5.19,2.66-10.42,4-15.44.91-2.5,3.65-9,8.68-13.51,6.35-5.67,11.49-10.35,12.39-16S110.07,191.24,104.44,199.59ZM68.92,263.91c-.94-1.29-1.93-2.7-3-4.24a51.18,51.18,0,0,1-1.26-8,33.64,33.64,0,0,1,.32-6.87,80.69,80.69,0,0,0,5.43,6.07,31,31,0,0,1-.73,5.94C69.66,257.15,69,261.5,68.92,263.91Zm5.45,6.58c-1.29-1.37-2.7-3-4.23-5a21,21,0,0,1,.65-4.69,33.44,33.44,0,0,1,2.62-7c2.37,2.24,4.11,3.74,4.11,3.74l4,3.51c-.31,3.49-.5,6.76-.6,9.42Zm7.2-10.05-1.79-1.58c-1-.9-2.8-4.38-4.76-8.38a49.81,49.81,0,0,0,2.22-5.2c2.11,3.93,4,7,5.11,8.63C82,256.09,81.78,258.3,81.57,260.44Z"/></g><g id="Characters"><ellipse class="cls-1" cx="110.06" cy="318.57" rx="41.98" ry="9.09"/><ellipse class="cls-4" cx="110.06" cy="318.57" rx="41.98" ry="9.09"/><ellipse class="cls-1" cx="262.39" cy="318.57" rx="41.98" ry="9.09"/><ellipse class="cls-4" cx="262.39" cy="318.57" rx="41.98" ry="9.09"/><path class="cls-5" d="M191.93,152.61a13.89,13.89,0,0,1,4.24,4.12c1.26,2.29,6.53,3.78,6.53,3.78h2l.81,9.17a47.28,47.28,0,0,0-6,.58,20,20,0,0,1-3.56.46s-6.19-7.8-7.22-9.29-1.15-4.58-.69-5.16S191.93,152.61,191.93,152.61Z"/><path class="cls-5" d="M183.68,168.19s-3.44,1.15-2,2.07a4,4,0,0,0,4.58-.92C186.89,168.42,185.05,167.74,183.68,168.19Z"/><path class="cls-5" d="M179.9,157.65s10.2-3.67,10.66-3.32,1.26,3.43,1.26,3.43,7.1,4.24,7.68,5.85a20.89,20.89,0,0,1,0,7.56c-.35.58-2.3,1.27-3,1.49a4.53,4.53,0,0,1-2.18,0c-.35-.11-5.85-4-5.85-4s-5.61.58-6.88.58-2.52-.12-2.52-.12Z"/><path class="cls-6" d="M192.62,162s3.78,2.07,4.58,3.21,1.61,6.08,1.61,6.08"/><path class="cls-6" d="M191,164.07s4.47,2.41,4.93,3.55a35.47,35.47,0,0,1,1,4.47"/><path class="cls-5" d="M193.31,154.78s-4.93,5.51-6.08,6.08-1.37-.12-1.95-.57,3.67-6.65,3.56-7.11a3.35,3.35,0,0,1,4.12.11"/><path class="cls-5" d="M186.08,166.93l-.17.62a12.36,12.36,0,0,0-.63,3.4c.23.45,1.61.91,2.07.22s1.37-4.12,1.14-4.58S187.35,164.18,186.08,166.93Z"/><path class="cls-5" d="M190.44,166.48c-.36.44-1.95,5.38-1.6,6s2.06.8,2.52.11,2.06-5,1.6-6S192.05,164.53,190.44,166.48Z"/><path class="cls-5" d="M193.31,167.51s-.07.14-.17.39c-.5,1.2-1.93,4.79-1.55,5.45s2.63,1,3.09-.11,2.06-5.39,1-6.42A1.35,1.35,0,0,0,193.31,167.51Z"/><path class="cls-5" d="M114.42,71.11s.6,3.7-.09,5.16-1.72,4.55-1.72,4.55l15.22,13.5s4.64-5.84,5.5-7,2-2.67,2-2.67-7.48-4.73-9-8.16-.77-7.83-4-8.51S115.36,69.05,114.42,71.11Z"/><path class="cls-7" d="M143.39,48.33s6.36-.09,5.07-6.19-16.16-7.39-18.91-4.56-2.32,4-2.32,4-12.81-.34-16.08,6.62-1.8,16,.34,20.72,5.76,5.24,7.66,4.64,3.26-1.72,3.26-3.44,1.21-5.84,2.67-4.81,3,1.38,5.59-1.12,6.27-5.58,4.9-8.08-3.7-2.58-2.41-3.69,8.6-2,9.28-2.76A5.72,5.72,0,0,0,143.39,48.33Z"/><path class="cls-8" d="M143.1,44.68s.9,1.8-7.66,4-23,2.7-23.43,8.11"/><path class="cls-8" d="M126.43,55s-10.36,3.15-12.62,6.76.9,6.76.9,6.76"/><path class="cls-5" d="M143.39,48.33s2.41,8.17,2.41,9.8-1.72,3.27-1,5.07,3.35,5.33,3.35,6.45-3.78,2.23-3.78,2.23-3.18,12-3.87,13.5-3,1.72-5.76,1-10.06-4.55-12-7.56-.52-8.08-.52-8.08-4-1.81-4.81-5.59,2.15-6.28,4.72-5.42a5.48,5.48,0,0,1,3.36,2.84s.26.95,1,.69,1.46-1.81,2.15-1.89,5.59-1.81,5-3.7-6.7-2-6.27-4.13S143.39,48.33,143.39,48.33Z"/><line class="cls-5" x1="135.74" y1="70.16" x2="133.24" y2="71.88"/><path class="cls-5" d="M134.79,71.28s.78,2.07,4,2.75"/><path d="M134.88,71.88s-1.46,4,.34,4.9S137.8,74,137.8,74Z"/><path class="cls-5" d="M144.59,63.85c-.1,2.09-.63,3.76-1.18,3.73s-.9-1.74-.79-3.83.63-3.75,1.17-3.72S144.7,61.77,144.59,63.85Z"/><line class="cls-5" x1="142.61" y1="61.74" x2="125.08" y2="61.74"/><path class="cls-5" d="M141.41,59.42a3.1,3.1,0,0,1,1.89-2.06c1.46-.43,1.72.34,1.72.34"/><path class="cls-5" d="M81.78,205.1l53.3-1.6s3.32,36.91,2.52,37.71-53.64,3-53.64,3-4.1.3-4.67-1.54S81.78,205.1,81.78,205.1Z"/><path class="cls-5" d="M81.78,205.1s-5,36.57-4.13,37.6,4.95,1.79,6.31,1.49C85.16,243.92,81.78,205.1,81.78,205.1Z"/><path class="cls-1" d="M97.48,305.28c-2.94,1.79-4.35,4.82-3.67,7.22s.92,2.64,2.76,3,10.08-.91,19-2.4,10.2-1.84,11-3.1,2.17-2.52-6.65-4-9.63-3.1-9.63-3.1S102.18,302.42,97.48,305.28Z"/><path class="cls-7" d="M126.33,307.66c-.6,1.23-2.48,3.44-8.39,4.15-6.25.75-17.57,1.88-23.54,2.39.42.85.92,1.05,2.17,1.28,1.83.35,10.08-.91,19-2.4s10.2-1.84,11-3.1C127.08,309.22,127.76,308.47,126.33,307.66Z"/><path class="cls-1" d="M113.3,308.38s9.17,4.35,14.21,5.38,6.31,1.15,5.73,2.75-.68,2.07-8.36,3.9-16-.23-19.72-.92-4.81.35-6.42-.34S97.6,315,97.6,315Z"/><path class="cls-7" d="M124.88,320.41c6.45-1.54,7.56-2.11,8.09-3.21-7,3-16.29,1.76-23.37.95-4.55-.53-8.9-1-12-1.25.09.92.38,1.92,1.16,2.25,1.61.69,2.75-.34,6.42.34S117.2,322.25,124.88,320.41Z"/><path class="cls-7" d="M103,224.13s-1.6,13.07-4.81,18.68-7.56,9.52-8.25,17.65,1.6,41.38,1.83,44.25-1,3.78.23,5.61a31.9,31.9,0,0,0,2.52,3.21l3.78-3.32s2.76-8.83,2.07-25.67-.58-28.2,2.41-39.43,3.55-14.22,2.17-18.57S103,224.13,103,224.13Z"/><path class="cls-7" d="M95.76,197.05s3.79,7.14,4.65,9,2.83,23.55,1.28,30.77-7.53,19.49-7,30.26,1,39.32,1,39.66a13.23,13.23,0,0,0,0,5.16c.58,3.09,2.3,4,2.3,4a56.9,56.9,0,0,1,9-3.32c5.62-1.61,7.22-3.9,7.22-3.9a43.86,43.86,0,0,0-1.72-4.36c-.8-1.6-2.18-4.12-2-4.92s1.72-27.17,4.7-35.88,4.7-17.88,7.22-25.9,8.49-29.58,8.49-35.08v-6.76l-35.77-.69Z"/><path class="cls-8" d="M98.71,248.41c-1,3.07-2.1,6.51-2.94,9.24-2,6.5,0,43,0,43a68.7,68.7,0,0,1,.19,8c-.2,3.31,0,4.62.82,5.51"/><path class="cls-8" d="M101.27,240.65s-.74,2.22-1.73,5.24"/><path class="cls-5" d="M111.49,77.73s4.05,1.37,10,6.62,12.12,10.23,10.83,12-3.7,8-3.7,8-2.23-3.7-8.85-9-11.69-10.06-11.69-10.06S110.81,78.85,111.49,77.73Z"/><path class="cls-1" d="M106.17,86.15s-12.81,9.12-15,17.89-3.1,13.06-2.93,29.83S89.49,161.2,89.49,162s-3.44,31.89-3.44,32.23,6,5.85,22.78,6.19a202.26,202.26,0,0,0,34-2.66l-7.31-60.35s-2.84-25.7-5.76-30.52S106.17,86.15,106.17,86.15Z"/><path class="cls-6" d="M113.56,169.8s10.66,2.15,18-.52"/><path class="cls-6" d="M113.56,173s10.66,2.15,18-.51"/><polygon class="cls-5" points="178.06 155.93 180.7 157.19 179.09 169.11 176.46 168.65 178.06 155.93"/><path class="cls-1" d="M117.54,101.83a8.72,8.72,0,0,0-3.9,2.52c-1.72,2-11,13.53-10.31,18.57s12.72,23.5,16.73,29.23A41.73,41.73,0,0,0,140.35,168c10.09,3.66,36.34,1.83,36.34,1.83l1.37-14.21S163.73,151,153.88,148a122.12,122.12,0,0,1-16-6s-2.29-5.62-3.9-6.53S132.1,134,132.1,134s-3.1-16.85-4.7-22.35-3.78-6.88-3.78-6.88"/><path class="cls-1" d="M251.54,302.62a98.32,98.32,0,0,1-12.73,6.19c-5.84,2.18-7.22,3-6.07,4.24s11.12,2.18,16.73,1,7.8-1.95,10.32-1.84,6,.8,7.22-.91,1.72-2.07.8-4.93S251.54,302.62,251.54,302.62Z"/><path class="cls-7" d="M249.47,314.09c5.62-1.15,7.8-1.95,10.32-1.84s6,.8,7.22-.91c.9-1.24,1.39-1.77,1.26-3-4.08-.33-11.95,1-21.33,3a39,39,0,0,1-14.52.74.94.94,0,0,0,.32,1C233.88,314.32,243.86,315.23,249.47,314.09Z"/><path class="cls-1" d="M273.2,310.19a79.31,79.31,0,0,1-7.34,7c-3.78,3.1-10.31,7.34-9.62,9.17s5.38,3.55,15.24,1a57.44,57.44,0,0,0,17.65-8.25,4.37,4.37,0,0,0,2.75-1.72c.81-1.37-.11-3.55-.11-3.55Z"/><path class="cls-7" d="M271.48,327.38a57.44,57.44,0,0,0,17.65-8.25,3.36,3.36,0,0,0,2.73-5c-14.26,10.79-27.6,13-34.67,13.32C259.09,328.71,263.66,329.38,271.48,327.38Z"/><path class="cls-7" d="M256.12,176.66s-6.07.8-10.43-.81-8.48-2.86-8.48-2.86-2.41,31.29.23,43.9,9.63,28,9.74,31.52A75.26,75.26,0,0,0,248.67,261c.8,3.21,4.7,28,4.93,30.72a18.51,18.51,0,0,1,0,4.12s-2.75.92-2.75,1.72v5.85a38.37,38.37,0,0,0,7.1,2.86c4.25,1.26,10.21,2.29,10.21,2.29a62.74,62.74,0,0,0,1.14-7c0-1.6-1-5.84-1-8.14s.57-29.8.57-29.8,5.62,23.5,5.62,31.29-.11,10.32-.11,10.32-2.53-.8-2.53.92-.11,5.84-.11,5.84,8.94,2.3,13.18,3.56a17,17,0,0,0,7.8.46s2.29-8.72,2.06-11.58-3.1-5.27-3.1-6.88,1.49-17.42-.68-31.18-7.91-20-8.14-26.82,1-31.06,1.14-35,4.13-12.15,4.7-15.81.12-14.56.12-14.56S263.11,177.92,256.12,176.66Z"/><line class="cls-8" x1="245.12" y1="192.36" x2="251.31" y2="196.37"/><path class="cls-8" d="M267.45,260.14c.87,2.22,1.39,3.51,1.39,3.51"/><path class="cls-8" d="M249.24,195.34s4.13,24.18,9.06,39.31c2.53,7.77,5.24,15.2,7.28,20.59"/><path class="cls-7" d="M202.7,158.91c.12.34.69,12.84.69,12.84l32.9-3-.69-16.17Z"/><path class="cls-5" d="M267.24,93.44s-7.45,2.64-8.94,4.47S248,130.81,245.12,140s-3.79,36.9-3.79,36.9a31.87,31.87,0,0,0,4.93,1.38,25.38,25.38,0,0,0,5.05.34s9.63-32.43,14.32-43.55,12.61-27.05,15.59-33.24,5.62-7.34,5.28-10.32-1.72-4.12-3.44-4.35S267.24,93.44,267.24,93.44Z"/><path class="cls-1" d="M268.17,92.53s-7.45,2.63-8.94,4.47-10.32,32.89-13.18,42.06S242.27,176,242.27,176a31.55,31.55,0,0,0,4.92,1.38,25.38,25.38,0,0,0,5.05.34s9.63-32.44,14.33-43.55,12.6-27.06,15.58-33.24,5.62-7.34,5.28-10.32-1.72-4.13-3.44-4.36S268.17,92.53,268.17,92.53Z"/><path class="cls-7" d="M278.24,96.31A194.56,194.56,0,0,0,266,121.18c-4.7,12.15-8.48,23-13.3,39.2a82.23,82.23,0,0,0-2.86,30.83s2.29,3.9,15.81,4.36,30.49-3.9,30.49-3.9-2.29-13.75-2.52-21.89,6.31-36.68,9.06-44.13,8.71-14.9,3-22.12-19.37-15.36-19.37-15.36S279.73,93.78,278.24,96.31Z"/><path class="cls-7" d="M262.77,96.19s-3.55,4.47-6.76,14-9.17,34.85-11.92,45.62S240,190.52,240,190.52s-1.49-.11-4.59-.11a13.84,13.84,0,0,1-5.84-1.49s2.18-23.5,4.13-34.5,7.67-30.61,8.71-38.28,1.37-9.63,2.75-10.66,12.15-7.57,14.33-9.06S262.77,96.19,262.77,96.19Z"/><path class="cls-8" d="M289.82,90.69s-6.53,13-8.25,15.36a31.86,31.86,0,0,0-2.64,4.35l-5.73,2.18,2.29,3.67S263.92,137,260.94,143.87s-6,14.33-6,14.33"/><path class="cls-8" d="M242.73,149c-.21,2.3-.25,3.2-.25,3.2"/><path class="cls-8" d="M256.92,100.2l-6.42,9.86,1.49,2.29-3.55,4.36s-3.78,15.7-4.81,24.18c-.2,1.66-.37,3.09-.51,4.34"/><polygon class="cls-5" points="258.18 95.96 256.92 102.04 263.46 97.68 258.18 95.96"/><path class="cls-5" d="M263.69,91.15c-.12.34-5.51,4.81-5.51,4.81l6.08,2.52,1.26-4.93Z"/><path class="cls-5" d="M261.51,45.41a15.11,15.11,0,0,0-5.85,6.77c-2.06,4.7-3.67,6.64-3.21,8.13a15.52,15.52,0,0,1,.69,3.1c0,.34-4.81,4.93-4.93,6.3s3.1,3.9,3.1,3.9.34,7.91.34,8.6.23,4.24,3.55,5.16a14.41,14.41,0,0,0,6.88-.12l2.18,11.23s15.24-9.4,16.85-10.2,3.55-1.83,3.67-3.09-.92-8.26-.92-8.26,8.14-7.45,8-16.16-4.81-14.21-13.29-16.85S261.51,45.41,261.51,45.41Z"/><path class="cls-7" d="M291.88,60.77c-.11-8.71-4.81-14.21-13.29-16.85s-17.08,1.49-17.08,1.49a12.41,12.41,0,0,0-1.89,1.39c2.81-.5,7.42-.85,10.71,1.25,5.05,3.21,1.84,6.42.12,8.14s-2.06,2.41-.8,4,3.66,1.6,3.09,3.09-2.29,3.56-.92,4.13,2.64-.69,3.21-2.41,3.44-1.72,4.59,1.84a6.81,6.81,0,0,1-2.41,7.45,4.76,4.76,0,0,1-3.21.92,29.17,29.17,0,0,0,6.19,2.29,11.6,11.6,0,0,0,3.71-.29c0-.18,0-.29,0-.29S292,69.48,291.88,60.77Z"/><path d="M258.53,65.24c0,.89-.28,1.61-.63,1.61s-.63-.72-.63-1.61.28-1.6.63-1.6S258.53,64.36,258.53,65.24Z"/><path class="cls-5" d="M255.55,60.43s.46-1.61,3-1.49,2.63,2,2.63,2"/><path class="cls-5" d="M251.31,73.61a4.62,4.62,0,0,0,4.24-.57c1.83-1.49.34-2.75.34-2.75"/><path class="cls-7" d="M251.77,75.44s6.07-3,8.82-3.09,5.62,4.58,4.47,8.6-2.41,6-6.3,7.56-7.57,1.26-8.26-1.37,2.41-6.42,3.9-7.11,2.64-.8,2.41.46-.92,2.18,1.95,1.6,4.47-1.37,4.58-4.47-1-4.24-4-3.78-7.45,2.87-7.45,2.87Z"/><path class="cls-5" d="M254.17,77.85s4.82-.23,6.54-2.18"/><path class="cls-5" d="M273.54,75.1A6.3,6.3,0,0,1,271.25,80"/><path class="cls-5" d="M264.26,98.48l3.32,7.68s12.61-9.4,15.71-13.06,5.5-5.51,3.78-8-4.24-.46-4.7-.23S264.26,98.48,264.26,98.48Z"/><path class="cls-5" d="M239,166.22a121.94,121.94,0,0,1-3.44-14.15c-.68-4.39-1-8.86-1-8.86a49.46,49.46,0,0,1-15.93-4.27c-7.57-3.66-9.17-5-9.17-5s10.2,33.24,12.26,40.23,2.53,8.49,2.53,8.49a42.92,42.92,0,0,0,10.31,3.55,54.24,54.24,0,0,0,8.6.92Z"/><path class="cls-5" d="M250.5,166.22a28,28,0,0,1-7-2.29,17.39,17.39,0,0,0-5.38-2h-.46l1.37,4.24a24.66,24.66,0,0,1-5.16.58c-2.75,0-8.48-.92-8.71-.58a7.87,7.87,0,0,0-.23,2.53c0,.8,4.13,5.73,6.54,7.45s4.58,2.86,6.76,2.86,13.87-1.6,13.87-1.6Z"/><path class="cls-7" d="M283.86,121.52s.57,12.84.92,22.12.91,10.09.91,10.09-25.67,9.63-29.57,10.43-6.88,1.72-6.88,1.72L251,178.37a71.94,71.94,0,0,0,25-2.29c12.49-3.67,31.75-7.33,32.09-9.05s0-6.88,0-8-.34-25.79-.34-36.79.8-13.53-.57-15.82-8.37-3.44-12.38-1.14"/><polyline class="cls-8" points="264.46 161.1 285.69 153.73 283.81 125.44"/><line class="cls-8" x1="258.51" y1="163.17" x2="261.58" y2="162.11"/><path class="cls-8" d="M291.18,111.18s8-10,15.95-4.79"/><path class="cls-6" d="M225.4,167.37s5.28,3.55,8.83,4.13"/><path class="cls-6" d="M226.32,170.81a17.6,17.6,0,0,0,5.27,3.21l2.41.69"/><path class="cls-6" d="M232.05,176.54a15.83,15.83,0,0,0,4.24.92"/><path class="cls-1" d="M134.74,133.62s-1.59-16.15-3.44-27.53c-1-6.29-4.81-11.65-8.79-16.45-3.29-4-8.26-7.65-11-11.91-.94-1.46-5.92,9.11-5.93,9.11-1,2.25,10.85,9.38,12.44,11,2.11,2.11,4,4.59,5.92,6.84.87,1,3.16,4.81,4.47,5.13l2.12.53-1.59,4.77Z"/></g></g></svg>