<svg xmlns="http://www.w3.org/2000/svg" viewBox="0 0 483.4 480.86"><defs><style>.cls-1{fill:#62aab3;}.cls-10,.cls-14,.cls-2{fill:#fff;}.cls-2{opacity:0.7;}.cls-12,.cls-18,.cls-19,.cls-3,.cls-4{fill:none;}.cls-10,.cls-11,.cls-12,.cls-13,.cls-14,.cls-3,.cls-4,.cls-5,.cls-7,.cls-8,.cls-9{stroke:#263238;}.cls-10,.cls-11,.cls-13,.cls-18,.cls-19,.cls-3,.cls-8,.cls-9{stroke-miterlimit:10;}.cls-12,.cls-14,.cls-4,.cls-5,.cls-7{stroke-linecap:round;stroke-linejoin:round;}.cls-5,.cls-6,.cls-9{fill:#263238;}.cls-7{fill:#b0b0b0;}.cls-8{fill:#c7c7c7;}.cls-11{fill:#adadad;}.cls-12{stroke-width:4px;}.cls-13{fill:#7a7a7a;}.cls-15,.cls-17{opacity:0.25;}.cls-16{opacity:0.33;}.cls-18{stroke:#636363;}.cls-19{stroke:#737373;}</style></defs><g id="Background_Simple" data-name="Background Simple"><path class="cls-1" d="M418.13,102.71S327.86,8.54,255.36,10.05-2.17,198.86,6.89,275.89,156.42,458.66,227.42,481.32,460.78,362.74,485.7,263.81,418.13,102.71,418.13,102.71Z" transform="translate(-6.57 -6.86)"/><path class="cls-2" d="M418.13,102.71S327.86,8.54,255.36,10.05-2.17,198.86,6.89,275.89,156.42,458.66,227.42,481.32,460.78,362.74,485.7,263.81,418.13,102.71,418.13,102.71Z" transform="translate(-6.57 -6.86)"/></g><g id="Floor_4" data-name="Floor 4"><line class="cls-3" x1="465.67" y1="462.52" x2="268.53" y2="462.52"/></g><g id="Floor_3" data-name="Floor 3"><line class="cls-3" x1="465.67" y1="205.56" x2="268.53" y2="205.56"/></g><g id="Floor_2" data-name="Floor 2"><line class="cls-3" x1="221.93" y1="205.56" x2="24.79" y2="205.56"/></g><g id="Floor_1" data-name="Floor 1"><line class="cls-3" x1="221.93" y1="462.52" x2="24.79" y2="462.52"/></g><g id="Picture_3" data-name="Picture 3"><rect class="cls-3" x="411" y="260.23" width="40.01" height="55.93"/><rect class="cls-3" x="419.69" y="272.38" width="22.63" height="31.64"/></g><g id="Plant_2" data-name="Plant 2"><path class="cls-1" d="M452.55,426.12s-2.62.27-7.74-2.51-6.51-5.23-8.54-8.05a32.14,32.14,0,0,0-5.55-5.55s9.24-.48,12.7.26,8.92,4.59,9.88,8.43A12.2,12.2,0,0,1,452.55,426.12Z" transform="translate(-6.57 -6.86)"/><path class="cls-4" d="M446.92,420.22c-1.25-1.25-2.49-2.45-3.49-3.3a44.67,44.67,0,0,0-7.93-5.09" transform="translate(-6.57 -6.86)"/><path class="cls-4" d="M452.55,426.12s-2.11-2.3-4.5-4.75" transform="translate(-6.57 -6.86)"/><polygon class="cls-4" points="447.48 420.33 445.29 418.3 447.64 421.93 447.48 420.33"/><path class="cls-1" d="M457.19,433.11a14.36,14.36,0,0,0,3-1.6c1.55-1.07,1.18-2.77,4.06-3.47s7.52-2.72,8.91-4.64,1.17-3-3.31-3.63-10.14.48-11.85,2.46-2.61,6.88-2.18,8.48S456.66,433,457.19,433.11Z" transform="translate(-6.57 -6.86)"/><path class="cls-4" d="M460.42,427.69a21.84,21.84,0,0,1,4.51-4.18,23.14,23.14,0,0,1,6-3" transform="translate(-6.57 -6.86)"/><path class="cls-4" d="M458.63,430.07s.43-.66,1.17-1.61" transform="translate(-6.57 -6.86)"/><polygon class="cls-4" points="450.65 414.28 448.33 419.9 448.06 418.68 450.94 413.29 450.65 414.28"/><path class="cls-5" d="M451.8,437s-.85-3-2.19-4.16-5.71-1.34-7-.91a9.74,9.74,0,0,0-2.88,1.87A43,43,0,0,1,447,435.3C449.4,436.21,451.8,437,451.8,437Z" transform="translate(-6.57 -6.86)"/><path class="cls-1" d="M451.8,437s-5.55-3.15-9.6-4.11-6.73-1-8.43-.27a12.66,12.66,0,0,0-3.15,2s7.15-1.5,12.32-.22S451.8,437,451.8,437Z" transform="translate(-6.57 -6.86)"/><polygon class="cls-4" points="444.17 429.56 447.53 433.99 447.58 432.39 445.02 429.72 444.17 429.56"/><path class="cls-5" d="M450,416.78l3.36,5.71s.64,8.17.7,9.07-.22,13.18-.22,14.89-.48,5.92-.48,5.92h2s-.05-6.83-.05-10.77a25.64,25.64,0,0,1,.53-6.57c.21-.53,1.87-3.36,1.87-3.36l-2.67,2.88-.21-7.79-.64-9.76-.7-4.43-.74.32.53,7.63-2.51-3.79Z" transform="translate(-6.57 -6.86)"/><path class="cls-1" d="M454.16,414.77s2.56-1.6,2.85-3.21.18-1.91.36-3.1a31.22,31.22,0,0,0,.12-11.9c-1.19-5.54-4-8-4.76-8.28s-.78-.71-1.31-.35a8.37,8.37,0,0,0-4,4.94,35.53,35.53,0,0,0-1.07,8.09s3.87,9.53,4.16,10.3,2.92,4.7,2.92,4.7Z" transform="translate(-6.57 -6.86)"/><path class="cls-4" d="M450.91,397.34c.44,6.92,2.26,17.33,2.53,18.62" transform="translate(-6.57 -6.86)"/><path class="cls-4" d="M451.42,387.93s-.72.65-.6,7.32" transform="translate(-6.57 -6.86)"/><path class="cls-1" d="M451.7,418.06s1.91-2.36.64-6.54a15.85,15.85,0,0,0-9.37-9.46c-3.9-1.27-9.54,0-10.63.64s-2.73,1.91-2.73,1.91,2.82,2.09,6.27,4.45,8.37,5.73,11,7.37A10.1,10.1,0,0,0,451.7,418.06Z" transform="translate(-6.57 -6.86)"/><path class="cls-4" d="M448.8,415.74a19.17,19.17,0,0,1,2.9,2.32" transform="translate(-6.57 -6.86)"/><path class="cls-4" d="M429.61,404.61s4.27,2.18,11.18,6.09c2.54,1.43,4.67,2.77,6.35,3.9" transform="translate(-6.57 -6.86)"/><path class="cls-5" d="M479.27,401.68s-2.69-1.31-7.76.23-7.95,6.22-8.7,7.81-1,5.91-1,5.91Z" transform="translate(-6.57 -6.86)"/><path class="cls-1" d="M457.22,421.14a45,45,0,0,1,1.49-5.52c1-2.67,3.23-5.19,8.74-8.82a42.29,42.29,0,0,1,11.82-5.12s-2.92,2.21-11.26,9.14S457.22,421.14,457.22,421.14Z" transform="translate(-6.57 -6.86)"/><path class="cls-5" d="M447.37,427.08s-6.61-2.4-6.13-1.17,1.12,2.67,1.12,2.67Z" transform="translate(-6.57 -6.86)"/><path class="cls-1" d="M454.68,431.94s.06-1.28.54-1.6,3.57-.7,3.3-3-2.88-3.36-6.08-2.24-5.81,2-7.31,2.51-2.77,1-2.77,1a32.78,32.78,0,0,1,6.51.48A9.2,9.2,0,0,1,454.68,431.94Z" transform="translate(-6.57 -6.86)"/><path class="cls-6" d="M455.51,442.28l-.41-.38c-.64-.58-3.81-3.59-3.62-5.06a.91.91,0,0,1,.5-.73,40.48,40.48,0,0,1,6.4-2l.72-.17-.23.7a37.61,37.61,0,0,1-1.85,4.66c-.73,1.31-1.26,2.42-1.27,2.43Zm2.33-7.15a35.12,35.12,0,0,0-5.47,1.71.12.12,0,0,0-.07.1c-.09.71,1.56,2.62,2.95,4,.23-.46.6-1.18,1-2A30.65,30.65,0,0,0,457.84,435.13Z" transform="translate(-6.57 -6.86)"/><path class="cls-1" d="M451.8,437a3.78,3.78,0,0,1,2-2c1.33-.43,4.48-1.12,4.48-1.12s3.15-3.2,4-3-.48,2.14-.64,2.51a8.62,8.62,0,0,0-.32,1.33,10.91,10.91,0,0,0-3,.43C455.8,435.67,452.18,436.47,451.8,437Z" transform="translate(-6.57 -6.86)"/><path class="cls-1" d="M454,445.92s-1-.7-.8-.86.7-1,.06-1.44-2.57-.53-4.06-.8-3-1.06-5.92.59-3.15,2.88-3.15,2.88,3.41-.8,6.14-1.28,5-.85,5-.85S453.35,446.35,454,445.92Z" transform="translate(-6.57 -6.86)"/><line class="cls-4" x1="444.7" y1="437.3" x2="446.2" y2="437.09"/><path class="cls-4" d="M442,444.9s4.85-2.08,6.72-2.13" transform="translate(-6.57 -6.86)"/><line class="cls-4" x1="447.21" y1="442.21" x2="446.04" y2="441.62"/><path class="cls-1" d="M453,448.69s-.16-1.92-1.18-2.29a5.5,5.5,0,0,0-4.74,1,6.63,6.63,0,0,0-1.76,1.81l2.72-.16C449.77,448.91,452.76,448.69,453,448.69Z" transform="translate(-6.57 -6.86)"/><polygon class="cls-4" points="448.86 440.93 450.52 440.18 448.76 441.68 448.86 440.93"/><path class="cls-1" d="M457.08,447s-.05-1.82,3.69-1.92,6,.85,7,1.81a11.68,11.68,0,0,1,2,2.94,23.16,23.16,0,0,0-5.66-2.72c-2.61-.7-3.68-1.07-4.59-.86S457.08,447,457.08,447Z" transform="translate(-6.57 -6.86)"/><polygon class="cls-7" points="455.49 464.75 440.69 464.75 439.3 447.38 456.81 447.38 455.49 464.75"/><polygon class="cls-7" points="458.05 449.24 438.43 449.24 437.95 443.88 458.53 443.88 458.05 449.24"/></g><g id="Character_4" data-name="Character 4"><path class="cls-1" d="M356.83,308.85s-14.56,2.3-15.1,3.38-2.45,33.07-2.45,33.07l-8.47,11.29s4.2,2.32,4.6,2.45,9.38-5.14,10.86-6.08,2.55-1.74,2.55-1.74a80.91,80.91,0,0,0-2.82,8.33,35.63,35.63,0,0,0-1.21,5.91h39.92s-1.62-14-1.48-14.92l2.15-15.45,4,12.9,9.68-.67L392.77,319s-1.57-12-2.38-12.28-16.56.56-16.56.56Z" transform="translate(-6.57 -6.86)"/><path class="cls-8" d="M358.87,301.32s-.1,5.17-.32,5.81-1.72,1.72-1.72,1.72l7,10.11,10-11.72-3.33-1.94-.87-5.16Z" transform="translate(-6.57 -6.86)"/><path class="cls-9" d="M357.48,271.08s-4.2-5.38-3-7.42,8.07-4.74,10.66-4.2,8.17,5,8.17,7.64-5.7,5.28-5.7,5.28S362.21,270.33,357.48,271.08Z" transform="translate(-6.57 -6.86)"/><path class="cls-8" d="M373.4,284.64s1.29-7.85-.75-10.44-7.86-5.91-14.21-4.62a10.81,10.81,0,0,0-9.14,10.54c-.11,4.41,2.58,10,3.12,11.73s1.93,6.67,3.23,8,4.62,4.31,8.82,3.66,6.56-3.23,7.32-5.16S373.4,284.64,373.4,284.64Z" transform="translate(-6.57 -6.86)"/><path class="cls-9" d="M372.65,274.2c-2-2.58-7.86-5.91-14.21-4.62a10.81,10.81,0,0,0-9.14,10.54c-.07,2.86,1,6.21,2,8.68l.4.36s-2.79-7.85-.21-10.11,4.73-.65,7.64-1,6.89-3.23,9.68-1.62,2.16,5.17,2.69,8.5a10.43,10.43,0,0,0,1.56,4.22c.23-2.51.38-4.54.38-4.54S374.69,276.79,372.65,274.2Z" transform="translate(-6.57 -6.86)"/><path class="cls-8" d="M373.4,285.72s1.08-2.15,2.48-.54-1.08,5.27-1.94,6.13-1.08.76-1.08.76Z" transform="translate(-6.57 -6.86)"/><path class="cls-8" d="M350.37,286.69s-1.61-.76-1.18,2.15a3.47,3.47,0,0,0,3.23,3Z" transform="translate(-6.57 -6.86)"/><path class="cls-3" d="M359.63,294s2.69,1.83,4.52-.53" transform="translate(-6.57 -6.86)"/><path class="cls-3" d="M358.87,297.23s4.42,1.29,7.64-.86" transform="translate(-6.57 -6.86)"/><path class="cls-3" d="M358.66,286.9s-3.77-1.4-5.38.43" transform="translate(-6.57 -6.86)"/><path class="cls-3" d="M363.18,286.47s2.8-2.15,5.7-.86" transform="translate(-6.57 -6.86)"/><path class="cls-6" d="M358.21,290.15c.18.81,0,1.56-.51,1.66s-1-.46-1.17-1.27,0-1.56.5-1.66S358,289.34,358.21,290.15Z" transform="translate(-6.57 -6.86)"/><path class="cls-6" d="M366.64,289.81c0,.83-.42,1.49-.9,1.48s-.84-.7-.82-1.53.42-1.49.9-1.48S366.66,289,366.64,289.81Z" transform="translate(-6.57 -6.86)"/><line class="cls-10" x1="378.81" y1="328.23" x2="375.45" y2="319.36"/><polyline class="cls-3" points="340.91 318.95 344.43 333.88 342.25 344.36"/><path class="cls-9" d="M344.79,365.46a142.94,142.94,0,0,0,0,27.83,300.55,300.55,0,0,0,5.37,30.64s-2.95,10-1,15.75,5.19,34.45,5.19,34.45h6.92s1.74-52.45,1.91-53.31,1.21-35.66,1.21-35.66L372,422.37s-2.95,10.56-2.77,17.49-1.56,30.29-1.56,30.29l7.27,1.9s9-38.94,10.39-42.41a27,27,0,0,0,1.9-9c0-1.9.52-26.31-1-37.39-1.28-9.11-1.56-12.29-1.56-12.29l.07-5.5Z" transform="translate(-6.57 -6.86)"/><path class="cls-8" d="M367.68,470.15l7.27,1.9s1.51-6.54,3.39-14.51L368.68,455C368.23,462.71,367.68,470.15,367.68,470.15Z" transform="translate(-6.57 -6.86)"/><path class="cls-8" d="M361.27,474.13s.26-7.76.59-17.35l-9.72-.1c1.22,8.77,2.21,17.45,2.21,17.45Z" transform="translate(-6.57 -6.86)"/><path class="cls-10" d="M366.58,469.34s-1.16,8-.91,8.72,1.24,1.41,4.4,1.66,4.89,3.24,6.56,3.9,5.56,1.08,6.89.58a2.32,2.32,0,0,0,.74-3.57c-.91-1.24-5.73-4.81-6.31-5.64a26.58,26.58,0,0,1-1.57-3.24c-.17-.33-.42-2.33-1-2.49a3.9,3.9,0,0,0-2.33.83,2.17,2.17,0,0,1-.74.5S367.24,468,366.58,469.34Z" transform="translate(-6.57 -6.86)"/><path class="cls-10" d="M365.75,477.06a33.43,33.43,0,0,1,6.89,2.33c2.41,1.33,3.24,3.24,6.14,3.9s4.74.17,5.4-.66" transform="translate(-6.57 -6.86)"/><path class="cls-10" d="M359,473.27s-1.21-3.64-2.59-3.29-2.95,2.94-3.46,4.5-5.2,4.85-7.79,6.06-1.74,2.59,0,3.63,16.33.37,17.08-.13.33-6.31.25-7.72.25-2.66-.41-3.16A3.41,3.41,0,0,0,359,473.27Z" transform="translate(-6.57 -6.86)"/><path class="cls-10" d="M343.58,482.46s1.08,1,6.48,1.08a81.88,81.88,0,0,0,11.7-.83l.5-.08" transform="translate(-6.57 -6.86)"/><path class="cls-1" d="M393.82,340.63l-11.88,4.55,1.29,5.36s15.8-.92,16.13-1.37-1.33-5.1-1.33-5.1" transform="translate(-6.57 -6.86)"/><path class="cls-10" d="M372.73,350.18s-5.27,1.05-7.22,4-2.44,9.1-2.44,9.1h20.3l.16-2.44,3.25-2.52-3.55-7.75S376,349.73,372.73,350.18Z" transform="translate(-6.57 -6.86)"/><path class="cls-10" d="M379.43,355.58c0,1.23-1.54,2.23-3.43,2.23s-3.43-1-3.43-2.23,1.53-2.24,3.43-2.24S379.43,354.34,379.43,355.58Z" transform="translate(-6.57 -6.86)"/><path class="cls-11" d="M383.49,361.46H363.28c-.15,1.06-.21,1.79-.21,1.79h20.3Z" transform="translate(-6.57 -6.86)"/><path class="cls-8" d="M381.94,345.18s-7.1,1.11-7.77,1.55-2.33,1.44-2.33,1.44-3,.45-3.21,1a1,1,0,0,0,.88,1.45c.89,0,5.33-.78,5.33-.78s0,2.88-.33,3.11-1.89,2.22-1.67,2.77,1.33,1.66,1.89,1.44a17.32,17.32,0,0,0,1.89-1.11s4.88-.44,5.88-1.33,1.88-5.21,1.88-5.21S384.05,345.4,381.94,345.18Z" transform="translate(-6.57 -6.86)"/><path class="cls-8" d="M332.82,355.75l4.55,2.94s1.62,2.46,1.55,3.51a5.14,5.14,0,0,1-.43,1.75h-5.11Z" transform="translate(-6.57 -6.86)"/><path class="cls-8" d="M336.81,359.25s-1.89,4.28-1.61,4.56a2.71,2.71,0,0,0,1.61.35,16.2,16.2,0,0,0,2.67-3.58c.14-.56-1.69-1.75-2.11-1.89" transform="translate(-6.57 -6.86)"/><path class="cls-8" d="M331.91,355.33s-2.46.63-2.46,1.4,2,6.8,2.53,7,1.82.21,2-.28-.84-5.82-.91-6.73S332.47,355.12,331.91,355.33Z" transform="translate(-6.57 -6.86)"/><path class="cls-8" d="M329.38,357.71s-2.8,1.19-2.38,2.17a17.87,17.87,0,0,0,2.66,3.86c.63.56,2.32,0,2.32,0Z" transform="translate(-6.57 -6.86)"/><path class="cls-8" d="M327,359.88s-2.1,1.55-1.68,2.46a4.37,4.37,0,0,0,2.66,1.82c.42-.07,1.68-.42,1.68-.42Z" transform="translate(-6.57 -6.86)"/><line class="cls-12" x1="338.22" y1="358.6" x2="418.24" y2="478.86"/><line class="cls-12" x1="403.2" y1="358.6" x2="323.18" y2="478.86"/><rect class="cls-10" x="282.05" y="356.4" width="162.9" height="1.96"/><polygon class="cls-1" points="294.52 356.37 294.52 385.61 312.99 385.61 316.07 367.14 357.62 390.04 364.7 356.37 294.52 356.37"/><path class="cls-3" d="M359,361.63s-1.68-2.42-.93-4.28,1.75-2.23,1-4.09-1.27-3.2-.53-5.06" transform="translate(-6.57 -6.86)"/><path class="cls-3" d="M354.36,361.63s-1.68-2.42-.93-4.28,1.75-2.23,1-4.09-1.27-3.2-.53-5.06" transform="translate(-6.57 -6.86)"/><path class="cls-13" d="M404,351.46s-2.73-2.74-.61-4.56,7.6-1.06,9.72-.91,18.22-1.06,21.87-.76,3.49,2.73,3,4.56l-.45,1.82s-15,.61-19,1.21S404,351.46,404,351.46Z" transform="translate(-6.57 -6.86)"/><path class="cls-1" d="M403.09,357.08s-2.13-3.19-.76-4.86,7.29-1.67,12.15-1.07,15.18-.45,18.22-.45,5.62-1.22,6.68,1.21-1.06,5.62-1.06,5.62-10.33,1.82-17.16,1.67S403.09,357.08,403.09,357.08Z" transform="translate(-6.57 -6.86)"/><path class="cls-11" d="M438.32,357.53s-18.38.91-24.9.3-10.79-1.36-11.7,1.07-.45,4,.61,4.1S438,363,438,363s2.28-.76,2-2.89A3,3,0,0,0,438.32,357.53Z" transform="translate(-6.57 -6.86)"/></g><g id="Plant_1" data-name="Plant 1"><path class="cls-14" d="M455.82,196.59s7.85-17.21,9.7-19.86,7.5-9.35,8.54-11.32,3-6.69,3-6.69-8.31,6.69-11.54,12.23-10.74,26.1-10.74,26.1Z" transform="translate(-6.57 -6.86)"/><path class="cls-1" d="M460.23,185.13a131.81,131.81,0,0,1,6-13.74c2-3.35,5.89-7.2,8.57-9.61-.53,1.2-1.1,2.45-1.52,3.23a72.66,72.66,0,0,1-4.82,6.45c-1.48,1.89-2.89,3.66-3.67,4.78S462.13,181.17,460.23,185.13Z" transform="translate(-6.57 -6.86)"/><g class="cls-15"><path d="M465.06,173.69l1,.91.79-1-1.16-1.1C465.47,172.85,465.27,173.26,465.06,173.69Z" transform="translate(-6.57 -6.86)"/><path d="M462,181.47c.2-.41.4-.8.59-1.18l-.39-.09-.49,1.2Z" transform="translate(-6.57 -6.86)"/><path d="M469.66,166.89c-.29.32-.57.65-.84,1l1.44,1.35.79-1Z" transform="translate(-6.57 -6.86)"/><path d="M472.88,163.59l.87.53.55-1.17-.46-.28Z" transform="translate(-6.57 -6.86)"/></g><path class="cls-5" d="M452.58,196.59s2.54-35.8,2.2-45.26-4.27-20.44-4.74-22.75a43.64,43.64,0,0,0-1.5-5.19s-.46,21.24.7,30-.47,18.58-.58,23.55-1.27,18.93-1.27,18.93Z" transform="translate(-6.57 -6.86)"/><path class="cls-14" d="M447.39,195.89s7.5-35.79,10.16-45.14,9-19.17,10-22.28,3.47-9,3.47-9,0,11.32-2.89,17-7.85,15.59-9.24,19.86-6.35,26.9-7.73,32.44-1.27,7.86-1.27,7.86Z" transform="translate(-6.57 -6.86)"/><path class="cls-1" d="M448.39,195.28c1.12-5.31,7.58-35.85,10-44.3,1.73-6.08,5-12.33,7.43-16.89a45.63,45.63,0,0,0,2.6-5.35c.39-1.16,1-2.72,1.56-4.21-.31,3.66-1,8.48-2.55,11.52-3.52,6.89-8,15.94-9.29,20-.91,2.82-3.35,13.45-5.31,22-1.05,4.6-2,8.57-2.44,10.5a43.84,43.84,0,0,0-1.26,6.95Z" transform="translate(-6.57 -6.86)"/><g class="cls-15"><path d="M459.65,147.14c-.15.4-.3.81-.44,1.21l1.9.52c.18-.39.37-.78.55-1.18Z" transform="translate(-6.57 -6.86)"/><path d="M458,156.34l-.9-.5c-.1.41-.21.84-.31,1.29l.86.47C457.8,157.11,457.92,156.68,458,156.34Z" transform="translate(-6.57 -6.86)"/><path d="M468.43,128.65l1,.45c.08-.44.14-.88.2-1.32l-.74-.35C468.7,127.87,468.56,128.28,468.43,128.65Z" transform="translate(-6.57 -6.86)"/><path d="M468,134.73c.15-.39.29-.8.42-1.22l-1.88-.81-.6,1.14Z" transform="translate(-6.57 -6.86)"/><path d="M462.41,140.74l2.12,1,.57-1.14-2.13-1Z" transform="translate(-6.57 -6.86)"/></g><path class="cls-5" d="M448.89,195.66c.12-.81,7.27-23.67,10.62-31.4s11.66-17.78,11.78-18.13-1.62,8.89-3.23,12-6,10.51-9.13,17.66a184.26,184.26,0,0,0-6.69,19,3.88,3.88,0,0,0,.34,1.74Z" transform="translate(-6.57 -6.86)"/><path class="cls-14" d="M436.42,116.58s0,.28,0,.8c-.06,3.35-.21,16.27,1.29,20,1.73,4.27,2.08,6.92,3.81,14s2,27.82,2.19,29.67S447,196.7,447,196.7h4s-4.15-42.72-6-49.41-5.08-18.25-6-21.59S436.42,116.58,436.42,116.58Z" transform="translate(-6.57 -6.86)"/><path class="cls-1" d="M447.73,195.85c-1.11-4.94-3-13.59-3.19-15-.05-.42-.11-2.16-.19-4.36-.24-7-.7-20-2-25.41-.46-1.87-.82-3.43-1.14-4.8a54.3,54.3,0,0,0-2.71-9.28c-.89-2.22-1.23-8.44-1.26-14.74.37,1.28.74,2.58,1,3.62.39,1.4,1.17,4.21,2.09,7.5,1.29,4.62,2.84,10.18,3.92,14.09,1.65,6,5.26,42,5.88,48.34Z" transform="translate(-6.57 -6.86)"/><g class="cls-16"><path d="M441.68,138.24l-2.42.87c.14.41.28.82.4,1.22l2.37-.85C441.91,139.06,441.8,138.65,441.68,138.24Z" transform="translate(-6.57 -6.86)"/><path d="M437.43,129.8l1.73-.59c-.12-.44-.23-.85-.34-1.24l-1.46.5C437.38,128.92,437.41,129.37,437.43,129.8Z" transform="translate(-6.57 -6.86)"/><path d="M440.6,134.34c-.09-.31-.18-.62-.26-.92l-.09-.33-2.4,1.18c.07.48.15.92.23,1.32Z" transform="translate(-6.57 -6.86)"/><path d="M445.05,151.64l-2.49.53c.08.39.15.81.22,1.26l2.47-.52C445.18,152.47,445.12,152,445.05,151.64Z" transform="translate(-6.57 -6.86)"/><path d="M444,146.59c-.11-.41-.23-.83-.35-1.27l-2.38,1.32c.09.42.19.85.3,1.3Z" transform="translate(-6.57 -6.86)"/></g><path class="cls-14" d="M445.38,196.7s-1.92-30.94-1.92-40.06,6.78-21.46,7.8-23.26,5.37-10.92,5.37-10.92-3.58,17.15-5.37,23.87-2.3,17-3.07,22.67-1,19.07-1,22.3-.13,5.4-.13,5.4Z" transform="translate(-6.57 -6.86)"/><path class="cls-1" d="M446.18,195.85c-.3-4.93-1.86-31-1.86-39.21,0-9.06,6.9-21.46,7.68-22.84.41-.73,1.34-2.59,2.31-4.57-1.19,5.54-2.84,13-3.88,16.88-1.26,4.74-1.9,11.31-2.42,16.59-.22,2.31-.43,4.48-.67,6.18-.77,5.68-1,19.28-1,22.42,0,2-.05,3.64-.08,4.55Z" transform="translate(-6.57 -6.86)"/><g class="cls-15"><path d="M446.92,144.76l-.45,1.24a21.19,21.19,0,0,1,2.57.38,7.38,7.38,0,0,1,1.19.53c.07-.27.13-.54.2-.8s.08-.31.13-.47a7.23,7.23,0,0,0-1.16-.49A19.15,19.15,0,0,0,446.92,144.76Z" transform="translate(-6.57 -6.86)"/><path d="M447.17,170.4l-2.41-.52.06,1.32,2.23.49Q447.11,171,447.17,170.4Z" transform="translate(-6.57 -6.86)"/><path d="M444.32,157.39c0,.41,0,.86,0,1.34a9.19,9.19,0,0,1,1.73-.5c.22,0,1.13.32,2.32.72,0-.43.09-.87.14-1.31a20.85,20.85,0,0,0-2.32-.69A6.73,6.73,0,0,0,444.32,157.39Z" transform="translate(-6.57 -6.86)"/><path d="M446,151.74a24.23,24.23,0,0,1,3.14,1.18c.06-.44.13-.88.2-1.31a20.15,20.15,0,0,0-3.17-1.14,6.4,6.4,0,0,0-1,0c-.1.44-.2.87-.29,1.31A6.45,6.45,0,0,1,446,151.74Z" transform="translate(-6.57 -6.86)"/><path d="M450.79,136.05l1.86.76c.09-.43.19-.85.28-1.27l-1.54-.63C451.22,135.23,451,135.62,450.79,136.05Z" transform="translate(-6.57 -6.86)"/><path d="M449.34,139c-.18.38-.36.79-.55,1.21l3,.46c.1-.41.2-.82.29-1.25Z" transform="translate(-6.57 -6.86)"/><path d="M444.52,164.31c0,.42,0,.85.05,1.29.9.13,1.95.31,3.1.52,0-.42.09-.85.13-1.29C446.66,164.63,445.52,164.44,444.52,164.31Z" transform="translate(-6.57 -6.86)"/></g><path class="cls-14" d="M442.77,196.47s-4.85-16.39-5.89-21.36-.11-19.63-.34-22.28a98.77,98.77,0,0,0-2.2-10.05s3.47,5.66,4.74,8.2,5,12.12,5.42,17.2-.11,9.12,0,11.9,1.27,16.39,1.27,16.39Z" transform="translate(-6.57 -6.86)"/><path class="cls-1" d="M443.41,195.62c-.89-3-4.78-16.35-5.69-20.68-.67-3.21-.5-10.72-.37-16.2.07-2.82.12-5.05,0-6a43.33,43.33,0,0,0-.85-4.6c.7,1.21,1.36,2.38,1.77,3.21,1.2,2.39,4.89,11.91,5.34,16.9a58.16,58.16,0,0,1,.07,8.19c-.06,1.39-.12,2.6-.07,3.66.1,2.37.93,12.37,1.19,15.51Z" transform="translate(-6.57 -6.86)"/><g class="cls-15"><path d="M440.75,157.38l-.44-1.2-2.92,1c0,.43,0,.89,0,1.36Z" transform="translate(-6.57 -6.86)"/><path d="M441.78,160.4l-4.48.65,0,1.3,4.89-.71C442,161.23,441.91,160.81,441.78,160.4Z" transform="translate(-6.57 -6.86)"/><path d="M439.7,154.6l-.48-1.2-1.79.51c0,.38,0,.83,0,1.33Z" transform="translate(-6.57 -6.86)"/><path d="M443.65,180.11c0-.3,0-.63,0-1l-4.83.19c.11.41.23.83.34,1.27l4.52-.17C443.66,180.32,443.65,180.21,443.65,180.11Z" transform="translate(-6.57 -6.86)"/><path d="M443.86,183.34h-4l.36,1.28H444C443.92,184.18,443.89,183.75,443.86,183.34Z" transform="translate(-6.57 -6.86)"/><path d="M443.8,170.91l-6.45.69c0,.45,0,.87.09,1.28l6.39-.68C443.82,171.78,443.82,171.35,443.8,170.91Z" transform="translate(-6.57 -6.86)"/><path d="M443.58,167.61c-.06-.41-.13-.83-.21-1.27l-6.14.38c0,.44,0,.86,0,1.29Z" transform="translate(-6.57 -6.86)"/></g><path class="cls-14" d="M442.54,195.09s-2.42-15.71-5.66-20S421.76,160.33,420.83,159l-.92-1.39s5.54,12.7,9.24,16.86,3.58,5.19,6.81,10.39a43.39,43.39,0,0,1,4.62,10.39l.23.92,2,.35Z" transform="translate(-6.57 -6.86)"/><path class="cls-1" d="M441.5,195.38l-.09-.39a43.34,43.34,0,0,0-4.73-10.63c-1.06-1.72-1.75-3-2.36-4.05a29.6,29.6,0,0,0-4.53-6.46c-2-2.29-4.71-7.37-6.63-11.32.6.58,1.3,1.24,2.09,2,3.81,3.63,9,8.58,10.95,11.12,3.07,4.05,5.47,19.43,5.49,19.59l0,.2Z" transform="translate(-6.57 -6.86)"/><g class="cls-15"><path d="M433.36,172.43l-3.23,1.81c.31.35.59.69.85,1l3.29-1.85C434,173.08,433.68,172.76,433.36,172.43Z" transform="translate(-6.57 -6.86)"/><path d="M425.3,164.56l-.83.6c.2.38.39.76.6,1.15l1.18-.85C425.92,165.16,425.61,164.86,425.3,164.56Z" transform="translate(-6.57 -6.86)"/><path d="M430.07,169.13l-.93-.9-2.08,1.67c.23.38.45.75.67,1.1Z" transform="translate(-6.57 -6.86)"/><path d="M439.54,184.59l-2.17.91.62,1.13,1.86-.77C439.75,185.44,439.65,185,439.54,184.59Z" transform="translate(-6.57 -6.86)"/><path d="M437.39,177.81,434,179.69c.12.2.23.41.35.62l.28.5,3.27-1.8Q437.65,178.38,437.39,177.81Z" transform="translate(-6.57 -6.86)"/></g><path class="cls-14" d="M454.78,197.05s7-16.63,8.08-23.21,1.27-15.47,1.5-18.13a20.39,20.39,0,0,1,1.5-6.35c.58-1.15,2.2-5.54,2.2-5.54s-5.89,8.78-7.86,13.16-5.31,12.82-6.46,19.29-1.16,20.32-1.16,20.32Z" transform="translate(-6.57 -6.86)"/><path class="cls-1" d="M453.44,195.89c0-2.88.16-14,1.14-19.47,1.35-7.55,5.57-17.22,6.4-19.09a64,64,0,0,1,3.27-5.94,25.07,25.07,0,0,0-.74,4.25c-.06.72-.12,1.85-.2,3.28-.21,4-.54,10-1.29,14.79-.9,5.67-6.46,19.23-7.76,22.36Z" transform="translate(-6.57 -6.86)"/><g class="cls-15"><path d="M458.15,186.21l.45-1.22c-.86-.2-1.69-.38-2.37-.51s-1.61-.28-2.43-.38c0,.43-.05.85-.07,1.28.77.1,1.55.22,2.25.36S457.36,186,458.15,186.21Z" transform="translate(-6.57 -6.86)"/><path d="M462,173.74l-6.59-1.06c-.11.41-.21.83-.31,1.24l6.65,1.08C461.86,174.55,462,174.12,462,173.74Z" transform="translate(-6.57 -6.86)"/><path d="M461.69,155.88c.6.09,1.19.18,1.74.29h0c0-.2,0-.38,0-.54s.05-.5.08-.75l-1.25-.21C462.11,155.1,461.89,155.5,461.69,155.88Z" transform="translate(-6.57 -6.86)"/><path d="M454.2,179.2c-.05.41-.09.84-.13,1.28l5.76,1.05c.14-.41.28-.82.41-1.23Z" transform="translate(-6.57 -6.86)"/><path d="M461.42,159.78l-1.37-.29-.5,1.2,1.6.34c.64.14,1.32.3,2,.48,0-.45.05-.88.07-1.3C462.62,160.05,462,159.9,461.42,159.78Z" transform="translate(-6.57 -6.86)"/><path d="M457,167.47l5.63,1.14.12-1.28-5.33-1.08Z" transform="translate(-6.57 -6.86)"/><path d="M454,189.34l-.4-.08c0,.44,0,.88,0,1.3l.17,0c.8.17,1.66.38,2.53.61l.47-1.2C455.77,189.76,454.83,189.53,454,189.34Z" transform="translate(-6.57 -6.86)"/></g><path class="cls-14" d="M445.77,197.28s-.69-16.86,1.85-25.86a112.42,112.42,0,0,1,6-16.4c1.16-2.77,5.43-7.73,5.43-7.73s-2.77,7-2.77,9.93,1.15,5.19-.35,14.08-4.27,13.86-4.5,15.47-2.54,9.93-2.54,9.93Z" transform="translate(-6.57 -6.86)"/><path class="cls-1" d="M446.6,196.26c-.1-3.73-.28-17.08,1.84-24.61a102.61,102.61,0,0,1,5.28-14.7c.26-.59.49-1.12.69-1.6a19.57,19.57,0,0,1,2.15-3.51,21.32,21.32,0,0,0-1.14,5.38,21.35,21.35,0,0,0,.18,2.39c.26,2.29.57,5.13-.51,11.55A63,63,0,0,1,451.47,184a15.5,15.5,0,0,0-.89,2.68c-.17,1.2-1.65,6.71-2.37,9.31Z" transform="translate(-6.57 -6.86)"/><path class="cls-17" d="M451.2,174.36a.5.5,0,0,0-.13,0l-3.2-.25c-.08.41-.16.84-.23,1.27l3.26.26c1,.3,2.13.64,3,.92.11-.4.21-.82.32-1.25Z" transform="translate(-6.57 -6.86)"/><path class="cls-17" d="M452.57,181c-1.92,0-4.33.1-5,.19l-.61.09c0,.44-.07.88-.1,1.32l.88-.14c.55-.07,2.53-.13,4.38-.17C452.25,181.89,452.41,181.45,452.57,181Z" transform="translate(-6.57 -6.86)"/><path class="cls-17" d="M446.58,188.79l3.45.31c.12-.47.22-.89.31-1.26l-3.73-.34Q446.6,188.16,446.58,188.79Z" transform="translate(-6.57 -6.86)"/><path class="cls-17" d="M455.38,169.31,454,169.1c-1.68-.26-3.4-.52-4.63-.65L449,169.7c1.21.12,3.1.41,4.82.67l1.35.21C455.25,170.14,455.32,169.71,455.38,169.31Z" transform="translate(-6.57 -6.86)"/><path class="cls-17" d="M452.33,164.1a4.78,4.78,0,0,0-1.45-.1c-.16.44-.32.89-.48,1.37a3.55,3.55,0,0,1,1.62,0,24.24,24.24,0,0,1,3.67,1.33c0-.48.08-.93.1-1.36A26.77,26.77,0,0,0,452.33,164.1Z" transform="translate(-6.57 -6.86)"/><path class="cls-17" d="M455,160.28a5.13,5.13,0,0,1,.65.05c0-.25-.05-.49-.08-.72l-.06-.58-.51,0a15.07,15.07,0,0,0-2.28.22c-.19.43-.38.9-.58,1.39A18.9,18.9,0,0,1,455,160.28Z" transform="translate(-6.57 -6.86)"/><path class="cls-17" d="M453.78,156.81a4,4,0,0,1,1.46.11l.19.08a11.71,11.71,0,0,1,.15-1.31,4.27,4.27,0,0,0-1.24-.17C454.18,155.91,454,156.34,453.78,156.81Z" transform="translate(-6.57 -6.86)"/><path class="cls-14" d="M447.74,197.16s.23-11-.93-14.89-3.12-6.58-4.5-10.28-5.31-9.23-5.31-9.23a71.32,71.32,0,0,1,2.88,7.85c.35,1.85,1.16,4.62,1.16,5.54s-.69,5.31.69,8.54a33.88,33.88,0,0,1,2.54,8.55c.12,1.61.12,3.69.12,3.69Z" transform="translate(-6.57 -6.86)"/><path class="cls-1" d="M445.24,196.13c0-.76,0-1.94-.12-2.95a34.93,34.93,0,0,0-2.6-8.82c-1.06-2.48-.8-5.78-.68-7.37,0-.37.05-.65.05-.84a19.47,19.47,0,0,0-.62-3.28c-.19-.8-.39-1.62-.52-2.31.29.61.56,1.19.76,1.73a43.54,43.54,0,0,0,2,4.48,32.69,32.69,0,0,1,2.44,5.74c.92,3.11.93,11.06.9,13.74Z" transform="translate(-6.57 -6.86)"/><g class="cls-15"><path d="M441.27,172.87c.08.35.16.69.24,1l.61-.1c-.18-.4-.34-.8-.5-1.22l-.41.07Z" transform="translate(-6.57 -6.86)"/><path d="M441.72,179.43l2.9-.49c-.19-.4-.38-.8-.58-1.2l-2.28.39C441.74,178.53,441.72,179,441.72,179.43Z" transform="translate(-6.57 -6.86)"/><path d="M446,182.51c0-.08-.05-.15-.07-.23l-3.88.57a8.13,8.13,0,0,0,.38,1.24l3.81-.56A9.67,9.67,0,0,0,446,182.51Z" transform="translate(-6.57 -6.86)"/><path d="M446.74,188.49c0-.43-.05-.86-.08-1.29l-2.87.53c.14.41.27.83.4,1.23Z" transform="translate(-6.57 -6.86)"/></g><polygon class="cls-14" points="449.44 207.12 434.21 207.12 432.78 189.25 450.8 189.25 449.44 207.12"/><polygon class="cls-14" points="452.08 191.16 431.88 191.16 431.39 185.64 452.57 185.64 452.08 191.16"/></g><g id="Picture_2" data-name="Picture 2"><rect class="cls-3" x="283.28" y="7.24" width="40.01" height="55.93"/><rect class="cls-3" x="291.97" y="19.39" width="22.63" height="31.64"/></g><g id="Character_3" data-name="Character 3"><rect class="cls-1" x="261.23" y="140.68" width="155.3" height="2.87" transform="translate(79.99 402.41) rotate(-69.39)"/><path class="cls-10" d="M363.07,84.54s-2.11,5.27-1.41,6.09a1.81,1.81,0,0,0,2.34.23c.24-.35,2.11-4.68,1.64-5.39A2.22,2.22,0,0,0,363.07,84.54Z" transform="translate(-6.57 -6.86)"/><path class="cls-10" d="M357.56,82.55s-1.05,2.34-.23,2.57,5,1.53,5.38.94,1.18-.47.36-1.52S359.32,82.43,357.56,82.55Z" transform="translate(-6.57 -6.86)"/><path class="cls-10" d="M357.33,85.12s-.94,2.35-.36,2.58,4.81.82,4.81.82l.93-2.46Z" transform="translate(-6.57 -6.86)"/><path class="cls-10" d="M357,87.7s-.93,1.87-.35,2.34a10.11,10.11,0,0,0,4.22.71c.82-.12.94-2.23.94-2.23Z" transform="translate(-6.57 -6.86)"/><path class="cls-10" d="M356.62,90s-1.17,1.88-.35,2.58a5,5,0,0,0,3.75.59c.47-.36.82-2.46.82-2.46Z" transform="translate(-6.57 -6.86)"/><polygon class="cls-9" points="357.64 71.96 360.98 63.09 358.29 62.07 354.93 71.02 357.64 71.96"/><path class="cls-10" d="M392.09,214.84s-2,3.15-7.08,5.11-8.55,3.35-8.65,3.84-.2,2.46.59,3,10.13,2.46,15.93,2.06,11.6-.88,11.6-.88,2.07-.49,2-2.36-1-6.39-1-6.39Z" transform="translate(-6.57 -6.86)"/><path class="cls-10" d="M392.88,228.8c5.8-.39,11.6-.88,11.6-.88s1.76-.42,1.95-2a144.94,144.94,0,0,1-14.63,1.66c-6.38.32-12.94-1.55-15.47-2.28a1.9,1.9,0,0,0,.62,1.4C377.74,227.23,387.08,229.2,392.88,228.8Z" transform="translate(-6.57 -6.86)"/><path class="cls-10" d="M412.94,213.56s-2.85,4.33-4.62,5.51-1.38,1.77-1.18,2.85,2,1.67,4.62,2.06l3.93.59s1.08,1.48,5.11,1.38,6.1-2.16,5.81-4.33-1.77-7.37-1.77-7.37Z" transform="translate(-6.57 -6.86)"/><path class="cls-10" d="M426.61,221.62c0-.15-.05-.33-.09-.51a12.2,12.2,0,0,1-3.36,2.09c-2.75,1.18-7.57-.1-7.57-.1a17.19,17.19,0,0,0-4.72-.59,8.19,8.19,0,0,1-3.84-1.1c0,.16.07.33.11.51.19,1.08,2,1.67,4.62,2.06l3.93.59s1.08,1.48,5.11,1.38S426.9,223.79,426.61,221.62Z" transform="translate(-6.57 -6.86)"/><path class="cls-9" d="M378.25,118.23s3,32.61,5.51,41.74,4.86,24.3,6,28.13,3.09,21.21,3.09,21.21-2.65,1.62-2.36,2.51a25.12,25.12,0,0,1,.15,4.56,18.53,18.53,0,0,0,7.51,3,33.66,33.66,0,0,0,7.66.44s.15-3.83-.44-5.3a12.53,12.53,0,0,1-.29-4.42l.88-6.92s.15-14.58,0-17.38,5,13,5.6,15.17,1.32,9.42,1.32,9.42l-1.32,1.18.59,3.1a23,23,0,0,0,6.77,1.91c3,.15,7.22-2.21,7.22-2.21a17.33,17.33,0,0,1-1.18-3.53c-.29-1.62-.59-5-.59-5S422.2,188,419,179.71s-6.48-15.61-6.48-16.5,1.26-40.27,1.26-40.27.89-5.15-1.32-8-20-5.45-23.72-5.16S378.39,116.76,378.25,118.23Z" transform="translate(-6.57 -6.86)"/><path class="cls-18" d="M409.32,127.65l-4.42,4.87s-2.29,26.86-1.85,30.69,2.21,10,2.51,13.55a49.42,49.42,0,0,1,0,7.07" transform="translate(-6.57 -6.86)"/><path class="cls-1" d="M374.46,55.11s-2.41,17.81-.64,29.2,2.41,37.38,2.41,37.38,11.07-8,12.19-8.34,13.8,4.49,17.49,5,8.82-1.6,8.82-1.6a29.23,29.23,0,0,0-2.73-9.63c-2.4-5-3.69-8.66-3.69-10.11s-2.4-37.54-4.81-41.39-14.6-11.71-14.6-11.71Z" transform="translate(-6.57 -6.86)"/><path class="cls-10" d="M351.74,30.28s.8,5.62,1.72,7.68a27,27,0,0,0,3.09,4.58c.35.58.12,1.84,1,3.67s7.57,7.57,8.95,8,5.38-3.1,5.38-3.1L373.06,53,384,42.31,378.1,35.9s-1.72-9.29-4-12.5-9.4-5.5-13.3-4.36a12.23,12.23,0,0,0-5.5,3s-3.9-2.75-4.35-1.94,1.26,3,1.26,3-6.88.34-6.54,2.06,3.33,1,3.33,1-3.9,5.73-2.53,6.76,2.64-1.72,2.64-1.72.57,2.53,1.15,2.07A12,12,0,0,0,351.74,30.28Z" transform="translate(-6.57 -6.86)"/><path class="cls-9" d="M374,34.18c0-.92-.35-3.33.68-3.9a5.45,5.45,0,0,1,2-.47,23.46,23.46,0,0,0-2.59-6.41c-2.29-3.21-9.4-5.5-13.3-4.36a12.23,12.23,0,0,0-5.5,3s-3.9-2.75-4.35-1.94,1.26,3,1.26,3-6.88.34-6.54,2.06,3.33,1,3.33,1-3.9,5.73-2.53,6.76,2.64-1.72,2.64-1.72.57,2.53,1.15,2.07A8,8,0,0,0,351.46,31l.16-1.64S356.67,34,358,32.91s6.08-6.19,7.68-6.3,3.44.57,2.87,2.06-.57,2.52.23,2.75a13.33,13.33,0,0,0,2.86.12,24.78,24.78,0,0,1,1.15,3.21C372.83,35.21,374,35.09,374,34.18Z" transform="translate(-6.57 -6.86)"/><path class="cls-10" d="M380.63,32c.82,2.85-.42,5.7-2.76,6.38s-4.9-1.09-5.72-3.94.41-5.7,2.75-6.37S379.81,29.17,380.63,32Z" transform="translate(-6.57 -6.86)"/><path class="cls-10" d="M379.84,31.66c.6,2.09-.31,4.18-2,4.67s-3.59-.8-4.19-2.88.3-4.18,2-4.67S379.24,29.58,379.84,31.66Z" transform="translate(-6.57 -6.86)"/><path class="cls-10" d="M374.9,28.09s-2.3-5.61-6.54-7.79a13.77,13.77,0,0,0-8.6-1.14s2.07-2.07,7.11-1.49,7.34,3.9,8.6,6a20.29,20.29,0,0,1,1.95,4.7A4.36,4.36,0,0,0,374.9,28.09Z" transform="translate(-6.57 -6.86)"/><polygon class="cls-3" points="365.35 44.28 370.05 39.58 369.36 43.14 366.49 46.12 365.35 44.28"/><path class="cls-3" d="M364.81,45.75c-.35.23-2.64.92-3.44.46s-.46-5.61-.46-5.61L358,38.07" transform="translate(-6.57 -6.86)"/><path class="cls-3" d="M365.15,48.28s3.78-1,5.5-3.9" transform="translate(-6.57 -6.86)"/><path class="cls-3" d="M361.94,36.93s1.72-2.41,5.85-1.49" transform="translate(-6.57 -6.86)"/><path class="cls-3" d="M356.55,38.07s-1.72.12-2.29,1.15" transform="translate(-6.57 -6.86)"/><path class="cls-6" d="M366.56,38.64c.36.74.32,1.5-.08,1.69s-1-.25-1.37-1-.32-1.5.08-1.69S366.2,37.9,366.56,38.64Z" transform="translate(-6.57 -6.86)"/><path class="cls-6" d="M359.34,41.16c.36.75.32,1.5-.08,1.7s-1-.26-1.37-1-.32-1.5.08-1.69S359,40.42,359.34,41.16Z" transform="translate(-6.57 -6.86)"/><path class="cls-1" d="M385.9,40.71s-9.52,7.91-11.12,9.74-4.24,5.39-4.24,5.39l3,3,7.68-7.68L390.94,45Z" transform="translate(-6.57 -6.86)"/><path class="cls-1" d="M375.91,58.16s-5.62,5.29-5.94,6.74S366.76,89,366.76,89l14.76,4.66,4.65-20.06" transform="translate(-6.57 -6.86)"/><path class="cls-10" d="M367.56,96,350,121.13s-7.86.34-8.66.36-4.2,5.71-4,6.83,2.17,3.64,2.17,3.64l1.13,0,1.69-3.09s4.36,1,7.38-.17,6.44-6.24,6.44-6.24,21.55-18.94,23.13-20.1,1.52-3.57,1.52-3.57Z" transform="translate(-6.57 -6.86)"/><polygon class="cls-1" points="358.43 80.82 357.95 89.32 375.76 94.46 376.88 85.95 358.43 80.82"/><path class="cls-10" d="M314.28,217.17s1-1.76.33-2.86-4.51-2.32-5.94-1.44-1.88,4.08-1.88,4.08-8.7-.77-12.78.77-4.29,6.06-4.29,6.06-3.31.33-3.53,3.42,5.07,3.3,11.79,4.18a64.59,64.59,0,0,0,14.65-.22s15.31.77,22-.55,6.17-4.74,1.44-6.72-7.94-.55-7.94-.55a25.29,25.29,0,0,0-6.72-3.86A36.65,36.65,0,0,0,314.28,217.17Z" transform="translate(-6.57 -6.86)"/><path class="cls-3" d="M290.16,224.77s1.21,4.74,4.18,5.95" transform="translate(-6.57 -6.86)"/><path class="cls-3" d="M298.64,217.83s-3,1.87-2.09,4.63,5.51,7.16,15.09,8.48" transform="translate(-6.57 -6.86)"/><path class="cls-3" d="M328.83,224.22s6.38,3.31,7.6,2.31-2.43-2.2-3.86-2.2" transform="translate(-6.57 -6.86)"/><path class="cls-3" d="M305,218.05a29.1,29.1,0,0,1,9.47,5.51c4.52,4,12,7.27,18.51,7.05" transform="translate(-6.57 -6.86)"/><path class="cls-3" d="M314.28,217.17s-3.3,0-5.39-.11" transform="translate(-6.57 -6.86)"/></g><g id="Shelf"><polygon class="cls-14" points="192.3 45.04 175.56 45.04 174 25.4 193.8 25.4 192.3 45.04"/><polygon class="cls-1" points="175.53 23.77 170.84 12.52 178.81 18.14 177.64 7.41 181.86 10.73 183.73 0 187.48 16.36 191.24 8.95 191.7 16.1 195.93 11.76 193.11 23.77 175.53 23.77"/><polygon class="cls-14" points="195.2 27.51 173.01 27.51 172.47 21.44 195.74 21.44 195.2 27.51"/><rect class="cls-3" x="97.23" y="45.08" width="101.63" height="3.48"/><rect class="cls-1" x="103.5" y="22.75" width="11.22" height="22.43"/><rect class="cls-3" x="106.98" y="16.45" width="4.24" height="5.94"/><path class="cls-1" d="M148.65,35.4c-1-5.8-6.63-10.6-7.32-11.23a3.92,3.92,0,0,0-1.64-.82l-9.15.06a21.38,21.38,0,0,0-3.79,9.41,47.81,47.81,0,0,0,1.58,15.58c.88,2.72,1.57,3.29,1.76,3.41s16.22,0,16.22,0,.82-.25,1.2-2.27S149.6,41.21,148.65,35.4Zm-3.16,4.93c-1.39.88-2.14-1-2.77-3.73a13.23,13.23,0,0,0-1.52-4c-1.64-3.66,2.27-3.78,3.6-.5C145.77,34.47,146.88,39.44,145.49,40.33Z" transform="translate(-6.57 -6.86)"/><rect class="cls-1" x="123.97" y="14.34" width="9.15" height="2.21"/><polygon class="cls-1" points="126.11 14.15 126.11 11.82 128.54 11.82 130.28 14.28 126.11 14.15"/><rect class="cls-3" x="123.97" y="9.67" width="9.15" height="4.67"/></g><g id="Picture_1" data-name="Picture 1"><rect class="cls-3" x="31.28" y="8.24" width="40.01" height="55.93"/><rect class="cls-3" x="39.97" y="20.39" width="22.63" height="31.64"/></g><g id="Laundry_Machine" data-name="Laundry Machine"><rect class="cls-10" x="104.11" y="100.37" width="95.46" height="118.74"/><line class="cls-3" x1="104.4" y1="114.34" x2="198.98" y2="114.34"/><path class="cls-3" d="M174.7,113.92a3.2,3.2,0,1,1-3.2-3.2A3.2,3.2,0,0,1,174.7,113.92Z" transform="translate(-6.57 -6.86)"/><path class="cls-3" d="M187.79,113.92a3.2,3.2,0,1,1-3.2-3.2A3.2,3.2,0,0,1,187.79,113.92Z" transform="translate(-6.57 -6.86)"/><path class="cls-3" d="M200.89,113.92a3.2,3.2,0,1,1-3.2-3.2A3.2,3.2,0,0,1,200.89,113.92Z" transform="translate(-6.57 -6.86)"/><line class="cls-3" x1="148.05" y1="101.82" x2="148.05" y2="112.01"/><rect class="cls-3" x="112.02" y="107.96" width="27.67" height="1.4"/><circle class="cls-11" cx="158.4" cy="166.6" r="39.52" transform="translate(-30.33 19.52) rotate(-8.86)"/><circle class="cls-9" cx="158.4" cy="166.6" r="35.8" transform="translate(-30.96 20.34) rotate(-9.11)"/><path class="cls-1" d="M192.51,177.48l-3.39-3.86a23.82,23.82,0,0,1-4.42-4.91c-2-3-17.71-1.73-17.71-1.73l-3.68-1.23s-3.45-6.63-5.41-8.6-3.82-1.18-3.82-1.18l-8,5.36s-9.83-.74-11.55-.25c-1.14.33-7.64,2.64-11.9,4.17,0,.44,0,.89,0,1.35a35.8,35.8,0,0,0,69.91,10.88Z" transform="translate(-6.57 -6.86)"/><path class="cls-11" d="M183.65,183c-1.68-1.4-15.35-4.19-15.35-4.19s-5-6.14-7.26-7.53-9.77-2.24-13.68-1.4c-3.55.76-14.26,17-16.17,19.92a35.78,35.78,0,0,0,56-1.94A17.17,17.17,0,0,0,183.65,183Z" transform="translate(-6.57 -6.86)"/><path class="cls-13" d="M183.65,172.43c-.84.84-19,3.91-19.82,3.91s-13.12,9.21-13.12,9.21,3.35,2.23,5.31,3.63,15.07-2.79,15.07-2.79l5.3,4.47,3.32,4.5a35.68,35.68,0,0,0,13.92-35.06l-.21-.15S184.49,171.6,183.65,172.43Z" transform="translate(-6.57 -6.86)"/><circle class="cls-11" cx="87.83" cy="166.6" r="35.8" transform="translate(-31.89 9.19) rotate(-9.13)"/><path class="cls-3" d="M112.57,149.59a30,30,0,1,0,0,34Z" transform="translate(-6.57 -6.86)"/></g><g id="Character_2" data-name="Character 2"><path class="cls-9" d="M101,96.82s-12.94,4.64-15.81,8.29-1.66,12.6-1.66,12.6S79.33,127.88,80.1,130s18.36,15,20.46,15.26,7.85,8.29,7.85,8.29a14.5,14.5,0,0,0,5.41-4.86c2.44-3.54-.44-11.5,0-14.48s8.52-7.19,8.52-15.26-5.2-14.48-10.17-18.46S104.09,95.6,101,96.82Z" transform="translate(-6.57 -6.86)"/><path class="cls-10" d="M110.38,158.5l3.16,6.64s25.78-10.59,27.21-11.07a28.43,28.43,0,0,1,5.53-.47l3,1.74s2.37-.79,2.37.63-3.64,3.8-3.64,3.8-2.21,2.84-4.9,3.48-7.28-.64-7.28-.64S112.28,177,111,177.32s-11.7-12-11.7-12,3.16-5.85,4.27-6.17S110.38,158.5,110.38,158.5Z" transform="translate(-6.57 -6.86)"/><polyline class="cls-3" points="142.72 148.48 140.51 149.9 136.87 150.85"/><path class="cls-9" d="M88.39,130.35s-3-2.37-11.86-.48S65.3,142.68,62.3,147.75s-6,17.08-6,17.08-7.6,7.12-11.08,14.08-1.89,16.29,2.38,21.51S55,206.9,55,206.9a57.38,57.38,0,0,0-5.22,4.43c-1.26,1.42-4.59,4.11-5.85,8.38s.47,6,1.74,5.7,5.69-4.75,8.7-6.17a39.36,39.36,0,0,1,7.27-2.53c.79-.16,14.08,3.95,18,6.17S102,228.73,106.11,229a9.21,9.21,0,0,0,8.22-4.11c.79-1.58,3.17-6.64.32-10.75a16,16,0,0,0-6.33-5.54s13.61-19.93,13.61-23.72-2.69-7.6-7.12-9.34-26.73,4-26.73,4l5.85-8.38a24.13,24.13,0,0,0,4.9-2.22c3.48-2.37,4.11-7.75,4.11-7.75l7.44-2.69s-2.37-15.66-4.59-19.93S94.88,130.19,88.39,130.35Z" transform="translate(-6.57 -6.86)"/><path class="cls-19" d="M72.89,188.24s21.83,10.44,32.74,19.45" transform="translate(-6.57 -6.86)"/><path class="cls-19" d="M93.93,199.31s15-5.7,20.09-9.81" transform="translate(-6.57 -6.86)"/><path class="cls-19" d="M70.13,213.55c9.66,4.21,22.34,9,29.81,9" transform="translate(-6.57 -6.86)"/><path class="cls-10" d="M66.25,215c.47-2.85,2.06-2.22,2.06-2.22L55,206.9a57.38,57.38,0,0,0-5.22,4.43c-1.26,1.42-4.59,4.11-5.85,8.38s.47,6,1.74,5.7,5.69-4.75,8.7-6.17a39.36,39.36,0,0,1,7.27-2.53,24.28,24.28,0,0,1,4.22,1C66,217.05,66.06,216.12,66.25,215Z" transform="translate(-6.57 -6.86)"/><path class="cls-1" d="M88.08,179.54l5.85-8.38a24.13,24.13,0,0,0,4.9-2.22c3.48-2.37,4.11-7.75,4.11-7.75l7.44-2.69s-2.37-15.66-4.59-19.93-10.91-8.38-17.4-8.22c0,0-3-2.37-11.86-.48S65.3,142.68,62.3,147.75s-6,17.08-6,17.08-7.6,7.12-11.08,14.08a15.64,15.64,0,0,0-.78,1.89c1.63-.26,5.74-.5,11.86,1.9,8.06,3.16,19.61,5.54,25.46,3.16A15.09,15.09,0,0,0,89,179.31Z" transform="translate(-6.57 -6.86)"/><path class="cls-3" d="M102.94,161.19s.64-8.22-.47-12.34" transform="translate(-6.57 -6.86)"/><path class="cls-3" d="M66.09,156s3.94,3.47,7.74,3.32" transform="translate(-6.57 -6.86)"/><path class="cls-3" d="M62.14,161.51a33.3,33.3,0,0,0,9.49.31" transform="translate(-6.57 -6.86)"/><path class="cls-3" d="M54.55,174s7.75,3.64,12.49,8.39" transform="translate(-6.57 -6.86)"/><path class="cls-3" d="M64.67,177.8s4.9,4.27,6.17,5.85" transform="translate(-6.57 -6.86)"/><path class="cls-13" d="M133.47,183.81s-7.23,5.93-8.63,8.16-5.35,13.09-5.35,13.09l4,19H167.2a18.51,18.51,0,0,0,3.36-6.83c1.18-4.33.62-12.15.62-12.15l-15.63-9.21s-5.31-8.65-5.86-9.77-6.7-4.19-8.94-4.47S136.52,181,133.47,183.81Z" transform="translate(-6.57 -6.86)"/><path class="cls-1" d="M140.2,188.62s8.37-4.74,10.6-4.74,8.94,3.91,10.33,4.46,6.7,6.42,7.54,6.7,6.44.43,6.15,3.43-5.2,22.91-5.2,22.91l-2.42,2.69s-17.75-18.49-18.89-19-11.18-1.36-12.3-1.36-9.4-2.09-6.51-5.23S140.2,188.62,140.2,188.62Z" transform="translate(-6.57 -6.86)"/><rect class="cls-10" x="105.85" y="186.86" width="67.34" height="5"/><path class="cls-10" d="M177,198.47h-2.14l-1.5,6.59h-11l1-6.59H160.2l-1,6.59H148.31v-6.59h-3.12v6.59H133.68l-1-6.59H129.5l1,6.59h-11l-1.5-6.59h-2.14l5.35,26.05a2.94,2.94,0,0,0,2.88,2.34h44.66a2.93,2.93,0,0,0,2.87-2.34l2.13-10.39Zm-56.76,9.71H131l.93,5.95H121.55Zm3,13.2-.94-4.14h10.18l.94,6.07h-7.76A2.48,2.48,0,0,1,123.19,221.38Zm22,1.93h-8.66l-.95-6.07h9.61Zm0-9.18h-10.1l-.92-5.95h11Zm11.13,9.18h-8v-6.07h9Zm1.43-9.18h-9.44v-5.95h10.37Zm9.45,9.18h-7.72l.94-6.07h10.14l-.94,4.14A2.47,2.47,0,0,1,167.2,223.31Zm4.07-9.18H160.91l.93-5.95h10.78Z" transform="translate(-6.57 -6.86)"/><path class="cls-10" d="M90.05,122.25A40.88,40.88,0,0,1,88.51,127a27.88,27.88,0,0,1-1.77,3.32s2.32,9.72,4.31,13,4.31,4.64,5.75,2.54,3.31-9.39,3.31-9.39l-9-15.37Z" transform="translate(-6.57 -6.86)"/><path class="cls-10" d="M110.93,109.9a30.4,30.4,0,0,1-7.17,4.14C99.21,116,98,115.56,98,115.56s-2.63,2.12-3.53,2-1.22-1.62-1.62-2.83-3.74-1.52-4.75,1.11-.4,5.55.41,6.57A6.54,6.54,0,0,0,90.63,124s.2,5.56,1.71,7.07,7.07,8,9.4,7.07a14.39,14.39,0,0,0,4.44-3.23s4.34-3.33,5.46-5,2-6.77,2-6.77,2.32-4.85,2.12-7.17S110.93,109.9,110.93,109.9Z" transform="translate(-6.57 -6.86)"/><path class="cls-3" d="M111.74,120.2s-2.23,3-2.33,3.94.1,4.65-.6,5.25-3.74,1-4-.2" transform="translate(-6.57 -6.86)"/><path class="cls-3" d="M100.22,129.19s2.43,3.44,5.36,3.34" transform="translate(-6.57 -6.86)"/><path class="cls-3" d="M106.89,118.89a4.91,4.91,0,0,0-4.75-1.62" transform="translate(-6.57 -6.86)"/><path class="cls-3" d="M112.44,119.7a2.92,2.92,0,0,1,2.23.2" transform="translate(-6.57 -6.86)"/><path class="cls-6" d="M104.77,122.53c-.34.73-1,1.17-1.35,1s-.46-.94-.12-1.67,1-1.17,1.36-1S105.11,121.79,104.77,122.53Z" transform="translate(-6.57 -6.86)"/><path class="cls-6" d="M112.34,124c-.34.73-.94,1.17-1.35,1s-.45-.94-.11-1.67,1-1.18,1.35-1S112.69,123.31,112.34,124Z" transform="translate(-6.57 -6.86)"/><path class="cls-1" d="M68.94,145.85s12,34,14.08,34.64,44.92,2.69,44.92,2.69,4.58.94,5.53.63,3.8-1.42,3.8-1.42,6.17,2.53,7.11,2.68.32-1.58.32-1.58-2.69-5.22-4.43-6.48-13.92,2.21-13.92,2.21l-33.69-9.49-9.49-34.95" transform="translate(-6.57 -6.86)"/><path class="cls-10" d="M133.47,183.81c.95-.32,3.8-1.42,3.8-1.42s6.17,2.53,7.11,2.68.32-1.58.32-1.58-2.69-5.22-4.43-6.48-13.92,2.21-13.92,2.21l-33.69-9.49-4.45-16.41-14.38,6c3.58,9.58,8,20.84,9.19,21.2,2,.63,44.92,2.69,44.92,2.69S132.52,184.12,133.47,183.81Z" transform="translate(-6.57 -6.86)"/></g><g id="Wall"><line class="cls-3" x1="27.44" y1="270.65" x2="51.03" y2="270.65"/><line class="cls-3" x1="27.44" y1="305.1" x2="74.25" y2="305.1"/><line class="cls-3" x1="24.42" y1="286.27" x2="70.59" y2="286.27"/><line class="cls-3" x1="74.5" y1="286.27" x2="104.11" y2="286.27"/><line class="cls-3" x1="54.55" y1="270.65" x2="78.14" y2="270.65"/><line class="cls-3" x1="37.09" y1="256.4" x2="60.68" y2="256.4"/><line class="cls-3" x1="33.36" y1="259.37" x2="33.36" y2="267.18"/><line class="cls-3" x1="18.66" y1="275.45" x2="18.66" y2="283.26"/><line class="cls-3" x1="63.22" y1="259.37" x2="63.22" y2="270.4"/><line class="cls-3" x1="94.46" y1="259.37" x2="94.46" y2="270.4"/><line class="cls-3" x1="49.44" y1="271.77" x2="49.44" y2="282.8"/><line class="cls-3" x1="49.44" y1="291.07" x2="49.44" y2="302.1"/><line class="cls-3" x1="79.3" y1="275.45" x2="79.3" y2="283.26"/><line class="cls-3" x1="18.66" y1="291.99" x2="18.66" y2="299.8"/><line class="cls-3" x1="79.3" y1="291.99" x2="79.3" y2="299.8"/><line class="cls-3" x1="27.44" y1="331.27" x2="51.03" y2="331.27"/><line class="cls-3" x1="27.44" y1="365.73" x2="74.25" y2="365.73"/><line class="cls-3" x1="24.42" y1="346.89" x2="70.59" y2="346.89"/><line class="cls-3" x1="74.5" y1="346.89" x2="104.11" y2="346.89"/><line class="cls-3" x1="54.55" y1="331.27" x2="78.14" y2="331.27"/><line class="cls-3" x1="33.36" y1="320" x2="33.36" y2="327.81"/><line class="cls-3" x1="18.66" y1="336.08" x2="18.66" y2="343.89"/><line class="cls-3" x1="63.22" y1="320" x2="63.22" y2="331.02"/><line class="cls-3" x1="94.46" y1="320" x2="94.46" y2="331.02"/><line class="cls-3" x1="49.44" y1="332.4" x2="49.44" y2="343.43"/><line class="cls-3" x1="49.44" y1="351.7" x2="49.44" y2="362.72"/><line class="cls-3" x1="79.3" y1="336.08" x2="79.3" y2="343.89"/><line class="cls-3" x1="18.66" y1="352.62" x2="18.66" y2="360.43"/><line class="cls-3" x1="79.3" y1="352.62" x2="79.3" y2="360.43"/></g><g id="Window"><rect class="cls-3" x="119.03" y="250.16" width="78.72" height="101.3"/><line class="cls-3" x1="158.93" y1="250.45" x2="158.93" y2="351.5"/><line class="cls-3" x1="118.88" y1="300.28" x2="198.05" y2="300.28"/><rect class="cls-1" x="117.56" y="351.32" width="82" height="6.75"/></g><g id="Trash_Can" data-name="Trash Can"><path class="cls-1" d="M67.12,375.15s-4.82,17.11-5.29,21.62c-.38,3.73.19,21.61.4,27.69a2.1,2.1,0,0,0,2.1,2H77.54l-4.82-51.64Z" transform="translate(-6.57 -6.86)"/><path class="cls-9" d="M68.92,375.15s-4.83,17.11-5.29,21.62c-.39,3.73.18,21.61.39,27.69a2.1,2.1,0,0,0,2.1,2H79.34l-4.83-51.64Z" transform="translate(-6.57 -6.86)"/><polygon class="cls-1" points="114.12 474.13 74.32 474.13 64.22 367.04 117.28 367.04 114.12 474.13"/><polygon class="cls-1" points="130.03 474.13 90.24 474.13 83.6 367.04 136.66 367.04 130.03 474.13"/><rect class="cls-1" x="59.61" y="365.85" width="29.15" height="3.37"/><rect class="cls-1" x="93.92" y="369.02" width="47.6" height="2.78"/><rect class="cls-1" x="93.99" y="366.21" width="44.76" height="2.7"/><polygon class="cls-1" points="88.76 369.22 93.92 371.8 93.92 366.21 88.76 365.85 88.76 369.22"/><path class="cls-13" d="M85.92,471c0,5.47-2.93,9.9-6.53,9.9s-6.53-4.43-6.53-9.9,2.92-9.9,6.53-9.9S85.92,465.57,85.92,471Z" transform="translate(-6.57 -6.86)"/><ellipse class="cls-9" cx="70.22" cy="464.17" rx="6.53" ry="9.9"/></g><g id="Character_1" data-name="Character 1"><path class="cls-1" d="M196.05,452.26l7.46,16.32,1.65,3.3s.44,8,.35,8.6-1.13,1.91-4.34,2a42.53,42.53,0,0,1-5.47-.17Z" transform="translate(-6.57 -6.86)"/><path class="cls-8" d="M205.16,471.88l-1.65-3.3-7.46-16.32-.25,21.1c2,.36,5.42,1,6.5,1.21a14.57,14.57,0,0,0,3,.18C205.23,473.17,205.16,471.88,205.16,471.88Z" transform="translate(-6.57 -6.86)"/><path class="cls-9" d="M195.72,480.73l0,1.57a42.53,42.53,0,0,0,5.47.17c3.21-.08,4.25-1.39,4.34-2,0-.1,0-.39,0-.8-.9.26-2.08.58-3.48.88A22.37,22.37,0,0,1,195.72,480.73Z" transform="translate(-6.57 -6.86)"/><path class="cls-1" d="M184.72,472.42l-5.32,5.67s-8.7,3.5-8.7,4.38a2.42,2.42,0,0,0,1.91,2.09c1.89.4,11.19,1.84,14.24.78,4.45-1.56,11.24-.37,11.72-1.82.56-1.74,0-7.73,0-7.73Z" transform="translate(-6.57 -6.86)"/><path class="cls-9" d="M186.85,485.34c4.45-1.56,11.24-.37,11.72-1.82a8.11,8.11,0,0,0,.23-1.86,34.59,34.59,0,0,1-4,.55c-3.12.26-6.07,1.57-10.41,2.09-3.48.41-10.81-.73-13.58-1.2a2.58,2.58,0,0,0,1.77,1.46C174.5,485,183.8,486.4,186.85,485.34Z" transform="translate(-6.57 -6.86)"/><path class="cls-8" d="M164.68,365.62s1.42,32.29,2.3,37.08,3,25,7.1,30.51S184.55,455,184.55,455l1.77,13.84-1.95.89.35,2.66s7.28,2.13,9.58,2.84a12.23,12.23,0,0,0,4.26.53s2.49-4.26,1.95-5-2.3-3.9-2.3-3.9-2.31-36.19-2-37.43,5.67-48.26,5.67-48.26l-1.42-9.4Z" transform="translate(-6.57 -6.86)"/><path class="cls-3" d="M173.9,382.3l6,3.9s.18,48.25.89,50.92,3.2,15.07,3.2,15.07" transform="translate(-6.57 -6.86)"/><line class="cls-3" x1="183.12" y1="462.9" x2="190.4" y2="462.9"/><path class="cls-1" d="M217.83,389s-13.21,21.29-13.33,22.29-1.24,5.46-.37,6.7,8.31,8.19,11,9.8,8.19,1,10.55.25,9.19-7.57,10.06-8.81,1.11-5.34.37-7.2-12-20-12-20L223,384.82S218.75,386.3,217.83,389Z" transform="translate(-6.57 -6.86)"/><line class="cls-3" x1="214.81" y1="378.95" x2="212.58" y2="393.35"/><line class="cls-3" x1="216.43" y1="385.91" x2="217.92" y2="393.6"/><line class="cls-3" x1="213.62" y1="380.15" x2="210.59" y2="388.39"/><path class="cls-10" d="M211.28,354.9l10.88,24.37s-3.41,3.54-3.67,4.07a53.93,53.93,0,0,0-.66,5.63s1.84-1.57,2.36-2a15.26,15.26,0,0,1,2-1.05l.91,5.77s.27.91,1.05.26a23.22,23.22,0,0,1,2.36-2c.53-.26,3.28-2.88,3.41-3.54s-3-11.14-3-11.14l-5.38-24.51Z" transform="translate(-6.57 -6.86)"/><path class="cls-3" d="M226.48,385.57a18.77,18.77,0,0,1,.13,3.27c-.13,1.18-2.09,2.1-2.09,2.1" transform="translate(-6.57 -6.86)"/><polygon class="cls-1" points="205.63 304.39 214.8 341.35 202.09 344.76 200.91 340.96 197.63 335.98 205.63 304.39"/><polygon class="cls-1" points="200.65 344.24 203.53 349.87 216.9 345.29 215.59 338.73 200.65 344.24"/><path class="cls-9" d="M181.89,306l-1.41.25-7.29,1.34s-7.45,52.16-8.33,55.35a15,15,0,0,0-.71,5,35.36,35.36,0,0,0,16.67,5.14c9.94.54,13.66-.53,13.66-.53l4.08-64.93Z" transform="translate(-6.57 -6.86)"/><path class="cls-10" d="M168.6,278.78s-2.4,8.35-1.64,9.11a8.06,8.06,0,0,1,1.26,1.77s-2.28,6.08-1.52,6.46,2.91,1.39,2.91,1.39,2.15,8.1,3,8.35,4.3-1.27,4.3-1.27l.51,4.56s3.16,3,7.09,2.66,6.45-2.15,7.59-4.18a9.52,9.52,0,0,0,.88-5.57c-.12-1.13-1-5.18-1-5.18l.64-9.75s2.4-11.39.63-13.41-9.62-3.93-15.57-2.91-11.39,2.27-10.75,4.3A18.37,18.37,0,0,0,168.6,278.78Z" transform="translate(-6.57 -6.86)"/><path class="cls-9" d="M193.28,273.72c-1.77-2-9.62-3.93-15.57-2.91s-11.39,2.27-10.75,4.3a18.37,18.37,0,0,0,1.64,3.67s7.72-1.77,9.49-1.14,1.14,1.77.63,3a2.83,2.83,0,0,0,1.4,3.29,20.83,20.83,0,0,0,4.17.88s-.63,2.53-.25,2.66,1.14-.25,1.14-.25,1.64-2.91,3.67-2.28,1.52,4.3.63,5.69a13.93,13.93,0,0,1-1.77,2.28s2.75,2.06,4.43,1.93l.51-7.75S195.05,275.74,193.28,273.72Z" transform="translate(-6.57 -6.86)"/><polygon class="cls-9" points="170.39 297.74 177.6 295.08 170.89 302.29 170.39 297.74"/><path class="cls-3" d="M169.36,287s.89-1.89,3.67-1.13" transform="translate(-6.57 -6.86)"/><path class="cls-3" d="M172.27,298.52a7.11,7.11,0,0,0,5.19-2.28" transform="translate(-6.57 -6.86)"/><path class="cls-6" d="M172.5,289.32c.18.75-.05,1.45-.53,1.57s-1-.4-1.19-1.14.05-1.45.52-1.57S172.31,288.58,172.5,289.32Z" transform="translate(-6.57 -6.86)"/><path class="cls-1" d="M97.67,315.25s15.08,29.15,16,32.77a9.23,9.23,0,0,1-2.18,8.27c-1.45,1.6-10.15,8-13.92,8.27s-14.07-3.19-17.11-6.67-3-7.11-3.48-8.13,10.42-27.67,12.66-33.18c.25-.63,4.42-2.49,4.42-2.49Z" transform="translate(-6.57 -6.86)"/><line class="cls-3" x1="92.32" y1="320.62" x2="90.03" y2="309.18"/><line class="cls-3" x1="85.23" y1="309.49" x2="80.1" y2="325.75"/><line class="cls-3" x1="86.54" y1="309.71" x2="86.65" y2="318.22"/><path class="cls-10" d="M131.87,321.39,97.29,308.28s-2.59-.72-3.45.29-5.77,4.61-5.62,5.33c0,0,.43,2.16,1.15,2.6s5.62-.29,5.62-.29l2.74.14a3.65,3.65,0,0,0,2,0c1.3-.29,4-1.15,4-1.15S124.09,330,126.4,331.34s7.2,1.29,7.2,1.29Z" transform="translate(-6.57 -6.86)"/><path class="cls-3" d="M97.37,311.74l-4.3,1.65s-3.42,1.44-3.08,2.21,2,.66,2.75.33a11.46,11.46,0,0,1,1.88-.55l2,.66" transform="translate(-6.57 -6.86)"/><line class="cls-3" x1="85.18" y1="307.09" x2="83.64" y2="306.1"/><path class="cls-1" d="M177.12,307.56s-6.92,25.36-7.93,35.16S165,384.65,165,384.65l-13.68-4.76,4-52-20.75,5.47-.43-13.25,22-9.51s2-2.16,2.31-2.6,18.42-3.4,18.42-3.4Z" transform="translate(-6.57 -6.86)"/><path class="cls-1" d="M175,305.11a17.27,17.27,0,0,0-2.59,5.33c-.57,2.6-1.87,6.34-1.87,6.34l3.6-3.31s.72.72.72,1.15,2.31-7.06,2.31-7.06l-.17-3Z" transform="translate(-6.57 -6.86)"/><polyline class="cls-3" points="150.38 306.18 148.79 321.02 147.78 307.62"/><path class="cls-1" d="M130.43,319.81l2.45,15.13,4.9-.87-1.44-15.41S133,319.23,130.43,319.81Z" transform="translate(-6.57 -6.86)"/><path class="cls-1" d="M193,302.06l-2.71,85.47a63.32,63.32,0,0,0,17.3-3.41L205.52,345l6.68-33.73-16.65-7.6S196.4,300.21,193,302.06Z" transform="translate(-6.57 -6.86)"/><path class="cls-1" d="M195.55,303.65l2,13.37-3.28-4.72-1.57,1.18.35-11.42S195.55,300.11,195.55,303.65Z" transform="translate(-6.57 -6.86)"/><line class="cls-3" x1="198.95" y1="338.12" x2="206.55" y2="324.18"/><line class="cls-3" x1="205.37" y1="320.38" x2="201.01" y2="329.58"/></g></svg>