<svg xmlns="http://www.w3.org/2000/svg" viewBox="0 0 330.95 377.81">
<g id="Layer_2" data-name="Layer 2"><g id="Layer_1-2" data-name="Layer 1">
<path d="M115.62,227.65c0-9.44,0-18.55-.06-27.65a4.46,4.46,0,0,0-1.29-2.57C101.13,182.92,95,165.85,95.71,146.34c.12-3.26-.69-5-3.93-6.52C76,132.35,69.77,113,77.91,97.48a8.56,8.56,0,0,0,.82-6.39c-5.33-24.9-1-47.67,16.34-66.9,9-10,20.6-13.86,34.12-10.7a4.73,4.73,0,0,0,3.75-.72C145.81,1.14,161.07-1.69,177.59.87c18.25,2.83,35.28,9,50.09,20.41,17,13,25,30.69,26.19,51.79a27.82,27.82,0,0,1,.09,4.18,44.67,44.67,0,0,0,4.35,24.53c7.63,16.3-2.13,35.56-19.41,41.12-2.57.83-3.6,1.82-3.53,4.65.49,19.45-5.44,36.59-18.65,51.09a6.72,6.72,0,0,0-1.36,4.08c-.13,7.47.06,14.95-.12,22.42-.07,2.66,1,3.31,3.39,3.8,21.42,4.46,43.1,8,64.15,13.86,30.86,8.54,48.31,33.36,48.17,65.3-.1,21.79,0,43.59,0,65.38v4.33H.18c-.06-1.29-.16-2.52-.16-3.74Q0,342.53,0,311c.06-36.46,19.68-60,52.2-71.06,12.59-4.27,26.22-5.47,39.39-8C99.43,230.44,107.28,229.13,115.62,227.65ZM12.18,366.1H52v-32H64v32H268.57V334.1h11.84v32h39.07a20.85,20.85,0,0,0,.25-2.16c0-19.64.3-39.29-.27-58.91-.73-25.6-16.25-45.38-41-51.58-21.47-5.36-43.25-9.44-64.94-13.91-1.32-.27-3.36.66-4.4,1.7q-19.11,19.06-38,38.36c-1.67,1.7-3.1,3.63-4.8,5.63-1.74-1.64-2.84-2.64-3.9-3.68-13.27-13.07-26.5-26.19-39.85-39.17-1.08-1.05-3.12-2-4.48-1.75-20.65,3.83-41.35,7.51-61.87,12-26.9,5.83-43.3,25.55-44.1,53-.56,19.37-.2,38.77-.24,58.15A18.45,18.45,0,0,0,12.18,366.1Zm95.95-242.4h.5c0,8.86-.13,17.74.06,26.6a66.06,66.06,0,0,0,1.24,12.81,57.84,57.84,0,0,0,64.86,45.11c29.64-4.31,50.81-30.77,49.39-61.1-.66-14-.55-28.12-.44-42.17,0-6.44,1.19-12.86,1.37-19.3.15-5.64-2.67-8.73-8.17-9.65-2.35-.4-4.9-.86-7.15-.37-8.62,1.9-17.47,3.35-25.65,6.5-13.51,5.21-25.61,4.44-37.07-4.73A33.76,33.76,0,0,0,128,69.75c-11.67-.8-19.86,6.63-19.86,18.31Zm135-41C244.19,61.39,238.53,43.22,221,30c-11-8.34-23.58-13.2-36.89-16.24-18.63-4.25-35.58-2.4-48.18,14.13-.06.09-.22.11-.5.24-.81-.32-1.75-.66-2.68-1-12.89-5.39-22.1-3.18-31,7.7A57.65,57.65,0,0,0,89.1,66.36c-.59,6.18-.11,12.46-.11,19,5.43-1.37,8.23-3.47,9.82-8.28s5-9,8-13.19,7.51-6.16,12.37-6.62a68.85,68.85,0,0,1,14.35.25c8.94,1.05,16.51,5.44,23.43,11,6,4.8,12.6,5.36,19.67,2.89,4.06-1.41,8.06-3.19,12.24-4,8.66-1.67,17.38-3.59,26.14-4,10.51-.44,18.48,5.33,21,14.2C237.06,81.4,239.25,82.46,243.11,82.74ZM128,209.64c0,6.51-.17,12.42.1,18.31a8.52,8.52,0,0,0,2.12,5.23c11.15,11.22,22.46,22.27,33.75,33.35a20.75,20.75,0,0,0,2.17,1.62C178.25,256,190.23,244,202.16,232a4.25,4.25,0,0,0,1.37-2.56c.12-6.39.06-12.8.06-19.7C178.31,224.21,153.48,224.22,128,209.64Zm108.09-78.79c7.12-1.22,12.75-9,12.82-17.95.07-8.31-5.57-16.51-12.82-17.87ZM95.82,128.66V96.28C83.89,103.83,83.8,122,95.82,128.66Z"/><path d="M165.64,297.32a8.17,8.17,0,0,1,8.42,8,8.27,8.27,0,1,1-16.53.31A8.15,8.15,0,0,1,165.64,297.32Z"/><path d="M165.56,338.09a8.43,8.43,0,0,1,8.5,8.31,8.27,8.27,0,1,1-8.5-8.31Z"/><path d="M142,168l8-8.09c10.22,10.43,20.7,10.53,31.19-.08l8.41,7.89C178.5,181.44,156.86,184.46,142,168Z"/><path d="M151,122.19a10.07,10.07,0,0,1-10.24,9.95,9.82,9.82,0,0,1-9.8-9.94,10,10,0,1,1,20,0Z"/><path d="M203.5,122.68a10,10,0,0,1-20-.85c.24-5.46,5.33-10.09,10.64-9.69A10.3,10.3,0,0,1,203.5,122.68Z"/></g></g>
</svg>