<svg xmlns="http://www.w3.org/2000/svg" viewBox="0 0 292.89 355.83">
<g id="Layer_2" data-name="Layer 2"><g id="Layer_1-2" data-name="Layer 1">
<path d="M130.44,274.55c-6,1.81-11.34,3.75-16.88,5.06-8.59,2-16.34-.23-22.14-6.79a96.33,96.33,0,0,1-11.75-16.35c-5.27-9.35-12.71-14.89-23.3-17a97.69,97.69,0,0,1-18.18-5.59C28.54,230,23.75,222.21,23.49,212c-.19-7.22.28-14.46.72-21.67a25.6,25.6,0,0,0-6.37-18.95C13.47,166.25,9.16,161,5.31,155.53c-7.08-10.11-7.08-20.56,0-30.65,3.94-5.61,8.34-10.9,12.76-16.15A25.06,25.06,0,0,0,24.2,90.45c-.41-7.34-1-14.71-.72-22,.49-14.91,10.39-21.94,23.14-25a5.59,5.59,0,0,1,6.65,4.13,5.73,5.73,0,0,1-3.39,7.1c-2.14,1-4.46,1.61-6.64,2.54-5,2.11-7.69,6-7.77,11.32A128.33,128.33,0,0,0,36,84.58c1.41,12.84-1.36,24.21-10.3,33.91A156,156,0,0,0,15.53,131c-4.51,6-4.56,12.26-.08,18.3a132,132,0,0,0,9.63,12c9.43,10,12.44,21.78,10.83,35.18a113.27,113.27,0,0,0-.45,15.31c.09,5.51,2.77,9.66,8,11.51a136,136,0,0,0,17.2,5C73.34,231,82.68,237.73,89,249a131.14,131.14,0,0,0,9.15,13.66c3.73,5,8.8,6.9,14.89,4.88,5.2-1.73,10.45-3.43,15.44-5.66,11.74-5.26,23.35-5.41,35.18-.31,5.36,2.31,10.92,4.22,16.48,6.05s10.49.25,14-4.35a107,107,0,0,0,9-13.27c6.59-11.88,16.2-19.26,29.67-21.81A117.94,117.94,0,0,0,248,223.92c6.26-2.08,9.62-6.57,9.49-13.25-.14-7.1-.49-14.2-.8-21.3a34.36,34.36,0,0,1,8.09-24.24c3.9-4.7,7.88-9.36,11.53-14.26,6-8.08,6-13.27,0-21.36-3.58-4.8-7.42-9.41-11.33-13.95-7.78-9-9-19.62-8-30.92.44-5.08.53-10.21.55-15.31,0-6.17-3-10.56-8.83-12.53A155.56,155.56,0,0,0,231.77,52c-12.22-2.62-21.31-9.19-27.57-20a152.55,152.55,0,0,0-9.54-14.3c-3.73-5-8.84-6.82-14.91-4.78C174.44,14.7,169.1,16.5,164,18.74,152,24,140.32,23.83,128.44,18.52a158.3,158.3,0,0,0-15.8-5.74c-5.63-1.81-10.48-.15-14,4.44-3.19,4.14-5.88,8.65-8.89,12.93-2.8,4-5.53,8-8.67,11.7-2.72,3.17-6.28,3.19-8.9.64-2.41-2.34-2.19-5.54.12-8.74,4.07-5.66,8-11.45,11.87-17.23,4.53-6.69,9.42-13,17.63-15.46,6-1.82,11.9-.82,17.64,1.18s11.5,4.15,17.16,6.45a26,26,0,0,0,19.69.09C163.85,6,171.42,3,179.21.86a21,21,0,0,1,22.17,6.62A94.35,94.35,0,0,1,213.15,23.8c5.34,9.47,12.83,15.14,23.6,17.12a90.33,90.33,0,0,1,17.51,5.28c9.89,4,14.95,11.86,15.17,22.44.15,7.22-.3,14.46-.73,21.67a25,25,0,0,0,6.29,18.6c3.91,4.53,7.81,9.11,11.31,14,8.81,12.23,8.79,22.49-.06,34.73-3.57,5-7.55,9.62-11.52,14.26a24.3,24.3,0,0,0-6,17.95c.4,6.72.9,13.45.81,20.17-.19,13.3-5.59,20.72-18.09,25.44-3.25,1.23-6.62,2.12-10.34,3.29q3.49,13.1,7,26.19,8,29.78,16,59.54c2,7.33-1.53,10.79-8.94,8.88-12.81-3.31-25.61-6.6-38.38-10.06a4.72,4.72,0,0,0-5.28,1.37c-9.24,9.31-18.57,18.52-27.88,27.75-5.64,5.57-10.3,4.29-12.36-3.38q-7.31-27.24-14.6-54.49c-1.06-4,.5-7.15,3.83-8.14s6.51,1,7.75,5.09c.21.71.42,1.43.62,2.15q5.39,20.22,10.79,40.44a11.57,11.57,0,0,0,2.19,4.3,34.68,34.68,0,0,1,3.06-4.1c7-7.09,14.22-14,21.19-21.19a8.35,8.35,0,0,1,9.08-2.53c10.47,2.85,21,5.49,31.5,8.2,1,.24,1.92.41,3.63.77-7-26.1-13.89-51.75-20.82-77.6a16,16,0,0,0-10.11,6.19c-3.26,4.4-6.11,9.09-9.23,13.61-2.19,3.18-4.34,6.42-6.82,9.36-7.2,8.52-16.39,11.16-27,7.95-6.55-2-12.86-4.75-19.31-7.07-11.94-4.28-12.37-4.06-15.55,7.75q-9.16,34.11-18.28,68.21c-.1.36-.18.73-.28,1.09-2.13,7.7-6.73,9-12.35,3.42-7.72-7.64-15.79-15-23-23.09-4.82-5.43-9.25-6.92-16.36-4.54-10.85,3.64-22.15,6-33.28,8.79-6,1.51-9.73-2.1-8.16-8q8.73-32.85,17.65-65.67c1.17-4.3,4-6.15,7.63-5.23,3.49.87,5,4.07,3.9,8.35q-7,26.18-14,52.35c-.32,1.18-.6,2.37-1,4.09,2.3-.49,4.21-.84,6.09-1.32,9.66-2.51,19.33-5,29-7.61a8.14,8.14,0,0,1,8.82,2.27c7.44,7.57,15,15,22.55,22.47.87.86,1.79,1.67,3,2.8Z"/><path d="M236.46,139.9c.07,46.44-35,83.93-78.75,89.42a90.2,90.2,0,0,1-99.53-71.49C47.68,106.53,84.38,56.52,136.45,51a88.3,88.3,0,0,1,58.27,13.53,8.67,8.67,0,0,1,3.79,5.09c.27,1.66-1,4.49-2.39,5.27a8.62,8.62,0,0,1-6.55.21c-4.14-1.66-7.85-4.37-11.95-6.14A78,78,0,0,0,69.37,128c-7.16,43.15,24.16,84.44,67.83,89.43,48.44,5.53,89.88-33.26,87-81.8-.41-6.88-2.39-13.7-4-20.47-1.24-5.29,1.46-9.33,6.29-8.7,3,.39,4.41,2.53,5.27,5.15A91.62,91.62,0,0,1,236.46,139.9Z"/><path d="M140.7,157.39l44.51-49q14.46-15.93,28.91-31.88c3.13-3.44,6.74-4.06,9.47-1.67s2.66,6.1-.46,9.54q-38.58,42.57-77.21,85.1c-3.76,4.14-7.31,4.22-10.72.16q-14.46-17.18-28.76-34.48c-3.35-4.06-2.18-8.82,2.36-10.2,3.12-1,5.24.62,7.11,2.88q10.89,13.08,21.82,26.14C138.6,155,139.5,156,140.7,157.39Z"/></g></g>
</svg>