<svg xmlns="http://www.w3.org/2000/svg" viewBox="0 0 244.9 364.55">
<g id="Layer_2" data-name="Layer 2"><g id="Layer_1-2" data-name="Layer 1">
<path d="M195.12,240.49c10.68,2.21,20.08,5.39,28.45,11.11,13.71,9.37,21.3,22.13,21.32,39q0,33.18,0,66.36c0,5.61-2.1,7.57-7.78,7.57H8.09c-6.07,0-8-2-8-8.12,0-21.75-.11-43.49,0-65.24.12-21.25,12.09-37.65,33.41-45.86,5.09-2,10.4-3.37,15.76-5.08-.56-.41-1.18-.95-1.87-1.36C20.62,223.48,9.76,202.12,15,171.53c4.44-26.19,9.79-52.26,18.53-77.46,5.36-15.44,12.35-30,23.41-42.3.93-1,1.15-3.19.92-4.71-1-6.91-2.19-13.81-3.6-20.65-.78-3.74.38-6.21,3.41-8.29C70.41,9.33,84.69,4.37,99.85,1.94c25.55-4.09,50.48-2,74.3,8.71,4.86,2.18,9.35,5.2,13.93,8,2.61,1.58,3.5,4,2.91,7.08-1.34,7.12-2.62,14.24-3.74,21.39-.22,1.44-.16,3.51.69,4.45,13,14.33,20.32,31.58,25.93,49.71a491.56,491.56,0,0,1,16.7,74.06c3.81,25.93-5.92,46.47-28.13,60.75C200.27,237.46,198,238.74,195.12,240.49ZM59.65,167.55c-.55-.08-1.15-.19-1.75-.27-12-1.49-20-10.95-19.32-23,.63-11.24,9.94-19.7,21.78-19.81,2.75,0,5.5,0,8.23-.09,10.5-.46,20.58-2.42,29.23-8.9,4.09-3.06,8.08-6.27,12-9.56,13.5-11.35,29.26-17.26,46.51-19.75a6.84,6.84,0,0,1,7.53,3.48c3.85,6.11,8.21,11.91,12,18.08A111.37,111.37,0,0,1,183,122c.78,1.83,1.47,2.42,3.36,2.55a21.12,21.12,0,0,1,20.15,20.28,21.36,21.36,0,0,1-18.79,22.39c-.82.11-1.64.26-2.51.4-.16,1.07-.32,1.92-.4,2.78-1.87,18.55-10.17,33.63-25.2,44.5-4.5,3.26-6.21,6.39-6,11.8.17,4.09,1.21,5.51,5.28,6.53,9.72,2.45,18.63,2.48,28.06-2.12,23.14-11.27,34.16-28.22,31.94-52.67-.84-9.28-3.17-18.43-5.09-27.59-4.16-19.78-8.37-39.55-15.68-58.49-3.55-9.2-7.77-18-13.84-26.17a8.94,8.94,0,0,0-.61,1.22c-.19.72-.34,1.45-.48,2.19-1.1,5.92-4.33,7.6-10,5.38a46.71,46.71,0,0,0-7.47-2.3c-17.46-3.65-35.16-4.1-52.87-3.47-14.54.53-29.17.86-43,6.46-3.63,1.47-6.86-.82-7.82-4.8-.35-1.47-.62-3-1.11-5.35-2.39,3.8-4.55,6.59-6,9.71-3.57,7.54-7.33,15.06-10.11,22.9-8.19,23.12-12.51,47.24-17.42,71.19-2.06,10-2.61,20.08.48,30,4.9,15.75,16.57,25,30.75,31.84,7.65,3.71,15.1,5.35,23.64,2.87,8.79-2.54,8.82-2,9-11.26.06-2.88-.93-4.39-3.29-6A61,61,0,0,1,62,180.54C60.92,176.34,60.44,172,59.65,167.55ZM174,149.61l-1-.07c0-4.74,0-9.49,0-14.23A35.58,35.58,0,0,0,164,111.69a49.85,49.85,0,0,1-6.63-9.48c-1.67-3.29-3.67-3.48-6.86-2.83-14.71,3-27.16,10.19-38.24,20.09-10.74,9.59-23.12,15.52-37.63,16.41-2.35.14-2.84,1.24-2.82,3.35.09,8.74-.15,17.49.09,26.22.71,26,19.63,46.72,45.11,49.7a50,50,0,0,0,54.28-37.72C173.44,168.46,173.16,158.9,174,149.61ZM116.53,352.36c0-13.69-.09-27.05.07-40.4,0-2.69-.95-3.64-3.31-4.37-8.32-2.57-16.58-5.37-24.87-8.06-5.83-1.89-6.56-2.91-6.44-9.18a32.28,32.28,0,0,0,0-6,4.73,4.73,0,0,0-2.12-3.17c-3.72-1.73-7.65-3-11.43-4.6-3.53-1.5-4.76-4.16-3.65-7.89,1.61-5.37,3.39-10.7,5.07-16,.38-1.24.68-2.51,1.12-4.13-2.6.49-4.68.76-6.7,1.3-9.83,2.65-20.07,4.35-29.36,8.28-15.37,6.5-23.48,18.4-23,35.89.5,18,.11,36,.11,54v4.27H36.81c1.18-7.55,2.09-14.69,3.47-21.74.63-3.19,3.25-4.68,6.55-4.22s4.8,2.58,5,5.64c.09,1.31-.59,2.66-.75,4-.61,5.38-1.16,10.77-1.76,16.42Zm116.39,0v-3.88c0-19-.13-38,0-57,.12-12.9-5.51-22.49-15.86-29.66-8.62-6-18.49-8.5-28.56-10.46-5.79-1.13-11.58-2.29-18-3.56,1.81,5.59,3.38,10.44,4.94,15.29,3.58,11.1,3.44,11.39-7.27,15.6-8.34,3.28-8.34,3.28-8.25,12.15.05,5.65-.78,6.82-6.24,8.62-8.37,2.77-16.75,5.52-25,8.23v44.64h66.47a58.13,58.13,0,0,0,0-6.49c-.46-3.95-1.08-7.89-1.8-11.81-.66-3.57.74-6.55,3.79-7.54,3.24-1.06,6.44.61,7.62,4.18a32.1,32.1,0,0,1,1.56,6.54c.54,5,.82,10.09,1.2,15.14ZM172.48,61.64c1.37-7.83,2.78-15.42,4-23,.66-4.09,2.71-9.26,1-12.08-1.89-3.18-7.15-4.57-11.17-6.22-19.5-8-39.81-9.78-60.57-7.14C92.79,14.82,80.42,18.46,69,25c-1.78,1-2.79,2-2.13,4.38.92,3.35,1.23,6.87,1.84,10.32q2,11,4,21.9A274.09,274.09,0,0,1,172.48,61.64Zm-50,220.08,31.32-37.37c-2.27-.53-3.7-.9-5.15-1.19-5.63-1.16-6.8-2.57-6.83-8.34,0-3.32,0-6.64,0-10.42a65.64,65.64,0,0,1-38.68,0c0,4.22,0,8,0,11.69.07,3.89-1.91,6-5.56,6.84l-6.4,1.4ZM116.33,296c-.06-3.29-29.24-39.39-34.12-42.72-1.46,4.64-2.91,9.24-4.43,14,4,1.56,7.66,3.06,11.37,4.43,3.46,1.28,5.25,3.54,5,7.36a50.36,50.36,0,0,0,0,7.47,3.63,3.63,0,0,0,1.73,2.68C102.51,291.59,109.26,293.71,116.33,296Zm31.55-7.22c0-2.7,0-5.19,0-7.67-.11-7,.25-7.54,6.89-10.11l9.48-3.72c-1.32-4.07-2.52-7.75-3.91-12L128,293.86l.92,1.09Zm-88.23-152c-5.77.29-9.35,4.18-9.11,9.67a8.49,8.49,0,0,0,9.11,8.45Zm125.69,18.44c6.18-.72,9.51-4.52,9.17-10-.31-4.93-3.91-8.3-9.17-8.38Z"/><path d="M177.06,302.25c3.86,0,7.73-.06,11.59,0s6.37,2.46,6.42,5.84a6.05,6.05,0,0,1-6.29,6.07q-12,.21-23.92,0a6.08,6.08,0,0,1-6.25-6.12c.08-3.36,2.65-5.73,6.49-5.8S173.07,302.25,177.06,302.25Z"/><path d="M128.87,29.39c8,1.39,10,2.71,10,6.42,0,4-2.67,5.61-10.19,6.21-.24,4.56.2,10-6.81,9.83-3.76-.11-4.94-2.36-5.56-9.84-4.42-.27-9.69.08-10-6.44-.17-3.66,2.14-5,10-6.18.28-4.3-.34-9.48,6.12-9.86C126.39,19.29,127.62,21.35,128.87,29.39Z"/></g></g>
</svg>