<svg xmlns="http://www.w3.org/2000/svg" viewBox="0 0 383.26 327.74">
<g id="Layer_2" data-name="Layer 2"><g id="Layer_1-2" data-name="Layer 1">
<path d="M383.26,35.9c-1,1.87-1.59,4.08-3,5.53-4.73,4.86-6.16,11.14-7.95,17.27a3.83,3.83,0,0,0,.91,2.89C382.65,73.3,383,85.92,377,99.14,372.46,109.2,365.27,117,356.07,123c-2.81,1.84-5.61,3.72-8.3,5.73-3.9,2.9-5.21,6.7-4,11.53,1.47,6.09-1.25,9.8-8,11.38-6.32,1.48-10.18-.88-11.82-6.86a30.68,30.68,0,0,1,2.26-22.44c-4.14,4.43-7.05,8.83-7,15.58.39,38.79.19,77.58.19,116.37v5.19c7.92,0,15.38,0,22.83,0,12.66-.07,11.94-.71,11.88,12.05-.05,11,0,21.95,0,32.93,0,14.3-9,23.29-23.44,23.29q-133.78,0-267.56,0a62.84,62.84,0,0,1-11.16-.63,20.83,20.83,0,0,1-16.86-18.17,55.62,55.62,0,0,1-.31-6.71q0-103.09,0-206.2V90.41H10.51C0,90.41,0,90.41,0,79.89,0,60.81,0,41.72,0,22.64.05,9.4,9.47,0,22.66,0Q159.25,0,295.84,0C304.61,0,312,3,316.15,10.86a30.11,30.11,0,0,1,3.08,12.84c.38,14,.14,27.94.14,41.91v4.08l.69.4c.77-1,1.57-1.93,2.31-2.92,6.51-8.83,12.84-17.8,19.61-26.43,2.14-2.74,5.44-4.56,8.2-6.81a28,28,0,0,0,3.61-3c1.62-1.89,2.95-4,4.48-6,7-9,19.82-7.16,24.18,3.39.23.55.54,1.07.81,1.61ZM39.6,8.45c1.18,3.88,2.67,7.32,3.22,10.9.58,3.79.35,7.71.35,11.57q0,32.37,0,64.73V278.26c0,8.86-.17,17.72.1,26.57a19.06,19.06,0,0,0,2.18,8.48c2.8,5,9,7,14.69,5.42,5.49-1.56,9.34-6.71,9.38-13,.09-12.72,0-25.45,0-38.17,0-7.81.27-8.08,7.93-8.08q114.14,0,228.26,0h4.88V142.74l-30.24,41.08c1.38,1.13,2.61,2,3.66,3,2,2,2.29,4.44.09,6.2-4.94,4-10.18,7.6-15.22,11.46-1.37,1-2.95,2.19-3.64,3.66q-5,10.65-9.52,21.53a9.74,9.74,0,0,1-6.15,5.93c-10.77,3.9-21.46,8-32.19,12-5.74,2.15-8.07.52-7.75-5.54.66-12.08,1.33-24.16,2.26-36.21a8.35,8.35,0,0,1,2.68-5c6.16-5.65,12.54-11,18.82-16.56a6.75,6.75,0,0,0,2.17-2.44c1.71-5.29,3.06-10.7,4.83-16,2.55-7.62,3.83-8,10.45-3.69a4.4,4.4,0,0,0,1.14.31c.69-.89,1.4-1.75,2.06-2.65Q281.26,123,308.33,86.05a13.62,13.62,0,0,0,2.47-7.44c.21-18.08.12-36.17.11-54.26,0-11.12-4.8-15.89-16-15.89H39.6Zm34,310.67c1.67.11,2.63.22,3.58.22q127,0,254,0c9.24,0,14.55-5.45,14.58-14.73,0-11.1,0-22.19,0-33.29,0-1.08-.13-2.16-.2-3.18H77.87c0,9.4,0,18.49,0,27.58C77.8,303.6,79,311.7,73.6,319.12ZM273.51,178.94c.68-.89,1.14-1.47,1.58-2.07q36.38-49.41,72.74-98.81c3.05-4.14,3-5-.39-8.9-5-5.71-12.1-5.53-16.45.39l-69.84,94.9c-.8,1.09-1.58,2.2-2.54,3.53ZM8.36,81.74H34.23c.2-.48.39-.7.39-.93,0-20.07.17-40.14-.08-60.21-.09-7.25-5.88-11.89-13.6-11.91A12.55,12.55,0,0,0,8.44,21.07C8.22,41.13,8.36,61.2,8.36,81.74Zm234,106c-7.1,6.2-14,12.15-20.73,18.2a5.08,5.08,0,0,0-1.54,3.11c-.61,8.68-1.07,17.38-1.55,26.08a29.63,29.63,0,0,0,.19,3.1c9.41-3.54,18.48-6.89,27.49-10.39a4.53,4.53,0,0,0,2.15-2.32c3.43-7.59,6.82-15.19,10-22.88a3.92,3.92,0,0,0-.78-3.59C252.72,195.17,247.65,191.58,242.36,187.7ZM356.11,66.8c2.65-3.63,5.07-6.92,7.47-10.23a15.46,15.46,0,0,0,1.23-1.87,9.22,9.22,0,0,0-2.28-11.48c-3.38-2.79-8.65-3.12-11.62.06-3.75,4-6.86,8.62-10.53,13.33C347.44,57.7,352.24,61,356.11,66.8Zm-23.75,76.75c2.9.07,3.42-1.21,2.9-3.52-1.52-6.79,1-12.32,6-16.7a81.93,81.93,0,0,1,9.41-6.73c10.05-6.55,17.53-15.11,21-26.79q3.69-12.57-4.81-22.66c-2.13,1.37-2.47,2.61-1.09,4.68,3.68,5.56,4.09,11.61,2.07,17.91-3.36,10.48-10.31,18-19.32,24a76,76,0,0,0-11,8.33C331.38,127.88,329.65,135.1,332.36,143.55Zm-1.68-28.06.39.22c5.47-3.88,11-7.7,16.39-11.66,6.55-4.79,11.22-11,12.82-19,.47-2.39-.27-5-.45-7.54h-1.17ZM274.42,190l-26.68-19.63c-.91,2.56-1.81,4.73-2.4,7a2.88,2.88,0,0,0,.69,2.45c7,5.31,14.09,10.51,21.11,15.7C269.69,193.61,271.85,192,274.42,190ZM371.27,39.49c1.78-2.43,4.87-4.67,3.09-8.32A7,7,0,0,0,370,27.78c-4.13-.74-5.48,2.9-7.32,5.37Z"/><path d="M152.33,43.36h75.94c1.25,0,2.84-.42,3.66.19,1.42,1.05,3.15,2.69,3.25,4.18.08,1.21-1.86,2.85-3.26,3.76-.89.58-2.42.18-3.67.18H76.74c-5.17,0-7-1-7.14-4s2-4.34,7.16-4.34Z"/><path d="M140.28,86.62q31.41,0,62.81,0c1.24,0,2.74-.38,3.68.17,1.42.84,3.44,2.37,3.4,3.55,0,1.51-1.65,3.24-3,4.36-.77.63-2.39.27-3.64.27Q140,95,76.4,95c-1.12,0-2.58.36-3.28-.21-1.4-1.11-3.28-2.77-3.25-4.17s2.09-2.83,3.55-3.82c.78-.53,2.18-.15,3.3-.15Q108.51,86.6,140.28,86.62Z"/><path d="M127.61,129.72h50.45c1.12,0,2.52-.38,3.3.14,1.58,1.06,3.67,2.42,4,4,.56,2.53-1.52,4-4.07,4.27a22.69,22.69,0,0,1-2.61.07q-51.19,0-102.4,0c-1.35,0-3,.15-4-.51-1.18-.77-2.59-2.4-2.52-3.57.07-1.38,1.39-3,2.63-3.9,1-.68,2.63-.46,4-.47Q102,129.7,127.61,129.72Z"/><path d="M115.07,181.3H76.55c-1.12,0-2.5.34-3.3-.19-1.4-.91-3.44-2.41-3.39-3.59,0-1.52,1.72-3.18,3.06-4.35.66-.58,2.16-.22,3.28-.22H154c.75,0,1.5,0,2.25,0,2.62.18,4.32,1.56,4.31,4.2s-1.65,4.07-4.34,4.1c-2.86.05-5.73,0-8.6,0Z"/><path d="M102,224.55c-9.21,0-18.43.14-27.64-.13-1.57,0-3.57-1.58-4.46-3-.52-.84.4-3.12,1.33-4.16.74-.81,2.48-1,3.78-1,17.93-.06,35.85,0,53.78-.05,3,0,5.33.86,5.25,4.28-.07,3.18-2.32,4.06-5.15,4.06C119.93,224.54,111,224.56,102,224.55Z"/></g></g></svg>