<svg id="Layer_1" data-name="Layer 1" xmlns="http://www.w3.org/2000/svg" viewBox="0 0 225.04 179.28"><defs><style>.cls-1{fill:#606060;}</style></defs><path class="cls-1" d="M67.58,58.26C62.06,46.88,65.54,37,73,27.94c7.9-9.51,18-15.61,30.28-17.54,13.13-2.05,24.63,4.43,29.82,16.74a3.8,3.8,0,0,0,3.18,2.68c5.58,1.06,8.69,4.79,9.12,10.46s-1,10.8-2.54,16a3.56,3.56,0,0,0,.89,3.87A10.93,10.93,0,0,1,139,77.83a3.31,3.31,0,0,0-2.59,2.91,28,28,0,0,1-6.75,13.83,8.29,8.29,0,0,0-2.32,6.31c.15,5.8,0,5.82,5.6,7.63,12,3.9,24.07,7.76,36.08,11.68,12.91,4.22,21,14.78,21.29,28.37.25,11,.11,22.1,0,33.14,0,4.74-2.83,7.35-7.78,7.41-8.45.1-16.89.18-25.34.18q-53.85,0-107.71,0c-7.39,0-14.78-.09-22.17-.18-5.4-.06-8-2.7-8-8.15,0-10.48-.09-21,0-31.43.15-14.32,8.17-25,21.84-29.45,13-4.19,25.89-8.43,38.87-12.55,1.79-.57,2.6-1.4,2.28-3.25a1,1,0,0,1,0-.24,12.84,12.84,0,0,0-3.48-11c-3.23-3.47-4.79-8-5.77-12.72a3,3,0,0,0-1.52-2,11.26,11.26,0,0,1-4.26-19.54C67.42,58.64,67.46,58.46,67.58,58.26ZM157.09,183V155.77c0-4.66-1.7-6.33-6.29-6.33H56c-4.76,0-6.4,1.62-6.41,6.46q0,12.3,0,24.61c0,.79.08,1.58.13,2.49ZM78.47,66.84h0c0,2.51,0,5,0,7.54a24.48,24.48,0,0,0,8.94,19.45c8.37,7.19,17.9,8.78,27.9,4.37C125.5,93.73,131,85.61,131.22,74.34c.12-5.52.27-11.05,0-16.55a23.83,23.83,0,0,0-2-7.92,7.32,7.32,0,0,0-7.79-4.71c-2.77.28-5.45,1.41-8.21,1.91-1.29.23-3.27.4-3.94-.32-4.24-4.61-9.56-5.44-15.36-5.06A16.36,16.36,0,0,0,78.47,58.07C78.46,61,78.47,63.91,78.47,66.84Zm74.69,76.5c8.26,3.15,9.77,5.36,9.77,14.14v25.76c6.9,0,13.54,0,20.17-.09.5,0,1.4-1.29,1.41-2,.06-11.28.26-22.57-.12-33.84-.29-8.56-4.53-15.42-12.13-19.26-5.93-3-12.51-4.72-19.1-7.12v22.4Zm-18,.13c0-7.11,0-14,0-20.88,0-2.35.76-5.29-.36-6.88s-4.16-1.74-6.36-2.52c-.22-.09-.47-.15-.68-.26-1.5-.78-2.38-.29-3.35,1.09-5.47,7.76-11,15.44-16.61,23.12-1.84,2.53-3.77,2.51-5.66.06-.4-.51-.76-1-1.14-1.57-5.61-7.75-11.22-15.49-16.87-23.31-3.66,1.18-7.18,2.4-10.75,3.43-1.47.42-1.82,1.2-1.81,2.61.07,5.76,0,11.52,0,17.29v7.82ZM53.46,122.24c-4.14,1.33-7.9,2.53-11.65,3.76a23.84,23.84,0,0,0-16.46,20.9c-.29,4.28-.16,8.59-.18,12.89q0,10.47,0,20.94c0,1.11-.21,2.48,1.51,2.5,5.58,0,11.17,0,17.05,0v-3.1c0-8.45,0-16.89,0-25.33,0-5.32,2.89-9.25,7.56-10.72.69-.22,1.38-.41,2.13-.62ZM72.61,55c.29-.9.46-1.33.56-1.78,3.76-17.34,24.91-21.48,36.25-13.82a6,6,0,0,0,5.86.89c10.06-3,17.67.94,20.74,10.49.38,1.2.68,2.42,1,3.64h.87c.56-4.53,1.38-9.05,1.6-13.59.16-3.44-1.85-5.46-5.27-5.34-3.58.14-4.87-1.56-6-4.62-3.59-10.15-11.61-15.92-22-14.79-15.45,1.69-26.91,9.82-33.81,23.84A16.2,16.2,0,0,0,72.61,55Zm48.81,46.9a33.53,33.53,0,0,1-16.37,4.53,33.88,33.88,0,0,1-16.8-4.52c0,3.33-.5,6.14,1.76,8.79,2.64,3.07,4.81,6.52,7.19,9.81L104.86,131c.61-.77,1.07-1.31,1.48-1.88,4.37-6.06,8.56-12.25,13.16-18.12C121.72,108.2,121.72,105.33,121.42,101.85Zm25.81,17.42-6.12-2v26.1h6.12Zm-81.64-.88a38.68,38.68,0,0,1-4,1.2c-1.79.33-2.27,1.28-2.21,3,.12,4,0,8.1,0,12.15v8.7h6.19ZM72.2,72.14V62.65a5.18,5.18,0,0,0,0,9.49Zm65.29-.07a4.53,4.53,0,0,0,3.11-4.23,4.85,4.85,0,0,0-3.11-5.15Z" transform="translate(-19.29 -10.02)"/><path class="cls-1" d="M205.3,121.16c0-19.41,0-38.82,0-58.23,0-1.19-.76-2.36-1-3.57-.37-2-.5-4-.92-5.91a13.05,13.05,0,0,0-1.51-4.65c-5-7.21-10.14-14.3-15.23-21.44-1.89-2.65-1.76-3.67.67-5.76a42.44,42.44,0,0,1,55-.1c2.52,2.16,2.66,3.19.69,5.95C237.8,34.72,232.57,42,227.43,49.26a6.55,6.55,0,0,0-1.13,3.07c-.22,2.86.46,5.83-1.76,8.34-.46.53-.18,1.73-.18,2.62q0,57.74,0,115.47c0,6.22-4.08,10.45-9.82,10.3-5.33-.15-9.21-4.26-9.22-9.92q0-23.26,0-46.53Zm28.12-98.82c-.61,1-1,1.69-1.44,2.39-1.71,2.94-3.39,5.92-5.15,8.83a2.73,2.73,0,0,1-4,1.06c-1.58-.91-1.84-2.38-1-4,.42-.79.87-1.56,1.32-2.33l5-8.79-10.26-2.33c-.07,1.19-.15,2-.15,2.76,0,3.17,0,6.34,0,9.51,0,2-.62,3.58-2.88,3.77-1.78.15-2.88-1.28-2.95-3.67,0-1.46,0-2.92,0-4.38v-8l-10.44,2.45,6.18,10.73c.93,1.63.9,3.14-.74,4.28-1.48,1-3.27.42-4.43-1.54-2.06-3.48-4.06-7-6.22-10.76l-4.05,2.87c5.07,7.09,9.91,13.92,14.84,20.66A3.42,3.42,0,0,0,209.44,47c3.49.13,7,.17,10.47,0a4.37,4.37,0,0,0,2.93-1.49c4.63-6.27,9.13-12.64,13.65-19a16.13,16.13,0,0,0,.85-1.49ZM211.29,61.79v84.94h7.08V61.79Zm7,108.77v-5.8h-7.06v5.8Zm.06-17.68h-7v5.74h7Zm0,23.84h-7.18c-.07,2.22-.67,4.55,1.56,5.77a4.83,4.83,0,0,0,3.8.17C219.05,181.53,218.53,179.1,218.41,176.72ZM209.35,53v2.72h10.9V53Z" transform="translate(-19.29 -10.02)"/><path class="cls-1" d="M103.54,162.57H75c-.73,0-1.71.24-2.14-.13-.93-.82-2.15-1.94-2.19-3,0-.86,1.36-1.87,2.27-2.64.34-.29,1.1-.1,1.67-.1h57.48c.57,0,1.34-.17,1.66.12.88.8,2.15,1.79,2.17,2.73s-1.15,2.06-2,2.83c-.43.38-1.41.17-2.13.17Z" transform="translate(-19.29 -10.02)"/><path class="cls-1" d="M103.18,176H75.42c-.89,0-2,.2-2.62-.23-.94-.66-2.12-1.81-2.11-2.75s1.24-2,2.18-2.68c.55-.4,1.57-.18,2.38-.18q28,0,56,0c3.54,0,4.9.83,4.87,2.94s-1.36,2.9-4.95,2.9Z" transform="translate(-19.29 -10.02)"/></svg>