<svg id="Layer_1" data-name="Layer 1" xmlns="http://www.w3.org/2000/svg" viewBox="0 0 267.92 335.4"><defs><style>.cls-1{fill:#606060;}</style></defs><path class="cls-1" d="M123.14,328c-6.32-1.44-11.2-4.6-13.42-11-1.6-4.64-.81-9,1.49-13.55l-44-25.42c-3.38,5.5-7.94,9.09-14.28,8.62a25.47,25.47,0,0,1-10-3.36c-12-6.67-23.86-13.64-35.75-20.54-3.27-1.91-4.33-4.73-2.89-7.29s4.5-3.13,8-1.11q18,10.37,36,20.77c5.35,3.08,7.77,2.4,10.89-3,1.64-2.82,3.27-5.65,5-8.65-4.78-2.78-9.39-5.46-14-8.13-9.91-5.73-19.85-11.41-29.74-17.19-2.84-1.66-3.74-4.53-2.44-6.92s4.28-3.15,7.4-1.54c.68.34,1.33.75,2,1.13L52.56,245.3c5.38,3.11,10.76,6.2,16.58,9.55,2.19-4,4.51-7.76,6.36-11.75,1.36-2.95,0-5.35-3.54-7.43-9.52-5.54-19.08-11-28.62-16.53-2.93-1.69-5.89-3.32-8.77-5.1-3.08-1.9-3.9-4.61-2.34-7.15,1.47-2.38,4.28-3,7.21-1.36,13,7.43,26,14.79,38.79,22.47,7.36,4.41,9.43,12.28,5.93,20.23-.26.59-.51,1.18-.82,1.91.9.58,1.68,1.13,2.51,1.61,17.66,10.21,35.35,20.37,53,30.63a4.31,4.31,0,0,0,5,.05c18.38-10.71,36.83-21.3,55.22-32,1-.6,2.32-1.7,2.46-2.71,1.48-10.89,8-18.25,16.88-23.67,10.92-6.63,22.73-9.71,35.37-6.1,14,4,20.68,16.94,16.48,30.82-5.07,16.76-23.72,30.8-41.17,30.71a32.77,32.77,0,0,1-9.23-1.76,5.3,5.3,0,0,0-4.85.46c-3.42,2.14-6.94,4.13-10.48,6.06-3.21,1.76-5.9,1.17-7.38-1.44s-.57-5.24,2.56-7.1c4.88-2.9,9.75-5.82,14.78-8.44,1.37-.71,3.67-1.06,4.89-.39,9.51,5.25,18.17,2.71,26.5-2.59a35.81,35.81,0,0,0,14.08-16c4.5-10.32-.08-19.17-11.07-21.49-11.43-2.42-28.15,4.16-34.32,14a25.83,25.83,0,0,0-3.13,9.78c-.47,3.1-1.59,5.13-4.36,6.7-17.43,9.95-34.78,20-52.16,30.08-1.11.64-2.19,1.32-3.58,2.16,3.85,2.23,7.29,4.34,10.86,6.19a4,4,0,0,0,3.19-.2c5.68-3,11.27-6.21,16.9-9.34a23.17,23.17,0,0,1,2.31-1.22c2.69-1.11,5.28-.34,6.56,1.91,1.37,2.41.71,5.1-2,6.73-4.69,2.78-9.5,5.35-14.26,8-1,.58-2,1.19-3,1.77,4,10.68,1.24,19.1-7.5,23.12-1.06.49-2.14,1-3.21,1.43h-5.9c-4-2-8-3.9-11.83-6.07a3.7,3.7,0,0,0-4.13,0c-4,2.15-8.13,4.05-12.21,6.05Zm-51-58.67c.76.49,1.29.87,1.85,1.19l79.63,45.95a17.72,17.72,0,0,0,2,1,5.82,5.82,0,0,0,7.54-2.66,5.52,5.52,0,0,0-1.76-7.69,37.08,37.08,0,0,0-3.3-2.13q-39.21-22.7-78.46-45.36a12.76,12.76,0,0,0-1.6-.65ZM131.33,315l-11.22-6.48c-2,3.09-1.76,5.55.5,7.73C123.32,318.82,126,318.58,131.33,315Z" transform="translate(-3.59 7.44)"/><path class="cls-1" d="M210.88,150.78v17.31c0,11.46.05,22.92,0,34.39-.07,10.11-6.57,16.59-16.62,16.68-6.66.06-13.32,0-20,0-4,0-6.4-1.93-6.33-5s2.3-4.77,6.19-4.79c6.55,0,13.1,0,19.65,0,5,0,7.17-2.15,7.25-7.18,0-3.14,0-6.28,0-9.63H76.26c0,4-.19,7.91.06,11.79.19,2.83,2.14,4.46,4.93,4.9a19.67,19.67,0,0,0,3.26.12h68.13a21.48,21.48,0,0,1,3.59.13,4.58,4.58,0,0,1,4.09,4.45,4.51,4.51,0,0,1-3.48,4.92,12.71,12.71,0,0,1-3.55.34q-34.73,0-69.44,0c-11.31,0-17.6-6.32-17.62-17.68q0-23.58,0-47.16v-3.67a66.64,66.64,0,0,1-25.94-8.3C1.67,120.48-1.8,64.29,33.86,37.85c14-10.37,29.59-14.56,46.86-12,2.39.34,3.41-.56,4.54-2.49,18.74-32.24,63-40.76,92.39-17.79a60,60,0,0,1,15.76,18.18c1,1.8,2.08,2.3,4.15,2C231,20.86,262.75,44.51,267.9,78a62.74,62.74,0,0,1-55,72.39C212.32,150.49,211.8,150.61,210.88,150.78Zm-44.56,31.57c0-5,0-9.67,0-14.34,0-3.69,1.77-5.78,4.73-5.86s5,2.08,5.1,5.9c0,1.3,0,2.62,0,3.93v10.24H201c0-9.59-.07-19,.05-28.33,0-2.42-.62-3.13-3.13-3.67-6.15-1.32-12.18-3.22-18.18-5.12a4.49,4.49,0,0,1-3.13-5.44,4.23,4.23,0,0,1,4.21-3.86,11.57,11.57,0,0,1,4.4,1,54.78,54.78,0,0,0,29.86,3.15c23.48-3.85,42.95-26,43.64-49.77A53.4,53.4,0,0,0,215.3,36c-5.22-1-10.66-.82-15.69-1.17.85,7.21,1.72,13.55,2.3,19.92a4.46,4.46,0,0,1-4.2,5.25c-2.87.38-4.88-1.2-5.39-4.42-.38-2.47-.27-5-.64-7.49A53.14,53.14,0,0,0,133,2.83C110.93,5.53,92.05,22.24,87.64,44c-.77,3.83-.88,7.79-1.47,11.66C85.73,58.53,84,60.2,81,60.06c-2.68-.11-4.44-2-4.46-5A49.5,49.5,0,0,1,77,47.52c.59-4,1.47-7.85,2.24-11.88a9.85,9.85,0,0,0-1.33-.37C44,31.28,14.4,61.88,19.53,95.52,23,118,41.29,136.47,63.45,140a55,55,0,0,0,29.81-3.54c3.7-1.48,6.38-.65,7.54,2.1s-.08,5.76-3.94,7C91,147.44,85,149,78.92,150.31c-2.16.47-2.9,1.06-2.87,3.27.11,8,0,15.94,0,23.91v4.73H98.91c0-4.7,0-9.17,0-13.63,0-4.16,1.75-6.41,4.87-6.45s5,2.22,5,6.31c0,4.55,0,9.1,0,13.82h23.8c0-2,0-3.82,0-5.65.06-3.49,0-7,.3-10.45.24-2.65,2.1-4,4.74-4a4.38,4.38,0,0,1,4.63,4.16,38.8,38.8,0,0,1,.18,4.58c0,3.78,0,7.57,0,11.43Z" transform="translate(-3.59 7.44)"/></svg>