<svg id="Layer_1" data-name="Layer 1" xmlns="http://www.w3.org/2000/svg" viewBox="0 0 170.53 171.13"><defs><style>.cls-1{fill:#606060;}</style></defs><path class="cls-1" d="M77.55,128.76v2.94c0,12.46,0,24.92,0,37.38,0,7-6.23,11.59-12.55,9.42-3.92-1.35-6.3-4.75-6.31-9.26,0-12.54,0-25.07,0-37.6,0-2.82,0-2.82-2.78-2.83H40.6c.25-.94.38-1.61.59-2.26C45.44,113.27,49.63,100,54,86.75A22.86,22.86,0,0,1,58,79.45c10.4-12.39,21-24.66,31.53-36.92a13.14,13.14,0,0,1,14.11-4.48c5.4,1.42,8.63,5.09,9.94,10.49,2.16,8.94,4.37,17.87,6.46,26.83a4,4,0,0,0,2.45,2.92c7.26,3.55,14.48,7.19,21.73,10.76a7,7,0,0,1,4.29,6.18,6.72,6.72,0,0,1-9.51,6.44c-9.31-4.41-18.49-9.1-27.69-13.72-2-1-2.87-2.9-3.42-5-1.15-4.36-2.33-8.7-3.51-13-.13-.46-.33-.91-.61-1.66l-2.51,2.92c-5.36,6.25-10.69,12.53-16.1,18.74a3.26,3.26,0,0,0-.78,3.63c3.58,10.94,7,21.92,10.53,32.88.22.67.4,1.36.68,2.32Z" transform="translate(-40.6 -7.91)"/><path class="cls-1" d="M150.79,137.67c-5.15,0-10.3,0-15.46,0-7.34,0-12.91-5.36-12.94-12.35s5.56-12.47,13-12.48q15.57,0,31.13,0c7.37,0,12.91,5.32,12.94,12.34s-5.51,12.46-13,12.49C161.24,137.69,156,137.67,150.79,137.67Z" transform="translate(-40.6 -7.91)"/><path class="cls-1" d="M120.73,158.14v-12.5h90.4c0,3.81,0,7.66,0,11.5,0,.33-.65.79-1.08,1a4.34,4.34,0,0,1-1.49,0H120.73Z" transform="translate(-40.6 -7.91)"/><path class="cls-1" d="M110.23,25.32a17.64,17.64,0,1,1,17.14,17.82A17.48,17.48,0,0,1,110.23,25.32Z" transform="translate(-40.6 -7.91)"/><path class="cls-1" d="M194.71,102.52a11.69,11.69,0,1,1-11.64,11.65A11.76,11.76,0,0,1,194.71,102.52Z" transform="translate(-40.6 -7.91)"/></svg>