<svg id="Layer_1" data-name="Layer 1" xmlns="http://www.w3.org/2000/svg" viewBox="0 0 253.54 296.2"><defs><style>.cls-1{fill:#606060;}</style></defs><path class="cls-1" d="M9.92,295.77a33.45,33.45,0,0,1-5-2.71C.59,289.72-.62,285.15.28,279.9c1.31-7.68,2.52-15.39,4-23a7.8,7.8,0,0,1,2.6-4.47,4.39,4.39,0,0,1,4.17.19,5.33,5.33,0,0,1,1.79,4.15c-.65,5.54-1.72,11-2.64,16.54-.5,3-1.13,6.06-1.46,9.12-.3,2.78,1.19,4.63,3.85,4.66,8.86.09,17.71,0,26.78,0,1.39-8.09,2.74-16,4.11-24,.93-5.41,1.85-10.82,2.82-16.22.61-3.41,2.47-5,5.12-4.57s3.94,2.74,3.33,6.27c-2.18,12.71-4.34,25.43-6.55,38.34H205.33c-2.22-12.95-4.41-25.75-6.61-38.56-.7-4.1,1.86-7,5.31-5.91,2.16.64,2.86,2.33,3.21,4.36q3.12,18.36,6.29,36.72c.2,1.13.43,2.25.68,3.54,9,0,18,.09,26.95-.05,2.88,0,4.11-2.37,3.51-6-1-5.89-2-11.77-3-17.65-3-17.56-6.11-35.1-9-52.67-1.1-6.72-4.5-10.87-11.12-12.82q-26.31-7.73-52.49-15.9c-2.58-.81-3.51,0-4.57,2.1Q151.83,209.38,139,234.58c-4.26,8.35-14.2,10.59-20.84,4.67a19.06,19.06,0,0,1-4-5.57Q101.43,208.87,89,183.94c-1.16-2.33-2.28-2.63-4.64-1.91q-26.2,8.08-52.5,15.88c-6.49,1.91-10,6-11,12.62-1.24,8.19-2.71,16.34-4.11,24.5-.59,3.39-2.41,5-5.11,4.66s-4-2.47-3.45-5.93c1.52-9.31,2.93-18.65,4.87-27.87,1.76-8.36,7.29-13.53,15.43-16q26-7.81,52-15.67c3.4-1,6.74-2.43,10.39-.84a2.05,2.05,0,0,0,1.79-.87c.91-2.17,2.06-4.4,2.28-6.68.37-3.92,0-7.9.15-11.84.08-2.29-.77-3.12-3-3-6.16.25-12.08-.65-17.51-3.87-9-5.32-13.68-13.34-13.62-23.58.06-10.39,1-20.78,1.71-31.17.68-10.57,1.23-21.17,2.25-31.71,1.26-13.06,7.42-23.55,18-31.31,2-1.49,2.51-2.72,1.36-4.91a25.1,25.1,0,0,1-1.81-4.86C80.72,13.52,83.91,7.46,90,6.13c10.63-2.3,21.31-4.44,32.05-6.13C131-1.41,139.71.94,148.4,2.69c5.19,1,10.39,2,15.54,3.26,7.07,1.67,10.71,7.92,7.83,14.57-2.24,5.2-2.34,8.51,2.75,12.34,4,3,6.55,7.94,9.46,12.21,1.78,2.62,1.11,5.25-1.06,6.54-2.38,1.41-4.75.6-6.39-2.41a36.32,36.32,0,0,0-10-12.15C164,39.53,162,42.36,159.19,44a18.19,18.19,0,0,1-8.53,2c-15,.19-30.08-.08-45.12.16-7.84.12-13.71-2.45-17-10.22A36.09,36.09,0,0,0,75.75,52c-3,7.13-2.61,14.73-3.28,22.18-.29,3.24-.38,6.5-.55,9.74,2.54.79,2.4-.93,2.49-2.33A32.13,32.13,0,0,1,84.5,59.82a30.51,30.51,0,0,1,13-7.8c3.09-.85,5.87-.51,8.18,2,12.6,13.83,28.92,20.36,46.83,23.62,5.87,1.07,11.85,1.49,17.71,2.57,2.43.45,4.67,1.9,7,2.85,1.27.51,2.58.93,4.42,1.59-.28-4.8-.52-9-.76-13.17a28.67,28.67,0,0,1-.2-3.46,4.27,4.27,0,0,1,8.54-.17c.42,4.9.72,9.8,1,14.71.79,12.21,1.54,24.43,2.34,36.64.83,12.7-3.63,22.61-15.19,28.74-4.72,2.5-9.85,3.13-15.12,3.05-3.81-.05-3.81,0-3.82,3.89,0,3.47-.08,6.94,0,10.41a15.53,15.53,0,0,0,.87,4.78c.87,2.35,2,4.13,5.31,2.91,1.6-.59,3.82-.09,5.6.44q27.4,8.15,54.73,16.48c8.85,2.68,14.22,8.52,15.8,17.68q6.25,36.28,12.46,72.58c1.21,7.08-2,12.4-8.74,15a5.41,5.41,0,0,0-.94.58Zm61.14-194v2c0,6.1.67,6.8,6.66,7.12,3.56.19,4.53,1.28,5.36,4.78,1,4.17,1.85,8.5,3.65,12.34,4.65,9.86,12.43,17.17,21.4,23,11.57,7.49,24.09,8.09,35.74.83,13.71-8.54,24.84-19.61,26.77-37,.27-2.38,1.76-3.54,4-3.83.76-.1,1.53-.09,2.3-.12,4.09-.13,5.44-1.49,5.5-5.66,0-2.22,0-4.43,0-6.65,0-4.7-1.22-5.78-6-6.1-1.62-.1-3.87-.46-4.65-1.55-1.32-1.86-2.83-2.23-4.77-2.4-2.4-.22-4.77-.61-7.16-.93-22.18-3-42.87-9.32-59-26A3.1,3.1,0,0,0,98,61.05a50.66,50.66,0,0,0-8.58,6.22c-5.38,5.28-6.58,12.15-6.47,19.4.06,4.18-1.27,5.62-5,5.87-6.34.41-6.86,1-6.86,7.2ZM127.24,37.4c7.9,0,15.79-.06,23.69,0,3.67,0,5.95-1.55,7.19-5,1.67-4.6,3.51-9.15,5.24-13.73,1.19-3.17.76-3.94-2.47-4.61l-16.38-3.37c-8-1.66-16-3.37-24.3-1.82-9.07,1.7-18.11,3.52-27.17,5.3-2.48.49-2.74,2-1.94,4.09,1.8,4.66,3.57,9.33,5.39,14,1.56,4,3.13,5.09,7.36,5.11C111.65,37.42,119.45,37.4,127.24,37.4ZM103.67,158.83c0,2.72,0,5,0,7.31A19.94,19.94,0,0,1,98.56,179c-.63.74-1.16,2.42-.76,3.05,1.19,1.9.85,5.16,4.47,5.14,16.36-.07,32.73,0,49.09-.11.95,0,2.06-1,2.78-1.76a6.94,6.94,0,0,0,1.54-3.06,3.83,3.83,0,0,0-.41-2.92,20.4,20.4,0,0,1-5.44-14.76c0-1.8,0-3.59,0-5.73C134.4,167.21,119.26,167.28,103.67,158.83Zm1.12,37.08c.45,1,.69,1.6,1,2.19q8.06,16,16.13,31.94c1,2.09,2.27,3.87,4.9,3.82s3.81-1.82,4.86-3.91c5.26-10.49,10.58-20.95,15.88-31.43.4-.79.73-1.61,1.18-2.61ZM85.13,141.73a22.84,22.84,0,0,1-1.88-2.68c-2.62-5.22-5.76-10.27-7.53-15.76-1.12-3.5-2.8-4.46-5.86-4.57C67.79,130,74.67,140.56,85.13,141.73Zm98.44-23c-3.13.09-5.42,1-5.67,4.74a12.31,12.31,0,0,1-1.56,4.61c-2.4,4.63-4.93,9.18-7.34,13.64C179.16,140.15,186.14,129.3,183.57,118.71Z" transform="translate(0 0.43)"/><path class="cls-1" d="M122.22,18c.63-5.52,1.77-7.3,4.57-7.28s3.83,1.73,4.54,7.32c3.15.37,7.35-.07,7.2,4.76-.14,4.47-4,4-7.23,4.23-.49,3.19.26,7.35-4.57,7.33s-4-4.23-4.49-7.21c-5.75-.73-7.47-1.84-7.37-4.68S116.64,18.68,122.22,18Z" transform="translate(0 0.43)"/></svg>