<svg id="Layer_1" data-name="Layer 1" xmlns="http://www.w3.org/2000/svg" viewBox="0 0 180.64 189.3"><defs><style>.cls-1{fill:#606060;}</style></defs><path class="cls-1" d="M183.64,116.62a3.79,3.79,0,0,0,2.9-3.17c3.47-14,7-28.07,10.58-42.1,1.24-4.89,5-8,9.72-8.16a9.89,9.89,0,0,1,9.9,7.29,13.76,13.76,0,0,1,.08,5.82c-3.68,18.81-7.49,37.59-11.2,56.39a7,7,0,0,1-3.12,4.73c-9.51,6.57-18.94,13.25-28.45,19.83a3.14,3.14,0,0,0-1.53,3c.06,8.24,0,16.47,0,24.7,0,3.32-1.07,4.37-4.42,4.37H137.71c-3.31,0-4.36-1.06-4.36-4.41,0-14.09-.07-28.17,0-42.26.07-11.4,5.12-20.09,14.88-26,5.41-3.26,10.9-6.4,16.39-9.54,8.26-4.74,16.94-.79,18.83,8.54C183.53,115.92,183.56,116.19,183.64,116.62ZM166,182.68c0-8.35.06-16.51-.05-24.67a5.32,5.32,0,0,1,2.59-4.9c9.63-6.65,19.17-13.42,28.79-20.07a4.73,4.73,0,0,0,2.11-3.24q4.62-23.4,9.32-46.79c.57-2.87,1.19-5.72,1.69-8.6.42-2.4-.79-4.22-2.92-4.63-1.87-.37-3.51.81-4.17,3-.1.32-.16.66-.24,1-3.63,14.5-7.23,29-10.92,43.49a5.27,5.27,0,0,1-1.84,3q-12.8,8.2-25.77,16.13a3.41,3.41,0,0,1-2.84.34,4,4,0,0,1-2.11-2.61,4.34,4.34,0,0,1,1.61-3.17c4-2.91,8.22-5.57,12.34-8.35,2.95-2,3.76-5.23,2-7.95s-5-3.37-8.07-1.56c-5.3,3.07-10.59,6.13-15.86,9.25q-11.79,7-11.84,20.72,0,18.78,0,37.57c0,.66.06,1.31.09,2.05Z" transform="translate(-36.45)"/><path class="cls-1" d="M69.45,116.46c1.21-2.44,2-5,3.58-7a11.44,11.44,0,0,1,14.55-3c6.73,3.69,13.48,7.4,19.86,11.65,8.44,5.62,12.69,13.88,12.8,24,.15,14.35,0,28.71,0,43.06,0,3.06-1.12,4.17-4.19,4.18H85.26c-3.07,0-4.18-1.12-4.18-4.18,0-8.3,0-16.6,0-24.9a3.14,3.14,0,0,0-1.53-3c-9.63-6.64-19.18-13.39-28.8-20a5.8,5.8,0,0,1-2.62-3.9C44.35,114,40.48,94.78,36.67,75.52a10.09,10.09,0,0,1,7.87-12.15c5.37-1.21,10.56,2.13,12,7.82q5.33,21.14,10.55,42.31C67.5,115.17,68.3,116.12,69.45,116.46Zm44.18,66.23c.05-.41.1-.6.1-.8,0-13.48.16-26.95-.06-40.42a21.31,21.31,0,0,0-10.43-18.39c-5.91-3.73-12-7.15-18.11-10.63a5.6,5.6,0,0,0-7.74,1.67c-1.72,2.65-1,5.88,1.75,7.87,2.16,1.54,4.38,3,6.57,4.49,2.36,1.61,4.76,3.16,7.05,4.86a3.09,3.09,0,0,1,.83,4.35,3.28,3.28,0,0,1-4.33,1.05c-.42-.21-.82-.48-1.23-.73-7.78-4.86-15.53-9.78-23.37-14.55A7.49,7.49,0,0,1,61,116.4C57.56,102.07,54,87.77,50.39,73.46c-.64-2.53-2.46-3.83-4.54-3.3s-3.09,2.4-2.6,4.82q5.47,27.49,11,55a4.5,4.5,0,0,0,2,3.05c9.45,6.54,18.82,13.2,28.29,19.7a6.23,6.23,0,0,1,3.13,5.87c-.18,7.21-.06,14.43-.06,21.64v2.46Z" transform="translate(-36.45)"/><path class="cls-1" d="M143.5,97.51c-2.38-.49-4.79-.85-7.11-1.51a47.39,47.39,0,0,1-5.69-2.2,9.23,9.23,0,0,0-7.71,0q-2.23,1-4.53,1.82c-8.12,3-15.9,1.82-23-2.68s-9.12-11.72-8-19.61C89.9,56.46,100,45.59,115.78,40.5c15.6-5,29.06,0,40.23,11.42a34.83,34.83,0,0,1,10.36,23.54c.41,11.4-6.07,19.19-17.32,21.1-1.81.3-3.64.45-5.46.67Zm0-6.58.08-.35c.75,0,1.49-.06,2.24-.13,9.62-.91,14.7-6.61,14-15.72a27.73,27.73,0,0,0-.54-3.62c-4-19.38-29.76-35.65-52.08-19.14-8.41,6.22-13.47,14.51-13.4,25.29,0,5.57,2.73,9.63,8,11.66s10.39,2.62,15.62.07c.91-.45,1.9-.72,2.83-1.13a15.62,15.62,0,0,1,13.23,0A40,40,0,0,0,138,89.66C139.81,90.19,141.67,90.51,143.5,90.93Z" transform="translate(-36.45)"/><path class="cls-1" d="M124.41,21.69a43.08,43.08,0,0,1-.62,4.47c-1.63,7-7.1,10.33-14.93,9.06C100.07,33.8,96,27.46,98.35,18.52A31.33,31.33,0,0,1,108.6,2.45C112.88-1.2,116.2-.7,119.29,4,122.73,9.14,124.12,15,124.41,21.69ZM113.72,7c-3,1.83-7,7.38-8.55,11.9-2.36,6.67.16,10.12,7.25,9.94,2.79-.08,4.39-1.2,5-3.91C118.78,18.45,116.65,12.67,113.72,7Z" transform="translate(-36.45)"/><path class="cls-1" d="M141.57,35.67c-6.21-.21-10.25-3.1-11.53-9.1-1.86-8.64.1-16.61,5.19-23.75,2.28-3.2,5-3.69,8.13-1.41,7.46,5.35,11.87,12.65,12.43,21.9.33,5.45-2.49,9.21-7.69,10.9A64.94,64.94,0,0,1,141.57,35.67Zm-1.39-28.9a24.51,24.51,0,0,0-3.93,10.5,33.79,33.79,0,0,0,.06,7.85,3.73,3.73,0,0,0,3.63,3.55,25,25,0,0,0,6.91-1.06,3.62,3.62,0,0,0,2.46-3.84C149.14,16.62,145,11.67,140.18,6.77Z" transform="translate(-36.45)"/><path class="cls-1" d="M75.14,39.31a27.27,27.27,0,0,1,4.52-14.39c3-4.36,6.08-4.84,10-1.36a25.54,25.54,0,0,1,8.84,17.15C99.11,47,95,51.37,88.12,52.07,79.56,52.94,74.75,48.21,75.14,39.31ZM85.36,28.18C83,32.52,81.48,36.7,81.92,41.33a5.22,5.22,0,0,0,1.61,3.51c2.21,1.47,4.74,1,7-.23,2-1,1.92-3,1.53-4.87C91.09,35.3,88.67,31.66,85.36,28.18Z" transform="translate(-36.45)"/><path class="cls-1" d="M178.4,39.87c-.08,1-.07,2.15-.26,3.28-1.2,6.92-6.08,10.1-13.48,8.84S154,46.1,155.35,38.74a25.38,25.38,0,0,1,9.17-15.63c3.43-2.76,6.25-2.38,8.89,1.15C176.82,28.82,178.2,34.07,178.4,39.87Zm-10-11.67c-3.29,3.6-5.75,7.29-6.7,11.8-.7,3.27.63,5,4,5.53a13.75,13.75,0,0,0,2,.12c2.59,0,3.76-1,4.11-3.53C172.45,37.19,170.78,32.8,168.37,28.2Z" transform="translate(-36.45)"/></svg>