<svg id="Layer_1" data-name="Layer 1" xmlns="http://www.w3.org/2000/svg" viewBox="0 0 195.27 181.13"><defs><style>.cls-1{fill:#606060;}</style></defs><path class="cls-1" d="M168.58,120.3l8-1.31c.28-3.14-.6-7.25,4.48-7.32,2.73,0,3.56,1.56,4.09,7.2,22.83,3.37,36.35,16.41,40.7,39.52l2.94.15c2.89.17,4.64,1.76,4.63,4.18s-1.74,4.06-4.66,4.08c-8.63,0-17.25,0-25.88,0-.67,0-1.35.09-2.31.16,0,2.41,0,4.71,0,7-.08,8.11-5.37,14.3-13.4,15.07a74.12,74.12,0,0,1-12.9-.14,12.57,12.57,0,0,1-5.71-2.15,8.59,8.59,0,0,0-5.29-1.36q-34.82.1-69.62.09H44.22c-4.87,0-6-1.13-6-5.89,0-16.48-.07-33,0-49.44.08-15.83,10.36-28,25.78-30,5.77-.76,11.71-.26,17.57-.32,1.45,0,2.89,0,4.64,0,0-3,.08-5.87-.07-8.68a3,3,0,0,0-1.36-1.89c-12.6-7.93-18.69-19.39-18.71-34.18,0-5.35,0-10.7,0-16C66.24,22,77.9,9.53,94.85,8.46a146.07,146.07,0,0,1,18.36,0c15.47,1,26.76,11.05,28.33,26.46A130.24,130.24,0,0,1,141.21,63c-1.31,11.18-7.74,19.76-17.31,25.75a3.72,3.72,0,0,0-2.1,3.89c.15,2.23,0,4.48,0,7.14,1.08,0,2.07,0,3.06,0,6.47.08,13-.44,19.38.37,11.55,1.47,19.53,8,23.76,19C168.16,119.5,168.33,119.8,168.58,120.3ZM133.46,49.69a4.54,4.54,0,0,0-.65-.13A80.83,80.83,0,0,1,92.5,40.13a3.74,3.74,0,0,0-2.84.09c-4.54,1.85-9,3.88-13.54,5.76a2.44,2.44,0,0,0-1.82,2.68c.12,2.66,0,5.34.06,8C75,76.27,92.43,89.88,111,85.36,126.49,81.6,135.77,66.94,133.46,49.69ZM217,158.38c-1.07-14.14-14.08-32.17-38.19-31-18,.83-34.87,16.09-34.07,31.05Zm-117.4,18.7a5.74,5.74,0,0,0,.25-1.13c0-8.46.06-16.91,0-25.37a4.59,4.59,0,0,0-1.39-2.53c-3.88-4.26-8.12-8.24-11.69-12.74a98.21,98.21,0,0,1-13.89-25c-.69-1.74-1.55-2.41-3.37-2.21a33,33,0,0,1-3.86,0v69Zm42.79-10.28c-3.51,0-6.77.07-10,0a4.08,4.08,0,0,1-4.24-4,4.26,4.26,0,0,1,4.1-4.19,8.34,8.34,0,0,1,1.8,0c1.49.15,2.13-.39,2.31-2a42.62,42.62,0,0,1,5.13-15.34,8.58,8.58,0,0,0,1-3.86c.08-8.89.05-17.78,0-26.66,0-.82-.07-1.64-.11-2.49-1,0-1.71,0-2.38-.12-2.83-.46-4.25.55-5.43,3.4-5.78,14-13.53,26.75-25.17,36.8a4.62,4.62,0,0,0-1.2,3.11c-.11,6.21-.06,12.42-.06,18.63v7h34.22Zm-9-125.63c2-11.21-6.62-22.91-18-24.14a155.84,155.84,0,0,0-17.57-.39,31.39,31.39,0,0,0-7.92.95C81,20,74.18,29,74.79,37.46c.92-.36,1.79-.65,2.62-1,4-1.71,7.93-3.38,11.84-5.17,1.91-.87,3.5-.53,5.39.3a179.3,179.3,0,0,0,18.12,7.34A58.75,58.75,0,0,0,133.38,41.17Zm-6.28,67.07c-4.64-.32-8.52,0-12.49,2.27-7.34,4.28-15.17,3.9-22.34-.6-3.68-2.31-7.28-1.57-11.4-1.8,5.72,13,12.48,24.63,23.15,33.83C114.7,132.71,121.49,121.07,127.1,108.24ZM57,177.08v-66c-7.19,4.61-10.53,10.89-10.54,19q0,22.26,0,44.53c0,.82.12,1.64.18,2.5ZM192.22,167H169.91c0,2.52-.06,4.91,0,7.3.11,3.71,2.29,6.31,6,6.58a72,72,0,0,0,10.59,0,6,6,0,0,0,5.69-5.47C192.4,172.64,192.22,169.88,192.22,167ZM94.48,94c0,2.07-.08,4.47.06,6.85a2.68,2.68,0,0,0,1.25,1.68c5.51,3.34,11.06,3.3,16.55,0a2.6,2.6,0,0,0,1.15-1.74c.13-2.38.05-4.78.05-6.74ZM151,167v10h10.4V167Zm9.59-43.88A20.83,20.83,0,0,0,151,111v18.27Z" transform="translate(-38.15 -8.17)"/></svg>