<svg xmlns="http://www.w3.org/2000/svg" viewBox="0 0 841.11 841.11"><defs><style>.cls-1{fill:#45afb7;}.cls-2{fill:none;stroke:#45afb7;stroke-linecap:round;stroke-linejoin:round;stroke-width:15px;}</style></defs><g id="Layer_2" data-name="Layer 2"><g id="Layer_1-2" data-name="Layer 1"><path class="cls-1" d="M416.07,449l68.31-94.37a13.17,13.17,0,0,0-2.88-18.34A13.4,13.4,0,0,0,463,339.29l-49.25,67.95-22.12-23.9a13.22,13.22,0,1,0-19.23,18.15Z"/><path class="cls-1" d="M558.08,391.43l30.38-29.66c9-8.63,4.85-23.73-7-26.61l-41.34-10.6,11.68-41c3.24-11.68-7.73-22.83-19.59-19.59l-41,11.68-10.6-41.34c-2.88-11.69-18.16-16-26.61-7l-29.66,30.56-29.66-30.56c-8.26-8.81-23.72-4.85-26.6,7l-10.61,41.34-41-11.68c-11.69-3.24-22.83,7.73-19.6,19.59l11.69,41-41.35,10.6c-11.86,2.88-16,18-7,26.61l30.37,29.66-30.19,29.65c-9,8.63-4.85,23.73,7,26.61l41.34,10.6-11.68,41c-3.24,11.68,7.72,22.83,19.59,19.6l40.27-11.51-57.53,114.5,48-13.66,13.3,44.4,63.63-126.9L488,652.61l13.31-44.4,48,13.66-57.52-114.5L532,518.88c11.68,3.23,22.82-7.73,19.59-19.6l-11.68-41,41.34-10.6c11.86-2.88,16-18,7-26.61ZM427.94,491a99.5,99.5,0,1,1,99.4-99.58A99.27,99.27,0,0,1,427.94,491Z"/><path class="cls-2" d="M508.29,60.79,499.1,47.92C460.6-6,380.51-6,342,47.92l-9.19,12.87a96.55,96.55,0,0,1-89.21,39.83l-41-4.56C141.18,89.23,89.23,141.18,96.06,202.65l4.56,41a96.55,96.55,0,0,1-39.83,89.21L47.92,342C-6,380.51-6,460.6,47.92,499.1l12.87,9.19a96.54,96.54,0,0,1,39.83,89.2l-4.56,41c-6.83,61.48,45.12,113.42,106.59,106.59l41-4.55a96.53,96.53,0,0,1,89.21,39.83L342,793.19c38.49,53.9,118.58,53.9,157.08,0l9.19-12.86a96.52,96.52,0,0,1,89.2-39.83l41,4.55c61.48,6.83,113.42-45.11,106.59-106.59l-4.55-41a96.52,96.52,0,0,1,39.83-89.2l12.86-9.19c53.9-38.5,53.9-118.59,0-157.08l-12.86-9.19a96.53,96.53,0,0,1-39.83-89.21l4.55-41c6.83-61.47-45.11-113.42-106.59-106.59l-41,4.56A96.54,96.54,0,0,1,508.29,60.79Z"/></g></g></svg>