<svg xmlns="http://www.w3.org/2000/svg" viewBox="0 0 841.11 841.11"><defs><style>.cls-1,.cls-2{fill:#45afb7;}.cls-1{fill-rule:evenodd;}.cls-3{fill:none;stroke:#45afb7;stroke-linecap:round;stroke-linejoin:round;stroke-width:15px;}</style></defs><g id="Layer_2" data-name="Layer 2"><g id="Layer_1-2" data-name="Layer 1"><path class="cls-1" d="M406.06,501c-18.85-20.64-47.77-49.64-63.71-45.72-59.54,14.63-119.86,44.47-119.86,89.35v72H619.14v-72c0-44.88-60.32-74.72-119.86-89.35-15.39-3.78-44.38,25.42-63.44,45.94-2.56,2.76-4.95,5.37-7.1,7.72-3.25,3.55-6,6.5-7.92,8.51-1.37-1.49-3.1-3.44-5.14-5.73C413,508.66,409.7,505,406.06,501ZM496,476.82a32.74,32.74,0,0,0-4.56,2.44c-5.49,3.43-12.21,9-19.53,15.87-10.21,9.61-19,19.21-26.13,27-3.59,3.93-6.78,7.42-9.54,10.24L420,549.06,404.25,531.9c-1.64-1.79-3.58-4-5.8-6.47-7.42-8.35-17.78-20-29-30.59-7.25-6.83-13.92-12.29-19.39-15.64a29.58,29.58,0,0,0-4.76-2.45c-27.7,7-54.14,17.13-73.28,29.8-20.07,13.29-27.7,26.17-27.7,37.64v49.95H596.66V544.19c0-11.47-7.62-24.35-27.7-37.64C549.89,493.93,523.57,483.8,496,476.82Z"/><path class="cls-2" d="M486.92,528H553v21.81H486.92Z"/><path class="cls-2" d="M508.74,572.32V506.21h21.81v66.11Z"/><path class="cls-1" d="M420.51,197.65c-24.68,0-55.41,8.14-75.64,14.55a9.85,9.85,0,0,0-6,13l22.3,63.18c39.52-12.56,79.2-12.56,118.72,0l22.3-63.18a9.87,9.87,0,0,0-6-13C475.92,205.79,445.18,197.65,420.51,197.65Zm-82.3-6.46c20.49-6.49,54-15.58,82.3-15.58s61.8,9.09,82.29,15.58c17.64,5.6,26.06,24.55,20.15,41.29L497,306a11,11,0,0,1-14.25,6.65c-41.58-15.6-82.9-15.6-124.48,0A11,11,0,0,1,344,306l-25.94-73.51C312.16,215.74,320.58,196.79,338.21,191.19Z"/><path class="cls-2" d="M387.76,230.55h66.11v21.81H387.76Z"/><path class="cls-2" d="M409.58,274.84V208.73h21.81v66.11Z"/><path class="cls-1" d="M362.66,300.89a77.13,77.13,0,1,0,115.69,0l16.53-14.58a99.16,99.16,0,1,1-148.74,0Z"/><path class="cls-3" d="M508.29,60.79,499.1,47.92C460.6-6,380.51-6,342,47.92l-9.19,12.87a96.55,96.55,0,0,1-89.21,39.83l-41-4.56C141.18,89.23,89.23,141.18,96.06,202.65l4.56,41a96.55,96.55,0,0,1-39.83,89.21L47.92,342C-6,380.51-6,460.6,47.92,499.1l12.87,9.19a96.54,96.54,0,0,1,39.83,89.2l-4.56,41c-6.83,61.48,45.12,113.42,106.59,106.59l41-4.55a96.53,96.53,0,0,1,89.21,39.83L342,793.19c38.49,53.9,118.58,53.9,157.08,0l9.19-12.86a96.52,96.52,0,0,1,89.2-39.83l41,4.55c61.48,6.83,113.42-45.11,106.59-106.59l-4.55-41a96.52,96.52,0,0,1,39.83-89.2l12.86-9.19c53.9-38.5,53.9-118.59,0-157.08l-12.86-9.19a96.53,96.53,0,0,1-39.83-89.21l4.55-41c6.83-61.47-45.11-113.42-106.59-106.59l-41,4.56A96.54,96.54,0,0,1,508.29,60.79Z"/></g></g></svg>