<svg xmlns="http://www.w3.org/2000/svg" viewBox="0 0 841.11 841.11"><defs><style>.cls-1{fill:#fff;}.cls-2{fill:#45afb7;}.cls-3{fill:none;stroke:#45afb7;stroke-linecap:round;stroke-linejoin:round;stroke-width:15px;}</style></defs><g id="Layer_2" data-name="Layer 2"><g id="Layer_1-2" data-name="Layer 1"><path class="cls-1" d="M590.39,555.23c-4.28-28.16-7.85-38.81-46.92-43.35-14.78-1.7-55-5.85-70-14.39s-12.58-51.35-12.58-51.35H379.1s2.39,42.79-12.59,51.35-55.22,12.69-70,14.39c-39.07,4.54-42.63,15.19-46.91,43.35C246.15,577.81,246,608,246,608H594S593.82,577.81,590.39,555.23Z"/><path class="cls-2" d="M594,614H246a6,6,0,0,1-6-6c0-1.26.19-30.89,3.64-53.64,4.76-31.27,10.48-43.54,52.13-48.38l2.78-.32c15.53-1.76,51.91-5.88,65-13.33,8.12-4.63,10.49-29.59,9.58-45.83a6,6,0,0,1,6-6.3h81.78a6,6,0,0,1,6,6.3c-.9,16.25,1.48,41.21,9.57,45.83,13.05,7.45,49.42,11.57,65,13.33l2.78.32c41.65,4.84,47.37,17.11,52.13,48.38,3.46,22.75,3.63,52.38,3.63,53.64a6,6,0,0,1-6,6ZM252.09,602h335.8c-.23-9.86-1-30-3.4-45.9-3.88-25.49-5.17-34.08-41.7-38.32l-2.75-.32c-17.65-2-54.35-6.16-69.53-14.82-14.4-8.23-15.92-36.74-15.78-50.56H385.27c.14,13.82-1.4,42.33-15.8,50.56-15.18,8.66-51.89,12.82-69.54,14.82l-2.75.32c-36.52,4.24-37.82,12.83-41.69,38.32C253.06,572.06,252.32,592.17,252.09,602Z"/><path class="cls-1" d="M512.05,339.33h-1.82c.77-6.26,1.55-12.41,2.31-18.24,3.94-30.2,12.81-118.44-92.55-118.44s-96.5,88.24-92.56,118.44c.76,5.83,1.54,12,2.32,18.24h-1.82c-16-11.86-17.38,19.11-10.7,29.7,5.54,8.77,5.67,9.72,9,19.36,2.46,7.12,6.56,8.06,10,7.29.43,4.22.8,7.89,1.06,10.82,1.48,16.28,40.62,48.9,49.48,59.1,8.31,9.57,22.17,5.84,26.61,5.64s6.63-.33,6.63-.33,2.13.12,6.62.33,18.3,3.93,26.61-5.64c8.87-10.2,48-42.82,49.47-59.1.27-2.93.64-6.6,1.07-10.83,3.43.78,7.52-.16,10-7.28,3.33-9.64,3.45-10.59,9-19.36C529.43,358.44,528.08,327.47,512.05,339.33Z"/><path class="cls-2" d="M436.86,478.08a64.1,64.1,0,0,1-8.28-.64c-.9-.11-1.65-.22-2.23-.24l-6.36-.32-6.35.32c-.59,0-1.34.13-2.24.24a64.25,64.25,0,0,1-8.28.64c-8.91,0-15.93-2.88-20.87-8.57-2.05-2.36-6.2-6.34-11-10.95-21.14-20.31-38.72-38.2-39.94-51.52-.14-1.65-.32-3.55-.53-5.64-3.49-1-7.67-3.75-10.2-11.06l-.7-2c-2.61-7.58-2.95-8.56-7.71-16.08-5.56-8.81-6.31-26-1.55-34.61,2.68-4.85,7-7.32,12-6.86-.38-3-.77-6-1.15-8.88-2.08-15.94-8.39-64.42,19.39-96.06,17-19.33,43.59-29.13,79.09-29.13s62.12,9.8,79.1,29.14c27.77,31.65,21.44,80.12,19.37,96.05-.37,2.89-.76,5.86-1.14,8.89,5-.49,9.35,2,12,6.85,4.76,8.66,4,25.81-1.56,34.61-4.76,7.51-5.09,8.48-7.69,16l-.72,2.08c-2.52,7.31-6.71,10.09-10.2,11.06-.21,2.1-.39,4-.55,5.64-1.2,13.32-18.79,31.22-39.92,51.52-4.79,4.61-8.93,8.59-11,10.95C452.79,475.2,445.76,478.08,436.86,478.08ZM420,464.94h.33l6.57.32c.81,0,1.9.17,3.19.33a52.1,52.1,0,0,0,6.78.55c5.44,0,9.22-1.42,11.86-4.47,2.4-2.77,6.52-6.72,11.73-11.72,12.37-11.9,35.4-34,36.3-44,.27-2.95.65-6.65,1.08-10.89a6,6,0,0,1,7.26-5.22,2.45,2.45,0,0,0,.62.08c1.13,0,2.19-2.9,2.39-3.48l.71-2.07c2.85-8.29,3.57-10.12,8.89-18.54,4-6.35,3.37-21.25.62-23.26a11.59,11.59,0,0,0-2.72,1.54,5.88,5.88,0,0,1-3.55,1.17h-1.82a6,6,0,0,1-5.92-6.69c.77-6.27,1.55-12.43,2.31-18.27,1.91-14.61,7.71-59.05-16.51-86.64-14.6-16.64-38.19-25.07-70.12-25.07s-55.51,8.43-70.12,25.07c-24.21,27.58-18.43,72-16.52,86.63.76,5.83,1.54,12,2.32,18.27a5.94,5.94,0,0,1-5.92,6.7h-1.82a5.9,5.9,0,0,1-3.55-1.17c-2-1.47-2.92-1.49-2.93-1.49-2.54,1.84-3.21,16.83.83,23.22,5.32,8.42,6,10.25,8.89,18.57l.7,2c.21.59,1.27,3.5,2.43,3.5a2.92,2.92,0,0,0,.6-.08,6,6,0,0,1,7.25,5.22c.43,4.24.81,7.94,1.06,10.88.91,10,23.94,32.1,36.32,44,5.2,5,9.32,9,11.73,11.73,2.64,3.05,6.42,4.47,11.86,4.47a52.1,52.1,0,0,0,6.78-.55c1.29-.16,2.37-.29,3.2-.33l6.56-.32Z"/><path class="cls-1" d="M491.13,202.65c-22.31-9.82-33.11-4.37-33.11-4.37v0c-6-6.42-21.4-17.22-55.29-12.6-47.07,6.43-51.71,17-69.17,12.83A116.09,116.09,0,0,0,322.32,229c-6.81,32.68-6.83,66.4,6.51,106.31A283.74,283.74,0,0,0,337,363.23s-4.44-57.75,4.43-80.57,40-27.8,50.43-17.82S420,273.66,420,273.66s17.8,1.16,28.16-8.82c8.75-8.42,32.22-6.16,44.72,8.45l4.12,6a33,33,0,0,1,1.58,3.34c8.89,22.82,4.45,80.57,4.45,80.57s9.66-26.57,13.27-55.67h0C528.62,234.78,511.38,211.57,491.13,202.65Z"/><path class="cls-2" d="M337,369.19a6,6,0,0,1-5.6-3.92A283.44,283.44,0,0,1,323,336.71c-12.27-36.59-14.39-71.36-6.56-108.91a121.85,121.85,0,0,1,11.89-32.23,6,6,0,0,1,6.55-2.85c7.29,1.72,12,.3,21.21-2.63a246,246,0,0,1,45.78-10.3,121.64,121.64,0,0,1,16.37-1.18c22.05,0,34.73,7.21,41.32,12.95a34.64,34.64,0,0,1,7.49-.75c7.92,0,16.82,2.14,26.44,6.37,30.18,13.29,39.28,48.68,28.66,111.37-3.63,29.18-13.16,55.61-13.56,56.72a6,6,0,0,1-11.56-2.5c.05-.56,4.23-56.66-4.05-77.94a25.86,25.86,0,0,0-1.16-2.44l-3.72-5.45c-5.87-6.69-15.6-11-24.91-11-4.75,0-8.84,1.2-10.94,3.22-9.86,9.5-24.66,10.52-30.57,10.52-.79,0-1.38,0-1.73,0s-.94,0-1.74,0c-5.89,0-20.7-1-30.57-10.52-2.11-2-6.22-3.23-11-3.23-10.74,0-24.62,5.91-29.71,18.91-7.62,19.6-4.67,68.66-4.11,76.79a6.13,6.13,0,0,1,.22,1.61,6,6,0,0,1-6,6A.19.19,0,0,1,337,369.19Zm-.12-164a112.59,112.59,0,0,0-8.68,25.06c-6.34,30.38-5.74,58.85,1.95,88.45.53-14.3,2.08-28.81,5.72-38.19C343,262.27,362,254,376.66,254c8,0,14.89,2.33,19.3,6.56,6.93,6.68,18.82,7.2,22.29,7.2.8,0,1.29,0,1.37,0a6.26,6.26,0,0,1,.75,0c.07,0,.56,0,1.35,0,3.48,0,15.37-.52,22.29-7.19,4.4-4.23,11.23-6.56,19.22-6.56,12.95,0,26,5.91,34.18,15.43a3.75,3.75,0,0,1,.38.51l4.13,6a4.65,4.65,0,0,1,.36.61,36.81,36.81,0,0,1,1.84,3.91c3.14,8,4.72,19.88,5.46,32.12.29-1.91.56-3.83.79-5.77,12.6-74.41-6.32-92-21.64-98.71-10.1-4.44-17.34-5.37-21.64-5.37a18.76,18.76,0,0,0-6.42.9,6.5,6.5,0,0,1-1.8.56,5.92,5.92,0,0,1-5.22-1.83c-4.11-4.41-14.19-11.82-35.37-11.82a109.36,109.36,0,0,0-14.76,1.07,234.37,234.37,0,0,0-43.79,9.86C351.23,204.17,344.72,206.12,336.84,205.18Z"/><path class="cls-2" d="M440,444.86a6,6,0,1,1,0-11.94c31,0,53.36-7.53,66.57-22.38,15.16-17,12.85-38.4,12.83-38.61a6,6,0,0,1,11.84-1.45c.14,1.07,3.08,26.69-15.61,47.83C500.09,435.93,474.63,444.86,440,444.86Z"/><path class="cls-1" d="M543.18,352.61c0-22-9.09-39.78-20.33-39.89v0h-7.32v2.46c-8.26,5.59-14.88,20.22-14.88,37.45s6.62,31.85,14.88,37.44v2.46h7.32v0C534.09,392.38,543.18,374.56,543.18,352.61Z"/><path class="cls-2" d="M522.85,398.48h-7.32a6,6,0,0,1-5.94-5.51c-9-8-14.91-23.65-14.91-40.36s5.89-32.39,14.91-40.37a6,6,0,0,1,5.94-5.51h7.32a4.54,4.54,0,0,1,.65,0c14.66.64,25.65,20.18,25.65,45.84s-11,45.19-25.65,45.84C523.29,398.47,523.08,398.48,522.85,398.48Zm-2.48-11.94h2.43c6-.06,14.41-13,14.41-33.92s-8.39-33.86-14.41-33.93h-2.43a6.14,6.14,0,0,1-1.49,1.43c-6.08,4.13-12.26,16.61-12.26,32.51s6.18,28.38,12.26,32.5A6.33,6.33,0,0,1,520.37,386.54Z"/><path class="cls-1" d="M523.38,384.1c0,5.21-3.38,9.43-7.58,9.43h-7.57c-4.19,0-7.58-4.22-7.58-9.43v-63c0-5.21,3.39-9.43,7.58-9.43h7.57c4.2,0,7.58,4.22,7.58,9.43Z"/><path class="cls-2" d="M515.8,399.5h-7.57c-7.46,0-13.55-6.91-13.55-15.4v-63c0-8.49,6.09-15.4,13.55-15.4h7.57c7.47,0,13.55,6.91,13.55,15.4v63C529.35,392.59,523.27,399.5,515.8,399.5Zm-7.57-81.85c-.4,0-1.61,1.23-1.61,3.46v63c0,2.24,1.21,3.46,1.61,3.46h7.57c.41,0,1.61-1.22,1.61-3.46v-63c0-2.23-1.2-3.46-1.61-3.46Z"/><path class="cls-1" d="M296.79,352.61c0-22,9.09-39.78,20.32-39.89v0h7.32v2.46c8.28,5.59,14.89,20.22,14.89,37.45s-6.61,31.85-14.89,37.44v2.46h-7.32v0C305.88,392.38,296.79,374.56,296.79,352.61Z"/><path class="cls-2" d="M324.43,398.48h-7.32c-.22,0-.43,0-.64,0-14.66-.65-25.65-20.19-25.65-45.84s11-45.2,25.66-45.84a4.54,4.54,0,0,1,.63,0h7.32a6,6,0,0,1,6,5.51c9,8,14.9,23.66,14.9,40.37S339.4,385,330.39,393A6,6,0,0,1,324.43,398.48Zm-6.86-11.94h2a6.49,6.49,0,0,1,1.48-1.43c6.1-4.12,12.26-16.61,12.26-32.5s-6.16-28.38-12.26-32.51a6.28,6.28,0,0,1-1.48-1.43h-2.44c-6,.07-14.42,13-14.42,33.93s8.41,33.86,14.42,33.92Z"/><path class="cls-1" d="M316.59,384.1c0,5.21,3.39,9.43,7.58,9.43h7.57c4.19,0,7.58-4.22,7.58-9.43v-63c0-5.21-3.39-9.43-7.58-9.43h-7.57c-4.19,0-7.58,4.22-7.58,9.43Z"/><path class="cls-2" d="M331.74,399.5h-7.57c-7.46,0-13.55-6.91-13.55-15.4v-63c0-8.49,6.09-15.4,13.55-15.4h7.57c7.47,0,13.55,6.91,13.55,15.4v63C345.29,392.59,339.21,399.5,331.74,399.5Zm-7.57-81.85c-.4,0-1.61,1.23-1.61,3.46v63c0,2.24,1.21,3.46,1.61,3.46h7.57c.41,0,1.61-1.22,1.61-3.46v-63c0-2.23-1.2-3.46-1.61-3.46Z"/><path class="cls-2" d="M523,321.84a6,6,0,0,1-6-6c0-56-43.51-101.51-97-101.51s-97,45.54-97,101.51a6,6,0,0,1-11.94,0c0-62.56,48.87-113.45,108.93-113.45s108.93,50.89,108.93,113.45A6,6,0,0,1,523,321.84Z"/><path class="cls-1" d="M457.66,439a8.18,8.18,0,0,1-8.18,8.19h-28A8.19,8.19,0,0,1,413.3,439v-.26a8.19,8.19,0,0,1,8.19-8.19h28a8.19,8.19,0,0,1,8.18,8.19Z"/><path class="cls-2" d="M449.48,453.18h-28a14.29,14.29,0,0,1,0-28.58h28a14.29,14.29,0,0,1,0,28.58Zm-28-16.64a2.22,2.22,0,0,0-2.22,2.22,2.31,2.31,0,0,0,2.22,2.49h28a2.23,2.23,0,0,0,2.21-2.23,2.28,2.28,0,0,0-2.21-2.48Z"/><path class="cls-1" d="M419.13,501.23l-43.28-18.68h0c-1.9,6.67-4.82,12.36-9.32,14.94-15,8.54-55.22,12.69-70,14.39-39.07,4.54-42.63,15.19-46.91,43.35C246.15,577.81,246,608,246,608H594s-.14-30.19-3.57-52.77c-4.28-28.16-7.85-38.81-46.92-43.35-14.78-1.7-55-5.85-70-14.39-4.5-2.58-7.41-8.27-9.31-14.92l0,0Z"/><path class="cls-2" d="M594.08,614H246a6,6,0,0,1-6-6c0-1.26.19-30.89,3.64-53.64,4.76-31.27,10.48-43.54,52.13-48.38l2.78-.32c15.53-1.76,51.91-5.88,65-13.33,2.53-1.45,4.85-5.49,6.53-11.38a6.13,6.13,0,0,1,8.13-3.84l40.95,17.67L461.85,477a6,6,0,0,1,8,3.89c1.68,5.89,4,9.92,6.54,11.37,13,7.45,49.41,11.57,64.95,13.33l2.78.32c41.65,4.84,47.37,17.11,52.13,48.38,3.11,20.45,3.56,46.46,3.62,52.42a5.15,5.15,0,0,1,.14,1.25A6,6,0,0,1,594.08,614ZM252.09,602h335.8c-.23-9.86-1-30-3.4-45.9-3.88-25.49-5.17-34.08-41.7-38.32l-2.75-.32c-17.65-2-54.35-6.16-69.53-14.82-4.14-2.37-7.4-6.38-9.9-12.19l-39.19,16.26a6,6,0,0,1-4.65,0l-37.44-16.15c-2.48,5.76-5.73,9.75-9.84,12.1-15.2,8.67-51.91,12.83-69.56,14.83l-2.75.32c-36.52,4.24-37.82,12.83-41.69,38.32C253.06,572.06,252.32,592.17,252.09,602Z"/><polygon class="cls-1" points="422.1 524.31 419.99 521.35 417.87 524.31 397.09 604.31 408.96 608 419.99 608 431 608 442.88 604.31 422.1 524.31"/><path class="cls-2" d="M431,614H409a6.2,6.2,0,0,1-1.76-.26L395.33,610a5.94,5.94,0,0,1-4-7.2l20.78-80a6.11,6.11,0,0,1,.92-2l2.11-3a6,6,0,0,1,4.86-2.49h0a6,6,0,0,1,4.86,2.5l2.11,3a5.75,5.75,0,0,1,.91,2l20.79,80a6,6,0,0,1-4,7.2l-11.87,3.69A6.21,6.21,0,0,1,431,614ZM409.87,602h20.24l5.57-1.73L420,539.91,404.3,600.3Z"/><path class="cls-1" d="M339.32,505.81h0c-16.17,3.17-34,5.06-42.83,6.07-39.07,4.54-42.63,15.19-46.91,43.35C246.15,577.81,246,608,246,608H409Z"/><path class="cls-2" d="M409,614H246a6,6,0,0,1-6-6c0-1.26.19-30.89,3.64-53.64,4.76-31.27,10.48-43.54,52.13-48.38l2.68-.3c9.44-1.07,25.24-2.87,39.69-5.7a6,6,0,0,1,6.07,2.5l69.64,102.18A6,6,0,0,1,409,614ZM252.09,602H397.68l-61.09-89.64c-13.76,2.51-28,4.12-36.76,5.12l-2.65.3c-36.52,4.24-37.82,12.83-41.69,38.32C253.06,572.08,252.32,592.18,252.09,602Z"/><path class="cls-1" d="M594,608s-.14-30.19-3.57-52.77c-4.28-28.16-7.85-38.81-46.92-43.35-8.81-1-26.65-2.9-42.82-6.07h0L431,608Z"/><path class="cls-2" d="M594,614H431a6,6,0,0,1-4.94-9.33l69.65-102.18a6,6,0,0,1,6.08-2.5c14.43,2.83,30.23,4.62,39.67,5.7l2.69.3c41.65,4.84,47.37,17.11,52.13,48.38,3.46,22.75,3.63,52.38,3.63,53.64a6,6,0,0,1-6,6ZM442.3,602H587.89c-.23-9.86-1-30-3.4-45.9-3.88-25.49-5.17-34.08-41.7-38.32l-2.67-.3c-8.79-1-23-2.62-36.73-5.12Z"/><polygon class="cls-1" points="405.09 515.61 419.13 530.51 435.48 515.61 419.13 501.23 405.09 515.61"/><path class="cls-2" d="M419.13,536.48a5.92,5.92,0,0,1-4.34-1.88l-14-14.9a6,6,0,0,1,.07-8.26l14-14.38a6,6,0,0,1,8.22-.31l16.35,14.38a6,6,0,0,1,.07,8.89l-16.35,14.9A6,6,0,0,1,419.13,536.48Zm-5.76-20.8,6.08,6.46,7.09-6.45-7.1-6.24Z"/><polygon class="cls-1" points="419.13 501.23 390.55 530.51 361.97 501.23 375.85 482.56 419.13 501.23"/><path class="cls-2" d="M390.55,536.48a6,6,0,0,1-4.27-1.81L357.7,505.39a6,6,0,0,1-.52-7.72L371.06,479a6,6,0,0,1,7.16-1.91l43.27,18.67a6,6,0,0,1,1.92,9.64l-28.58,29.28A6,6,0,0,1,390.55,536.48ZM369.8,500.7,390.55,522l18.25-18.69-31-13.37Z"/><polygon class="cls-1" points="419.13 501.23 447.72 530.51 476.29 501.23 462.42 482.56 419.13 501.23"/><path class="cls-2" d="M447.72,536.48a6,6,0,0,1-4.27-1.81l-28.59-29.28a6,6,0,0,1,1.91-9.65l43.29-18.67a6,6,0,0,1,7.15,1.92l13.87,18.68a6,6,0,0,1-.51,7.72L452,534.67A6,6,0,0,1,447.72,536.48Zm-18.25-33.21L447.72,522l20.75-21.26-8-10.8Z"/><path class="cls-3" d="M508.29,60.79,499.1,47.92C460.6-6,380.51-6,342,47.92l-9.19,12.87a96.55,96.55,0,0,1-89.21,39.83l-41-4.56C141.18,89.23,89.23,141.18,96.06,202.65l4.56,41a96.55,96.55,0,0,1-39.83,89.21L47.92,342C-6,380.51-6,460.6,47.92,499.1l12.87,9.19a96.54,96.54,0,0,1,39.83,89.2l-4.56,41c-6.83,61.48,45.12,113.42,106.59,106.59l41-4.55a96.53,96.53,0,0,1,89.21,39.83L342,793.19c38.49,53.9,118.58,53.9,157.08,0l9.19-12.86a96.52,96.52,0,0,1,89.2-39.83l41,4.55c61.48,6.83,113.42-45.11,106.59-106.59l-4.55-41a96.52,96.52,0,0,1,39.83-89.2l12.86-9.19c53.9-38.5,53.9-118.59,0-157.08l-12.86-9.19a96.53,96.53,0,0,1-39.83-89.21l4.55-41c6.83-61.47-45.11-113.42-106.59-106.59l-41,4.56A96.54,96.54,0,0,1,508.29,60.79Z"/></g></g></svg>