<svg xmlns="http://www.w3.org/2000/svg" viewBox="0 0 841.11 841.11"><defs><style>.cls-1{fill:none;stroke:#45afb7;stroke-linecap:round;stroke-linejoin:round;stroke-width:15px;}.cls-2{fill:#45afb7;}</style></defs><g id="Layer_2" data-name="Layer 2"><g id="Layer_1-2" data-name="Layer 1"><path class="cls-1" d="M508.29,60.79,499.1,47.92C460.6-6,380.51-6,342,47.92l-9.19,12.87a96.55,96.55,0,0,1-89.21,39.83l-41-4.56C141.18,89.23,89.23,141.18,96.06,202.65l4.56,41a96.55,96.55,0,0,1-39.83,89.21L47.92,342C-6,380.51-6,460.6,47.92,499.1l12.87,9.19a96.54,96.54,0,0,1,39.83,89.2l-4.56,41c-6.83,61.48,45.12,113.42,106.59,106.59l41-4.55a96.53,96.53,0,0,1,89.21,39.83L342,793.19c38.49,53.9,118.58,53.9,157.08,0l9.19-12.86a96.52,96.52,0,0,1,89.2-39.83l41,4.55c61.48,6.83,113.42-45.11,106.59-106.59l-4.55-41a96.52,96.52,0,0,1,39.83-89.2l12.86-9.19c53.9-38.5,53.9-118.59,0-157.08l-12.86-9.19a96.53,96.53,0,0,1-39.83-89.21l4.55-41c6.83-61.47-45.11-113.42-106.59-106.59l-41,4.56A96.54,96.54,0,0,1,508.29,60.79Z"/><path class="cls-2" d="M535.85,226.61a156.2,156.2,0,0,0-97.42,33.49l-4.38,3.45-4.39-3.45a156.12,156.12,0,0,0-97.4-33.49,157.82,157.82,0,0,0-115.12,49.8c11.84,5.73,38.87,15,93.08,17.69,13,.65,51.6,3,53.69,3.54,2.36.28,5.36,1.23,5.55,3.65.82,11-9.16,15.82-17.12,16.08-6.24.21-38.63-.85-43.87,8.84-2.39,4.42,10.69,14.81,14.75,18.62q7.57,7.13,15.19,14.24c13.81,12.94,28.09,26.31,42,39.57,2.84,2.7,14,14.3,8.2,20.12s-17.29-3.84-21.33-7.6c-10.36-9.64-47.36-41-48.86-39.68l-.13.12c-1.73,1.74,56.3,59.26,56.3,59.26s17.47,16.28,10.93,22.82-22.82-9.24-26.77-12.93c-12.57-11.7-58-50.95-59.44-49.53-1,1,39.33,43.29,51.39,54.83,4.21,4,18.18,17.61,12.1,23.69s-20.4-6.77-23.94-10.05c-11.32-10.47-57-49.29-58-48.3l-.08.09c-1,1.06,26.15,31,37.11,41.31,3.25,3,6.49,6.44,8.25,10.72s1.67,6.85-.29,9l-.22.23c-2.1,2.11-5,2.37-8.66.77a36.83,36.83,0,0,1-10.22-6.37c-26.9-25-49.26-45.12-68.95-64.81-8.46-8.46-17.58-30.67-26.77-47.68-5.48-10.13-17.58-20.2-26.47-26.69A157.37,157.37,0,0,0,174,384.85c0,115.28,85.85,172.95,154.85,219.29C357,623,383.49,640.83,400.73,660a44.27,44.27,0,0,0,32.88,14.64h.11a44.19,44.19,0,0,0,32.91-14.81c16.85-18.91,43.36-36.68,71.44-55.49,9.77-6.55,19.87-13.33,30-20.45-6.28-9-17.46-23.22-28.73-29.31-17-9.19-39.22-18.31-47.67-26.77-19.69-19.69-39.83-42-64.82-68.95a37.12,37.12,0,0,1-6.36-10.23c-1.6-3.63-1.35-6.55.76-8.66l.23-.22c2.13-2,4.72-2,9-.28s7.68,5,10.73,8.24c10.29,11,40.24,38.15,41.3,37.12l.08-.09c1-1-37.83-46.65-48.29-58-3.29-3.54-16.15-17.87-10.06-23.95s19.65,7.9,23.7,12.12c11.53,12,53.79,52.38,54.82,51.37,1.42-1.41-37.83-46.86-49.53-59.42-3.69-4-19.47-20.25-12.93-26.78S463.14,391,463.14,391s57.5,58,59.24,56.3l.13-.13c1.33-1.5-30-38.5-39.68-48.86-3.76-4-13.43-15.5-7.6-21.32s17.43,5.35,20.12,8.2c13.26,13.95,26.64,28.22,39.58,42,4.73,5.07,9.49,10.14,14.23,15.2,3.81,4.05,14.21,17.14,18.62,14.74,9.69-5.24,8.63-37.62,8.84-43.87.26-8,5.1-17.94,16.08-17.12,2.42.18,3.37,3.2,3.66,5.55.48,2.1,2.88,40.64,3.54,53.69,2.52,50.76,10.8,77.69,16.55,90.63,43-38.65,77.62-88.55,77.62-161.19C694.07,297.6,623.1,226.61,535.85,226.61Z"/></g></g></svg>