<svg xmlns="http://www.w3.org/2000/svg" viewBox="0 0 135 135"><defs><style>.cls-1{fill:#13263c;}.cls-2{fill:#fff;}</style></defs><g id="Graphic_Elements" data-name="Graphic Elements"><circle class="cls-1" cx="67.5" cy="67.5" r="67.5"/><path class="cls-2" d="M100.36,40.08a1.54,1.54,0,0,0-1-1.14,5.36,5.36,0,0,0-2.83.2S33.39,61.81,29.79,64.33c-.78.54-1,.85-1.17,1.22-.62,1.79,1.32,2.58,1.32,2.58L46.2,73.42a1.83,1.83,0,0,0,.82,0C50.72,71,84.24,49.87,86.17,49.16c.31-.09.53,0,.47.23C85.87,52.1,56.76,78,56.76,78a1.27,1.27,0,0,0-.18.3l0,0L55,94.38s-.63,4.94,4.31,0c3.48-3.48,6.86-6.4,8.54-7.82,5.59,3.86,11.61,8.13,14.21,10.36a4.44,4.44,0,0,0,3.29,1.27c2.47-.09,3.15-2.8,3.15-2.8S100,49.13,100.41,42.93c0-.61.08-1,.09-1.41A5.28,5.28,0,0,0,100.36,40.08Z"/></g></svg>