<svg xmlns="http://www.w3.org/2000/svg" viewBox="0 0 135 135"><defs><style>.cls-1{fill:#13263c;}.cls-2{fill:#fff;fill-rule:evenodd;}</style></defs><g id="Graphic_Elements" data-name="Graphic Elements"><circle class="cls-1" cx="67.5" cy="67.5" r="67.5"/><g id="WA_Logo" data-name="WA Logo"><path class="cls-2" d="M100,33a42.83,42.83,0,0,0-67.4,51.65L26.5,106.81l22.7-6a42.76,42.76,0,0,0,20.46,5.21h0A42.82,42.82,0,0,0,100,33ZM69.68,98.83h0a35.46,35.46,0,0,1-18.12-5l-1.3-.77L36.78,96.64l3.6-13.13-.85-1.35A35.59,35.59,0,1,1,69.68,98.83ZM89.2,72.19c-1.07-.54-6.33-3.13-7.31-3.48s-1.69-.54-2.41.53-2.76,3.48-3.38,4.2-1.25.8-2.32.26a29.12,29.12,0,0,1-8.61-5.3,32.5,32.5,0,0,1-6-7.41c-.62-1.08-.06-1.65.47-2.19s1.07-1.25,1.61-1.87a7.58,7.58,0,0,0,1.07-1.79,2,2,0,0,0-.09-1.87c-.27-.54-2.41-5.8-3.3-7.94s-1.75-1.8-2.41-1.84-1.34,0-2,0a3.92,3.92,0,0,0-2.85,1.33,12,12,0,0,0-3.75,8.93c0,5.26,3.84,10.35,4.37,11.06S59.84,76.3,70.57,80.93a60.33,60.33,0,0,0,6.1,2.25,14.67,14.67,0,0,0,6.74.43c2-.31,6.33-2.59,7.22-5.09s.89-4.64.62-5.08S90.27,72.72,89.2,72.19Z" transform="translate(0 2.89)"/></g></g></svg>