<svg id="Layer_1" data-name="Layer 1" xmlns="http://www.w3.org/2000/svg" viewBox="0 0 1060 94"><defs><style>.cls-1,.cls-4,.cls-6{fill:none;stroke-linecap:round;}.cls-1{stroke:#46adb5;}.cls-1,.cls-4{stroke-miterlimit:10;stroke-width:10px;}.cls-2{fill:#46adb5;}.cls-3{fill:#fff;}.cls-4{stroke:#adb5bd;}.cls-5{fill:#adb5bd;}.cls-6{stroke:#fff;stroke-linejoin:round;stroke-width:5px;}</style></defs><g id="Layer_2" data-name="Layer 2"><g id="Layer_1-2" data-name="Layer 1-2"><line class="cls-1" x1="974.5" y1="47.5" x2="573.5" y2="47.5"/><circle class="cls-2" cx="1013" cy="47" r="47"/><path class="cls-3" d="M1033.59,27.33l-28.31,28.31-12-11.48a6.1,6.1,0,1,0-8.73,8.52,3.83,3.83,0,0,0,.29.28l16.26,15.62a6.1,6.1,0,0,0,8.54-.09L1042.21,36a6.1,6.1,0,1,0-8.45-8.8l-.17.17Z"/><line class="cls-4" x1="487.5" y1="47.5" x2="86.5" y2="47.5"/><circle class="cls-5" cx="526" cy="47" r="47"/><circle class="cls-5" cx="47" cy="47" r="47"/><path class="cls-3" d="M504,69a20.61,20.61,0,1,1,41.22,0v0m-8.83-41.22A11.78,11.78,0,1,1,524.6,16a11.77,11.77,0,0,1,11.79,11.78h0Z"/><g id="Interface_Check_All_Big" data-name="Interface Check All Big"><path id="Vector" class="cls-6" d="M30.82,50,46.15,65.34,79,32.5M15.49,50.17,30.82,65.5M63.66,32.66,47.24,49.08"/></g></g></g></svg>