<svg xmlns="http://www.w3.org/2000/svg" viewBox="0 0 384 383.31">
<g id="Layer_2" data-name="Layer 2"><g id="Layer_1-2" data-name="Layer 1">
<path d="M200.25,0c4.26.85,8.57,1.51,12.77,2.59,51.15,13.18,77.41,68.09,55.59,116.11-.4.89-.75,1.8-1.27,3h16.93V102.86c0-10.24,3.72-14,14-14q29.43,0,58.86,0c9.83,0,13.55,3.75,13.55,13.58q0,14.22,0,28.44c0,4.61-1.86,6.92-5.43,7s-5.76-2.43-5.78-7.12c0-8.73,0-17.46,0-26.19v-4.24H295.71V371.82h63.71V367q0-103.67,0-207.31a19.76,19.76,0,0,1,.39-4.81,5,5,0,0,1,5.56-4,5.12,5.12,0,0,1,5.18,4.94,44.6,44.6,0,0,1,.09,4.48V371.71c4.76,1,10.37-1.49,13.35,4.06v3.74c-1.83,2.95-4.47,3.8-7.91,3.8q-184.09-.1-368.18,0c-3.44,0-6.09-.84-7.91-3.8v-3.74c1.8-3,4.44-4,7.9-3.79s6.73,0,10.71,0v-4.11q0-44,0-87.93c0-2.35-.33-4.1-2.42-5.75-3.21-2.53-3.46-5.9-1.47-10.55q10.05-23.52,20.17-47c.59-1.38,1.08-2.8,1.79-4.11a65.05,65.05,0,0,0,7.75-35.14c-.59-10.94,3.72-20.78,11.15-28.94C62.67,140.7,70,133.17,77.23,125.6c4.25-4.43,9.56-6.56,15.69-7a5.15,5.15,0,0,0,3.64-2.15c4.88-9.21,13.66-13.65,22.91-11.3s15,10.11,14.89,20.28c0,.71,0,1.43,0,2.57,6.08,0,11.92-.11,17.76,0a17,17,0,0,1,16.43,15.07c1.06,8-4.35,16-12.4,18.18a23.52,23.52,0,0,1-5.93.6c-11.5.05-23,.16-34.49-.06-3.69-.07-6.47.73-8.57,3.86a56.43,56.43,0,0,1-4.43,5c2.92,0,5,0,7.06,0,11.51.3,18.66,10.39,14.94,21.31-3.3,9.66-6.87,19.23-10.31,28.85-.41,1.14-.78,2.31-1.29,3.82h28.22v-4.15c0-9,0-18,0-26.94s4.13-13,13.07-13.06q25.13,0,50.24,0h4.25V166.35c-7.19.23-14.26.51-21.33.65a34.2,34.2,0,0,1-6-.52c-4.12-.65-6.09-3-5.59-6.47.47-3.26,3-4.65,6.94-4.62,7.1.06,14.3.52,21.27-.48,36.34-5.23,63.13-38.75,60.71-75.42-2.61-39.67-35.13-69.26-75-68.22-35.34.92-65.75,29-69.33,64.13a107.14,107.14,0,0,0-.46,11.19c0,4-1.92,6.57-5.35,6.72S109,91,108.87,87a80.6,80.6,0,0,1,8.59-40.15C131.1,20.16,153,4.89,182.75.65a21.86,21.86,0,0,0,2.5-.65ZM152.6,191.89c0,10.66,0,21,.05,31.31a2.43,2.43,0,0,0,1.28,1.89c7.9,1.78,9.37,7.44,9.36,14.44q-.12,63.82,0,127.63v4.67h53.36v-4.59q0-58,0-116c0-1.37-.45-3.08.2-4,1.19-1.79,2.8-3.84,4.68-4.5,2.59-.9,4.92.68,5.8,3.41a16,16,0,0,1,.53,4.79q0,58.2,0,116.39v4.57H284V133.24c-6.58,0-12.94.18-19.29-.07a8.1,8.1,0,0,0-7.52,3.5,77.83,77.83,0,0,1-24.28,20.25c-4.14,2.29-10.05,3.51-12.05,7-2.1,3.67-.49,9.46-.5,14.32,0,.13,0,.28,0,.37.65,1.18,1,2.73,2,3.43,3.32,2.34,5.31,5.38,5.35,9.37q.18,16.1,0,32.19c0,3.71-2.57,6.17-5.75,6.1s-5.39-2.53-5.41-6.34c-.06-9.11,0-18.22,0-27.32v-4.15ZM88.18,265.55c2,0,3.57,0,5.17,0,7.31.16,11.58,4.43,11.62,11.75.06,9.47,0,18.95,0,28.43,0,4.67-2.09,7.24-5.72,7.18s-5.5-2.58-5.51-7.36q0-12.54,0-25.07V277H30.13v94.73H93.75c0-13.22,0-26.17,0-39.13,0-4.35,2.13-6.95,5.57-7s5.63,2.59,5.65,6.92c0,11,0,21.94,0,32.92v6.27h46.79V236.45H88.18ZM92.93,225c2.14,0,3.75-.13,5.32,0,2.15.23,3.06-.75,3.74-2.69,3.88-11,7.93-22,11.85-33.05,1.72-4.85-.12-7.3-5.41-7.35-3.63,0-7.25,0-10.87,0-3.87,0-6.83-1.52-8.42-5.09s-.86-6.8,1.71-9.68c3.32-3.73,6.76-7.36,9.9-11.23s6.91-5.33,11.77-5.27c12.74.14,25.49.08,38.23,0,4,0,6.55-2.29,6.64-5.6s-2.55-5.85-6.72-5.88c-6.62-.06-13.25-.14-19.86.06a11.59,11.59,0,0,0-5.49,1.64c-9.92,6-22.89,2.82-27.88-7.62-1.92-4-4.38-3.84-7.4-2.79a13.32,13.32,0,0,0-5,3.21q-10.59,10.86-20.91,22c-4.34,4.67-7.37,10.21-8,16.57-.64,6.67-.33,13.43-.78,20.14a29.33,29.33,0,0,1-2,9.33c-8.4,20-17,39.84-25.56,59.75-.52,1.21-.92,2.47-1.4,3.8,9.23.95,9.23,1,13.07-6.79,9.79-19.76,19.65-39.48,29.31-59.29,2.43-5,6-7.4,11.51-7.15,2.74.12,5.5,0,8.25,0,8.52.18,12.71,5.9,10.23,14C97,212.14,95.07,218.18,92.93,225Zm-5-21.19c-7.81-1.45-8.11-1.31-11.17,4.88Q63.65,235.1,50.56,261.55c-.57,1.15-1,2.35-1.62,3.7H76.71V261c0-7.85-.1-15.71.07-23.56,0-2.29.32-4.94,1.48-6.8C83.43,222.32,84.18,212.6,87.91,203.79Zm26.9-87.92a8.36,8.36,0,1,0,8.31,8.24A8.2,8.2,0,0,0,114.81,115.87Z"/></g></g>
</svg>