<svg xmlns="http://www.w3.org/2000/svg" viewBox="0 0 436.12 512">
<g id="Layer_2" data-name="Layer 2"><g id="Layer_1-2" data-name="Layer 1">
<path d="M221,0C236.5,5,252,10.1,267.46,15Q346.27,39.71,425.1,64.33c9.45,3,10.92,5.08,10.92,15.09,0,56,.25,112-.06,168-.45,81.86-31.07,150.39-92.6,204.51-34.3,30.18-74.39,49.41-119.07,59-1.12.24-2.18.7-3.27,1.05h-6c-13.22-3.85-26.75-6.87-39.61-11.7Q64.8,458.77,19.34,349.47C5.92,317.13,0,283.18,0,248.15Q.12,163.46,0,78.76c0-9.13,1.63-11.37,10.15-14Q110.34,33.31,210.51,1.9A47.88,47.88,0,0,0,215,0ZM415.85,173.5c0-28.33-.1-56.67.1-85,0-4.34-1-6.23-5.44-7.6C348.25,61.58,286.07,42,223.8,22.64a20.53,20.53,0,0,0-11.47.05C149.91,42,87.58,61.66,25.18,81.06c-3.83,1.19-5.11,2.7-5.1,6.82.17,53.66-.09,107.33.26,161,.08,13.44.66,27.12,3.2,40.27,19.24,99.56,77.3,165.24,173.53,197.36,14.14,4.72,27.82,5.42,41.76,0,3.24-1.27,6.64-2.14,10-3.24C348,450.3,415.47,355.75,415.83,249,415.92,223.83,415.85,198.66,415.85,173.5Z"/><path d="M380.17,190c0,21.5.25,43-.06,64.5A206.23,206.23,0,0,1,356.57,347c-3.24,6.29-8.73,8.68-13.81,6.2-5.85-2.85-7.58-8.72-4.2-15.3,15.09-29.33,21.81-60.49,21.54-93.43-.33-38.5-.14-77,0-115.49,0-3.94-.92-5.76-4.9-7-44.5-13.76-88.91-27.78-133.39-41.59a12.81,12.81,0,0,0-7.18-.09c-44.8,13.91-89.54,28-134.33,41.94-3.19,1-4.4,2.24-4.39,5.8.17,42.33-.23,84.66.23,127,.9,82.12,59.12,156.84,138.43,178.18a14.28,14.28,0,0,0,7.23-.05,183.12,183.12,0,0,0,57-27.09c1.09-.76,2.16-1.55,3.29-2.26,5.31-3.35,11.25-2.39,14.65,2.33a9.93,9.93,0,0,1-3,14c-12.3,7.59-24.54,15.43-37.5,21.75-10.39,5.07-21.7,8.34-32.8,11.79a21.11,21.11,0,0,1-11.15-.11C129.58,431.38,69.31,362.78,57.82,277.79a220.55,220.55,0,0,1-1.89-28.38c-.19-43.33-.08-86.66-.08-130,0-8.85,1.74-11.12,10.44-13.85C114.85,90.34,163.39,75,212,60a21.64,21.64,0,0,1,12.07,0C273,75.11,321.88,90.49,370.75,105.83c7.54,2.37,9.44,5.1,9.44,13.14q0,35.49,0,71Z"/><path d="M199.81,239.55c8.36-8.44,16.28-16.48,24.25-24.48q18.16-18.23,36.38-36.4c6.34-6.31,11.24-6.31,17.56,0Q293.42,194,308.73,209.4c6,6.09,6,11.09-.09,17.23q-50,50-100,100c-6.33,6.33-11.24,6.29-17.58,0q-31.83-31.77-63.6-63.59c-6.2-6.21-6.26-11.06-.18-17.19q15.48-15.6,31.08-31.1c5.83-5.79,11-5.84,16.84-.07C183.32,222.72,191.32,230.94,199.81,239.55ZM268.86,199c-1.15,1.08-2.49,2.27-3.76,3.54q-28.29,28.26-56.56,56.51c-6,6-11.27,5.93-17.28.06-1.79-1.74-3.55-3.52-5.31-5.29l-18.32-18.43-19.11,19.05,50.67,50.83L287,217.51Z"/><path d="M321.29,391.19a10,10,0,0,1-.16-20.08,10,10,0,1,1,.16,20.08Z"/></g></g>
</svg>