<svg xmlns="http://www.w3.org/2000/svg" viewBox="0 0 291.87 291.7">
<g id="Layer_2" data-name="Layer 2"><g id="Layer_1-2" data-name="Layer 1">
<path d="M261,129c-.56,6.48-.9,11.9-1.52,17.28-.42,3.66-2.79,5.62-5.75,5.25-3.15-.39-4.8-3-4.48-6.72,4.45-51.67-15-91.92-59.52-118.38-69.39-41.23-160.67.16-176.67,79.27C.42,168.13,37,228.17,98.31,245.63a116.25,116.25,0,0,0,46.09,3.56c4.09-.48,6.65,1,7.17,4.24s-1.6,5.52-5.71,6c-28.75,3.45-55.87-1.88-80.73-16.61C27.8,220.73,6.18,187.75.94,144.75-7.39,76.4,40.51,13.29,108.73,1.82a130.16,130.16,0,0,1,149.7,104.9C259.82,114.37,260.24,122.2,261,129Z"/><path d="M224.24,291.7a67.76,67.76,0,0,1-67.84-68.25c0-36.92,30.6-67.18,67.94-67.18,37.06,0,67.59,30.57,67.53,67.61C291.81,261.33,261.49,291.74,224.24,291.7Zm-57.42-67.48c0,31.35,25.71,57,57.29,57.08,31.37.1,57.31-25.71,57.34-57.05,0-31.61-25.53-57.5-56.82-57.55A57.32,57.32,0,0,0,166.82,224.22Z"/><path d="M129.7,239.89c-39.09-2-71.68-17.86-93-53.76-4.24-7.14-3-14.29-1-21.36,4.37-15.49,14.48-25.88,29.66-31.23,7.87-2.77,15.85-5.23,23.73-8a8.09,8.09,0,0,1,7.39.84c22.77,13.64,45.52,13.48,68.31-.09a8.09,8.09,0,0,1,5.77-1c10,3.17,19.93,6.65,29.83,10.18a23.87,23.87,0,0,1,5.95,3.28,5.27,5.27,0,0,1,1.69,7.18c-1.46,2.43-3.93,2.89-7.14,1.66-9.69-3.72-19.38-7.43-29.15-10.92a6.68,6.68,0,0,0-4.78.45q-36.59,19.53-73.09,0a6.92,6.92,0,0,0-4.78-.45c-7,2.15-14,4.5-21,6.94a34.48,34.48,0,0,0-23.56,33.58,8,8,0,0,0,1.09,3.94c17.41,27.77,42.38,43.74,75,47.4,5.88.66,11.89.13,17.84.14.76,0,1.53-.09,2.28-.05,3.55.17,5.72,2,5.89,4.86.17,2.73-1.62,5-4.93,5.47S134.71,239.53,129.7,239.89Z"/><path d="M132.25,126c-28,1.7-52.73-21-54.53-49.93C76,47.89,98.55,22.57,127,20.9A52.63,52.63,0,1,1,132.25,126Zm-2-94.77c-23,0-42.18,19-42.19,42a42.25,42.25,0,1,0,42.19-42Z"/><path d="M213.31,218.59c1.31-1.24,2.19-2,3-2.85q14.4-14.38,28.79-28.78c3.44-3.43,6-3.43,9.45,0q6.48,6.41,12.9,12.89c3.19,3.23,3.21,5.73,0,9q-24.62,24.67-49.28,49.27c-3.24,3.24-5.8,3.25-9,.09Q195,244.05,180.86,229.86c-3.24-3.25-3.27-5.77-.12-9q6.52-6.6,13.13-13.12c3.1-3.06,6-3.11,9-.05C206.39,211.23,209.77,214.88,213.31,218.59ZM191.9,224.7l21.79,21.84,42.74-42.72-7.21-7.43a18.53,18.53,0,0,1-2,3.16Q232.86,214,218.46,228.3c-3.63,3.62-6.06,3.62-9.66,0-3.42-3.42-6.8-6.9-10.08-10.24Z"/></g></g>
</svg>