<svg xmlns="http://www.w3.org/2000/svg" viewBox="0 0 383.44 348.35">
<g id="Layer_2" data-name="Layer 2"><g id="Layer_1-2" data-name="Layer 1">
<path d="M383.44,213.9c-1.23,4-2,8.27-3.77,12-8,17.19-21.67,26.48-40.65,26.67-6,.07-8.93,1.92-12,7Q291.3,319,223.4,333.79c-2.49.54-3.92,1.39-5,4-2.33,6-7,9.9-13.56,10.2a253.82,253.82,0,0,1-26.17,0c-8.69-.48-15-8-14.95-16.68a16.37,16.37,0,0,1,15.57-16.53c8.22-.34,16.46-.16,24.69,0a14.92,14.92,0,0,1,12.15,6.38c1.33,1.8,2.54,2.31,4.65,1.85q65.41-14.47,98.69-72.59a11,11,0,0,0,1.32-5.3q.11-65.34,0-130.66a11.76,11.76,0,0,0-1.56-5.6C295.73,68,260.83,43,214.15,35.67c-60.29-9.42-118,18.46-148.65,70.78A19.07,19.07,0,0,0,62.6,117c.24,8.23.07,16.47.07,24.7v4.2l-3.72.26c-8.17.54-8.17.54-8.17-7.88,0-5.61-.06-11.23,0-16.84,0-2.2-.66-3.2-3-3.12-6.41.22-12.58,1.12-18.46,4-4.86,2.37-6.86,5.91-6.82,11.29.15,18.47.06,36.94.06,55.41,0,6.36,0,12.72,0,19.09,0,11.71,9.2,23.95,25.89,21.56,2.33-.33,2.3-1.82,2.3-3.5V196.59q0-17.78,0-35.56c0-4,.68-4.64,4.57-4.24,1.22.12,2.43.45,3.65.6s2.19.16,3.46.24v95c-15.65.47-31.19,1.71-44.51-8.76C6.56,234.93.36,223.28.18,208.79c-.23-19.21-.26-38.44,0-57.65.24-16.94,8.08-29.69,22.47-38.58a12.33,12.33,0,0,0,4.5-5C52.4,53.3,93.87,18.27,152.1,4.66c83.83-19.6,169.6,24.13,204.3,102.88a11.82,11.82,0,0,0,4.48,5c11.76,7.13,19.1,17.27,21.82,30.75.17.84.49,1.65.74,2.46ZM343,175V192.2c0,11.61.07,23.21,0,34.81,0,3.08,1.07,4.32,4.15,4.11,4.47-.32,9-.21,13.41-.79a8.36,8.36,0,0,0,4.81-2.88c4.79-5.84,6.45-12.92,6.53-20.24q.27-27.32,0-54.64c-.16-15.87-9.64-28.69-23.73-32.69-4.8-1.36-5.14-1.13-5.14,3.84Q342.95,149.36,343,175ZM191.66,336.89V337c3.61,0,7.22.11,10.81,0,3.92-.16,6.05-2.31,5.94-5.68s-2.19-5.17-6-5.21c-7.08-.06-14.17,0-21.25.07-3.85.05-5.87,1.91-6,5.18s2,5.43,6,5.57C184.7,337,188.18,336.89,191.66,336.89Z"/><path d="M191.81,56.32A117.92,117.92,0,0,1,309.64,174.14c.1,65.09-53.09,118.22-118.08,118S73.73,239,73.92,174.08A117.92,117.92,0,0,1,191.81,56.32Zm106.39,118A106.31,106.31,0,1,0,191.42,280.43,106.28,106.28,0,0,0,298.2,174.31Z"/><path d="M141.41,202.21H107.67c0-5.36-.1-10.66.09-16,0-.86,1.26-1.77,2.07-2.5,6-5.43,12.12-10.77,18.1-16.24,2.73-2.49,3-5.41.87-8s-4.85-2.88-7-1.13c-1.78,1.47-2.49,4.24-4.18,7.35a73.7,73.7,0,0,1-8.1-.12c-.79-.08-2-1.7-2-2.63-.16-7.33,5.38-14.58,12.35-16.5a16.67,16.67,0,0,1,19.27,7.81c4.06,7,3.27,15.23-2.32,20.66-4.38,4.25-9.07,8.18-13.61,12.27-1,.89-1.93,1.83-3.66,3.48h21.87Z"/><path d="M164.07,168c10.64,1.39,10.64,1.39,10.64-8.26,0-3.74-.17-7.49.13-11.21a3.73,3.73,0,0,1,2.49-2.58c9.07-1,9.07-.88,9.07,8.06,0,14.83-.08,29.67.07,44.5,0,3.16-1,4-4.06,4-7.7-.1-7.69,0-7.7-7.75q0-6.54-.08-13.08a7.42,7.42,0,0,0-.42-1.49H152.85V145.9a77.55,77.55,0,0,1,9.3.16c.76.09,1.8,2,1.84,3.16C164.17,155.42,164.07,161.63,164.07,168Z"/><path d="M263.84,157.42H242c0-3.54-.1-6.73.09-9.9a2.58,2.58,0,0,1,1.92-1.61c10-.11,19.94-.13,29.91,0,.76,0,2.18,1.45,2.13,2.15-.31,4.54-.2,9.31-1.62,13.53-4.19,12.5-9,24.78-13.64,37.14-.42,1.13-.9,2.23-1.51,3.72l-10.63-4C253.71,184.86,258.65,171.49,263.84,157.42Z"/><path d="M208.45,209.33l-10.93-3.65L220,138.77,231,142.42Z"/></g></g>
</svg>