<svg xmlns="http://www.w3.org/2000/svg" viewBox="0 0 92.19 92.15">
<g id="Layer_2" data-name="Layer 2"><g id="Layer_1-2" data-name="Layer 1">
<path d="M82.29,27.36c1.26,1.82,2.23,3.95,3.81,5.4,8,7.35,8.22,19.31,0,26.4a7,7,0,0,0-2.89,6.21C83.47,76,76,83.42,65.4,83.1,62.56,83,61,83.92,59.19,86a17,17,0,0,1-26.27-.13,6.92,6.92,0,0,0-6.28-2.74C16.14,83.37,9,75.85,8.82,65.2a8.75,8.75,0,0,0-2.54-5.69C-2,52-2.22,40,6.36,32.82,8.63,30.94,9,29.14,9,26.49,8.8,16.22,16.28,8.77,26.56,9,29.24,9,31,8.55,32.87,6.32,40-2.23,52.08-2,59.61,6.28A8.71,8.71,0,0,0,65.3,8.81C75.93,9,83.33,16.13,82.29,27.36Zm-15.54,7C65.46,31.5,64,31.79,62,33.86c-7.32,7.48-14.77,14.84-22.92,23-3.07-3.4-5.87-6.66-8.86-9.75-2.34-2.42-2.44-2.33-4.14,0L39.82,61.25Z"/></g>
</g>
</svg>