<svg xmlns="http://www.w3.org/2000/svg" viewBox="0 0 436.29 512">
<g id="Layer_2" data-name="Layer 2"><g id="Layer_1-2" data-name="Layer 1">
<path d="M196,0h44c1.3.26,2.58.62,3.88.76,16.88,1.76,33.86,2.91,50.64,5.35,37.54,5.47,73.79,15.9,108.9,30.26,8.38,3.43,11.53,11.55,8.63,20.18-8.92,26.48-17.58,53-26.63,79.46-1.61,4.7-.91,7.64,2.48,11.39,30.69,33.94,47.41,73.9,47.95,119.66.74,62.81.23,125.63.24,188.45,0,12.14-5.54,17.66-17.69,17.67-30.67,0-61.33-.09-92,.14a15.34,15.34,0,0,0-8.88,3.15c-16.57,13.31-34.85,23.42-55.32,29.07-10.53,2.91-21.46,4.35-32.21,6.46H206a24.69,24.69,0,0,0-3.34-.83C170.81,508,142.62,496,117.83,475.73a12.22,12.22,0,0,0-7.17-2.44c-30.82-.16-61.65-.1-92.47-.11C5.43,473.17,0,467.74,0,455q0-90.21,0-180.41c0-49.48,16.29-92.58,49.9-129,2.1-2.27,2.48-4.2,1.5-7.11C42.23,111.18,33.26,83.86,24.1,56.6c-2.91-8.67.18-16.78,8.58-20.2A485.47,485.47,0,0,1,164.29,3C174.86,1.87,185.46,1,196,0ZM373.1,176.18c-3.88,10.26-7,19.76-11.14,28.77-1.66,3.59-5.21,6.85-8.69,8.94-4.81,2.88-9.94.66-14.84-1.26q-86.53-33.93-178.1-17.77a323.75,323.75,0,0,0-64.64,18.55c-10.25,4.11-18,.79-22.1-9.46-2.36-5.86-4.48-11.82-6.69-17.74-1.17-3.15-2.3-6.32-3.57-9.8A17.41,17.41,0,0,0,61.64,178c-1,1.31-2,2.63-3,4-18.94,27-28.57,56.93-28.61,89.9q-.08,83,0,166v4.88H87.89c-1.12-1.79-1.9-3.05-2.69-4.3A156.58,156.58,0,0,1,109,242.32c7.88-7.62,17.79-7.17,24.12,1.54C152.3,270.3,177.82,288.38,208,300c45.85,17.69,92.51,19.06,139.68,5.6,13-3.73,20.28.22,23.18,13.27,9.38,42.29,3,82-19.59,119.06-.92,1.51-1.77,3.05-2.86,4.93h57.74v-4.17q0-84.24,0-168.49a150.05,150.05,0,0,0-11-56A147.1,147.1,0,0,0,373.1,176.18Zm-33.62,4.66c13.16-41,26.11-81.27,39.25-122.16-107.28-38.29-214.11-38.31-321.26,0L96.7,180.86a359.25,359.25,0,0,1,242.78,0ZM119.36,275.77c-32.56,37.64-40.44,102.55-4.62,152.82A126.61,126.61,0,0,0,271.82,470c60.49-28.45,79.28-91,71.59-131.49C258.36,354.46,182.27,338.9,119.36,275.77Z"/><path d="M203.07,111.43c-5.33,0-10,.08-14.61,0-9.43-.2-16.05-6.43-16-15s6.68-14.59,16.17-14.77c4.63-.09,9.26,0,14.44,0,0-5.15,0-9.76,0-14.38.1-9.53,6.57-16.39,15.25-16.22s14.64,6.8,14.73,16.21c.05,4.49,0,9,0,14.47,5.63,0,11-.27,16.43,0,10.75.64,17.23,11.29,12.8,20.84-2.73,5.9-7.57,8.66-14,8.76-5,.07-9.92,0-15.27,0,0,5.45.07,10.25,0,15.06-.15,9-6.44,15.47-14.88,15.51s-14.88-6.51-15.08-15.37C203,121.8,203.07,117,203.07,111.43Z"/></g>
</g>
</svg>