<svg xmlns="http://www.w3.org/2000/svg" viewBox="0 0 381.16 260">
<g id="Layer_2" data-name="Layer 2">
<g id="Layer_1-2" data-name="Layer 1">
<path d="M57,141.48c-8.42,6.5-16.24,6.14-24.48,1.68-9.21-5-18.65-9.53-28-14.3C.45,126.75-1,123.41.69,120.13s5.1-4,9.41-1.81c9.8,4.94,19.56,9.93,29.36,14.87,5.39,2.71,8.67,1.6,11.16-3.82q18.79-41,37.54-82c2.55-5.6,1.4-8.52-4.27-11q-28-12.06-56-24.08c-.34-.15-.7-.26-1-.41-4.32-1.92-5.95-5.05-4.44-8.5,1.46-3.3,4.75-4.27,9-2.52C36.23,2.86,41,4.93,45.84,7,60,13.11,74.18,19.3,88.42,25.31c6.82,2.88,11.45,7.46,12.63,15,.34,2.14,1.55,2.5,3.33,2.65a34.21,34.21,0,0,0,20.87-4.41c4.19-2.46,8.46-4.79,12.67-7.23,13.33-7.73,27.3-9,41.75-3.82,7,2.53,13.82,5.67,20.8,8.32,1.55.59,3.74.93,5.14.3,15.66-7.09,30.45-5.52,44.84,3.63,6.71,4.27,13.45,8.74,21.71,9.54,1.83.17,3.69,0,5.76,0,1.28-7.45,6.17-11.56,12.55-14.75C308.3,25.59,326,16.37,343.73,7.26A29,29,0,0,1,346.42,6c3.16-1.23,5.65-.23,7.35,2.57a5.6,5.6,0,0,1-2,7.85c-3.31,2-6.81,3.65-10.25,5.41q-23.44,12.06-46.9,24.08c-5.51,2.83-6.17,4.87-3.37,10.45q19.75,39.51,39.56,79c2.67,5.32,4.9,6.09,10.14,3.49,9.94-4.92,19.86-9.89,29.79-14.82,4.54-2.25,8-1.62,9.71,1.72s.2,6.64-4.27,8.88c-9.14,4.58-18.45,8.84-27.4,13.75-9.52,5.23-18.19,5.68-26.07-2.93-5.49,3.83-7.75,9.3-8.57,15.38-.92,6.92-1.08,14-2.19,20.85-1.78,11.13-8.92,18.19-19.92,19.83-2.82.42-4,1.65-4.95,4.06-3.37,8.76-9.16,15.11-18.46,17.63-2.26.61-4.8,1.38-7,.92-4.11-.87-6.51.88-9.35,3.48-9.85,9.05-21.56,12.14-34.65,9.41a4.9,4.9,0,0,0-5,1.19,32.59,32.59,0,0,1-24.35,8.66,5.92,5.92,0,0,0-5.7,2.55,44.65,44.65,0,0,1-3.46,3.95c-11.15,11.76-29.57,7.36-34.27-8.18-.17-.58-.36-1.16-.53-1.69-17.83.09-23.84-4.45-27.95-21.26-10.18,0-17.44-4.65-21.13-14.66-9.82,2.17-18.08-.28-23.32-9.06s-3.42-17.24,2.62-24.39Zm90.48,37.33c10.34-8.67,20.21-10.14,29.28-4.28a23.57,23.57,0,0,1,9.47,11.76c2.45,6.47,1.41,12.7-1.6,18.85a20.87,20.87,0,0,1,13,14.45c3.52-3.34,6.74-2.8,10.05-.34a46.21,46.21,0,0,0,5.36,3.41,26.71,26.71,0,0,0,31.41-4.1c-1.21-.74-2.34-1.47-3.5-2.13-9.77-5.52-19.57-11-29.32-16.55-3.95-2.26-5-5.9-2.8-9,1.92-2.75,5.07-3.3,8.65-1.3,11.64,6.52,23.24,13.11,34.87,19.64,11.3,6.35,20.75,2.33,24.41-10.58-1-.59-2-1.25-3.07-1.84l-31.47-17.29c-1-.54-2-1-2.93-1.66-2.89-2-3.76-5-2.3-7.8s4.71-4,8-2.58c1.14.5,2.22,1.13,3.32,1.73,11.58,6.37,23.13,12.79,34.74,19.09,4.88,2.64,9.77,2,13.57-1.33A12.54,12.54,0,0,0,300,173.54c-1.35-4.09-4.35-6.49-8-8.46q-33.22-17.94-66.39-36a16.21,16.21,0,0,1-3.68-2.52c-7.26-7.21-14.53-14.42-21.64-21.79-6.32-6.55-13.78-9.2-22.71-7.28-4,.86-8,2-12,3-20.6,5-39-7.3-42.26-28.21-1.24-8,3.65-14.43,11.7-15.13,17.42-1.51,34-6.25,50.25-12.52.82-.32,1.59-.76,3.23-1.55-6.07-2-11.25-3.71-16.48-5.3a32.69,32.69,0,0,0-24.71,2.22c-4.91,2.44-9.72,5.11-14.39,8a46.15,46.15,0,0,1-32.25,6.58,4,4,0,0,0-3.31,1.74Q80.51,92.56,64,129.05a4.35,4.35,0,0,0,.44,3.84A73.06,73.06,0,0,1,77.11,154c1.48,3.62,3.72,6.93,5.62,10.39,13.8-8.07,22.48-6.1,32.12,6.82C127.75,162,141.29,166.23,147.51,178.81Zm169.6-44.08c-.65-1.37-1.2-2.61-1.8-3.82C304.69,109.72,294,88.57,283.53,67.28c-2-4.17-3.91-7.33-9.2-5.92a7.1,7.1,0,0,1-2.23-.14c-10.36-.66-19.08-5.62-27.44-11.09-11.72-7.67-23.38-8.2-36.11-2.32-19,8.8-38.71,15.95-59.49,19.51-4.61.79-9.27,1.27-13.86,1.89,1.19,14.12,13.16,22.92,26.44,19.84,4.12-1,8.19-2.16,12.32-3.09,13.06-2.95,24.47.15,34,9.65,6.8,6.79,13.47,13.72,20.22,20.56a12.89,12.89,0,0,0,2.85,2.38Q266.8,138,302.81,157.44C305.22,148.38,308.79,140.1,317.11,134.73ZM164.73,182.37c-2.38,1.17-5.31,1.81-7,3.6q-13.58,14.17-26.61,28.88A10,10,0,0,0,132,229a9.89,9.89,0,0,0,14.15-.21c9.18-9.33,18.16-18.86,27.13-28.4A8.68,8.68,0,0,0,174.81,190C172.84,186,169.92,183.11,164.73,182.37Zm-58.19,18.56c.21,4.6,1.84,7.09,5,8.48a7.58,7.58,0,0,0,9.22-1.91c4.74-5.11,9.38-10.34,13.87-15.68,3.2-3.8,2.76-8.72-.72-11.69s-8.25-2.68-11.68,1.06c-4.55,4.95-9,10-13.33,15.15A19.26,19.26,0,0,0,106.54,200.93Zm79.7,24.38c-.22-4.76-1.93-7.38-5.26-8.65a7.08,7.08,0,0,0-8.45,2c-4.58,5.09-9.31,10-13.87,15.15-3.49,3.91-3.43,8.83-.06,12s8.59,2.91,12.22-1.06c4.36-4.77,8.7-9.58,12.84-14.55A22.51,22.51,0,0,0,186.24,225.31ZM89.93,196.46c.8-.31,2.74-.47,3.7-1.52a102.34,102.34,0,0,0,10.09-12.34c2-3.12.42-7.29-2.69-9.53s-7.32-2.26-10,.44a73,73,0,0,0-8.83,10.58C78.78,189.31,83,196.44,89.93,196.46Zm113.49,34.41-5.24-3.63-2.37,7.12Z"/></g>
</g>
</svg>