<svg xmlns="http://www.w3.org/2000/svg" viewBox="0 0 367.12 367.3">
<g id="Layer_2" data-name="Layer 2"><g id="Layer_1-2" data-name="Layer 1">
<path d="M188.12,293.73c4.39-7.36,9.26-14.47,13.07-22.11,7.89-15.82,15.28-31.88,22.73-47.91,2.55-5.49,4.2-6.61,10.12-5.17,4.08,1,8.1,2.23,12.65,3.5v-4.35c0-8.73-.07-17.47,0-26.2.11-9.76,5.4-15.06,15.11-15.07,30.31,0,60.62,0,90.93-.06,8.4,0,14.56,5.28,14.35,14.36-.43,18.7-.11,37.42-.13,56.13,0,10.27-5.19,15.45-15.37,15.46q-23.19,0-46.4,0c-5.45,0-5.81.63-3.65,5.46,9.57,21.37,11.88,43.73,7.61,66.54-3.51,18.71-20.48,32.24-39.46,32.87-.63,0-1.25.07-1.87.07-75,0-149.94.15-224.9-.12-18.62-.06-32.06-9.4-39.19-26.64C1.58,335.23.92,329.16.45,323.39c-1.63-20.37,1-40.1,10.62-58.43,11.39-21.68,30.23-34.24,52.69-42.15,4.8-1.69,9.75-3,14.68-4.33s7.1-.23,9.08,4.53c9.36,22.45,19.71,44.4,32.71,65,1,1.54,2,3,3.55,5.33,2-8.79,3.88-16.72,5.71-24.65.48-2.07,1-4.12,1.42-6.19.51-2.36,1.4-4.64-1.13-6.72-.9-.73-1-2.75-1-4.18q-.12-13.85,0-27.69c0-4.8,2-6.77,6.86-6.8q19.85-.09,39.67,0c5.1,0,7,1.93,7,7.06q.09,13.67,0,27.32c0,1.34,0,3.24-.79,3.9-3,2.49-1.77,5.24-1.11,8.09,2.29,9.94,4.53,19.9,6.79,29.86Zm45.63-63.32c-.59,1.36-1.09,2.49-1.57,3.62a427.32,427.32,0,0,1-27.71,55c-7.28,12-15.21,23.44-25.71,32.89-6.2,5.57-12.86,10.35-21.63,10.77-9.64.47-17.36-3.92-24.13-10.17a129.19,129.19,0,0,1-25.69-33.83c-9.83-18.16-18.72-36.84-27.85-55.37-1.11-2.25-2.12-3-4.48-2.1-7.39,2.95-15.07,5.3-22.17,8.84-18.89,9.43-31.68,24.32-37.44,44.8-3.55,12.58-3.85,25.42-3.65,38.51.27,17.32,13.4,32.75,34.7,32.61,66.49-.42,133-.16,199.47-.16,7.36,0,14.72.09,22.08,0,16.19-.24,28.88-11.92,30.83-28a117.36,117.36,0,0,0-.93-33.53,72.85,72.85,0,0,0-7.43-22.85c-5.46,4.29-10.5,8.55-15.89,12.29a7.2,7.2,0,0,1-6.12.69c-1.58-.79-2.44-3.36-3.23-5.31-.38-.91.14-2.2.25-3.31.41-4.4.82-8.81,1.25-13.39-1.25-.06-2-.11-2.71-.12-12.92-.19-17.29-4.58-17.29-17.37C246.69,233.48,246.69,233.48,233.75,230.41ZM278,266.53c5.83-4.59,11.07-8.56,16.12-12.77a12.28,12.28,0,0,1,8.53-2.94c16.07.11,32.15,0,48.23.1,3.5,0,4.78-1,4.75-4.68-.18-18.32-.08-36.64-.09-55,0-1-.14-1.91-.22-3A20.59,20.59,0,0,0,353,188q-45.62,0-91.22,0c-2.86,0-3.58,1.2-3.55,3.84.11,9.6,0,19.2.07,28.79,0,3.71.65,7.42.62,11.13,0,5.2-.36,10.41-.67,15.61-.16,2.6.93,3.63,3.48,3.56,3.24-.1,6.48,0,9.72,0,5.79.06,7.65,2,7.23,7.74C278.49,261,278.29,263.31,278,266.53Zm-110.66-8c-7.49,0-14.82-.07-22.15.11-.75,0-1.91,1.39-2.12,2.32q-5,20.88-9.62,41.84c-.29,1.3-.2,3.35.6,4.11,4.48,4.26,8.92,8.69,14,12.16s11.09,3.18,16.14-.56a165.65,165.65,0,0,0,12.89-11.28,3.23,3.23,0,0,0,.8-2.6C174.48,289.37,171,274.12,167.38,258.55Zm3.17-11.8V228.92H140.37v17.83Z"/><path d="M73.7,87c9.68,1.9,9.68,1.9,9.68,11.74q0,21.71,0,43.41c0,6.78-1.52,8.25-8.43,8.27-15.62,0-27.26-7.49-30.82-20.95-4.23-16-.07-32.76,16.22-39.83.95-.41,1.73-2.2,1.86-3.42C65.71,53.74,81,28.61,109.37,12.3,165-19.66,236,13.74,246.69,76.91c1.26,7.44,2.63,12.78,10.08,16.72,7.73,4.1,10.86,12.36,11.3,21.22.36,7.28.16,14.47-3.86,21a28.75,28.75,0,0,1-12.44,11.51c-2.16,1-2.93,2.27-2.78,4.58a52.75,52.75,0,0,1-.1,7.85c-.73,8.26-6.24,13.43-14.52,13.56-7.11.11-14.22.16-21.33,0-2.92-.08-4.61.82-6.31,3.33-12.75,18.82-30.34,28.82-53.35,28-32.29-1.11-59.28-28.21-59.78-60.46-.42-27.31-.2-54.63-.08-81.94,0-11.53,6.16-19.41,17.22-22.41a167.21,167.21,0,0,1,91.54.76C211,43.1,215.59,49.35,217.19,58a19.38,19.38,0,0,1,.36,3.72c-.08,28.31-.07,56.63-.42,84.94-.06,5-1.61,10-2.52,15.24,6.5,0,13.1.14,19.69-.13a4.36,4.36,0,0,0,3-2.88c.45-2.64.14-5.4.14-8-9.85-1.79-9.85-1.79-9.85-11.74V97.22c0-8.2.53-8.83,9-10.09C234.26,61.29,223.3,40.27,201.41,26c-28-18.23-57.42-19.84-86.67-3.44C89.88,36.52,76.86,58.74,73.7,87Zm121.06,86.39c-7,0-13.49.12-19.93-.06-2.45-.07-3.7.73-4.91,2.88a16.87,16.87,0,0,1-22,7.09,17.15,17.15,0,0,1,3.9-32.5,16.79,16.79,0,0,1,18.25,8.69,4.25,4.25,0,0,0,4.37,2.53c8-.11,16-.19,23.94,0,2.85.09,4.19-1,4.63-3.54,1-5.86,2.66-11.71,2.84-17.6.43-13.58.15-27.19.14-40.78,0-1-.1-1.92-.15-2.83-22.21-2-22.21-2-32.49-10.49-20.79,13.24-44.3,17-68.49,19,0,12.16,0,24,0,35.83A51.18,51.18,0,0,0,141.72,191C161.5,197,183.78,189.83,194.76,173.36ZM104.89,94.55c9.23-1.31,18-2.08,26.64-3.87,19.61-4.08,37.93-10.8,50.41-27.91a5.42,5.42,0,0,1,.77-.82c2.59-2.34,6.65-2.39,8.77-.11,2.29,2.47,2.05,5.38-.55,8.31s-5.35,6.15-8.17,9.42c6.59,6.91,14.71,6.37,23.14,5.74,0-8.73.26-17.08-.11-25.4-.2-4.49-3-7.62-7.62-8.57-8.4-1.73-16.77-3.83-25.27-4.87a149.09,149.09,0,0,0-59.6,4.61c-5.54,1.57-8.26,5.24-8.39,10.94-.08,3.87,0,7.73,0,11.6Zm134.33,4.87v39.22c10.81-1.19,16.92-7.64,17.57-17.36C257.59,109.44,252.16,99,239.22,99.42Zm-167.44-.2c-13.87,2.1-18.88,9.08-17.36,23.67.95,9.08,8.79,16.24,17.36,15.68Zm89,68.53A5.61,5.61,0,0,0,155.2,162a5.67,5.67,0,1,0-.19,11.34A5.59,5.59,0,0,0,160.78,167.75Z"/><path d="M306.56,213.19c-8.6,0-17.2,0-25.8,0-4.6,0-7.25-2.16-7.23-5.71s2.74-5.72,7.28-5.72q26.18,0,52.35,0c4.37,0,6.87,2.08,7,5.58.09,3.73-2.36,5.83-7,5.85C324.26,213.22,315.41,213.19,306.56,213.19Z"/><path d="M291.27,236.19c-3.87,0-7.73.07-11.6,0-3.68-.09-6.14-2.43-6.15-5.66s2.44-5.63,6.13-5.66q12-.12,23.93,0c3.7,0,6,2.45,5.88,5.82-.09,3.18-2.34,5.4-5.85,5.49C299.5,236.27,295.38,236.19,291.27,236.19Z"/></g>
</g>
</svg>