<svg xmlns="http://www.w3.org/2000/svg" viewBox="0 0 76.8 81.06">
<g id="Layer_2" data-name="Layer 2"><g id="Layer_1-2" data-name="Layer 1">
<path d="M44.34,71.24c-13.93,0-26.29,0-38.66,0-4,0-5.35-1.83-5.62-5.72-.43-6.24,1.5-11.11,7-14.19,15.16-8.58,31-10,47.58-4.51-.25,3.89-1.73,5.95-5.77,5.95a54.82,54.82,0,0,0-11.3,1c-2,.42-4.5,1.8-5.24,3.45-.55,1.2,1,3.9,2.32,5.28C37.25,65.38,40.37,67.77,44.34,71.24Z"/><path d="M35.71,0A16,16,0,0,1,51.6,15.63a16,16,0,0,1-16,16A16,16,0,0,1,20,15.77,16,16,0,0,1,35.71,0Z"/><polygon points="51.6 81.06 53.38 70.29 45.52 62.71 56.32 61.08 61.1 51.26 65.99 61.02 76.8 62.54 69.02 70.2 70.93 80.95 61.24 75.92 51.6 81.06"/></g></g>
</svg>