<svg xmlns="http://www.w3.org/2000/svg" viewBox="0 0 469 469"><defs><style>.cls-1{fill:#3babb4;}</style></defs><g id="Layer_2" data-name="Layer 2"><g id="Layer_1-2" data-name="Layer 1"><path class="cls-1" d="M234.5,6a228.57,228.57,0,0,1,88.94,439.05A228.56,228.56,0,0,1,145.56,24,227.13,227.13,0,0,1,234.5,6m0-6C105,0,0,105,0,234.5S105,469,234.5,469,469,364,469,234.5,364,0,234.5,0Z"/><path class="cls-1" d="M285.54,72c1.83.56,3.7,1,5.51,1.69,13.52,4.93,20.64,17.73,18.93,33.25a71,71,0,0,1-13.53,34.94c-1.07,1.45-2.07,3-3.53,5.06,2.13,0,3.59-.05,5,0,7.58.31,12.18,5.07,12.24,12.65,0,3.46,0,6.92,0,10.39-.08,7.43-5,12.29-12.48,12.38-3,0-6,0-9.47,0V190c0,18.22-9.25,29.62-27.07,33.44-.2,0-.36.21-.7.42v19.25l51.45,10.23a9.46,9.46,0,0,0,.18-2c-1.12-6.89,1.72-12,6.37-17,9.33-10.07,18.11-20.66,27-31.12a8,8,0,0,0,1.59-4.29c.24-3.12,0-6.27.1-9.41a17.85,17.85,0,0,1,17.25-17.66c10.59-.29,21.2-.13,31.8-.09,3.27,0,5.4,2.06,5.39,4.81s-2.15,4.76-5.42,4.85c-3.88.12-7.76,0-12.35,0,2.94,6.19,5.51,11.94,10.64,16a8.15,8.15,0,0,0,3,1c2.74.7,4.44,2.91,4.08,5.39a5.1,5.1,0,0,1-6,4.19c-4.3-.56-7.6-2.92-10.49-6-1-1.07-1.95-2.19-3.47-3.92v94.73c0,12.39-6.87,19.23-19.29,19.23-10.6,0-21.2,0-31.8,0-11.27,0-18.39-7.18-18.41-18.48,0-9.95,0-19.89,0-30.19L292,259.27v79.37h33.47c0-2.43,0-4.77,0-7.11.08-3.9,1.8-5.95,4.91-5.91s4.77,2,4.78,5.7c0,20,.11,40,0,60-.06,7.92-5.54,13-13.56,13q-87.31,0-174.61,0c-8.15,0-13.43-5.17-13.56-13.32-.12-7.68-.06-15.36,0-23,0-4,1.89-6.34,4.94-6.26s4.74,2.29,4.77,6.14c0,7.14,0,14.28,0,21.43,0,4.8.56,5.32,5.48,5.32h28v-46H173q-16.72,0-33.43,0c-4.48,0-6.15-1.56-6.16-6,0-19.9-.18-39.81.05-59.71.18-15.28,9.91-26.79,24.79-29.83,16.5-3.38,33-6.6,49.76-9.92V223.57c-9.57-1.53-17.19-6.09-22.68-14.14s-5.21-17.36-5-27.06c-3.12,0-6,0-8.86,0-8.36,0-13.11-4.75-13.15-13,0-3.35,0-6.71,0-10.06.08-7.17,4.68-11.94,11.9-12.32,1.57-.08,3.14,0,5.38,0-1.95-2.81-3.48-5-5-7.2a66.89,66.89,0,0,1-12.25-38c-.17-14.59,8.9-25.9,23.17-29.18A10,10,0,0,0,183,72ZM186.63,394.4h95.2V325.89h-95.2ZM288.25,135.72c.64-.4,1-.5,1.12-.72,7.39-10.71,11.54-22.47,11-35.57a18.62,18.62,0,0,0-18.29-17.62q-47.83-.19-95.67,0c-8.61,0-16.52,6.27-17.61,14.81-.75,5.85,0,12,1,17.92,2.19,12.08,9.89,21.41,16.88,31a3.39,3.39,0,0,0,2.75.87Q231,139.92,254,104.62c1.58-2.45,3-5,4.72-7.37a4.75,4.75,0,0,1,6.54-1.56c2.32,1.38,3,4.11,1.56,6.81-.63,1.2-1.35,2.36-2.28,4,3,0,5.42,0,7.87,0,9.7.08,15.8,6.12,15.88,15.77C288.28,126.64,288.25,131,288.25,135.72ZM282.05,293c0-11.58,0-22.81-.1-34,0-.7-1.29-1.82-2.15-2-4.72-1.12-9.53-1.9-14.25-3a83.81,83.81,0,0,0-26.2-1.83c-.08,1.07-.19,2-.2,2.95-.05,4.33.07,8.66-.14,13a4.76,4.76,0,0,1-9.51,0c-.17-1.82-.09-3.67-.1-5.51,0-3.5,0-7,0-10.66-1.47,0-2.34.06-3.19,0-12.62-1-24.59,2.73-36.8,4.79-2.61.44-3,1.62-3,3.87.1,9.73,0,19.46.05,29.19,0,1,.11,2.1.18,3.29Zm-47.88-79h22.36c10.94-.26,19.66-7.1,21.53-17.46.72-4,.26-8.19.48-12.28.12-2.08-.49-3-2.7-3.4-12.16-2.43-24.27-5.14-36.43-7.59a22,22,0,0,0-8.22-.45c-10.7,2-21.33,4.42-32,6.74-3,.66-7.18.59-8.67,2.52s-.53,6-.52,9.12c.06,13.65,9.1,22.71,22.76,22.8C219.91,214,227,214,234.17,214Zm87.7,34.73v3q0,20.91,0,41.84c0,6.1,2.8,8.87,8.94,8.88q15.9,0,31.79,0c6.61,0,9.29-2.65,9.3-9.17q0-20.76,0-41.52v-3Zm-43.75-77.33a5,5,0,0,0,.33-1c0-16.32.07-32.64,0-49,0-3.28-2-5.09-5.39-5.18-4.11-.12-8.23-.22-12.32.06a7.49,7.49,0,0,0-4.26,2.05c-5.58,5.4-10.6,11.43-16.55,16.37a96.61,96.61,0,0,1-47.35,21.11c-.94.15-2.42,1.3-2.46,2-.23,4.4-.11,8.82-.11,13.37a16.25,16.25,0,0,0,1.88-.12c10.35-2.18,20.7-4.35,31-6.58,6.18-1.33,6.17-1.37,6.47-7.8,0-.33,0-.65.05-1,.35-2.93,2.17-4.66,4.85-4.63s4.5,1.74,4.75,4.72c.16,1.83-.11,3.7.17,5.5a3,3,0,0,0,1.74,2.08C253.29,166.17,265.64,168.75,278.12,171.39ZM176.53,338.71V259.33c-5.13,1-10,2-14.82,2.87-12.19,2.29-18.58,9.92-18.61,22.35q0,25.47,0,50.94c0,1,.13,2.07.21,3.22Zm115.52,10.05v45.85h28.44c4.21,0,4.94-.7,4.95-4.89q0-19,0-38c0-.94-.12-1.89-.19-3ZM281.9,303.2H186.74v12.42H281.9Zm89.85-95c-5.55,0-10.73-.1-15.91.08a5.2,5.2,0,0,0-3.15,1.7c-2.87,3.08-5.55,6.33-8.31,9.52l-16.47,19.06h43.84ZM250.44,224h-32.3v17.9h32.3Zm106.81-25.7h14.47V181.85C359.5,179.9,355,185,357.25,198.27ZM180,172.63V156.69a88.51,88.51,0,0,0-9.27.12,3.7,3.7,0,0,0-2.57,2.46,63.6,63.6,0,0,0,0,10.69,3.68,3.68,0,0,0,2.47,2.55A91.29,91.29,0,0,0,180,172.63Zm108.33,0a89.77,89.77,0,0,0,9.63-.13,3.68,3.68,0,0,0,2.37-2.62,65.28,65.28,0,0,0,0-10.37c-.07-1-1.25-2.55-2-2.63-3.27-.29-6.59-.12-10-.12Z"/></g></g></svg>