<svg xmlns="http://www.w3.org/2000/svg" viewBox="0 0 469 469"><defs><style>.cls-1{fill:#3babb4;}</style></defs><g id="Layer_2" data-name="Layer 2"><g id="Layer_1-2" data-name="Layer 1"><path class="cls-1" d="M234.5,6a228.57,228.57,0,0,1,88.94,439.05A228.56,228.56,0,0,1,145.56,24,227.13,227.13,0,0,1,234.5,6m0-6C105,0,0,105,0,234.5S105,469,234.5,469,469,364,469,234.5,364,0,234.5,0Z"/><path class="cls-1" d="M155.86,396c-1.47-.5-3-.9-4.41-1.52-8.63-3.79-13.49-10.44-13.57-19.83-.15-18.17-.49-36.38.39-54.52,1.48-30.53,26.43-57.72,56.68-62.82,4.12-.69,8.29-1,12.77-1.59,0-5.5.07-11-.08-16.58a3.7,3.7,0,0,0-1.72-2.28c-13.75-9.07-22-21.71-24.47-38a4,4,0,0,0-3-3.7c-11.3-4.22-16.47-16.35-12.14-27.61a6,6,0,0,0-.44-4.24c-7.88-15.85-8.74-32-2.24-48.46A36.12,36.12,0,0,1,176.24,99a4.29,4.29,0,0,0,1.59-3.18c-.83-10.71,4-17.24,14.62-19.13a242.81,242.81,0,0,1,85.27.1c9.63,1.71,14.8,8.87,13.88,18.56a4.31,4.31,0,0,0,1.18,3.37c11,7.9,15.63,19.14,16.92,32.09A57.14,57.14,0,0,1,303.13,164a4.66,4.66,0,0,0-.12,3.43c4.36,11.49-.76,23.46-12.15,27.94a3.58,3.58,0,0,0-2.67,3.25c-2.57,16.09-10.61,28.77-24.22,37.79a4.38,4.38,0,0,0-2.36,4.27c.16,5,.05,10,.05,14.49,7.41,1.47,14.57,2.21,21.29,4.36,29.54,9.44,48.47,35.91,48.65,67.49.09,15,0,30.05,0,45.08,0,12.75-5.39,19.92-17.59,23.5a2.11,2.11,0,0,0-.49.37Zm138.08-11.16a4,4,0,0,0,.92.36c4.63,0,9.25.06,13.87.05,7.66,0,12-4.21,12.08-11.8.07-15.77.25-31.54,0-47.29-.61-33.55-26.46-59.26-59.33-59.39a4.69,4.69,0,0,0-4.23,2q-5.46,7.13-11.2,14c-6.34,7.59-16.25,7.58-22.61,0-2.57-3.06-5.44-6-7.4-9.4-3.51-6.12-8.31-7-14.95-6.3-27.35,2.95-50.74,26.51-52.08,54-.75,15.1-.32,30.26-.39,45.39,0,3-.11,6.11.16,9.13.43,4.72,3.51,8.71,8.16,9.15,6.09.58,12.27.15,18.56.15V355.8c0-6.2-.09-12.41,0-18.6.1-4.5,4.14-7,7.85-5.11,2.36,1.24,2.89,3.35,2.88,5.84,0,14.61,0,29.21,0,43.82V385H283V342.24h-3.53c-7.35,0-14.71,0-22.07,0-7.59-.05-11.94-4.42-12-11.94q0-9.46,0-18.92c0-8,4.25-12.21,12.27-12.27,3,0,6,0,8.94,0,1-8.69,2-10.93,5.62-10.66,6.83.51,5.06,6.18,5.58,10.66,3.56,0,6.9-.08,10.23,0,6.79.22,11,4.4,11.12,11.13.11,6.93,0,13.87,0,20.81a11.09,11.09,0,0,1-3.86,8.62,4,4,0,0,0-1.38,2.53C293.92,356.39,293.94,370.58,293.94,384.84Zm-59.4-150.16a43,43,0,0,0,43-38.57c.58-5.29,3.2-8.65,8.27-10.32,5.63-1.85,8.82-6.64,8-11.66-.88-5.57-5.18-9.23-11.22-9.55-8.58-.45-15.14-5.39-17.74-13.61-.61-1.93-1.45-2.58-3.5-2.57q-26.64.14-53.28,0c-2,0-2.91.56-3.53,2.53-2.63,8.27-9.12,13.17-17.72,13.65-6,.34-10.35,4.06-11.24,9.57-.81,5,2.38,9.78,8,11.65,5.09,1.67,7.7,5.06,8.24,10.34A43,43,0,0,0,234.54,234.68Zm0-97c10.18,0,20.37,0,30.55,0,4.61,0,5.95-1.06,7-5.52q4.19-17.91,8.32-35.84c1.43-6.15,0-8.3-6.28-9.22-5.49-.81-11-1.62-16.53-2.15a235.18,235.18,0,0,0-63.36,2.34c-5,.88-6.5,3.31-5.34,8.33q4.14,17.93,8.32,35.84c1.26,5.39,2.38,6.23,8,6.23Zm16.39,105.17a54.37,54.37,0,0,1-32.34-.05c0,5.61-.06,10.82.06,16a4.73,4.73,0,0,0,1.29,2.41q5.66,7.16,11.38,14.25c2.45,3,4.42,3,6.86,0q5.75-7.08,11.37-14.26a5.22,5.22,0,0,0,1.32-2.72C250.94,253.47,250.88,248.44,250.88,242.83Zm37.43,88.48V310.08h-31.9v21.23Zm.09-221.94c-2,8.56-3.92,16.82-5.78,25.09-.9,4-2.37,7.79-5.79,10.14-2.68,1.84-2.19,3.75-.6,5.41a13.49,13.49,0,0,0,5.62,3.62c4.13,1.2,8.44,1.77,12.88,2.64C302.82,142.34,299.91,118.18,288.4,109.37Zm-113.65,47c4.3-.91,8.12-1.85,12-2.5,3.25-.54,5.67-2,7.16-5,.82-1.63.39-2.54-.87-4a30.34,30.34,0,0,1-5.64-8.78c-1.58-4.18-2.18-8.73-3.21-13.11s-2.13-9-3.25-13.69C169.37,118.81,166.58,142.89,174.75,156.36Z"/><path class="cls-1" d="M229.07,105.38c.64-4.46-1.11-10.11,5.67-10.67,3.65-.3,4.8,2.05,5.59,10.67,1.47,0,3,0,4.51,0,3.67.14,6,2.35,6,5.52s-2.36,5.1-5.89,5.21c-1.45,0-2.9,0-4.85,0,0,1.94.09,3.58,0,5.21-.23,3.44-2.2,5.46-5.24,5.51s-5.25-2-5.47-5.61c-.1-1.45,0-2.92,0-4.88l-4.93-.23c-3.5-.14-5.79-2.23-5.81-5.3s2.27-5.25,5.74-5.42C225.86,105.32,227.42,105.38,229.07,105.38Z"/></g></g></svg>