<svg xmlns="http://www.w3.org/2000/svg" viewBox="0 0 469 469"><defs><style>.cls-1{fill:#3babb4;}</style></defs><g id="Layer_2" data-name="Layer 2"><g id="Layer_1-2" data-name="Layer 1"><path class="cls-1" d="M234.5,6a228.57,228.57,0,0,1,88.94,439.05A228.56,228.56,0,0,1,145.56,24,227.13,227.13,0,0,1,234.5,6m0-6C105,0,0,105,0,234.5S105,469,234.5,469,469,364,469,234.5,364,0,234.5,0Z"/><path class="cls-1" d="M49.92,149a7.33,7.33,0,0,1,6.55-2.89c7.81.15,15.63,0,23.45.06,4.82,0,6.2,1.38,6.2,6.23q0,46.83,0,93.64v4.45H175c.17-2.63.33-5.2.5-8-3.23-.86-6.38-1.56-9.43-2.55-11.54-3.74-19.22-13.1-19.55-23.39-.21-6.51,2.67-11,8.23-14.09s11.65-3.49,17.87-2.6c2.12.3,4.26.55,6.46.83,0-2.21,0-4.2,0-6.18,0-5.17,1.79-8,6.83-8.59a143.85,143.85,0,0,1,22.24-1c23.23,1.05,46.06,5.16,68.76,10,.46.1.93.15,2.27.36.46-14.7.91-29.21,1.33-42.95l-5.1-2.93,2.85-4.55c-1-.08-2.14-.19-3.31-.26-3.3-.21-5.05-1.86-5-5.28,0-11.57.07-23.14,0-34.71,0-4,2.23-5.47,5.77-5.7V91.39c-5.59-1.84-9.51-5.24-10.17-11.35-.11-1,.86-2.13,1.33-3.2.62.85,1.29,1.68,1.84,2.57,1.42,2.29,2.48,4.88,4.24,6.84,1.51,1.68,3.51,2.2,5.18-.61,1.41-2.35,4.29-2.88,5.68-.52,2.07,3.53,4.95,3.09,8,3,1.67,0,3.35,0,5.62,0V80.93c0-5.06,0-10.12,0-15.18,0-2.86.24-5.49,3.86-5.74,2.74-.19,4.08,1.83,4.09,5.93,0,7.23,0,14.45,0,22.2,3.61,0,7.06.1,10.48-.08.68,0,1.4-1.09,1.94-1.79,2.48-3.27,4.8-3.47,7.18-.16,1.24,1.74,2.28,1.7,3.86.84a10.05,10.05,0,0,0,5.16-7.42c.19-1,1.18-1.79,1.8-2.68.49,1.06,1.48,2.16,1.38,3.16-.61,6.11-4.56,9.49-10.08,11.41v7c5.74,2.27,5.74,2.27,5.74,8.85q0,15,0,30c0,6-.93,7-7.08,7.3a13.88,13.88,0,0,0-1.59.27,8,8,0,0,0,.57,1.34c.77,1.12,1.59,2.22,2.4,3.32a17.7,17.7,0,0,1-3.64,1.55,10.56,10.56,0,0,1-4.3,0,16.25,16.25,0,0,1-3.53-1.78c.7-1,1.39-1.93,2.1-2.88.26-.34.58-.64,1.19-1.31a18.05,18.05,0,0,0-2.26-.51c-5.55-.37-6.51-1.32-6.53-6.75q0-15.91,0-31.82c0-5.36.68-6.18,6-7.36-.11-1.15-.25-2.32-.31-3.5s0-2.11,0-3.37c-1.05-.1-2-.24-2.91-.26-2.38,0-4.75,0-7.52,0v4.27c0,34.47.05,68.93-.08,103.4,0,2.94,1,4.11,3.55,5.16,20,8.08,38.21,19.16,55.53,31.84a7.46,7.46,0,0,1,2.53,4c.8,3.25,1.14,6.62,1.71,10.22h14.64V235c0-1.69,0-3.38,0-5.07,0-3.21,1.65-5,4.85-5,8.77-.06,17.55-.09,26.33,0,3.59,0,5,1.83,5,6q0,23.87,0,47.72,0,14.83,0,29.65c0,5.45-1.31,6.75-6.87,6.76q-11.19,0-22.37,0c-5.79,0-6.94-1.18-7-7v-4.16h-77.6v8.14c4.22.81,8.67,1.25,12.82,2.59A54,54,0,0,1,329,319.87a6.4,6.4,0,0,1,3.36,6.34c-.07,1,.77,2.14,1.47,3,2.54,3.08,2.61,6.83.05,9.46a6.68,6.68,0,0,1-9.15.37,6.51,6.51,0,0,1-.56-9.38c2.3-2.59,1.59-4.15-1-5.69-5.31-3.19-11.13-4.31-17.75-4.51.29,3.94-1.13,7.72,1.39,11.46,1.85,2.75.83,6.37-1.77,8.38a6.61,6.61,0,0,1-8.32-.19c-2.45-2.07-3.45-6.05-1.32-8.43,3.08-3.46,1.58-7.18,2-11.15-6.63.13-12.53,1.3-17.92,4.55-2.42,1.46-3,3.09-1,5.56,2.66,3.37,2.18,7.2-.84,9.59a6.63,6.63,0,0,1-9.1-.8c-2.39-2.71-2.15-6.5.54-9.45.61-.67,1.52-1.56,1.45-2.26-.49-4.81,2.73-7.36,6.21-8.77,5.49-2.23,11.36-3.54,17.1-5.19a24.15,24.15,0,0,1,3.36-.46v-8.41H86.12v6.19c0,3.09-1.69,4.86-4.62,4.9-9,.13-18,.16-27-.08-1.53,0-3-1.62-4.53-2.48Zm133.94,85.16c-.87,3.33-2,6.77-2.65,10.28-1.25,6.6.1,8.07,6.72,8.87,10.7,1.31,21.46,2.42,32,4.39a147.49,147.49,0,0,0,32.6,2.7c3.22-.12,5.71-1,7.28-3.71,3.33-5.68,7.05-11.23,9.56-17.26,5.07-12.17,7.13-25.12,8.64-38.23a23.61,23.61,0,0,0-2.69-.79c-16.92-2.88-33.78-6.33-50.81-8.37-11.61-1.4-23.46-1-35.21-1-4.44,0-4.93.91-4.49,5.39.46,4.76,1.27,9.47,2,15-5.69-1.69-10.84-3.14-15.93-4.75-6.92-2.2-13,.51-15.2,6.87-2.06,6,1.08,12.17,7.8,14.45S177.08,232.09,183.86,234.13ZM305.31,208.4v54.3c0,12.14.18,12.39,11.72,16.27.57.19,1.15.34,1.73.51,7.6,2.13,9.82.23,8.91-7.61-.81-6.94,1.86-10.22,8.77-10.6,1.79-.09,3.6.2,5.4.26,4.19.12,8.41.5,12.58.25,4.85-.29,7.45-2.95,7.86-7.81a79.74,79.74,0,0,0-.2-9,7.3,7.3,0,0,0-3.88-6.37c-8.67-5.4-17-11.29-25.89-16.37C323.82,217.35,314.87,213.25,305.31,208.4ZM281,201.5c-2.33,10.75-4.22,20.79-6.73,30.67a68.35,68.35,0,0,1-13.69,27.4c13.09,0,26.39-4.19,36.75,8.71,0-21.07,0-40.78-.06-60.49a2.73,2.73,0,0,0-1.34-2.12C290.94,204.15,285.86,202.82,281,201.5ZM282.78,152c-.43,14.26-.88,28.92-1.33,43.83l15.65,4V91.8H286.79V99c3.36.12,5.67,1.41,5.67,5.12q0,17.72,0,35.43c0,3.26-1.8,4.81-4.91,5.05-1.2.1-2.41.16-3.59.24l3,4.42Zm29.65-43.26c0,10.41-.09,20.5.12,30.59a4.07,4.07,0,0,0,2.69,2.88,75.67,75.67,0,0,0,12.23,0c1.08-.09,2.9-1.76,2.92-2.73.21-10.21.13-20.43.13-30.76-1.82.2-3.37.27-4.87.58a17.74,17.74,0,0,0-3,1.19l1.95,2.89c-.44.49-1.9,1.41-1.82,2.19.1,1,1.4,1.92,2,2.61-.62.59-2.1,1.5-2,2,.31,1.16,1.37,2.13,2,3-.58.57-2.11,1.5-2,2.08.23,1.09,1.4,2,1.92,2.63-.65.86-1.85,1.77-1.92,2.76,0,.74,1.36,1.58,2,2.22l-3.31,3.74-3.3-3.72c.67-.65,2.18-1.61,2-2a10.25,10.25,0,0,0-2.1-2.93c.66-.65,2.23-1.63,2.09-2.17-.28-1.12-1.47-2-2.1-2.76.72-.66,2.24-1.6,2.11-2-.34-1.15-1.41-2.08-2.19-3.1l.84,1c.5-1,1.52-2.07,1.37-2.94-.19-1.08-1.36-2-2-2.79l2.08-2.31a16.78,16.78,0,0,0-3.12-1.49A37,37,0,0,0,312.43,108.69Zm-34.59,14.17,2.19-2.1a16,16,0,0,0-3-1.25,48.07,48.07,0,0,0-4.9-.49c0,6.84,0,13.34,0,19.84,0,2.25.91,3.43,3.15,3.44,4,0,8,.21,11.89-.12,1.09-.09,2.88-1.71,2.92-2.69.26-6.84.14-13.7.14-20.53-2.34.23-4.37.36-6.38.68-.55.09-1,.75-1.5,1.15a17,17,0,0,0,1.44,1.5,4.64,4.64,0,0,0,1.07.56c-.95.9-2.52,1.85-2.39,2.39.27,1.09,1.45,2,2,2.69-.63.72-2,1.6-2,2.5s1.38,1.79,2,2.46l-3.26,3.81-3.32-3.93c.63-.55,2.19-1.51,2.06-1.88a12.84,12.84,0,0,0-2.05-3.1c.61-.59,2.09-1.41,2-2.13C279.84,124.7,278.61,123.81,277.84,122.86Zm1.09-24.07h4.7c-.43-2.62-.74-4.89-1.28-7.1a5.81,5.81,0,0,0-2.58.17C279.33,94.1,279.18,96.39,278.93,98.79Zm40.86.1h3.48V91.8C318.81,91.43,318.34,92.36,319.79,98.89Z"/><path class="cls-1" d="M120.08,222a25.56,25.56,0,1,1,25.53-25.41A25.43,25.43,0,0,1,120.08,222Z"/><path class="cls-1" d="M119.2,245.74c-6.25,0-12.51,0-18.76,0-4.55,0-6-1.49-6-6.1,0-2.78,0-5.55,0-8.32.06-3.07,1.8-4.79,4.73-4.81q20.2-.13,40.4,0c3.31,0,5,2,5,5.36,0,2.77,0,5.54,0,8.31-.06,3.89-1.59,5.51-5.46,5.56C132.43,245.8,125.81,245.74,119.2,245.74Z"/><path class="cls-1" d="M207.9,234A130.72,130.72,0,0,1,164,225.74c-5.92-2.21-8.22-8-5.42-13.05,2.28-4.15,6.67-5.61,11.86-3.82,14.34,4.95,29,7.6,44.24,6.7,12.78-.76,24.48-4.48,34.76-12.37,4.13-3.17,8.78-2.79,12.12.54A8.77,8.77,0,0,1,262.75,215a16.34,16.34,0,0,1-3.58,3.51C244.15,229.87,226.9,234,207.9,234Z"/></g></g></svg>