<svg xmlns="http://www.w3.org/2000/svg" viewBox="0 0 469 469"><defs><style>.cls-1{fill:#3babb4;}</style></defs><g id="Layer_2" data-name="Layer 2"><g id="Layer_1-2" data-name="Layer 1"><path class="cls-1" d="M234.5,6a228.57,228.57,0,0,1,88.94,439.05A228.56,228.56,0,0,1,145.56,24,227.13,227.13,0,0,1,234.5,6m0-6C105,0,0,105,0,234.5S105,469,234.5,469,469,364,469,234.5,364,0,234.5,0Z"/><path class="cls-1" d="M161.61,411.05c-11.69-11.67-23.11-23.06-34.68-34.62.44-.48,1.08-1.25,1.8-2,11.09-11.07,22.1-22.24,33.31-33.19,14.38-14,31.24-17.77,50.09-10.8,20.27,7.49,40.37,15.44,60.54,23.19.49.19,1,.4,1.43.62,4,1.92,6.07,5.88,5.07,9.83a8.44,8.44,0,0,1-9,6.45,32.79,32.79,0,0,1-6.85-1.26c-11.35-3.15-22.6-6.69-34-9.48-5.79-1.41-11.9-1.52-18.18-2.26V370.1c.13.1.34.43.51.41,13.08-1,24.8,4.56,37,7.6,5.9,1.46,11.68,3.53,17.65,4.58,16.36,2.88,28.86-10.9,24.47-26.84-.57-2.07-.13-3,1.42-4.14q27.44-20.43,54.77-41c3.08-2.3,6.27-3.14,9.7-1a7.48,7.48,0,0,1,3.37,9.14c-1.37,3.91-3,8.28-5.9,11q-33.73,31.92-68.06,63.23c-8.78,8.05-19.32,9.69-30.85,7.67-22.33-3.91-44.71-7.52-67.05-11.32a8.12,8.12,0,0,0-7.68,2.64C174.17,398.58,167.74,404.93,161.61,411.05Z"/><path class="cls-1" d="M356.87,91.77c-.07.08-.63.76-1.26,1.38-11.37,11.36-22.58,22.88-34.16,34-14.14,13.56-30.77,17.08-49.16,10.3C252,130,231.9,122,211.73,114.28c-5.48-2.1-8-6.07-6.79-10.6,1.29-4.89,5.91-7.62,11.74-6.1,12.89,3.35,25.62,7.38,38.56,10.57,5.65,1.39,11.64,1.41,17.75,2.08V97.76c-.2-.15-.41-.44-.6-.43-14,1-26.5-5.25-39.64-8.39-4.91-1.17-9.72-2.85-14.67-3.74-16.58-3-29.2,10.73-24.75,26.88.59,2.12,0,3-1.49,4.13q-27.43,20.43-54.79,41c-3,2.21-6.05,3.05-9.39,1.11s-4.87-5.47-3.67-9c1.38-4,3-8.57,6-11.38,22.28-21.13,44.87-41.93,67.46-62.74,8.12-7.47,17.76-10.27,28.74-8.44,22.87,3.82,45.77,7.48,68.63,11.42a9.46,9.46,0,0,0,9.37-3c6-6.26,12.19-12.35,17.92-18.14Z"/><path class="cls-1" d="M187.27,246.34c-2.78,0-5.37.1-8,0a12.4,12.4,0,0,1,0-24.79c2.58-.12,5.18,0,8,0,4.27-16.56,13.68-29.15,28.84-37.17a54.39,54.39,0,0,1,32-6c0,4.48.53,8.91-.24,13.11-.36,1.94-3.08,4.4-5.1,4.8-1.78.36-4.18-1.64-6.1-2.91-.71-.46-.83-1.81-1.24-2.82H223.86c-1.53,12,12.37,21.81,24.56,17.39a18.64,18.64,0,0,0,12.27-16.86c.11-3.07,0-6.15,0-9.87,19.09,7.57,30.73,20.91,36.08,40.3,2.4,0,4.85-.05,7.29,0,7.25.17,12.72,5.57,12.68,12.48s-5.51,12.2-12.82,12.35c-2.32,0-4.65,0-7.2,0-3.89,15-12.07,26.87-25.22,35.08a54.67,54.67,0,0,1-32.23,8.34C217.63,288.75,194.57,274.38,187.27,246.34ZM266,261.45l-10.72-5.34c-3,5.47-7.15,8.85-13.34,8.83s-10.22-3.6-13.21-8.85L218,261.55a26,26,0,0,0,48-.1Zm-32.42-38.14a21.3,21.3,0,0,0-33.37.69,41.79,41.79,0,0,1,4.31,3.66,46,46,0,0,1,3.51,4.8c7.87-6,9.81-6,17.33-.72Zm25.47,8.23c6.79-5,8.74-5,15.77,0l8.59-8.14c-8.58-10.49-24.78-10.44-33,.1Z"/></g></g></svg>