<svg xmlns="http://www.w3.org/2000/svg" viewBox="0 0 1276 1276"><defs><style>.cls-1{fill:none;stroke:#45afb7;stroke-miterlimit:10;stroke-width:10px;}.cls-2{fill:#45afb7;}</style></defs><g id="Layer_2" data-name="Layer 2"><g id="Layer_1-2" data-name="Layer 1"><circle class="cls-1" cx="638" cy="638" r="633"/><path class="cls-2" d="M545.29,936H275.53c-18.92,0-35.41-13.64-38.12-32.36A38,38,0,0,1,275,860h84.49A29.06,29.06,0,0,0,389,830.62V799.78a7.78,7.78,0,0,1,7.78-7.78h84.69a2.63,2.63,0,0,0,1.83-.71c11.43-10.92,3.88-24.29-6.8-24.29H377a13,13,0,0,0-13,13V831a4.17,4.17,0,0,1-1.17,3,3.34,3.34,0,0,1-2.44,1H276.84c-35.41,0-64.66,28.74-64,64.14a63.08,63.08,0,0,0,63,61.86h269c6.91,0,12.85-5.4,12.95-12.31A12.5,12.5,0,0,0,545.29,936Z"/><path class="cls-2" d="M966.68,346H909.34a29.79,29.79,0,0,0-26.88-17h-85a29.78,29.78,0,0,0-26.87,17H712.75a12.5,12.5,0,1,0,0,25H768v3.41a46.39,46.39,0,0,0,42.16,46.37,48.35,48.35,0,0,0,8.84,0v55.08c0,25.61,19.69,46.38,44.82,47.27A46.49,46.49,0,0,0,912,476.7V472h40.94L930.71,727.11a12.61,12.61,0,0,0,11.48,13.65c.38,0,.75,0,1.11,0a12.62,12.62,0,0,0,12.57-11.52L978.41,470.5A46.29,46.29,0,0,0,1013,425.8V392.32A46.32,46.32,0,0,0,966.68,346ZM886,358.9V476.79a19.58,19.58,0,0,1-6.16,15.15,21,21,0,0,1-15.39,5.89C853.27,497.43,844,476,844,476V405.52a12.77,12.77,0,0,0-19.14-11.26A21.18,21.18,0,0,1,812.13,397C801.4,396,793,386.43,793,375.29V359.21a4.22,4.22,0,0,1,4.21-4.21h84.86s4.21,1.57,4.21,4H886ZM987,426a21,21,0,0,1-20.9,21H911V371h55a21.06,21.06,0,0,1,21,21.05V426Z"/><path class="cls-2" d="M780.67,472a12.49,12.49,0,0,0,12.49-12.69c-.1-6.91-6-12.31-12.94-12.31H714.45c-6.91,0-12.85,5.4-13,12.31A12.5,12.5,0,0,0,714,472Z"/><path class="cls-2" d="M991.93,807.27a147.08,147.08,0,0,0-127-73.27H755.73A12.73,12.73,0,0,1,743,721.27V696a46.71,46.71,0,0,0-1.94-13.32c20-14.92,27.69-45.7,4.37-73.69-4.64-5.56-14.45-10-21.69-10H693v-4.21a29.5,29.5,0,0,0-17-26.63V207.41a46.57,46.57,0,0,0-54.26-45.87C599.25,165.2,583,185.11,583,207.9V346H427.32A46.32,46.32,0,0,0,381,392.32V425.8a46.3,46.3,0,0,0,34.59,44.7l22.54,258.79a12.63,12.63,0,0,0,25.16-2.19L441.06,472H583v96a29.68,29.68,0,0,0-17,26.78V599H533.89c-6.28,0-14.89,3.79-19,8.51-24.88,28.32-17.31,59.86,3.09,75A46.5,46.5,0,0,0,516,695.81V881a80,80,0,0,0,80,80H996a16,16,0,0,0,16-16V881.66a147.19,147.19,0,0,0-19.42-73.27C992.38,808,992.16,807.63,991.93,807.27ZM608,207A21.06,21.06,0,0,1,629.77,186c11.39.41,20.23,10.15,20.23,21.55V565H608V207ZM427,447h-.24A21,21,0,0,1,406,426v-33.9A21.06,21.06,0,0,1,427.05,371H583v76ZM987,932a4,4,0,0,1-4,4H689a13,13,0,0,1-13-13V724.15a1.44,1.44,0,0,0-.36-.95c-11-12.09-24.64-4.42-24.64,6.48v82.67a150.42,150.42,0,0,0,64.63,123.53A124.88,124.88,0,0,1,608,812.35V729.81c0-6.91-5.4-12.85-12.3-12.95a12.49,12.49,0,0,0-12.7,12.5v82.47c0,49.51,25,93.34,63.12,119.72C586.83,923.46,541,872.85,541,811.84V695.17a20.77,20.77,0,0,1,.45-4.32q1.86.15,3.75.15H645.68a12.78,12.78,0,0,0,12.87-11.39A12.54,12.54,0,0,0,646,666H545.76c-11.4,0-21.13-8.84-21.54-20.23a21,21,0,0,1,21-21.77h33.17A12.64,12.64,0,0,0,591,611.37V594.21a4.22,4.22,0,0,1,4.21-4.21h67.58a4.22,4.22,0,0,1,4.21,4.21v17.17A12.62,12.62,0,0,0,679.62,624h33c11.4,0,21.14,8.84,21.54,20.23a21,21,0,0,1-21,21.77H697.62c-6.91,0-12.85,5.4-13,12.31A12.5,12.5,0,0,0,697.17,691h16.66q1.88,0,3.72-.15a20.77,20.77,0,0,1,.45,4.32v17.51A46.32,46.32,0,0,0,764.32,759H865a121.58,121.58,0,0,1,92,42H797.45a120.92,120.92,0,0,1-58.55-15.1,12.5,12.5,0,1,0-12.13,21.86A146,146,0,0,0,797.45,826H974.38a121,121,0,0,1,12.29,42H799.47a120.91,120.91,0,0,1-58.54-15.1,12.5,12.5,0,1,0-12.13,21.86A145.88,145.88,0,0,0,799.47,893H987v39Z"/></g></g></svg>