<svg xmlns="http://www.w3.org/2000/svg" viewBox="0 0 1276 1276"><defs><style>.cls-1,.cls-2{fill:none;stroke:#45afb7;}.cls-1{stroke-linecap:round;stroke-linejoin:round;stroke-width:66.67px;}.cls-2{stroke-miterlimit:10;stroke-width:10px;}</style></defs><g id="Layer_2" data-name="Layer 2"><g id="Layer_1-2" data-name="Layer 1"><path class="cls-1" d="M774.61,703a232.27,232.27,0,0,0-133.33-41.82c-119.87,0-218.62,90.38-231.83,206.71-1,8.76-1.46,12.86.58,17.09a17.22,17.22,0,0,0,3,4.15c5,5.38,9,5.38,21.63,5.38H606.5m134.78-57.31,60,57.14L941.28,761M774.61,427.67A133.33,133.33,0,1,1,641.28,294.33,133.33,133.33,0,0,1,774.61,427.67Z"/><circle class="cls-2" cx="638" cy="638" r="633"/></g></g></svg>