<svg xmlns="http://www.w3.org/2000/svg" viewBox="0 0 1276 1276"><defs><style>.cls-1,.cls-2{fill:none;stroke:#45afb7;}.cls-1{stroke-linecap:round;stroke-linejoin:round;stroke-width:66.67px;}.cls-2{stroke-miterlimit:10;stroke-width:10px;}</style></defs><g id="Layer_2" data-name="Layer 2"><g id="Layer_1-2" data-name="Layer 1"><g id="Layer_2-2" data-name="Layer 2"><g id="Layer_1-2-2" data-name="Layer 1-2"><path class="cls-1" d="M353,538.07V799.24c0,68.34,0,102.52,13.3,128.63a122,122,0,0,0,53.34,53.33,93.23,93.23,0,0,0,20.1,7.33m564.63-360.15-221-245.52c-50.27-55.84-75.41-83.77-105-94.07a122.11,122.11,0,0,0-80.29,0c-29.6,10.31-54.73,38.24-105,94.1L272.22,628.41M922.9,344V799.24c0,68.34,0,102.52-13.3,128.63a122,122,0,0,1-53.33,53.33,93.42,93.42,0,0,1-20.1,7.33m-396,0C466,879.16,575.57,811.42,684.94,837.22A203.46,203.46,0,0,1,836.25,988.53m-396.06,0c24,6,56.25,6,108.53,6h179c52.27,0,84.56,0,108.53-6M719.58,628.38A81.37,81.37,0,1,1,638.21,547h0A81.37,81.37,0,0,1,719.58,628.38Z"/></g></g><circle class="cls-2" cx="638" cy="638" r="633"/></g></g></svg>