<svg xmlns="http://www.w3.org/2000/svg" viewBox="0 0 1276 1276"><defs><style>.cls-1{fill:#45afb7;}.cls-2{fill:none;stroke:#45afb7;stroke-miterlimit:10;stroke-width:10px;}</style></defs><g id="Layer_2" data-name="Layer 2"><g id="Layer_1-2" data-name="Layer 1"><g id="Layer_2-2" data-name="Layer 2"><g id="Layer_1-2-2" data-name="Layer 1-2"><path class="cls-1" d="M1027.79,465.26A129.79,129.79,0,0,0,908.22,386H799V356.51C799,293.28,747.63,242,684.23,242H592.81C529.41,242,478,293.24,478,356.47V386H367.78A129.72,129.72,0,0,0,238,515.66V905.24A129.76,129.76,0,0,0,367.76,1035H908.23A129.74,129.74,0,0,0,1038,905.29V515.76A129.22,129.22,0,0,0,1027.79,465.26ZM536,356.39a56,56,0,0,1,4.42-21.94,56.82,56.82,0,0,1,20.43-24.84A56,56,0,0,1,592.31,300h91.38a55.7,55.7,0,0,1,21.9,4.43,56.53,56.53,0,0,1,24.8,20.46,55.85,55.85,0,0,1,9.61,31.5V386H536ZM980,905a71.44,71.44,0,0,1-5.65,28,72.48,72.48,0,0,1-26.09,31.68A71.69,71.69,0,0,1,908.07,977H368.29a70.71,70.71,0,0,1-27.74-5.61A71.44,71.44,0,0,1,297,905.62V608H980V905Zm0-345H297V515.28A71.28,71.28,0,0,1,368.28,444H908.72A71.24,71.24,0,0,1,980,515.23V560Z"/><polygon class="cls-1" points="596 923 687 923 687 838 772 838 772 748 687 748 687 663 596 663 596 748 511 748 511 838 596 838 596 923"/></g></g><circle class="cls-2" cx="638" cy="638" r="633"/></g></g></svg>