<svg xmlns="http://www.w3.org/2000/svg" viewBox="0 0 1276 1276"><defs><style>.cls-1,.cls-3{fill:none;}.cls-2{fill:#45afb7;}.cls-3{stroke:#45afb7;stroke-miterlimit:10;stroke-width:10px;}</style></defs><g id="Layer_2" data-name="Layer 2"><g id="Layer_1-2" data-name="Layer 1"><g id="Layer_2-2" data-name="Layer 2"><g id="invisible_box" data-name="invisible box"><rect class="cls-1" x="238" y="228" width="800" height="800"/></g><g id="Layer_4" data-name="Layer 4"><path class="cls-2" d="M925.68,728.33,834.06,680H832.4a50,50,0,0,0-56.64,10L637.5,826.67,499.24,688.33a50,50,0,0,0-56.64-10l-93.28,50a51.69,51.69,0,0,0-28.32,45V945a50,50,0,0,0,50,50H904a50,50,0,0,0,50-50V773.33A51.69,51.69,0,0,0,925.68,728.33Z"/><path class="cls-2" d="M818,496.82V495H458v3.33a180,180,0,0,0,182.9,180C738.32,676.78,818,594.25,818,496.82Z"/><path class="cls-2" d="M818,347.67a35,35,0,0,0-28.33-35L638,261,486.33,312.67a35,35,0,0,0-28.33,35V461H818ZM686.44,378H654v32.44c0,9.86-8.08,17.83-17.9,17A16.5,16.5,0,0,1,621,411V378H588.56c-9.86,0-17.83-8.08-17-17.9A16.5,16.5,0,0,1,588,345h33V312.56c0-9.86,8.08-17.83,17.9-17A16.5,16.5,0,0,1,654,312v33h33a16.5,16.5,0,0,1,16.44,15.1C704.27,369.92,696.3,378,686.44,378Z"/></g></g><circle class="cls-3" cx="638" cy="638" r="633"/></g></g></svg>