<svg xmlns="http://www.w3.org/2000/svg" viewBox="0 0 1276 1276"><defs><style>.cls-1{fill:#45afb7;}.cls-2{fill:none;stroke:#45afb7;stroke-miterlimit:10;stroke-width:10px;}</style></defs><g id="Layer_2" data-name="Layer 2"><g id="Layer_1-2" data-name="Layer 1"><g id="Layer_2-2" data-name="Layer 2"><g id="Layer_1-2-2" data-name="Layer 1-2"><circle class="cls-1" cx="563.64" cy="514.98" r="17.21"/><path class="cls-1" d="M691,497.77A17.21,17.21,0,1,0,708.21,515,17.21,17.21,0,0,0,691,497.77Z"/><path class="cls-1" d="M808.75,469.56c-21.62-101.08-121.1-165.5-222.18-143.87A187.17,187.17,0,0,0,442.63,469.9a55.91,55.91,0,0,0,7.43,111.34c1.06,0,2.09,0,3.14-.08a187.44,187.44,0,0,0,32.29,51.35l-2.12,1.57L661.49,874.16l20.73-15.4-34.9-47L762.61,641.38l-3-2a187.48,187.48,0,0,0,38.77-58.48,60.79,60.79,0,0,0,6.18.35,55.91,55.91,0,0,0,4.19-111.67ZM605.08,348.67a161.3,161.3,0,0,1,48.5,1.07,39,39,0,0,1,2.86,3.78c4.07,6.18,8.19,15.89,8.22,31.26,0,11.65-2.45,26.57-9.36,45.35-21.78-17.52-34.19-33.66-41.2-47-7.65-14.49-9-25.69-9-32.18A19.72,19.72,0,0,1,605.08,348.67Zm-15.55,2.75c0,8.76,2.1,22.49,10.82,39A135.8,135.8,0,0,0,616.41,414c-6.94-2.8-13.86-5.4-20.39-8.15-11.28-4.73-21.09-10-27.77-17.07a37.19,37.19,0,0,1-7.9-12.26,45,45,0,0,1-2.85-14.09A159.6,159.6,0,0,1,589.53,351.42ZM825.47,546.55a30,30,0,0,1-31.26,7.11L782,549.35l-4.26,12.24a161.7,161.7,0,0,1-58,77.82,157,157,0,0,1-22,13.41,72.41,72.41,0,0,1-1.56,29.07c3.59-1.48,7.13-3.06,10.59-4.75L630.62,789.8,548.78,679.49c3,1.36,6.1,2.67,9.23,3.88a71.45,71.45,0,0,1-2.74-19.72,67.12,67.12,0,0,1,.62-9.29,159.93,159.93,0,0,1-24.61-14.57,161.85,161.85,0,0,1-58.07-77.29l-4-11.28-11.54,3.09a30.48,30.48,0,0,1-8,1.13,30.12,30.12,0,0,1,0-60.23c.53,0,1.3.07,2.38.13l12,.94,1.8-11.88A161.65,161.65,0,0,1,542.4,370.21a58.1,58.1,0,0,0,3.25,12.3,52.34,52.34,0,0,0,9.67,15.57c6.93,7.76,15.59,13.22,24.65,17.7,13.6,6.68,28.29,11.28,40.6,17.07a82.06,82.06,0,0,1,16.35,9.55,38.42,38.42,0,0,1,10.65,12.41,7.75,7.75,0,0,0,7.06,4.17,7.64,7.64,0,0,0,6.83-4.51c13.41-29,18.22-51.89,18.23-69.76a76.76,76.76,0,0,0-5.53-29.91A161.39,161.39,0,0,1,784.88,484.74l1.92,12.8,12.81-2a30.08,30.08,0,0,1,25.86,51Z"/><path class="cls-1" d="M627.32,607.47A56.13,56.13,0,1,0,667,623.92,56.13,56.13,0,0,0,627.32,607.47Zm25.58,67.17a28.34,28.34,0,0,1-49.62,4.85,28,28,0,0,1-4.83-15.79,28.27,28.27,0,0,1,2.25-11,28.33,28.33,0,1,1,52.2,22Z"/><path class="cls-1" d="M627.32,573.8c-38.12,0-69.06,18.49-69.06,41.31,0,6.76,2.77,13.23,7.67,18.92a72.82,72.82,0,0,1,10.74-13.67,71.84,71.84,0,0,1,112,13.66c4.9-5.64,7.67-12.11,7.67-18.91C696.38,592.29,665.47,573.8,627.32,573.8Z"/><path class="cls-1" d="M918.35,502.18l-15.47.79,15.47-.8c-2.62-52-20.19-97.78-45.11-136.48-18.76-29.07-41.65-54.3-65.78-75.85a496.65,496.65,0,0,0-107.7-72.63,368.43,368.43,0,0,0-43-18.44q-9-3.18-16.19-4.89c-2.38-.56-4.63-1-6.77-1.34a43.76,43.76,0,0,0-6.46-.54,41.14,41.14,0,0,0-5.76.44,93,93,0,0,0-12,2.64,254.82,254.82,0,0,0-29.85,10.67,478.65,478.65,0,0,0-70.27,37.12C470.87,267.41,429.5,301,396.63,344a308.51,308.51,0,0,0-41.31,71.9,267.36,267.36,0,0,0-19.07,86.18c-.73,14.79-1.12,31-1.12,48.42A1195.2,1195.2,0,0,0,346.8,716.06c6.37,44.5,15.58,90,28.68,133.36,9.83,32.53,21.82,63.89,36.41,92.77,21.93,43.32,49.76,81.21,85.4,108.52a209.58,209.58,0,0,0,59.28,32.1,215.22,215.22,0,0,0,70.75,11.53,212.52,212.52,0,0,0,82.6-16,216.53,216.53,0,0,0,59-37.07c30.79-26.89,55.33-62,75-101.44,29.51-59.25,48.25-128.66,59.78-197.22a1185.47,1185.47,0,0,0,15.8-192C919.52,533.14,919.09,516.9,918.35,502.18ZM877.17,711.7C871,754.94,862,799,849.49,840.47c-9.39,31.13-20.78,60.9-34.39,87.75-20.42,40.39-45.81,74.34-76.58,97.9A178.74,178.74,0,0,1,688,1053.53a184.12,184.12,0,0,1-60.63,9.84c-26.27,0-49.63-4.89-70.69-13.67a184.92,184.92,0,0,1-50.56-31.82c-26.85-23.41-49.3-55.06-67.67-91.91-27.56-55.26-45.79-122-57-188.54a1150.64,1150.64,0,0,1-15.34-186.9c0-16.92.39-32.65,1.13-46.84,2.33-46,17.66-86.24,40.24-121.3,16.92-26.25,37.94-49.5,60.38-69.54a466.61,466.61,0,0,1,100.87-68A343,343,0,0,1,608.08,228c5.27-1.81,9.79-3.15,13.26-4,1.7-.41,3.17-.7,4.24-.87a13.72,13.72,0,0,1,1.8-.18,14.15,14.15,0,0,1,1.46.14,67.14,67.14,0,0,1,8,1.8A226.84,226.84,0,0,1,663,234.31,448.44,448.44,0,0,1,728.64,269c36.24,23.05,74.89,54.55,104.81,93.81a277,277,0,0,1,37.23,64.65,235.72,235.72,0,0,1,16.84,76.22c.7,14.19,1.12,29.95,1.12,46.85A1168,1168,0,0,1,877.17,711.7Z"/></g></g><circle class="cls-2" cx="638" cy="638" r="633"/></g></g></svg>