<svg xmlns="http://www.w3.org/2000/svg" viewBox="0 0 1276 1276"><defs><style>.cls-1{fill:#45afb7;}.cls-2{fill:none;stroke:#45afb7;stroke-miterlimit:10;stroke-width:10px;}</style></defs><g id="Layer_2" data-name="Layer 2"><g id="Layer_1-2" data-name="Layer 1"><path class="cls-1" d="M553.14,455.69a67.65,67.65,0,1,0-82.29-48.78A67.63,67.63,0,0,0,553.14,455.69Z"/><path class="cls-1" d="M617.48,655l-4.57,47.88a145.75,145.75,0,0,1,22,17.93,143.26,143.26,0,1,1-238.84,141l-24.41,53.84a187.73,187.73,0,0,0,161.94,93.6c103.17,0,187.13-84,187.14-187.13C720.76,751.8,680.33,686.6,617.48,655Z"/><path class="cls-1" d="M573.21,722.92l17.23-180.51c2.78-30.44-15.57-57.13-46-59.91-19.52-1.79-40.44,8.08-52.74,21L406.92,587l-88.7,7.46A27.51,27.51,0,0,0,293,621.83v1.66A27.52,27.52,0,0,0,320.52,651H411.9a40.05,40.05,0,0,0,23.85-7.85l36.95-27.27-8,88-115.86,8.45c-33.64,1.33-48.47,14.82-61.13,45L233.07,907.62a36.59,36.59,0,0,0,66.75,30L361.44,806H479.6C539,805.35,567.11,780.4,573.21,722.92Z"/><path class="cls-1" d="M877.74,342.42a67.66,67.66,0,1,0-82.29-48.78A67.64,67.64,0,0,0,877.74,342.42Z"/><path class="cls-1" d="M990.89,665.44,960.15,426.23c-7.86-59.61-76.87-73.72-116.09-37.65l-95.68,86.28-91.57,34.45a28.17,28.17,0,0,0-17.19,34.81l.34,1.1a28.2,28.2,0,0,0,33.27,19.09L743.74,545A126.54,126.54,0,0,0,786,526.61l34.5-21.16L839.83,656c1.08,8.29-14,45.21-16.47,54.11l-77.26,241a36,36,0,0,0,23.06,45.28l1.3.41a36,36,0,0,0,44.45-20.19l86.85-210.4L922.7,976.34a36,36,0,0,0,38.87,32.75l1.37-.12A36,36,0,0,0,996,973.06Z"/><circle class="cls-2" cx="638" cy="638" r="633"/></g></g></svg>