<svg id="Layer_1" data-name="Layer 1" xmlns="http://www.w3.org/2000/svg" viewBox="0 0 429.19 354.58"><defs><style>.cls-1{fill:#f5f5f5;}.cls-2{fill:#15a2ae;}.cls-10,.cls-13,.cls-15,.cls-16,.cls-17,.cls-3,.cls-4,.cls-5,.cls-7,.cls-8{isolation:isolate;}.cls-14,.cls-3,.cls-5{opacity:0.2;}.cls-11,.cls-15,.cls-16,.cls-17,.cls-4,.cls-5,.cls-7,.cls-8{fill:#fff;}.cls-4{opacity:0.5;}.cls-6{fill:#263238;}.cls-7{opacity:0.3;}.cls-8{opacity:0.6;}.cls-9{fill:#e4897b;}.cls-10,.cls-17{opacity:0.1;}.cls-12{fill:#de5753;}.cls-13,.cls-16{opacity:0.4;}.cls-15{opacity:0.7;}.cls-18{fill:#8bbdd6;}.cls-19,.cls-21{fill:none;stroke-miterlimit:10;}.cls-19{stroke:#fff;}.cls-20{fill:#159ba6;}.cls-21{stroke:#159ba6;stroke-width:2px;}</style></defs><g id="freepik--Shadow--inject-32"><ellipse id="freepik--path--inject-32" class="cls-1" cx="235.3" cy="343.26" rx="193.89" ry="11.32"/></g><g id="freepik--Plant--inject-32"><path class="cls-2" d="M410.45,384.72c.15-1,3.65-25.17-3.36-33.51a7.6,7.6,0,0,0-5.82-2.87c-14.16-.33-16.09,11-16.11,11.15l1.67.26c.06-.41,1.74-10,14.4-9.72a5.94,5.94,0,0,1,4.57,2.26c6.52,7.77,3,31.93,3,32.18Z" transform="translate(-14.7 -72.98)"/><path class="cls-2" d="M411.3,383.62l1.69-.06c0-.22-.56-22.25,10.29-26.8,10.64-4.45,15.43,4.71,15.62,5.1l1.51-.76c-.05-.11-5.67-11-17.78-5.89C410.71,360.2,411.27,382.66,411.3,383.62Z" transform="translate(-14.7 -72.98)"/><path class="cls-2" d="M411.25,385.35c0-.35.11-35.19,6.9-45.38,6.52-9.79,17-5.18,17.49-5l.69-1.54c-.12-.05-12.26-5.41-19.59,5.58-7.07,10.61-7.17,44.86-7.17,46.32Z" transform="translate(-14.7 -72.98)"/><path class="cls-2" d="M399.24,349.18s6.18,2.28,4.34,7.65-21.37,14.23-21.37,14.23-8.19-7.5-.67-19.7S399.07,345.33,399.24,349.18Z" transform="translate(-14.7 -72.98)"/><path class="cls-2" d="M418.45,338.13s-4.38-.47-4-3.14,17.06-9.55,26.91,1.57c0,0-6.31,10.84-15.43,11S418.45,338.13,418.45,338.13Z" transform="translate(-14.7 -72.98)"/><path class="cls-2" d="M423,356s-3-2.44.24-3.63,19.3-.86,19.46,15c0,0-18.67,3.11-21-2.94S423,356,423,356Z" transform="translate(-14.7 -72.98)"/><path class="cls-3" d="M399.24,349.18s6.18,2.28,4.34,7.65-21.37,14.23-21.37,14.23-8.19-7.5-.67-19.7S399.07,345.33,399.24,349.18Z" transform="translate(-14.7 -72.98)"/><path class="cls-3" d="M418.45,338.13s-4.38-.47-4-3.14,17.06-9.55,26.91,1.57c0,0-6.31,10.84-15.43,11S418.45,338.13,418.45,338.13Z" transform="translate(-14.7 -72.98)"/><path class="cls-3" d="M423,356s-3-2.44.24-3.63,19.3-.86,19.46,15c0,0-18.67,3.11-21-2.94S423,356,423,356Z" transform="translate(-14.7 -72.98)"/><polygon class="cls-2" points="381.22 344.09 410.2 344.09 413.32 312.37 378.1 312.37 381.22 344.09"/><polygon class="cls-4" points="381.22 344.09 410.2 344.09 413.32 312.37 378.1 312.37 381.22 344.09"/><rect class="cls-2" x="376.55" y="308.86" width="38.32" height="7"/><rect class="cls-5" x="376.55" y="308.86" width="38.32" height="7"/></g><g id="freepik--Chair--inject-32"><path class="cls-6" d="M363.12,394.33l-28.81-2.83V351H322.89v40.48L294,394.33a5.61,5.61,0,0,0-5.06,5.58v4.33h79.28v-4.33A5.6,5.6,0,0,0,363.12,394.33Z" transform="translate(-14.7 -72.98)"/><path class="cls-5" d="M363.12,394.33l-28.81-2.83V351H322.89v40.48L294,394.33a5.61,5.61,0,0,0-5.06,5.58v4.33h79.28v-4.33A5.6,5.6,0,0,0,363.12,394.33Z" transform="translate(-14.7 -72.98)"/><circle class="cls-6" cx="277.25" cy="336.63" r="7.47"/><circle class="cls-6" cx="350.44" cy="336.63" r="7.47"/><path class="cls-6" d="M320.93,323.64h15.35v31.93a4.13,4.13,0,0,1-4.13,4.13h-7.09a4.13,4.13,0,0,1-4.13-4.13h0V323.64Z" transform="translate(-14.7 -72.98)"/><path class="cls-7" d="M320.93,323.64h15.35v31.93a4.13,4.13,0,0,1-4.13,4.13h-7.09a4.13,4.13,0,0,1-4.13-4.13h0V323.64Z" transform="translate(-14.7 -72.98)"/><path class="cls-6" d="M355.9,260.35s2.18,54-12.86,63.29h17.17s13.3-18.39,9.54-63.29Z" transform="translate(-14.7 -72.98)"/><path class="cls-7" d="M355.9,260.35s2.18,54-12.86,63.29h17.17s13.3-18.39,9.54-63.29Z" transform="translate(-14.7 -72.98)"/><path class="cls-6" d="M366.05,327.78H289.13v-6.69a5,5,0,0,1,5-5h66.92a5,5,0,0,1,5,5v6.69Z" transform="translate(-14.7 -72.98)"/><rect class="cls-6" x="271.22" y="248.96" width="83.33" height="5.84" rx="2.01"/><rect class="cls-8" x="271.22" y="248.96" width="83.33" height="5.84" rx="2.01"/><rect class="cls-6" x="317.18" y="158.42" width="56.66" height="39.92" rx="14.58"/></g><g id="freepik--Character--inject-32"><path class="cls-9" d="M263.05,187.28l-5.49-14.47s2.36-2.18.74-4.39-11.74-8.42-13.58-7.33-5.95,5.21-3.73,7.5,12,6.1,12,6.1l4.86,19Z" transform="translate(-14.7 -72.98)"/><path class="cls-2" d="M301.38,214.79s-25-5.13-27.67-6.36S261,177.77,261,177.77l-7.71,3.6s6.2,29.54,12.54,36.56,33.4,13,33.4,13Z" transform="translate(-14.7 -72.98)"/><path class="cls-3" d="M299.17,230.9l-.46-.11c-1.36-.31-5.63-1.31-10.7-2.8-8.23-2.39-18.61-6-22.23-10.05-6.33-7-12.54-36.57-12.54-36.57l7.7-3.6s10.05,29.44,12.77,30.66,27.67,6.36,27.67,6.36Z" transform="translate(-14.7 -72.98)"/><polygon class="cls-2" points="246.37 104.21 247.96 107.28 238.06 110.69 238.44 106.94 246.37 104.21"/><path class="cls-3" d="M299.36,230.49c-1.38-.2-5.71-.87-10.89-2,2.95-5.1,11.59-7.72,11.59-7.72Z" transform="translate(-14.7 -72.98)"/><path class="cls-6" d="M336.58,194.41s1.47,13.83-3.65,17.23-30.33-.58-33.19-6.15,7.9-20.67,7.9-20.67Z" transform="translate(-14.7 -72.98)"/><polygon class="cls-9" points="219.89 303.41 226.47 305 229.8 295.92 232.82 287.66 225.33 284.47 222.45 294.49 219.89 303.41"/><polygon class="cls-3" points="222.45 294.49 229.8 295.92 232.82 287.66 225.33 284.47 222.45 294.49"/><path class="cls-2" d="M237.81,362.68l9.12,3.39s24.33-60.83,29.33-61,55.91,23.19,68.67,10.21S339.24,271,339.24,271s-30.69-4.38-33,2.55a48.72,48.72,0,0,0-1.3,6.22c-.35,2.12-.59,3.9-.59,3.9h0c-1-.24-31.76-8.19-43.9,0C248.1,292,237.81,362.68,237.81,362.68Z" transform="translate(-14.7 -72.98)"/><path class="cls-8" d="M237.81,362.68l9.12,3.39s24.33-60.83,29.33-61,55.91,23.19,68.67,10.21S339.24,271,339.24,271s-30.69-4.38-33,2.55a48.72,48.72,0,0,0-1.3,6.22c-.35,2.12-.59,3.9-.59,3.9h0c-1-.24-31.76-8.19-43.9,0C248.1,292,237.81,362.68,237.81,362.68Z" transform="translate(-14.7 -72.98)"/><polygon class="cls-9" points="275.57 329.36 282.12 327.69 280.86 318.28 279.69 309.66 271.59 310.39 273.69 320.44 275.57 329.36"/><polygon class="cls-3" points="273.74 320.64 280.9 318.46 279.71 309.75 271.6 310.44 273.74 320.64"/><polygon class="cls-2" points="236 289.71 222.71 285.2 222.14 290.64 232.22 294.2 236 289.71"/><path class="cls-2" d="M322.89,318.36s-2.08.05-34.27-1.45c0,0,4.81,40.24,7.44,70.37l-9.63,1.64s-23-64.51-22.75-74.76,12-13.25,12-13.25S298.61,314.16,322.89,318.36Z" transform="translate(-14.7 -72.98)"/><path class="cls-8" d="M322.89,318.36s-2.08.05-34.27-1.45c0,0,4.81,40.24,7.44,70.37l-9.63,1.64s-23-64.51-22.75-74.76,12-13.25,12-13.25S298.61,314.16,322.89,318.36Z" transform="translate(-14.7 -72.98)"/><path class="cls-10" d="M322.89,318.36s-2.08.05-34.27-1.45c0,0,4.81,40.24,7.44,70.37l-9.63,1.64s-23-64.51-22.75-74.76,12-13.25,12-13.25S298.61,314.16,322.89,318.36Z" transform="translate(-14.7 -72.98)"/><polygon class="cls-2" points="282.76 311.38 269.53 312.89 272.09 318.07 282.8 316.7 282.76 311.38"/><path class="cls-10" d="M304.35,283.67l17.95,3.74s-9.92-5.48-17.36-7.64C304.59,281.89,304.35,283.67,304.35,283.67Z" transform="translate(-14.7 -72.98)"/><polygon class="cls-6" points="323.8 193.25 324.54 198.02 291.54 200.57 290.67 194.92 323.8 193.25"/><polygon class="cls-3" points="323.8 193.25 324.54 198.02 291.54 200.57 290.67 194.92 323.8 193.25"/><rect class="cls-2" x="327.66" y="265.81" width="1.64" height="8.35" transform="translate(-40.59 -37.97) rotate(-5.87)"/><rect class="cls-11" x="313.25" y="267.68" width="7.24" height="5.49" transform="translate(-31.41 -52.08) rotate(-3.68)"/><rect class="cls-2" x="307.41" y="266.68" width="1.64" height="8.35" transform="translate(-40.79 -40.03) rotate(-5.87)"/><rect class="cls-8" x="327.66" y="265.81" width="1.64" height="8.35" transform="translate(-40.59 -37.97) rotate(-5.87)"/><rect class="cls-8" x="307.41" y="266.68" width="1.64" height="8.35" transform="translate(-40.79 -40.03) rotate(-5.87)"/><path class="cls-2" d="M300.78,214.34a60,60,0,0,0,19,2.09C330.38,215.89,343,221,343,221l-4.54,45.2-33.14,1.67S294.23,230.16,300.78,214.34Z" transform="translate(-14.7 -72.98)"/><path class="cls-6" d="M306.11,188.81s1.86-21.94,20.2-14c23,10,4.72,36.74-6.53,31.26S306.11,188.81,306.11,188.81Z" transform="translate(-14.7 -72.98)"/><path class="cls-3" d="M311.25,217.66l.53,12.4,4.11-5.83s-1.47,13.71-.61,21.18c0,0,.79-13.39,2.65-21.18l4.37,5.83,6.27-12.32S318.42,214.09,311.25,217.66Z" transform="translate(-14.7 -72.98)"/><path class="cls-9" d="M316.93,220l9.49-2.68c-5.85-4-2.9-13-2.9-13l-9.4,3.3a27.53,27.53,0,0,1,1,4c1,5.86-1.66,6.33-1.66,6.33Z" transform="translate(-14.7 -72.98)"/><path class="cls-3" d="M314.12,207.57a27.53,27.53,0,0,1,1,4c4.5-1.81,8.39-7.32,8.39-7.32Z" transform="translate(-14.7 -72.98)"/><path class="cls-9" d="M320.26,179.45c-8.33-1.84-12,2-14.5,10.46-3.13,10.55-2.44,18.69,8.47,18.71C329.05,208.64,334.08,182.51,320.26,179.45Z" transform="translate(-14.7 -72.98)"/><path class="cls-12" d="M311.24,190.64a17.91,17.91,0,0,1-3.18,2.91,2.34,2.34,0,0,0,2,1.43Z" transform="translate(-14.7 -72.98)"/><path class="cls-6" d="M316.49,191.08c-.17.68.06,1.33.52,1.44s.95-.35,1.12-1-.06-1.32-.52-1.44S316.66,190.4,316.49,191.08Z" transform="translate(-14.7 -72.98)"/><path class="cls-6" d="M317.79,190.13l-1.33-.94S316.89,190.62,317.79,190.13Z" transform="translate(-14.7 -72.98)"/><path class="cls-6" d="M308.07,188.86c-.17.68.06,1.33.52,1.44s1-.35,1.12-1-.06-1.32-.52-1.44S308.24,188.18,308.07,188.86Z" transform="translate(-14.7 -72.98)"/><path class="cls-6" d="M309.37,187.91,308,187S308.47,188.39,309.37,187.91Z" transform="translate(-14.7 -72.98)"/><path class="cls-6" d="M321.18,187.77a.37.37,0,0,1-.33-.19,4.09,4.09,0,0,0-3-1.86.38.38,0,0,1-.33-.4.37.37,0,0,1,.4-.33,4.79,4.79,0,0,1,3.62,2.26.37.37,0,0,1-.15.49h0A.34.34,0,0,1,321.18,187.77Z" transform="translate(-14.7 -72.98)"/><path class="cls-6" d="M311.87,184a.33.33,0,0,1-.19-.06,3.63,3.63,0,0,0-3.15,0,.36.36,0,0,1-.46-.19h0a.36.36,0,0,1,.2-.47h0a4.33,4.33,0,0,1,3.8.08.36.36,0,0,1,.11.5h0A.37.37,0,0,1,311.87,184Z" transform="translate(-14.7 -72.98)"/><path class="cls-6" d="M326.25,195.49s-2.38-7.7-.62-12.85c0,0-15-10.39-19.52,6.17,0,0,1.67-15.22,16.06-12.38s9.68,23.75.91,28.35C323.08,204.78,327.71,200.3,326.25,195.49Z" transform="translate(-14.7 -72.98)"/><path class="cls-9" d="M324.5,197a3.74,3.74,0,0,1,4.67-2.47c2.52.85,2.57,6.42-4.12,6.27C324.08,200.73,323.76,199.72,324.5,197Z" transform="translate(-14.7 -72.98)"/><path class="cls-6" d="M308.55,198.14a21.62,21.62,0,0,1,.44,3.1h.54c2.49.21,3.71-.52,4.31-1.38a3.1,3.1,0,0,0,.52-1.43,3.17,3.17,0,0,0,0-.87,12,12,0,0,1-5,.59A4.9,4.9,0,0,1,308.55,198.14Z" transform="translate(-14.7 -72.98)"/><path class="cls-11" d="M309.4,198.2l.15.91c2.34.19,4,0,4.81-.63a3.17,3.17,0,0,0,0-.87A11.76,11.76,0,0,1,309.4,198.2Z" transform="translate(-14.7 -72.98)"/><path class="cls-12" d="M309.53,201.29c2.49.21,3.71-.52,4.31-1.38a8,8,0,0,0-2.8.31A3,3,0,0,0,309.53,201.29Z" transform="translate(-14.7 -72.98)"/><path class="cls-6" d="M320.29,180.12s.32,14.43,9,16.17-.8-18.56-.8-18.56-12.9-8.42-21.5-2.48-.86,13.56-.86,13.56S307.92,178.09,320.29,180.12Z" transform="translate(-14.7 -72.98)"/><path class="cls-6" d="M323.6,193.33a.23.23,0,0,1-.16-.06c-6.16-4.84-3.12-14.1-3.09-14.19a.26.26,0,0,1,.32-.16.25.25,0,0,1,.15.32c0,.09-2.95,9,2.93,13.64a.24.24,0,0,1,0,.34h0A.23.23,0,0,1,323.6,193.33Z" transform="translate(-14.7 -72.98)"/><path class="cls-2" d="M331.8,199.25c-1.1,2.94-3.93,4.59-6.32,3.7s-3.43-4-2.33-6.94,3.93-4.59,6.32-3.69S332.9,196.32,331.8,199.25Z" transform="translate(-14.7 -72.98)"/><path class="cls-13" d="M331.8,199.25c-1.1,2.94-3.93,4.59-6.32,3.7s-3.43-4-2.33-6.94,3.93-4.59,6.32-3.69S332.9,196.32,331.8,199.25Z" transform="translate(-14.7 -72.98)"/><path class="cls-2" d="M329,194.44s3.59-16.07-4.46-20.28a22.53,22.53,0,0,1,2.72.53c1,.3,7.47,6.82,4.22,21.26Z" transform="translate(-14.7 -72.98)"/><path class="cls-3" d="M329,194.44s3.59-16.07-4.46-20.28a22.53,22.53,0,0,1,2.72.53c1,.3,7.47,6.82,4.22,21.26Z" transform="translate(-14.7 -72.98)"/><path class="cls-2" d="M314,203.64l-.6-.09.16-1a18.34,18.34,0,0,0,12.69-2.69l.59.8A18.85,18.85,0,0,1,314,203.64Z" transform="translate(-14.7 -72.98)"/><g class="cls-14"><path d="M314,203.64l-.6-.09.16-1a18.34,18.34,0,0,0,12.69-2.69l.59.8A18.85,18.85,0,0,1,314,203.64Z" transform="translate(-14.7 -72.98)"/></g><path class="cls-2" d="M331.46,198.85c-.72,1.94-2.6,3-4.17,2.44s-2.27-2.64-1.54-4.58,2.6-3,4.17-2.44S332.19,196.91,331.46,198.85Z" transform="translate(-14.7 -72.98)"/><path class="cls-2" d="M313.06,204l-.81-.11a1.08,1.08,0,0,1-.93-1.21h0a1.08,1.08,0,0,1,1.2-.94h0l.8.11a1.1,1.1,0,0,1,.94,1.22h0A1.1,1.1,0,0,1,313.06,204Z" transform="translate(-14.7 -72.98)"/><path class="cls-13" d="M313.06,204l-.81-.11a1.08,1.08,0,0,1-.93-1.21h0a1.08,1.08,0,0,1,1.2-.94h0l.8.11a1.1,1.1,0,0,1,.94,1.22h0A1.1,1.1,0,0,1,313.06,204Z" transform="translate(-14.7 -72.98)"/><polygon class="cls-2" points="309.17 140.87 303.23 146.7 305.61 153.86 313.87 144.76 309.17 140.87"/><polygon class="cls-2" points="300.58 142.09 301.54 146.58 298.47 152.93 296.55 144.68 300.58 142.09"/><path class="cls-9" d="M322.6,218.91l3.45-12.63s-1.67-3.14-1.31-3.8,2.16-9.14,3.44-10.06,6.55.65,7.08,1.51-5.05,12.35-5.05,12.35l-2,13.69Z" transform="translate(-14.7 -72.98)"/><path class="cls-2" d="M343,221c9.5,9.72-9.53,31.74-20.44,30.8s.28-40.86.28-40.86l7,1.15s-2.45,17.28-1.68,18.63S339.85,217.77,343,221Z" transform="translate(-14.7 -72.98)"/><path class="cls-3" d="M343,221c9.5,9.72-9.53,31.74-20.44,30.8s.28-40.86.28-40.86l7,1.15s-2.45,17.28-1.68,18.63S339.85,217.77,343,221Z" transform="translate(-14.7 -72.98)"/><polygon class="cls-2" points="307.6 136.71 306.57 140.01 316.3 140.87 316.3 137.99 307.6 136.71"/><rect class="cls-8" x="288.12" y="162.82" width="5.52" height="9.02" rx="0.79"/><rect class="cls-3" x="288.45" y="163.42" width="4.48" height="6.13"/><rect class="cls-6" x="290.3" y="160.65" width="0.99" height="3.61"/><path class="cls-2" d="M223.71,389.17a8.94,8.94,0,0,1,3.17-.81h0s3.8-2.23,7.56-10.92h4.23a3.48,3.48,0,0,1,3.26,2.33,1.94,1.94,0,0,1,.12.58,26.08,26.08,0,0,1-.33,3,83.88,83.88,0,0,1-2.47,10l-.72-.18,1.3-6.32c.44-2.14-1.82-.07-2.86,2.09s-2.65,4.35-7.33,3.28C224.19,390.93,222,390.15,223.71,389.17Z" transform="translate(-14.7 -72.98)"/><path class="cls-9" d="M235.21,375.17s-5.29,11.06-8.33,13.19c0,0,4.08,2.43,8.33-3,5.49-7,6.84-5.05,6.84-5.05a20.61,20.61,0,0,0-.67-3.57C240.56,374.5,235.21,375.17,235.21,375.17Z" transform="translate(-14.7 -72.98)"/><path class="cls-2" d="M281.93,415.52a9.25,9.25,0,0,1,2.89-1.54h0s3.16-3.07,4.75-12.4l4.11-1a3.49,3.49,0,0,1,3.71,1.5,2.24,2.24,0,0,1,.26.54,23.26,23.26,0,0,1,.41,3,83.63,83.63,0,0,1-.05,10.26h-.74l-.23-6.44c-.09-2.19-1.78.36-2.29,2.71s-1.54,4.84-6.34,4.91C282.82,417.12,280.5,416.88,281.93,415.52Z" transform="translate(-14.7 -72.98)"/><path class="cls-9" d="M289.78,399.19s-2.51,12-5,14.79c0,0,4.54,1.4,7.38-4.87,3.68-8.1,5.45-6.52,5.45-6.52a20.07,20.07,0,0,0-1.49-3.31C294.82,397.28,289.78,399.19,289.78,399.19Z" transform="translate(-14.7 -72.98)"/></g><g id="freepik--speech-bubble--inject-32"><rect class="cls-2" x="328.08" y="84.17" width="45.05" height="25.07" rx="5.07"/><polygon class="cls-2" points="340.15 106.38 329.63 120.68 346.6 107.34 340.15 106.38"/><path class="cls-11" d="M355.24,169.68a1.48,1.48,0,1,1-1.49-1.47h0a1.47,1.47,0,0,1,1.47,1.47Z" transform="translate(-14.7 -72.98)"/><path class="cls-11" d="M362.93,169.68a1.48,1.48,0,1,1-1.49-1.47h0a1.47,1.47,0,0,1,1.47,1.47Z" transform="translate(-14.7 -72.98)"/><path class="cls-11" d="M370.62,169.68a1.48,1.48,0,1,1-1.49-1.47h0a1.47,1.47,0,0,1,1.47,1.47Z" transform="translate(-14.7 -72.98)"/><path class="cls-11" d="M378.31,169.68a1.48,1.48,0,1,1-1.49-1.47h0a1.47,1.47,0,0,1,1.47,1.47Z" transform="translate(-14.7 -72.98)"/></g><g id="freepik--Bird--inject-32"><rect class="cls-2" x="224.83" y="131.69" width="19.52" height="31.05" rx="1.38" transform="translate(-20.97 210.95) rotate(-61.69)"/><rect class="cls-15" x="224.83" y="131.69" width="19.52" height="31.05" rx="1.38" transform="translate(-20.97 210.95) rotate(-61.69)"/><path class="cls-3" d="M224.25,133.69,232,148.24a3.18,3.18,0,0,0,3.12,1.66l16.21-1.6-16.5,2.43a3.38,3.38,0,0,1-3.56-1.92Z" transform="translate(-14.7 -72.98)"/><path class="cls-2" d="M205.34,131c.27-5.56,4.39-16.77,9.4-20.2s1.71,1.32,1.71,1.32,4.75-4.62,7.25-4.48,0,3,0,3,5.15-3.17,7.52-3,0,2.91,0,2.91,4.22-3,5.93-1.59-21.89,17-24.52,23.34S205.07,136.61,205.34,131Z" transform="translate(-14.7 -72.98)"/><path class="cls-16" d="M205.34,131c.27-5.56,4.39-16.77,9.4-20.2s1.71,1.32,1.71,1.32,4.75-4.62,7.25-4.48,0,3,0,3,5.15-3.17,7.52-3,0,2.91,0,2.91,4.22-3,5.93-1.59-21.89,17-24.52,23.34S205.07,136.61,205.34,131Z" transform="translate(-14.7 -72.98)"/><path class="cls-2" d="M225.62,130.16l3.15,2a.26.26,0,0,1,.08.36.25.25,0,0,1-.24.12l-3.31-.26.28,2.54a.3.3,0,0,1-.24.32.3.3,0,0,1-.25-.1L223.18,133Z" transform="translate(-14.7 -72.98)"/><path class="cls-7" d="M225.62,130.16l3.15,2a.26.26,0,0,1,.08.36.25.25,0,0,1-.24.12l-3.31-.26.28,2.54a.3.3,0,0,1-.24.32.3.3,0,0,1-.25-.1L223.18,133Z" transform="translate(-14.7 -72.98)"/><path class="cls-2" d="M181.37,117.64s4.36-3,10.95-1.06c0,0,1.89,8.71,7.08,11.61,2.85,1.59,9.82,1.45,15.34-.33,6.55-2.12,9.75-2.12,10.94.33s-.13,5-5.14,6.19-9,9.89-18.07,10-13.89-9-11.6-17A24.2,24.2,0,0,0,181.37,117.64Z" transform="translate(-14.7 -72.98)"/><path class="cls-4" d="M181.37,117.64s4.36-3,10.95-1.06c0,0,1.89,8.71,7.08,11.61,2.85,1.59,9.82,1.45,15.34-.33,6.55-2.12,9.75-2.12,10.94.33s-.13,5-5.14,6.19-9,9.89-18.07,10-13.89-9-11.6-17A24.2,24.2,0,0,0,181.37,117.64Z" transform="translate(-14.7 -72.98)"/><path class="cls-6" d="M223.18,129.84a.45.45,0,1,1-.45-.45h0A.45.45,0,0,1,223.18,129.84Z" transform="translate(-14.7 -72.98)"/><path class="cls-2" d="M200.36,137.16c-5.37,1.46-17.31,1-22.11-2.7s.72-2,.72-2-5.85-3.09-6.5-5.51,2.88-.94,2.88-.94-4.6-3.91-5.2-6.21,2.76-.9,2.76-.9-4.19-3.08-3.34-5.15,22.94,15.57,29.77,16.12S205.8,135.68,200.36,137.16Z" transform="translate(-14.7 -72.98)"/><path class="cls-16" d="M200.36,137.16c-5.37,1.46-17.31,1-22.11-2.7s.72-2,.72-2-5.85-3.09-6.5-5.51,2.88-.94,2.88-.94-4.6-3.91-5.2-6.21,2.76-.9,2.76-.9-4.19-3.08-3.34-5.15,22.94,15.57,29.77,16.12S205.8,135.68,200.36,137.16Z" transform="translate(-14.7 -72.98)"/><path class="cls-2" d="M165.16,112.83a.24.24,0,0,1-.12,0c-.93-.33-1.88-.64-2.84-.93a.38.38,0,1,1,.22-.72,27,27,0,0,1,2.87,1,.37.37,0,0,1,.23.47.38.38,0,0,1-.36.25Z" transform="translate(-14.7 -72.98)"/><path class="cls-2" d="M104.72,194a.38.38,0,0,1,0-.75,35.78,35.78,0,0,0,5.93-.58.38.38,0,0,1,.44.3.38.38,0,0,1-.29.44h0A36.27,36.27,0,0,1,104.72,194Zm-6-.32h0a52.88,52.88,0,0,1-6-1,.37.37,0,1,1,.16-.73,56.33,56.33,0,0,0,5.9,1,.38.38,0,0,1,0,.75Zm17.77-2a.38.38,0,0,1-.34-.22.37.37,0,0,1,.17-.49h0a19.38,19.38,0,0,0,5-3.13.37.37,0,0,1,.53.07.38.38,0,0,1,0,.5,20.59,20.59,0,0,1-5.19,3.25.41.41,0,0,1-.18,0ZM87,191h-.12c-1.9-.63-3.81-1.37-5.66-2.18a.38.38,0,0,1-.14-.52.37.37,0,0,1,.45-.17c1.82.8,3.7,1.53,5.59,2.16A.36.36,0,0,1,87,191Zm-11-4.86a.28.28,0,0,1-.18,0c-1.79-1-3.53-2.08-5.15-3.21a.37.37,0,1,1,.43-.61c1.6,1.11,3.31,2.18,5.09,3.17a.36.36,0,0,1,.14.5h0a.39.39,0,0,1-.4.17Zm49.44-2.29a.28.28,0,0,1-.18,0,.36.36,0,0,1-.14-.5h0c.31-.54.6-1.1.86-1.68a20.38,20.38,0,0,0,1.3-3.81.39.39,0,0,1,.46-.28.38.38,0,0,1,.27.46,22.9,22.9,0,0,1-1.35,3.94c-.27.6-.57,1.19-.89,1.75a.39.39,0,0,1-.4.16Zm-59.3-4.62a.36.36,0,0,1-.24-.09,44.85,44.85,0,0,1-4.27-4.34.39.39,0,0,1,0-.53.37.37,0,0,1,.52,0,44.24,44.24,0,0,0,4.19,4.25.39.39,0,0,1,0,.53.36.36,0,0,1-.27.21Zm62.18-6.94a.38.38,0,0,1-.37-.37h0a34.7,34.7,0,0,0-.55-5.93.38.38,0,0,1,.3-.44.39.39,0,0,1,.44.31,35.21,35.21,0,0,1,.56,6.06.38.38,0,0,1-.38.38Zm-2-11.86a.37.37,0,0,1-.36-.27c-.51-1.75-1.14-3.61-1.91-5.69a.36.36,0,0,1,.2-.48h0a.38.38,0,0,1,.48.22c.78,2.1,1.41,4,1.93,5.74a.38.38,0,0,1-.25.47Zm-4.14-11.35a.36.36,0,0,1-.33-.21c-.64-1.6-1.51-3.44-2.42-5.39v-.1a.37.37,0,0,1,.26-.47.37.37,0,0,1,.42.15v.1c.92,2,1.78,3.81,2.42,5.38a.4.4,0,0,1-.2.51Zm-5-11a.37.37,0,0,1-.35-.22c-.9-2.09-1.62-3.94-2.19-5.65a.37.37,0,1,1,.71-.24c.56,1.69,1.27,3.52,2.17,5.59a.37.37,0,0,1-.19.49h0a.25.25,0,0,1-.12.08Zm-3.66-11.46a.38.38,0,0,1-.37-.32,20.62,20.62,0,0,1-.26-3.24,14.73,14.73,0,0,1,.26-2.89.37.37,0,0,1,.48-.24.36.36,0,0,1,.26.39,14,14,0,0,0-.25,2.74,20.53,20.53,0,0,0,.25,3.13.4.4,0,0,1-.31.43Zm2.61-11.36a.41.41,0,0,1-.24-.08.39.39,0,0,1,0-.53,16,16,0,0,1,4.81-3.81.38.38,0,0,1,.51.15.39.39,0,0,1-.16.51,15.23,15.23,0,0,0-4.58,3.63.38.38,0,0,1-.32.18Zm40.32-4.9h-.08c-1.92-.4-3.91-.74-5.92-1a.37.37,0,0,1-.32-.41h0a.37.37,0,0,1,.41-.32h0c2,.26,4,.6,6,1a.38.38,0,0,1-.07.75Zm-30-.85a.37.37,0,1,1-.08-.74,40.35,40.35,0,0,1,6-.87.38.38,0,0,1,.4.35.37.37,0,0,1-.34.4h0a37.78,37.78,0,0,0-5.9.85Zm18-.7h0c-1.74-.12-3.81-.25-6-.29a.38.38,0,0,1,0-.75h0c2.21,0,4.3.17,6,.29a.37.37,0,0,1,.35.39h0a.37.37,0,0,1-.29.4Z" transform="translate(-14.7 -72.98)"/><path class="cls-2" d="M58.36,170a.37.37,0,0,1-.33-.19,23.72,23.72,0,0,1-1.35-2.72.37.37,0,0,1,.19-.49h0a.37.37,0,0,1,.49.2,25.92,25.92,0,0,0,1.31,2.64.36.36,0,0,1-.1.5.4.4,0,0,1-.22.06Z" transform="translate(-14.7 -72.98)"/></g><g id="freepik--Desk--inject-32"><rect class="cls-11" x="127.15" y="176.06" width="37.96" height="7.78"/><rect class="cls-10" x="127.15" y="176.06" width="37.96" height="7.78"/><rect class="cls-10" x="127.15" y="176.06" width="15.99" height="7.78"/><polygon class="cls-10" points="127.15 177.18 160.94 177.18 127.15 178.14 127.15 177.18"/><polygon class="cls-10" points="165.11 178.53 135.82 179.26 165.11 179.26 165.11 178.53"/><polygon class="cls-10" points="128.7 180.71 143.14 180.12 164.37 180.71 143.14 181.04 128.7 180.71"/><polygon class="cls-10" points="127.15 182.36 152.17 182.36 127.15 182.95 127.15 182.36"/><polygon class="cls-10" points="165.05 182.95 148.34 183.26 165.11 183.26 165.05 182.95"/><rect class="cls-11" x="121.87" y="168.28" width="37.96" height="7.78"/><rect class="cls-10" x="121.87" y="168.28" width="37.96" height="7.78"/><rect class="cls-10" x="121.87" y="168.28" width="15.99" height="7.78"/><polygon class="cls-10" points="121.87 169.4 155.66 169.4 121.87 170.35 121.87 169.4"/><polygon class="cls-10" points="159.83 170.75 130.54 171.48 159.83 171.48 159.83 170.75"/><polygon class="cls-10" points="123.41 172.93 137.85 172.33 159.08 172.93 137.85 173.26 123.41 172.93"/><polygon class="cls-10" points="121.87 174.57 146.89 174.57 121.87 175.17 121.87 174.57"/><polygon class="cls-10" points="159.77 175.17 143.06 175.48 159.83 175.48 159.77 175.17"/><rect class="cls-11" x="126.2" y="160.49" width="37.96" height="7.78"/><rect class="cls-10" x="126.2" y="160.49" width="37.96" height="7.78"/><rect class="cls-10" x="126.2" y="160.49" width="15.99" height="7.78"/><polygon class="cls-10" points="126.2 161.61 159.99 161.61 126.2 162.57 126.2 161.61"/><polygon class="cls-10" points="164.16 162.96 134.87 163.69 164.16 163.69 164.16 162.96"/><polygon class="cls-10" points="127.75 165.14 142.19 164.55 163.42 165.14 142.19 165.47 127.75 165.14"/><polygon class="cls-10" points="126.2 166.79 151.22 166.79 126.2 167.38 126.2 166.79"/><polygon class="cls-10" points="164.11 167.38 147.4 167.69 164.16 167.69 164.11 167.38"/><polygon class="cls-6" points="189.45 183.68 190.43 179.95 230.99 179.95 249.66 181.82 250.37 183.68 189.45 183.68"/><polygon class="cls-13" points="230.99 179.95 230.99 183.68 189.45 183.68 190.43 179.95 230.99 179.95"/><path class="cls-6" d="M237.54,235.08a3.19,3.19,0,0,1-2.79,3.55l-.43,0H172.2a4,4,0,0,1-3.89-3.57l-3.69-39.77a3.48,3.48,0,0,1,.08-1.16,3.16,3.16,0,0,1,3.14-2.41H230a4,4,0,0,1,3.89,3.57Z" transform="translate(-14.7 -72.98)"/><path class="cls-13" d="M234.1,238.65H172.2a4,4,0,0,1-3.89-3.57l-3.69-39.77a3.48,3.48,0,0,1,.08-1.16h61.9a4,4,0,0,1,3.89,3.57l3.69,39.77A3.48,3.48,0,0,1,234.1,238.65Z" transform="translate(-14.7 -72.98)"/><polygon class="cls-6" points="176.72 141.28 189.57 141.28 186.15 178.07 206.47 181.12 206.47 183.68 163.67 183.68 163.67 181.12 172.44 178.07 176.72 141.28"/><polygon class="cls-17" points="189.57 141.28 180.05 183.1 172.44 182.87 176.72 141.28 189.57 141.28"/><polygon class="cls-6" points="189.51 344.09 183.39 344.09 172.38 190.84 180.51 190.84 189.51 344.09"/><polygon class="cls-16" points="189.52 344.09 183.39 344.09 172.92 198.46 172.38 191.09 180.51 191.09 180.95 198.46 189.52 344.09"/><polygon class="cls-3" points="180.95 198.09 172.92 198.09 172.38 191.09 180.51 191.09 180.95 198.09"/><polygon class="cls-6" points="234.47 344.09 228.35 344.09 227.35 190.84 235.47 190.84 234.47 344.09"/><polygon class="cls-4" points="235.48 191.09 235.32 215.82 234.48 344.09 228.35 344.09 227.51 215.82 227.35 191.09 235.48 191.09"/><polygon class="cls-3" points="235.48 191.09 235.32 216.09 227.51 216.09 227.35 191.09 235.48 191.09"/><polygon class="cls-6" points="299.51 344.09 293.39 344.09 282.38 190.84 290.51 190.84 299.51 344.09"/><polygon class="cls-4" points="299.52 344.09 293.39 344.09 282.92 198.46 282.38 191.09 290.51 191.09 290.95 198.46 299.52 344.09"/><polygon class="cls-3" points="290.95 198.09 282.92 198.09 282.38 191.09 290.51 191.09 290.95 198.09"/><polygon class="cls-6" points="119.43 344.09 113.31 344.09 122.31 190.84 130.44 190.84 119.43 344.09"/><polygon class="cls-4" points="130.44 191.09 129.9 198.46 119.43 344.09 113.31 344.09 121.87 198.46 122.31 191.09 130.44 191.09"/><polygon class="cls-3" points="122.31 191.09 130.44 191.09 129.9 198.09 121.87 198.09 122.31 191.09"/><path class="cls-2" d="M130.57,260H311.65v5.51a2.16,2.16,0,0,1-2.16,2.16H132.73a2.16,2.16,0,0,1-2.16-2.16h0V260Z" transform="translate(-14.7 -72.98)"/><path class="cls-8" d="M130.57,260H311.65v5.51a2.16,2.16,0,0,1-2.16,2.16H132.73a2.16,2.16,0,0,1-2.16-2.16h0V260Z" transform="translate(-14.7 -72.98)"/><rect class="cls-3" x="115.87" y="187.01" width="181.08" height="3.84"/><path class="cls-2" d="M315.45,261H126.77a2.16,2.16,0,0,1-2.16-2.16h0a2.18,2.18,0,0,1,2.16-2.17H315.45a2.18,2.18,0,0,1,2.16,2.17h0a2.16,2.16,0,0,1-2.16,2.16Z" transform="translate(-14.7 -72.98)"/><path class="cls-8" d="M315.45,261H126.77a2.16,2.16,0,0,1-2.16-2.16h0a2.18,2.18,0,0,1,2.16-2.17H315.45a2.18,2.18,0,0,1,2.16,2.17h0a2.16,2.16,0,0,1-2.16,2.16Z" transform="translate(-14.7 -72.98)"/><path class="cls-2" d="M270.81,250l2.32-3.48a2.5,2.5,0,0,1,2.08-1.11h2.94a2.51,2.51,0,0,1,.72.11l10.49,3.18a2.46,2.46,0,0,1,1.42,1.11l1.51,2.53Z" transform="translate(-14.7 -72.98)"/><path class="cls-3" d="M292.29,252.34,277,250.68l-6.21-.68,2.32-3.48a2.5,2.5,0,0,1,2.08-1.11h2.94a2.58,2.58,0,0,1,.73.11l.23.07,10.25,3.11a2.48,2.48,0,0,1,1.43,1.11Z" transform="translate(-14.7 -72.98)"/><path class="cls-3" d="M292.29,252.34,277,250.68l2.09-5.09,10.25,3.11a2.48,2.48,0,0,1,1.43,1.11Z" transform="translate(-14.7 -72.98)"/><path class="cls-2" d="M299.55,256.33v.33H267.13l1.2-4.69a4,4,0,0,1,3.89-3H286.6a3.94,3.94,0,0,1,1.4.25l1.8.67,7.14,2.66A4,4,0,0,1,299.55,256.33Z" transform="translate(-14.7 -72.98)"/><path class="cls-3" d="M299.55,256.33v.33H286.24l.71-5.07a2.13,2.13,0,0,1,2.41-1.8,2.18,2.18,0,0,1,.44.11l7.14,2.66A4,4,0,0,1,299.55,256.33Z" transform="translate(-14.7 -72.98)"/><path class="cls-6" d="M288.31,253.22l4.24-12.71a.93.93,0,0,1,1.17-.6l.15.06h0a1,1,0,0,1,.48,1.08l-3.57,13.56S288.41,255.57,288.31,253.22Z" transform="translate(-14.7 -72.98)"/><polygon class="cls-3" points="256.11 182.63 254.23 182.63 254.59 180.78 256.47 180.78 256.11 182.63"/><polygon class="cls-3" points="258.91 182.56 257.03 182.56 257.39 180.71 259.27 180.71 258.91 182.56"/></g><path class="cls-18" d="M51.45,126.42l-7-7.46-1.9-2.06a8.6,8.6,0,0,1,0-11.89h0a7.94,7.94,0,0,1,11.24-.33q.18.16.33.33l1.58,1.58a.49.49,0,0,0,.64,0L57.94,105a8,8,0,0,1,11.25-.33l.33.33h0a8.62,8.62,0,0,1,0,11.89L67.61,119l-6.82,7-4.43,4.6" transform="translate(-14.7 -72.98)"/><polyline class="cls-19" points="32.73 43.77 35.28 43.77 38.45 40.6 41.62 46.94 44.79 39.01 47.96 43.77"/><path class="cls-20" d="M52.82,148.94H50.88v-4.52c0-2.11,0-4.49-2.32-6.82l-7.83-7.89a4,4,0,0,0-4.3-.91v-8a3.66,3.66,0,0,0-3.66-3.66c-1.76,0-3,1.21-3.63,3.41-.27,1-.62,2.8-1,4.69-.43,2.15-.91,4.57-1.33,6.18A7,7,0,0,0,29,138.06l7.71,7.71a2,2,0,0,1,.68,1.91v1.26H35.48a1,1,0,0,0-1,1h0v5.78a1,1,0,0,0,1,1H52.82a1,1,0,0,0,1-1V149.9a1,1,0,0,0-1-1ZM30.36,136.68a5.06,5.06,0,0,1-1.66-4.84c.42-1.58.89-3.94,1.34-6.23.36-1.85.71-3.61,1-4.57.35-1.31.95-2,1.77-2a1.74,1.74,0,0,1,1.74,1.74h0v9.55A4,4,0,0,0,35,135.4l5.68,5.68a1,1,0,0,0,1.36,0,1,1,0,0,0,0-1.37h0L36.4,134a2.09,2.09,0,0,1,0-3h0a2.14,2.14,0,0,1,3,0L47.21,139C49,140.72,49,142.43,49,144.41v4.53H39.33v-1.25a4,4,0,0,0-1.25-3.29Zm21.49,18H36.44v-3.85H51.85Z" transform="translate(-14.7 -72.98)"/><path class="cls-20" d="M84.58,131.34c-.41-1.52-.88-4-1.31-6.1-.37-1.89-.73-3.68-1-4.69-.59-2.2-1.88-3.41-3.63-3.41A3.66,3.66,0,0,0,75,120.8v8a4,4,0,0,0-4.3.91l-7.83,7.89c-2.32,2.33-2.32,4.71-2.32,6.82v4.52H58.59a1,1,0,0,0-1,1v5.78a1,1,0,0,0,1,1H75.94a1,1,0,0,0,1-1V149.9a1,1,0,0,0-1-1H74v-1.26a2.07,2.07,0,0,1,.7-1.91l7.69-7.69A7,7,0,0,0,84.58,131.34ZM75,150.87v3.85H59.56v-3.85ZM81,136.7l-7.7,7.7a3.9,3.9,0,0,0-1.25,3.29v1.25H62.45v-4.52c0-2,0-3.69,1.76-5.45L72,131.08a2.14,2.14,0,0,1,3,0,2.09,2.09,0,0,1,0,3h0l-5.67,5.68a1,1,0,1,0,1.36,1.36h0l5.68-5.69a4,4,0,0,0,.53-5.05V120.8a1.74,1.74,0,0,1,1.74-1.73c.82,0,1.41.67,1.77,2,.25,1,.59,2.71,1,4.57.45,2.29.92,4.64,1.33,6.15A5.11,5.11,0,0,1,81,136.69Z" transform="translate(-14.7 -72.98)"/><path class="cls-21" d="M95.94,105.39,85,96.25V75.74a1.54,1.54,0,0,0-1.48-1.61H73.73a1.54,1.54,0,0,0-1.6,1.48v9.93L59.91,75.28a6.21,6.21,0,0,0-7.62,0l-36,30.11a1.45,1.45,0,0,0-.55,1.07,1.7,1.7,0,0,0,.35,1.19l3.11,3.71a1.68,1.68,0,0,0,1,.56,1.93,1.93,0,0,0,1.21-.35l34.68-29,34.68,29a1.55,1.55,0,0,0,1,.35H92a1.71,1.71,0,0,0,1-.55l3.11-3.72a1.62,1.62,0,0,0,.35-1.18A1.42,1.42,0,0,0,95.94,105.39Z" transform="translate(-14.7 -72.98)"/></svg>