<svg xmlns="http://www.w3.org/2000/svg" viewBox="0 0 800.4 573"><defs><style>.cls-1{fill:#fff;}</style></defs><g id="Layer_2" data-name="Layer 2"><g id="Layer_1-2" data-name="Layer 1"><path class="cls-1" d="M618.11,104H183.29a26.09,26.09,0,0,0-26.09,26.09V442.91A26.09,26.09,0,0,0,183.29,469H618.11a26.09,26.09,0,0,0,26.09-26.09V130.09A26.09,26.09,0,0,0,618.11,104ZM592.2,417h-383V156h383Z"/><path class="cls-1" d="M524.33,262.91,411.28,210.74a26,26,0,0,0-21.86,0l-113,52.17a26.09,26.09,0,0,0,0,47.37l113.05,52.18a26.09,26.09,0,0,0,21.86,0l113.05-52.18a26.09,26.09,0,0,0,0-47.37ZM400.35,310,349.56,286.6l50.79-23.45,50.79,23.45Z"/><path class="cls-1" d="M774.2,156a26,26,0,0,0,26-26.69c-.36-14.18-12.38-25.31-26.58-25.31H748.2V52h25.42c14.19,0,26.2-11.12,26.57-25.31A26,26,0,0,0,774.2,0H26.2a26,26,0,0,0-26,26.69C.58,40.87,12.6,52,26.79,52H52.2v52h-26a26,26,0,0,0-26,26.69C.58,144.88,12.6,156,26.79,156H52.2v52H26.79C12.59,208,.58,219.13.21,233.31A26,26,0,0,0,26.2,260h26v53H26.78C12.59,313,.58,324.12.21,338.31A26,26,0,0,0,26.2,365h26v52H26.79C12.6,417,.58,428.12.21,442.31A26,26,0,0,0,26.2,469h26v52H26.06a26,26,0,1,0,0,52H774.34a26,26,0,1,0,0-52H748.2V469h25.42c14.19,0,26.2-11.12,26.57-25.31a26,26,0,0,0-26-26.69h-26V365h25.42c14.19,0,26.21-11.13,26.57-25.31a26,26,0,0,0-26-26.69h-26V260h25.42c14.19,0,26.21-11.13,26.57-25.31a26,26,0,0,0-26-26.69h-26V156Zm-78,366h-591V52h591V522Z"/></g></g></svg>