<svg xmlns="http://www.w3.org/2000/svg" viewBox="0 0 701 772"><defs><style>.cls-1{fill:#fff;}</style></defs><g id="Layer_2" data-name="Layer 2"><g id="Layer_1-2" data-name="Layer 1"><g id="garbage_cleaning_properly" data-name="garbage cleaning properly"><path class="cls-1" d="M671.1,98H606a30.09,30.09,0,0,0-30,30.07V281H459.84c-4.17-2.76-8.47-5.37-12.84-7.83V128.07A30.09,30.09,0,0,0,417,98H352a30,30,0,0,0-30,30V249a202.49,202.49,0,0,0-42.17,10.32,108,108,0,0,0-20.49-51.44L192,116.67V83h21.06A10.94,10.94,0,0,0,224,72.06v-42A30.15,30.15,0,0,0,193.84,0H88.13A30.15,30.15,0,0,0,58,30.08v42A10.94,10.94,0,0,0,68.94,83H88v37.61L22,208.06A109.63,109.63,0,0,0,0,273.65V709.72A62.34,62.34,0,0,0,62.25,772H219.07A62.2,62.2,0,0,0,281,709.69V640.22a198.34,198.34,0,0,0,41,10v71.24A50.5,50.5,0,0,0,372.37,772H650.65A50.49,50.49,0,0,0,701,721.49V128A30,30,0,0,0,671.1,98ZM575.5,303A24.8,24.8,0,0,1,551,325H507.11A204.28,204.28,0,0,0,487,303ZM528.93,450c0,113.1-104.11,201.89-221.73,175.74A177.29,177.29,0,0,1,172.86,491.4c-26.16-117.61,62.6-221.72,175.7-221.74A180.54,180.54,0,0,1,528.9,450ZM344,159h46.89a11.15,11.15,0,0,0,11.1-9.14A11,11,0,0,0,391.14,137H344v-7.9a8.08,8.08,0,0,1,8-8.1H417a8.08,8.08,0,0,1,8,8.1V263a199.74,199.74,0,0,0-76.08-15H344ZM80,61V29.42A8.39,8.39,0,0,1,88.36,21H194.67A8.33,8.33,0,0,1,203,29.33V61Zm90,22v21H110V83Zm89,627.53A40.54,40.54,0,0,1,218.51,751h-8l15.17-25.22a10.91,10.91,0,0,0-4.38-14.84,11,11,0,0,0-14.48,3.61L184.8,751H154V720.47a11.15,11.15,0,0,0-9.15-11.1A11,11,0,0,0,132,720.16V750H101.52L79.69,713.55A10.92,10.92,0,1,0,60.54,724c.14.25.28.5.44.74L76,750H62.3A40.44,40.44,0,0,1,22,709.56V533h98.05a11.17,11.17,0,0,0,11.11-9.14A11,11,0,0,0,120.31,511H22V427h98.05a11.17,11.17,0,0,0,11.11-9.14A11,11,0,0,0,120.31,405H22V274a87.67,87.67,0,0,1,17.62-52.53L111.77,126h59.64L242,221.66a86.47,86.47,0,0,1,16.92,47.65c-100.14,49.73-141,171.15-91.19,271.2A202.36,202.36,0,0,0,259,631.68ZM651.34,750H370.78a28.78,28.78,0,0,1-28.61-27H680A28.77,28.77,0,0,1,651.34,750ZM678,702H343V652h4.94c111.79,0,202.44-90.6,202.47-202.42A202.57,202.57,0,0,0,522,346h28.52A46.66,46.66,0,0,0,597,299.31V159h46.89a11.15,11.15,0,0,0,11.1-9.14A11,11,0,0,0,644.14,137H597v-7.88a8.09,8.09,0,0,1,8-8.12h65a8.08,8.08,0,0,1,8,8.12Z"/><path class="cls-1" d="M317,345.58V415H283.54a25.34,25.34,0,0,0-25.2,22.5L255,467.21h0L252.88,486c-1.3,11.55-7,22.89-16.95,33.73A19.86,19.86,0,0,0,250.52,553h168a28.25,28.25,0,0,0,28.41-28.09c0-.72,0-1.43-.08-2.15l-4-55h0l-2.14-29.33A25.54,25.54,0,0,0,415.22,415H382V345.58a32.51,32.51,0,0,0-65-1.42c0,.47,0,.94,0,1.42ZM425.65,523.75a7.67,7.67,0,0,1-7.07,8.23l-.6,0H403.36l-1.94-22.23a10.19,10.19,0,1,0-20.31,1.7L382.93,532H356V510.63a10.52,10.52,0,0,0-10.39-10.16A9.39,9.39,0,0,0,336,510.63V532H308.25l1.81-20.47a10.19,10.19,0,1,0-20.31-1.7L287.81,533H251.86c12.48-13.82,19.66-28.72,21.42-44.33l1.09-9.67,148,.2ZM414.46,436a5,5,0,0,1,5,4.68L420.79,459l-144-.22,2.06-18.34a5,5,0,0,1,5-4.44ZM337,346.17a12,12,0,0,1,24-.86c0,.29,0,.57,0,.86V412H337Z"/></g></g></g></svg>