<svg xmlns="http://www.w3.org/2000/svg" viewBox="0 0 734.06 800"><defs><style>.cls-1{fill:#fff;}</style></defs><g id="Layer_2" data-name="Layer 2"><g id="Layer_1-2" data-name="Layer 1"><path class="cls-1" d="M676.4,241.34l36.13-13.46a16,16,0,1,1,11.14,29.91l-36.13,13.46a16,16,0,1,1-11.14-29.91Zm-44-16.72a15.94,15.94,0,0,0,21.15-7.88l16-35.07a16,16,0,0,0-29-13.27l-16,35.07A16,16,0,0,0,632.37,224.62Zm-146.94-38.8a826,826,0,0,0-127.15-74.91l-65,143.25A16,16,0,1,1,264.18,241l65-143.24a829.28,829.28,0,0,0-140.08-46.4c22.26,102.57,28.25,211.6,14.26,272.15a16,16,0,0,1-31.1-7.18c13.67-59.16,6.43-169.86-17.5-272.18A711,711,0,0,0,39.61,32.05l-2.54,5.61c35.78,49.54,66.58,140.52,83.19,246.7,12.17,77.86,17.6,175.71-.9,230.26l.83.48.29.16c9.63,5.55,19.59,10.67,29.75,15.28a346.41,346.41,0,0,0,32.35,12.77c19.56-33.44,63.63-76,123.91-119.36C373.55,375.75,448.82,334.8,513,311.6a16,16,0,1,1,10.86,30C463.23,363.53,388.94,404,325.11,449.87c-62.9,45.21-107.63,89.63-119.67,118.83a16,16,0,0,1-19.27,9.22l-1.18-.35L97.61,770a51.09,51.09,0,0,1-93-42.25L91.94,535.33l-1-.66a16,16,0,0,1-5.74-20.58c17.62-35.43,19-125.76,3.56-224.79C72.27,184.06,40.64,92.3,6.19,49.81A16,16,0,0,1,4.06,33.16L14.87,9.36A16,16,0,0,1,29.4,0h.07A741.79,741.79,0,0,1,170.54,14.64l1,.2A859.28,859.28,0,0,1,357,75.09l.05,0,.06,0c74.5,33.84,142.16,76.67,201.1,127.31a16,16,0,0,1-20.8,24.21q-11.73-10.08-23.92-19.72C420.65,256.27,332.55,323.67,297,372.9a16,16,0,0,1-25.88-18.68C307.5,303.84,393.54,236.58,485.43,185.82ZM33.63,741a19.18,19.18,0,0,0,34.92,15.86l86.14-189.73q-8.91-3.51-17.66-7.48t-17.26-8.37ZM577.1,345.49A16,16,0,0,0,556,353.37l-16,35.06a16,16,0,1,0,29,13.28l16-35.07A16,16,0,0,0,577.1,345.49Zm144.29-24.64-35.07-16a16,16,0,0,0-13.28,29l35.08,16a16,16,0,0,0,13.27-29Zm-72.93,35.86a16,16,0,0,0-29.92,11.14L632,404a16,16,0,1,0,29.91-11.14Zm-24.92-21.14a53.9,53.9,0,1,1,30.22-28.1A53.92,53.92,0,0,1,623.54,335.57Zm1.19-41a22,22,0,1,0-39.38,1.26A21.59,21.59,0,0,0,593,304a21.94,21.94,0,0,0,19.4,2h0A21.85,21.85,0,0,0,624.73,294.54Z"/></g></g></svg>