<svg xmlns="http://www.w3.org/2000/svg" viewBox="0 0 800.2 800.09"><defs><style>.cls-1{fill:#fff;}</style></defs><g id="Layer_2" data-name="Layer 2"><g id="Layer_1-2" data-name="Layer 1"><path class="cls-1" d="M332.5,775.09H62.73c-18.91,0-35.41-13.64-38.12-32.35A38.05,38.05,0,0,1,62.2,699.09h84.49a29.06,29.06,0,0,0,29.51-29.38V638.87a7.78,7.78,0,0,1,7.78-7.78h84.69a2.63,2.63,0,0,0,1.83-.71c11.43-10.91,3.88-24.29-6.79-24.29H164.17a13,13,0,0,0-13,13v51.05a4.13,4.13,0,0,1-1.17,3,3.34,3.34,0,0,1-2.44,1H64c-35.4,0-64.66,28.74-64,64.14a63.07,63.07,0,0,0,63,61.86H332.05c6.9,0,12.84-5.4,12.94-12.3A12.5,12.5,0,0,0,332.5,775.09Z"/><path class="cls-1" d="M753.89,185.09H696.54a29.78,29.78,0,0,0-26.87-17h-85a29.79,29.79,0,0,0-26.88,17H500a12.5,12.5,0,1,0,0,25H555.2v3.41a46.74,46.74,0,0,0,51,46.4V315c0,25.61,19.69,46.38,44.82,47.28a46.5,46.5,0,0,0,48.18-46.47v-4.7h40.94L717.91,566.21a12.61,12.61,0,0,0,11.49,13.64c.37,0,.74,0,1.11,0a12.62,12.62,0,0,0,12.56-11.51l22.55-258.8a46.28,46.28,0,0,0,34.58-44.7V231.41A46.31,46.31,0,0,0,753.89,185.09ZM673.2,198V315.88A19.61,19.61,0,0,1,667.05,331a21.06,21.06,0,0,1-15.4,5.88c-11.18-.4-20.45-21.84-20.45-21.84V244.62a12.76,12.76,0,0,0-19.14-11.26,21.31,21.31,0,0,1-12.72,2.74c-10.73-1-19.14-10.58-19.14-21.72V198.3a4.22,4.22,0,0,1,4.21-4.21h84.86s4.21,1.58,4.21,4h-.28Zm101,67.1a21,21,0,0,1-20.9,21H698.2v-76h54.95a21.05,21.05,0,0,1,21.05,21.06v33.94Z"/><path class="cls-1" d="M567.87,311.09a12.5,12.5,0,0,0,12.5-12.69,12.8,12.8,0,0,0-13-12.31H501.65A12.8,12.8,0,0,0,488.7,298.4a12.5,12.5,0,0,0,12.5,12.69Z"/><path class="cls-1" d="M779.13,646.36a147.1,147.1,0,0,0-127-73.27H542.93a12.73,12.73,0,0,1-12.73-12.73V535.12a46.71,46.71,0,0,0-1.94-13.32c20-14.92,27.7-45.69,4.37-73.69-4.63-5.56-14.45-10-21.69-10H480.2v-4.21a29.49,29.49,0,0,0-17-26.63V46.5A46.57,46.57,0,0,0,409,.63C386.45,4.29,370.2,24.2,370.2,47V185.09H214.52a46.32,46.32,0,0,0-46.32,46.32v33.48a46.31,46.31,0,0,0,34.59,44.71l22.55,258.78a12.62,12.62,0,0,0,25.15-2.18L228.27,311.09H370.2v96a29.68,29.68,0,0,0-17,26.78v4.23H321.1c-6.29,0-14.9,3.79-19.05,8.51-24.87,28.32-17.31,59.86,3.1,75a46.18,46.18,0,0,0-1.95,13.3v185.2a80,80,0,0,0,80,80h400a16,16,0,0,0,16-16V720.75a147.19,147.19,0,0,0-19.42-73.27A11.27,11.27,0,0,0,779.13,646.36ZM395.2,46.09a21,21,0,0,1,21.77-21c11.39.41,20.23,10.15,20.23,21.54v357.5h-42v-358Zm-181,240a1,1,0,0,1-.24,0,21,21,0,0,1-20.76-21V231.15a21.06,21.06,0,0,1,21.06-21.06H370.2v76Zm560,485a4,4,0,0,1-4,4h-294a13,13,0,0,1-13-13V563.24a1.44,1.44,0,0,0-.36-1c-11-12.09-24.64-4.42-24.64,6.49v82.66A150.45,150.45,0,0,0,502.83,775c-60.71-8.35-107.63-60.57-107.63-123.54V568.9c0-6.9-5.4-12.84-12.3-12.95a12.5,12.5,0,0,0-12.7,12.5v82.48c0,49.5,25,93.33,63.13,119.71C374,762.55,328.2,712,328.2,650.93V534.26a20.85,20.85,0,0,1,.46-4.32c1.23.1,2.48.15,3.74.15H432.88a12.79,12.79,0,0,0,12.88-11.38,12.55,12.55,0,0,0-12.56-13.62H333c-11.39,0-21.13-8.84-21.54-20.23a21,21,0,0,1,21-21.77h33.16a12.62,12.62,0,0,0,12.63-12.63V433.3a4.22,4.22,0,0,1,4.21-4.21H450a4.21,4.21,0,0,1,4.21,4.21v17.17a12.62,12.62,0,0,0,12.63,12.62h33c11.39,0,21.13,8.85,21.54,20.23a21,21,0,0,1-21,21.77H484.82c-6.91,0-12.85,5.4-12.95,12.31a12.5,12.5,0,0,0,12.5,12.69H501c1.24,0,2.48-.05,3.71-.15a20.84,20.84,0,0,1,.45,4.32v17.52a46.31,46.31,0,0,0,46.32,46.31H652.2a121.58,121.58,0,0,1,91.95,42H584.65A121,121,0,0,1,526.1,625,12.5,12.5,0,0,0,514,646.85a146,146,0,0,0,70.68,18.24H761.58a120.79,120.79,0,0,1,12.29,42H586.68A120.92,120.92,0,0,1,528.13,692,12.5,12.5,0,0,0,516,713.85a145.88,145.88,0,0,0,70.67,18.24H774.2v39Z"/></g></g></svg>