<svg xmlns="http://www.w3.org/2000/svg" viewBox="0 0 800 800"><defs><style>.cls-1{fill:#fff;}</style></defs><g id="Layer_2" data-name="Layer 2"><g id="Layer_1-2" data-name="Layer 1"><path class="cls-1" d="M787.23,0H12.77A12.77,12.77,0,0,0,0,12.77V787.23A12.75,12.75,0,0,0,12.69,800c24.06,0,36.71-11.22,46.87-20.25,9-8,15.53-13.79,29.82-13.79s20.82,5.78,29.83,13.79C129.36,788.77,142,800,166,800s36.64-11.22,46.79-20.25c9-8,15.53-13.79,29.83-13.79s20.81,5.79,29.82,13.79c10.16,9,22.81,20.27,46.87,20.25A12.75,12.75,0,0,0,332,787.23V196.69a195.46,195.46,0,0,0,136,0V787.23A12.75,12.75,0,0,0,480.69,800c24.06,0,36.71-11.22,46.87-20.25,9-8,15.52-13.79,29.82-13.79s20.81,5.78,29.83,13.79C597.36,788.77,610,800,634,800s36.64-11.22,46.79-20.25c9-8,15.52-13.79,29.82-13.79s20.81,5.79,29.83,13.79c10.16,9,22.81,20.27,46.87,20.25A12.75,12.75,0,0,0,800,787.23V12.77A12.77,12.77,0,0,0,787.23,0ZM493,26a93.6,93.6,0,0,1-185.45,0ZM26,26H205.15a194.18,194.18,0,0,0,12,55.75,63.4,63.4,0,0,1-50.68,25.1,64.11,64.11,0,0,1-61.32-46.09,12.77,12.77,0,1,0-24.53,7.08,89.76,89.76,0,0,0,85.84,64.54,88.71,88.71,0,0,0,62.3-25.31,196.86,196.86,0,0,0,30.38,41.42,139,139,0,0,1-95.57,34.93C87.87,181.92,26,117.36,26,41.69ZM308,773c-6.6-2.36-11.45-6.6-17.36-11.76-8.33-7.26-18.3-16-34.64-19.06V232.88a13,13,0,0,0-26-.36V742.09c-16,3.09-25.7,11.74-33.84,19-9,8-15.44,13.73-29.66,13.73s-20.7-5.76-29.66-13.73c-8.13-7.22-17.88-15.87-33.84-19V232.6a13,13,0,1,0-26-.14V742c-16,3.1-25.81,11.78-34,19-5.8,5.16-10.56,9.39-17,11.75V131.47a166.09,166.09,0,0,0,140.5,77.61A164.44,164.44,0,0,0,278.17,166,197.42,197.42,0,0,0,307,185.2V773Zm92.28-589.55c-89.56,0-163.19-69.53-169.74-157.45h51.28a119.14,119.14,0,0,0,236.91,0H570C563.46,113.92,489.84,183.45,400.28,183.45ZM776,773c-6.6-2.36-11.45-6.6-17.36-11.76-8.33-7.26-18.3-16-34.64-19.06V232.88a13,13,0,0,0-26-.36V742.09c-16,3.09-25.7,11.74-33.84,19-9,8-15.44,13.73-29.66,13.73s-20.7-5.76-29.66-13.73c-8.13-7.22-17.88-15.87-33.84-19V232.6a13,13,0,1,0-26-.14V742c-16,3.1-25.81,11.78-34,19-5.8,5.16-10.56,9.39-17,11.75V185.2a196.68,196.68,0,0,0,28.83-19.26A164.4,164.4,0,0,0,634.5,209.08,166.09,166.09,0,0,0,775,131.47V773ZM637.49,183.42a139.05,139.05,0,0,1-95.59-34.93,196.47,196.47,0,0,0,30.37-41.42,88.75,88.75,0,0,0,62.3,25.31,89.76,89.76,0,0,0,85.85-64.54,12.77,12.77,0,1,0-24.53-7.08,64.11,64.11,0,0,1-61.32,46.09,63.4,63.4,0,0,1-50.68-25.1,194.18,194.18,0,0,0,12-55.75H775V41.69C775,117.36,713.14,181.91,637.49,183.42Z"/></g></g></svg>