<svg xmlns="http://www.w3.org/2000/svg" viewBox="0 0 650 712.25"><defs><style>.cls-1{fill:none;stroke:#fff;stroke-linecap:round;stroke-linejoin:round;stroke-width:50px;}</style></defs><g id="Layer_2" data-name="Layer 2"><g id="Layer_1-2" data-name="Layer 1"><g id="ic-furniture-chair"><path class="cls-1" d="M558.33,621.25H91.67A66.66,66.66,0,0,1,25,554.59v-100h0a740.3,740.3,0,0,1,600,0h0v100A66.66,66.66,0,0,1,558.33,621.25Z"/><path class="cls-1" d="M25,454.25V373.59a100,100,0,0,1,100-100h0a100,100,0,0,1,100,100v23.66"/><path class="cls-1" d="M625,454.25V373.59a100,100,0,0,0-100-100h0a100,100,0,0,0-100,100v23.66"/><path class="cls-1" d="M92,279.25V87.55h0a467,467,0,0,1,461.66-3l5.34,3v190.7"/><line class="cls-1" x1="125" y1="621.25" x2="125" y2="687.25"/><line class="cls-1" x1="525" y1="621.25" x2="525" y2="687.25"/></g></g></g></svg>