<svg xmlns="http://www.w3.org/2000/svg" viewBox="0 0 666.67 650.28"><defs><style>.cls-1{fill:none;stroke:#fff;stroke-linecap:round;stroke-linejoin:round;stroke-width:66.67px;}</style></defs><g id="Layer_2" data-name="Layer 2"><g id="Layer_1-2" data-name="Layer 1"><path class="cls-1" d="M99.48,243V457c0,56,0,84,10.91,105.4a100,100,0,0,0,43.73,43.7C175.52,617,203.55,617,259.59,617H406.36c56.05,0,84.07,0,105.48-10.9a100,100,0,0,0,43.73-43.7C566.48,541,566.48,513,566.48,457V84m66.85,233.23L452.23,116c-41.19-45.76-61.79-68.64-86-77.08a100,100,0,0,0-65.79,0c-24.26,8.45-44.85,31.33-86,77.1l-181,201.18M399.48,617V417h-133V617"/></g></g></svg>