<svg xmlns="http://www.w3.org/2000/svg" viewBox="0 0 800.29 800.01"><defs><style>.cls-1{fill:#fff;}</style></defs><g id="Layer_2" data-name="Layer 2"><g id="Layer_1-2" data-name="Layer 1"><path class="cls-1" d="M316.07,396.05a88.53,88.53,0,0,1,88.42,88.42,12.63,12.63,0,0,0,25.26,0A113.82,113.82,0,0,0,316.06,370.78a12.64,12.64,0,0,0,0,25.27Z"/><path class="cls-1" d="M64.31,160H230.53c6.9,0,12.84-5.4,12.95-12.3A12.5,12.5,0,0,0,231,135H64.76c-6.9,0-12.84,5.4-13,12.3A12.5,12.5,0,0,0,64.31,160Z"/><path class="cls-1" d="M564.49,484.47c0-137-111.44-248.42-248.42-248.42A248.47,248.47,0,0,0,70.16,449a12.63,12.63,0,1,0,25,3.57c15.6-109,110.56-191.26,220.9-191.26,123.05,0,223.16,100.11,223.16,223.16S439.12,707.63,316.07,707.63c-116.62,0-214.4-91-222.6-207.21a12.63,12.63,0,1,0-25.2,1.78,248.43,248.43,0,0,0,247.8,230.69C453.05,732.89,564.49,621.45,564.49,484.47Z"/><path class="cls-1" d="M316.07,598.15a12.63,12.63,0,0,0,0-25.26,88.52,88.52,0,0,1-88.42-88.42,12.64,12.64,0,0,0-25.27,0A113.81,113.81,0,0,0,316.07,598.15Z"/><path class="cls-1" d="M547.65,130.79a46.32,46.32,0,1,0-46.32,46.31A46.37,46.37,0,0,0,547.65,130.79Zm-67.37,0a21.05,21.05,0,1,1,21.05,21.05A21.08,21.08,0,0,1,480.28,130.79Z"/><path class="cls-1" d="M429.75,130.79a46.32,46.32,0,1,0-46.32,46.31A46.37,46.37,0,0,0,429.75,130.79Zm-67.37,0a21.06,21.06,0,1,1,21.05,21.05A21.08,21.08,0,0,1,362.38,130.79Z"/><path class="cls-1" d="M316.07,665.52c99.83,0,181.05-81.22,181.05-181s-81.22-181-181-181S135,384.64,135,484.47,216.23,665.52,316.07,665.52Zm0-336.84c85.9,0,155.78,69.89,155.78,155.79S402,640.26,316.07,640.26,160.28,570.37,160.28,484.47,230.16,328.68,316.07,328.68Z"/><path class="cls-1" d="M787.71,775h-35.8a46.62,46.62,0,0,0,4.78-16.13L800,354.3A46.35,46.35,0,0,0,753.94,303H713.35a29.81,29.81,0,0,0-26.88-17H632V46.27A46.36,46.36,0,0,0,585.65,0H46.32A46.32,46.32,0,0,0,0,46.32V720.83A78.9,78.9,0,0,0,21.48,775H8.93a6.07,6.07,0,0,0-4.49,2c-9.56,10.65-2.19,23,8.06,23H116.07a6.07,6.07,0,0,0,4.49-2c9.57-10.65,2.19-23-8.06-23H50.13A25.13,25.13,0,0,1,25,749.87V211H238.45c41,0,74.42-34,72.46-75A71.58,71.58,0,0,0,239.5,68H26v-21a21.06,21.06,0,0,1,21-21H586a21.06,21.06,0,0,1,21,21v88H586.62c-6.91,0-12.85,5.4-13,12.3a12.5,12.5,0,0,0,12.5,12.7H607V349.73a12.81,12.81,0,0,0,11.38,12.89A12.57,12.57,0,0,0,632,350V312h54.79a4.22,4.22,0,0,1,4.21,4.21V417.26a71.73,71.73,0,0,1-59,70.47V400.26s-5.8-12.63-12.78-12.63A12,12,0,0,0,607,400.26v320c-.41,30.18-25,54.74-55.14,54.74H164.49a12.62,12.62,0,0,0-12.63,12.63A12.24,12.24,0,0,0,164.49,800H636.07a12.25,12.25,0,0,0,12.63-12.37A12.63,12.63,0,0,0,636.07,775H610.15C623.6,760.68,632,720.26,632,720.26v-207a96.85,96.85,0,0,0,84-95.95V329h37.24a21.66,21.66,0,0,1,15.62,6.38,20.85,20.85,0,0,1,5.82,16.9L731.48,756.2A21,21,0,0,1,710.6,775H687c-6.91,0-12.85,5.4-13,12.31A12.5,12.5,0,0,0,686.53,800H787.26c6.91,0,12.85-5.4,13-12.31A12.5,12.5,0,0,0,787.71,775ZM241.59,93a46.56,46.56,0,0,1,45.87,54.26C283.8,169.76,263.89,186,241.1,186H26V93Z"/></g></g></svg>