<svg xmlns="http://www.w3.org/2000/svg" viewBox="0 0 667 667"><defs><style>.cls-1{fill:#fff;fill-rule:evenodd;}</style></defs><g id="Layer_2" data-name="Layer 2"><g id="Layer_1-2" data-name="Layer 1"><path class="cls-1" d="M67,100.33V566.67A33.33,33.33,0,0,0,100.33,600H366.67A33.33,33.33,0,0,0,400,566.67V100.33A33.33,33.33,0,0,0,366.67,67H100.33A33.33,33.33,0,0,0,67,100.33ZM100,667H567A100,100,0,0,0,667,567V234A100,100,0,0,0,567,134H467V100A100,100,0,0,0,367,0H100A100,100,0,0,0,0,100V567A100,100,0,0,0,100,667Zm466.67-67H461.32A100,100,0,0,0,467,566.67V200h99.67A33.33,33.33,0,0,1,600,233.33V566.67A33.33,33.33,0,0,1,566.67,600ZM167,400H100v67h67Zm33,0h67v67H200Zm167,0H300v67h67Zm133,0h67v67H500Zm67-133H500v67h67Zm-467,0h67v67H100Zm167,0H200v67h67Zm33,0h67v67H300ZM167,133H100v67h67Zm33,0h67v67H200Zm167,0H300v67h67Z"/></g></g></svg>