<svg id="Layer_1" data-name="Layer 1" xmlns="http://www.w3.org/2000/svg" viewBox="0 0 232.95 249"><defs><style>.cls-1{fill:#3babb4;}</style></defs><path class="cls-1" d="M244.73,254c-3.74-1.63-8-2.57-11.08-5.06-3.34-2.75-6.59-3.29-10.57-3.28-29.72.1-59.44.06-89.16.06-4.75,0-5.85-.9-6.46-5.62q-4.27-32.88-8.47-65.77-3.64-28.19-7.32-56.37a6.43,6.43,0,0,0-.34-.93c-2.51,0-5.09,0-7.67,0-3.55-.07-5-1.54-5.07-5,0-4.78,0-9.57,0-14.35,0-3.93,1.52-5.47,5.43-5.49,5,0,10,0,15.41,0V89.35c0-9.65-.1-19.29.08-28.93a9.59,9.59,0,0,1,1.86-5.27c4.3-5.69,8.92-11.14,13.28-16.79a7,7,0,0,0,1.34-3.9c.12-8,.05-16,.07-24.07,0-4,1.44-5.36,5.47-5.37q11.21,0,22.41,0c3.84,0,5.3,1.46,5.31,5.29,0,8.19,0,16.37.06,24.56a5.8,5.8,0,0,0,1.13,3.25q6.58,8.45,13.38,16.7a8.73,8.73,0,0,1,2.1,6c-.08,9.48,0,19,0,28.44V92h8.32V87.17c0-4.54.08-9.08,0-13.61a7.93,7.93,0,0,1,2.64-6.47c3-2.81,5.91-5.79,8.79-8.75a3.57,3.57,0,0,0,1.08-2c.11-3.15.05-6.31.05-9.84-2.53,0-4.93,0-7.34,0-3.77-.06-5.31-1.73-5.08-5.45,1.29-21,17.12-35.93,38.14-36,13.07,0,26.14,0,39.22,0,4.34,0,5.72,1.36,5.73,5.63q0,6.81,0,13.61c0,4.29-1.35,5.6-5.72,5.61a63.5,63.5,0,0,1-8.28-.06c-4.31-.56-7.51,1.1-10.37,4.42l11.42,22.85-7.38,3.73-10.8-21.44c-2,1.58-3.78,2.94-5.49,4.41a4.35,4.35,0,0,0-.82,1.62,2,2,0,0,0,0,.73c0,3.64-.9,7.66.35,10.82s4.66,5.24,7.17,7.77c3.71,3.74,7.43,7.48,11.21,11.16a6.62,6.62,0,0,1,2.15,5.19c-.07,3.56,0,7.12,0,11.05h6.83c3,0,6-.06,9,0,3.24.07,4.83,1.55,4.89,4.76.11,5.11.1,10.21,0,15.32-.06,3.29-1.55,4.7-4.82,4.79-2.59.07-5.18,0-8.12,0-2.71,21-5.39,41.79-8.11,62.83,5.95,1.23,11,5.35,17.28,4.62a37.6,37.6,0,0,0,9.8-2.47c8.05-3.32,16.36-3.6,24.62-1.89a24.49,24.49,0,0,1,19.24,23.83q.19,12.63,0,25.28a25,25,0,0,1-20.75,24.37,7.63,7.63,0,0,0-1.13.41H296.38c-4.18-1.43-8.29-3.2-12.57-4.19a24.12,24.12,0,0,0-10-.58c-5.25,1.06-10.29,3.13-15.42,4.77ZM215,117.19c0,2.55.13,5,0,7.37-.14,1.82.53,2.7,2.14,3.49,7.28,3.55,14.6,7.06,21.68,11,4.74,2.63,6.75,7.21,6.15,12.55-.65,5.82-3.88,9.86-9.62,11.58A13.55,13.55,0,0,1,225,162c-3.21-1.63-6.45-3.22-10-5v3.11c0,10.37.06,20.74,0,31.11-.07,9.58-6.78,16.89-16.05,17-14.21.22-28.41.1-42.62,0a15.71,15.71,0,0,1-10.79-4.39c-4.05-3.72-5.4-8.49-5.4-13.81q0-34.87,0-69.76v-3.12H120c5.19,40.14,10.36,80.1,15.54,120.14h89.13a29.4,29.4,0,0,1-.93-4.8c-.2-9.31-.4-18.62-.37-27.94,0-13.66,9.95-24.15,23.62-25.2,1.68-.13,3.36-.16,5.19-.24,2.67-20.7,5.32-41.23,8-62Zm-16.58,82.74c5.23-.35,8.26-3.65,8.27-8.89,0-13,0-26.09,0-39.14,0-5.32,2.72-7,7.54-4.57s9.85,4.94,14.8,7.37c1.94,1,3.94,1.08,5.71-.4s2.45-3.35,1.62-5.21a8.75,8.75,0,0,0-3.6-3.89c-7.46-3.92-15-7.64-22.6-11.32a5.59,5.59,0,0,1-3.51-5.74c.12-8.34.05-16.69,0-25,0-.85-.08-1.7-.11-2.51h-58c-.05,1-.11,1.76-.11,2.56q0,43.38,0,86.77a21.3,21.3,0,0,0,.23,3.39,7.88,7.88,0,0,0,8.19,6.5v-37h8.28v37h8.42v-37h8.2v37h8.39v-37h8.24Zm104.1,20.89c1.5,0,2.72,0,3.93,0,.65,0,1.29-.15,1.94-.23,8.11-1,13.81-6.95,14.65-15.36.72-7.22-4.3-14.9-11.74-16.72A33.34,33.34,0,0,0,289,190.41a26.65,26.65,0,0,1-22.67.2c-6.33-2.87-12.77-3.4-19.47-2.82-8.32.72-14.28,6.82-15.13,15.41a16,16,0,0,0,12,16.77,32.07,32.07,0,0,0,21.4-1.74,28.5,28.5,0,0,1,24.5,0A27.44,27.44,0,0,0,302.53,220.82Zm-70.71,2.72a58.43,58.43,0,0,0,.05,7.35c1,8.11,6.68,13.83,14.81,14.63,6.4.62,12.83.62,18.78-2.55a17.68,17.68,0,0,1,2.94-1.13c7.64-2.46,15-1.68,22.25,1.68,6.4,3,13.2,2.91,19.81,1.56,9.24-1.89,14.2-11.07,12.4-22a40.37,40.37,0,0,1-4.49,2.83c-10.06,4.68-20.37,4.58-30.43.43-7.23-3-14-3.21-21.1,0-8.15,3.72-16.77,3.6-25.27,1.57C238.14,227.15,235,225,231.82,223.54ZM177.46,92V63.29H127.93V92Zm75,0c0-3.38.06-6.45-.05-9.52a3.38,3.38,0,0,0-1-2C246,75,240.65,69.62,235.18,64.31a4.91,4.91,0,0,0-3-1.16c-3.57-.13-7.2.34-10.71-.13-6.48-.88-11.18,1.34-15.38,6.29-2.39,2.82-4,5.26-3.7,9.09.35,4.49.08,9,.08,13.6ZM203,38a4,4,0,0,0,.82.19c9.82,0,19.64,0,29.45,0a3.92,3.92,0,0,0,2.18-.83q8-6.32,16-12.74a2.54,2.54,0,0,0,1-1.5c.09-3.21.05-6.41.05-9.68-8,0-15.6-.44-23.18.09A28.84,28.84,0,0,0,203,38Zm12.13,70.6H273v-8H215.12ZM173,54.67c-3.12-3.9-5.82-7.42-8.7-10.78a4.55,4.55,0,0,0-3-1.42c-4.94-.14-9.9.14-14.82-.14-3.16-.17-5.27.74-7,3.38-2.05,3-4.51,5.78-7.05,9ZM144.49,13.41V33.93H160.8V13.41ZM140,100.57H107.05v8h33Zm75.17-53.95v8h16.32v-8Zm53.72-25.14V13.42h-8v8.06Z" transform="translate(-98.56 -5)"/><path class="cls-1" d="M261,196.05h8v8h-8Z" transform="translate(-98.56 -5)"/><path class="cls-1" d="M244.29,208.12v-8h8v8Z" transform="translate(-98.56 -5)"/><path class="cls-1" d="M285.81,200.15h8v8h-8Z" transform="translate(-98.56 -5)"/><path class="cls-1" d="M302.41,196.08h8v8h-8Z" transform="translate(-98.56 -5)"/></svg>