<svg id="Layer_1" data-name="Layer 1" xmlns="http://www.w3.org/2000/svg" viewBox="0 0 400.81 301.44"><defs><style>.cls-1{fill:#3babb4;}</style></defs><path class="cls-1" d="M399.59,147.27c-2.84,4.9-8,5.75-12.76,7.26-8.9,2.8-8.89,2.83-8.89,12.28q0,61.45,0,122.9a40.78,40.78,0,0,1-.2,5.07,7.22,7.22,0,0,1-6.51,6.75,32.82,32.82,0,0,1-5.06.29q-166.94,0-333.86,0a30.94,30.94,0,0,1-5.45-.34,7.08,7.08,0,0,1-6.13-6.23,34.09,34.09,0,0,1-.28-5.45c0-42.67-.06-85.33.09-128,0-3.56-1.12-5.1-4.42-5.9-3.79-.91-7.49-2.22-11.19-3.48-4-1.37-6.14-4.2-6.14-8.53,0-30.4,0-60.8,0-91.2,0-6.18,3.31-8.9,10.25-8.91h124.3c0-2.14,0-4,0-5.91C133.75,18,149.15,1.37,169,.82,189.59.25,210.23.2,230.81,1c14.47.57,24.7,8.89,30.89,21.91a7.79,7.79,0,0,1-3.44,10.72c-3.87,2-8.31.71-10.6-3.64-3.54-6.73-8.47-11.5-16.1-13a24.2,24.2,0,0,0-4.65-.46c-18.4,0-36.79-.12-55.19,0-14.71.11-24.52,12.11-22,27.23h4.87q116.83,0,233.66-.07c5,0,8.9,1.14,11.35,5.71ZM235.78,185.62c1.07-.26,1.57-.35,2.05-.5q71.49-22.71,143-45.36c2.43-.77,2.87-2,2.87-4.21-.06-24,0-48-.05-72,0-1.24-.16-2.47-.24-3.66H14.71v4.42c0,23.35.08,46.71-.09,70.06,0,3.52,1.11,4.89,4.37,5.92q65,20.49,130,41.23c4.39,1.4,8.81,2.73,13.64,4.22,0-6.42,0-12.28,0-18.14.05-7.53,2.91-10.49,10.35-10.51q26.22-.07,52.45,0c7.46,0,10.32,3,10.37,10.49C235.81,173.42,235.78,179.28,235.78,185.62ZM36.47,285.57h325.3V162.86a10.09,10.09,0,0,0-1.77.22q-60.87,19.35-121.76,38.67c-2.09.66-2.52,1.73-2.49,3.65q.12,8.61,0,17.22c-.1,6.94-3.16,9.93-10.15,9.94q-26.43,0-52.84,0c-7,0-10.06-3-10.16-9.93-.08-5.48-.19-11,.06-16.44.13-2.92-1-4-3.64-4.85Q99.8,182.65,40.6,163.78c-1.28-.41-2.61-.66-4.13-1Zm182.91-69.15V173.3H179v43.12Z" transform="translate(1.22 -0.4)"/><path class="cls-1" d="M94.38,86.61q-27.76,0-55.54,0a29.49,29.49,0,0,1-5.06-.36,7.75,7.75,0,0,1-.85-15,20.3,20.3,0,0,1,5.4-.61q56.13,0,112.26,0a19.88,19.88,0,0,1,5.39.63,7.71,7.71,0,0,1-1,15,29.37,29.37,0,0,1-5,.35Q122.15,86.64,94.38,86.61Z" transform="translate(1.22 -0.4)"/><path class="cls-1" d="M193.48,70.61c3.12,0,6.25-.14,9.36,0,5.07.28,8.3,3.55,8.25,8.07S208,86.29,203,86.48c-6.36.25-12.75.25-19.11,0-4.9-.19-8.1-3.51-8.16-7.76s3.39-7.79,8.36-8.07C187.22,70.47,190.35,70.61,193.48,70.61Z" transform="translate(1.22 -0.4)"/></svg>