<svg id="Layer_1" data-name="Layer 1" xmlns="http://www.w3.org/2000/svg" viewBox="0 0 456.75 404"><defs><style>.cls-1{fill:#3babb4;}</style></defs><path class="cls-1" d="M471.74,231.5c-1.19,5.93-2.14,11.93-3.63,17.79a107.27,107.27,0,0,1-28,49.43,11.25,11.25,0,0,0-3.4,8.61c-.08,8,.32,16.21-1.29,23.95-4.49,21.57-22.36,36-45.26,36.28-34.63.44-69.28.15-103.92.1-5.3,0-8.18-2.58-8.14-6.8s2.86-6.53,8.31-6.53c33.9,0,67.8,0,101.7,0,17,0,29.88-9,33.84-24.18,1.35-5.17,1.34-10.71,2.07-17.09-42.79,25.64-84.41,25.55-126.39-.11-4.05,4.11-8.39,8.37-12.52,12.83a5.38,5.38,0,0,0-.81,3.61,15.56,15.56,0,0,1-4.76,12.49c-18,18-35.85,36.06-54,53.89-11.25,11.06-28.55,10.92-39.28.13s-10.9-28,.21-39.26c17.86-18.09,35.93-36,53.9-54A15.43,15.43,0,0,1,252.92,298a6.3,6.3,0,0,0,4.2-1.45c4.15-3.82,8.08-7.88,12.38-12.15a112.1,112.1,0,0,1-19.57-63.09H138.15c0,7.91.06,15.73,0,23.56-.13,13.54-9.3,23.79-22.66,25.42s-26.13-8.43-27.35-21.75c-.6-6.64-.29-13.36-.37-20.05,0-2.36,0-4.73,0-7.45-24.54-2.61-44.09-13.68-59.07-34.12-.13,2.05-.27,3.28-.27,4.52q0,64,0,128c0,20.71,13.87,34.78,34.62,34.87,30,.13,60.07,0,90.1,0h2.23c6.36,0,9.59,2.34,9.48,6.77s-3.29,6.61-9.75,6.61q-45.5,0-91,0C34.62,367.63,15,347.87,15,318.32q0-101,0-202c0-23.22,14.39-41.63,36.45-46.56a64.88,64.88,0,0,1,13.72-1.24c25.57-.11,51.14,0,77.46,0,0-2.18-.09-4.18,0-6.18.5-9.46-.13-19.18,1.83-28.34A42.82,42.82,0,0,1,185.56.4C212-.08,238.49-.16,264.94.34c25.48.48,43.75,19.91,44.19,45.92.12,7.13,0,14.26,0,22.16h5.32c24.68,0,49.36-.09,74,0,23.68.11,42.61,14.3,46.9,36.5,1.92,9.94,1.22,20.41,1.33,30.64a11.32,11.32,0,0,0,3.48,8.57,108.36,108.36,0,0,1,30.71,64.32,31.64,31.64,0,0,0,.81,3.4ZM424,129.63c-.56-8.18-.23-15.59-1.7-22.62C419,91.3,405.32,81.81,387.41,81.8H64.53c-1.34,0-2.68,0-4,.08-18.74,1.1-32,15-32.11,33.78-.06,8.62,0,17.24,0,25.86.09,21.78,8.72,39.46,25.86,52.83a62.19,62.19,0,0,0,33.5,13c-.3-7.93.58-15.23,5.78-21.26a24.76,24.76,0,0,1,19.52-9.1A24.26,24.26,0,0,1,129.38,183c7.39,6.33,9.41,14.76,8.79,24.21h112.4C260,129.25,351.7,81.9,424,129.63ZM263.34,221.26c-.18,53.52,43.53,97.47,97.07,97.63a97.54,97.54,0,1,0,.67-195.08C307.37,123.64,263.51,167.37,263.34,221.26Zm32-153c0-9.41.7-18.36-.15-27.16a30.15,30.15,0,0,0-29.68-27.34c-26.44-.38-52.9-.32-79.34,0a30.34,30.34,0,0,0-28.21,21c-3.67,11-1.25,22.28-2,33.44h14.35c0-7.81-.13-15.35,0-22.89.21-9.59,7-17.18,16.32-17.27q39.22-.39,78.45,0c9.46.1,16.05,7.68,16.33,17.74.18,6.24,0,12.48.06,18.72,0,1.27.2,2.53.31,3.79Zm-111.6-.14h84.4c0-6.83,0-13.34,0-19.85,0-6.17-.85-7-6.88-7q-25.2,0-50.39,0c-7.29,0-14.57,0-21.85,0-2.91,0-5.16,1-5.23,4.15C183.61,52.88,183.72,60.42,183.72,68.1Zm50,260.29c-13.09,13.07-25.79,25.53-38.22,38.26a13.91,13.91,0,0,0,.26,19.68,14.27,14.27,0,0,0,19.72.58c2.35-2,4.47-4.33,6.68-6.53l31.53-31.49a22.4,22.4,0,0,0-1.55-2C246.06,340.82,240,334.75,233.68,328.39ZM101.46,224.27h23.23c0-8,.26-15.7-.08-23.38-.27-6-5.36-10.35-11.26-10.5s-11.38,3.69-11.75,9.32C101.06,207.79,101.46,215.93,101.46,224.27Zm.29,14c-1.67,7.93-.11,13.5,4.57,16.69a11.71,11.71,0,0,0,13,.17c6.21-4.2,5.8-10.39,5.13-16.86Zm169.3,92.95a8.18,8.18,0,0,0-.65-1.24c-3.95-4-7.9-8-11.89-12-7.5-7.51-7.51-7.5-14.68.32-.17.19-.18.54-.09.24l20,20Zm15.16-26.12-8-9.44-11.46,10.62,8.8,9.52Z" transform="translate(-14.99)"/><path class="cls-1" d="M280.86,221.42c-.25-40.77,30.37-75.38,70.45-79.89,40.72-4.58,78.18,21.51,87.57,61,1.16,4.88-.32,8.28-4.08,9.39-4.26,1.26-7.32-.94-8.85-6.31-8-27.92-26.11-45-54.72-50.33-37.54-6.95-75.08,22.92-77.07,61-2,38.57,24.39,68.84,62.84,72,30.31,2.52,60.18-18.87,68.35-49,.31-1.15.55-2.31.91-3.44,1.34-4.24,4.68-6.25,8.48-5.16,3.51,1,5.34,4.44,4.4,8.52-3,13.3-8.82,25.31-18.14,35.25-23.42,25-52,33.45-84.68,23C304.16,287.29,286.25,264,281,230.77a16.48,16.48,0,0,1-.18-2.22C280.84,226.17,280.86,223.8,280.86,221.42Z" transform="translate(-14.99)"/></svg>