<svg id="Layer_1" data-name="Layer 1" xmlns="http://www.w3.org/2000/svg" viewBox="0 0 383.21 271.2"><defs><style>.cls-1{fill:#3babb4;}</style></defs><path class="cls-1" d="M0,65c.86-3,1.51-6,2.61-8.9,5.18-13.53,15-22,28.81-26C93.6,12,157,4,221.72,7.55A564.32,564.32,0,0,1,352.86,30.47C375,37.11,387.4,58.2,381.92,80.72q-20.18,83-40.83,165.78c-6.18,24.73-30.65,37.48-54.54,28.61-32-11.87-65-18.19-99.14-17.64-31.21.5-61.32,6.76-90.55,17.6C73,283.92,48.37,271.29,42.2,246.62c-13.87-55.45-27.4-111-41.07-166.48C.81,78.83.38,77.56,0,76.27ZM191.6,22.79l-.07-1.05c-22.74,1.77-45.54,2.9-68.19,5.46C93.72,30.53,64.66,37,36,45.44,20.83,49.91,13.26,62.55,17.05,78q18.54,75.46,37.16,150.9c1.1,4.48,2.18,9,3.37,13.41,4.24,15.9,18.57,23.44,33.93,17.74,28.23-10.49,57.31-16.92,87.43-18.28C217.83,240,255.41,246.4,291.81,260a28.34,28.34,0,0,0,7.58,1.87c13.12,1,23.2-6.92,26.71-21.1q20.1-81.42,40.11-162.87c3.75-15.27-3.62-28-18.68-32.42A548.44,548.44,0,0,0,191.6,22.79Z" transform="translate(0 -6.73)"/><path class="cls-1" d="M159.63,166.28c-7.62,0-14.83.17-22-.07A33.22,33.22,0,0,1,127,164.52c-8.43-3.24-13.9-9.56-14.75-18.61a119.86,119.86,0,0,1,0-23.12c1.17-11.49,11.22-20.05,22.81-20.27,8-.16,15.94,0,24.53,0,0-2.63,0-5.06,0-7.49.11-6.6-.26-13.26.48-19.79,1.35-11.9,11.29-20.42,23.31-20.62,5.11-.09,10.23-.05,15.34,0,14.31.09,24.52,10.05,24.83,24.4.16,7.69,0,15.4,0,23.5,7.44,0,14.52,0,21.59,0,16.46,0,26.32,9.83,26.3,26.32,0,5.73.2,11.51-.49,17.17a23.19,23.19,0,0,1-22.44,20.24c-4.11.16-8.23.07-12.35.08H223.91c-.11,1.41-.27,2.59-.27,3.77,0,6.37,0,12.73,0,19.09-.16,14.86-10.12,24.87-24.9,25-4.87,0-9.73.07-14.6,0C170,213.94,160,204,159.65,189.83c-.13-6.36,0-12.72,0-19.08Zm71.72-15.91c5.11,0,10.22.06,15.34,0,5.56-.08,8.59-3,8.72-8.51.1-4.49.05-9,0-13.47,0-7.19-2.78-10-9.94-10-9.35,0-18.7,0-28.05,0-7.15,0-9.88-2.8-9.9-10.05,0-9.6,0-19.2,0-28.8,0-6-3-8.9-9-9-4.11-.09-8.22,0-12.34,0-7.77,0-10.41,2.61-10.43,10.26,0,9.23,0,18.46,0,27.68,0,7.16-2.82,9.94-10,10-9.48,0-18.95,0-28.43,0-6.52,0-9.4,2.92-9.47,9.34q-.07,6.72,0,13.46c.07,6.27,3,9.15,9.2,9.17,9.35,0,18.7,0,28.05,0,7.87,0,10.62,2.7,10.64,10.48,0,9.6-.06,19.2,0,28.8.06,5.53,3.11,8.51,8.63,8.6,4.36.08,8.73,0,13.09,0,7.4,0,10-2.68,10.06-10.21,0-9.35,0-18.7,0-28,0-6.62,3-9.6,9.59-9.64C221.87,150.35,226.61,150.37,231.35,150.37Z" transform="translate(0 -6.73)"/></svg>