<svg xmlns="http://www.w3.org/2000/svg" viewBox="0 0 568.74 504.58">
<defs><style>.cls-1{fill:#fff;}.cls-2{fill:none;}</style></defs>
<g id="Layer_2" data-name="Layer 2"><g id="OBJECTS">
<polygon class="cls-1" points="224.57 158.65 224.57 235.4 196.79 264.53 180.98 264.53 180.98 158.65 224.57 158.65"/>
<path class="cls-2" d="M0,0V504.58H568.74V0ZM224.57,235.4v26c5.53-11.86,16.8-20.79,33.82-20.79,15.48,0,26.17,7.36,32.17,17.57,25,1.21,36.82,22.14,35.46,42.09a43.06,43.06,0,0,1,5,19.65,44.93,44.93,0,0,1-1.18,25.8.21.21,0,0,0,0,.11,29.71,29.71,0,0,1-1.36,3.3c-5.49,11.93-16.83,21-34,21a45,45,0,0,1-8.82-.85,42.8,42.8,0,0,1-8.6.85c-18.78,0-30.52-10.8-35.35-24.38-23.35-7.57-30.31-35.83-20.9-55.77a42.05,42.05,0,0,1-.26-4.76V282a44.39,44.39,0,0,1,2.67-17.39H196.79Z"/><path class="cls-1" d="M433.43,329c-2.81,2.78-5.63,5.6-8.45,8.42l-26,26-51.39,51.35q-31.92,31.75-63.66,63.66L179.66,374c-2.89-2.9-5.78-5.75-8.63-8.64l-9-9c-2.48-2.49-4.86-4.84-7.21-7.21L142.27,362.4c2.23,2.23,4.61,4.57,6.81,6.8l9,9c2.89,2.89,5.78,5.74,8.64,8.63L271.27,491.52c1.46,1.31,2.75,2.74,4.32,4.17l9,8.89,6.41-7.17a12.84,12.84,0,0,0,1.46-1.58c.77-.8,1.43-1.57,2.09-2.23q33-33,66-66l51.39-51.35c8.64-8.79,17.38-17.39,26-26,2.63-2.71,5.3-5.38,8-8.08Z"/><path class="cls-1" d="M559.23,110.45a156,156,0,0,0-46.26-70A154,154,0,0,0,484.6,20.72C454.13,4.06,421-1.78,386,3.22a151.57,151.57,0,0,0-52.91,18,156.6,156.6,0,0,0-46.3,38.9c-.76.92-1.42,1.72-2.08,2.64l-3.4-3.55A154.67,154.67,0,0,0,229.6,17.92C196.25,1.45,160.83-2.72,124.12,5.37A153.31,153.31,0,0,0,63.48,33.88a157.33,157.33,0,0,0-61.56,134,136.5,136.5,0,0,0,12.92,52,164.09,164.09,0,0,0,25.62,38.53c9.95,11.13,20.53,22.33,32.27,34.22,4.21,4.32,23.68,23.54,37,36.9L54,387.79l13.22,12.55L196.79,264.53l27.78-29.13,59.77-62.62L433.44,329,446,342.16l55.59,58.26,13.18-12.51L284.34,146.39,224.57,209,181,254.65l-58.7,61.49c-13.21-13.22-32.54-32.28-36.6-36.45C74.19,268.05,63.83,257.07,54,246.09A140.22,140.22,0,0,1,31.3,211.87a121.5,121.5,0,0,1-11.24-45.24A139.16,139.16,0,0,1,127.91,23.27a149.93,149.93,0,0,1,31.88-3.52,139.67,139.67,0,0,1,61.56,14.39,142.26,142.26,0,0,1,25,15.92,137.41,137.41,0,0,1,23.49,24.16L286.13,91l.14-.25L315.55,121,431.28,241.22l43.92,45.6-.15.14,12.7,13.26c7.17-7.28,14.49-14.49,21.67-21.81,16.1-16.22,28.51-32.39,38.31-49.67s15.56-34.11,17.9-51.71A150.62,150.62,0,0,0,559.23,110.45Zm-11.5,64.16c-2,15.3-7.06,30.08-15.7,45.24-9,15.81-20.53,30.81-35.42,45.85l-8.48,8.52L297.4,76.09c1.21-1.58,2.38-3,3.55-4.58a140.19,140.19,0,0,1,87.84-50.29c31-4.47,60.39.77,87.43,15.41a132.55,132.55,0,0,1,25,17.34C520.58,71.25,534.42,92,542.14,116A134.57,134.57,0,0,1,547.73,174.61Z"/><path class="cls-2" d="M0,0V504.58H568.74V0ZM224.57,235.4v26c5.53-11.86,16.8-20.79,33.82-20.79,15.48,0,26.17,7.36,32.17,17.57,25,1.21,36.82,22.14,35.46,42.09a43.06,43.06,0,0,1,5,19.65,44.93,44.93,0,0,1-1.18,25.8.21.21,0,0,0,0,.11,29.71,29.71,0,0,1-1.36,3.3c-5.49,11.93-16.83,21-34,21a45,45,0,0,1-8.82-.85,42.8,42.8,0,0,1-8.6.85c-18.78,0-30.52-10.8-35.35-24.38-23.35-7.57-30.31-35.83-20.9-55.77a42.05,42.05,0,0,1-.26-4.76V282a44.39,44.39,0,0,1,2.67-17.39H196.79Z"/><path class="cls-1" d="M266.74,284.22q-1.85,3.87-3.68,7.75c-5.8,12.29-11.64,24.57-17.36,36.9a4.56,4.56,0,0,1-4.79,3c-11.53-.11-23.06,0-34.59,0a11.3,11.3,0,0,1-1.84,0,2.73,2.73,0,0,1-2.46-2.58,2.63,2.63,0,0,1,1.75-2.92,7.17,7.17,0,0,1,2.52-.33h32.39a2.44,2.44,0,0,0,2.62-1.64q12.07-25.78,24.27-51.51c.23-.5.48-1,.71-1.5a2.85,2.85,0,0,1,3.22-1.88,2.79,2.79,0,0,1,2.48,2.77q.5,5.49,1,11,1.8,20.88,3.57,41.78,1.56,18.22,3.08,36.46,1.15,13.65,2.32,27.31a3.48,3.48,0,0,0,.52,1.6c1.36-6.14,2.74-12.29,4.09-18.43q6.51-29.52,13-59c.37-1.71,1.11-3,3-3.14,1.6-.09,2.65,1,3.16,3.21,2.41,10.05,4.74,20.15,7.21,30.65.43-.87.7-1.37.93-1.89,3-6.66,6-13.3,8.83-20a4.16,4.16,0,0,1,4.4-2.8c11.83.06,23.67,0,35.51,0a7.46,7.46,0,0,1,2,.19,2.88,2.88,0,0,1-.47,5.65,14.12,14.12,0,0,1-1.84,0H329.54a2.23,2.23,0,0,0-2.46,1.57l-12,27c-.87,2-2,2.66-3.66,2.3s-2.08-1.53-2.4-2.92q-2.92-12.52-5.89-25a1.85,1.85,0,0,0-.62-1L299.81,339q-7.94,36.06-15.89,72.12c-.44,2-1.54,3.07-3.11,3s-2.75-1.17-2.94-3.36c-.93-10.63-1.81-21.26-2.71-31.89q-1.57-18.49-3.17-37l-3.09-36.46-1.77-21Z"/></g></g>
</svg>