<svg xmlns="http://www.w3.org/2000/svg" viewBox="0 0 394 146.98">
<defs><style>.cls-1,.cls-3{fill:#3babb4;}.cls-2{fill:none;}.cls-3{stroke:#3babb4;stroke-miterlimit:10;}</style></defs><g id="Layer_2" data-name="Layer 2"><g id="Layer_1-2" data-name="Layer 1"><g id="Layer_2-2" data-name="Layer 2"><g id="Layer_1-2-2" data-name="Layer 1-2"><polygon class="cls-1" points="293.76 46.19 293.76 68.54 285.67 77.02 281.06 77.02 281.06 46.19 293.76 46.19"/><path class="cls-2" d="M228.37,0V146.91H394V0Zm65.39,68.54v7.55A11.07,11.07,0,0,1,313,75.15c7.28.36,10.72,6.45,10.32,12.26a12.4,12.4,0,0,1,1.46,5.72,13.08,13.08,0,0,1-.34,7.51h0a9.4,9.4,0,0,1-.39,1,10.35,10.35,0,0,1-9.89,6.11,13.09,13.09,0,0,1-2.57-.25,12.33,12.33,0,0,1-2.5.25,10.39,10.39,0,0,1-10.3-7.1c-6.8-2.2-8.82-10.43-6.08-16.24a12.77,12.77,0,0,1-.08-1.38v-.94a13.21,13.21,0,0,1,.78-5.06h-7.7Z"/><path class="cls-1" d="M354.57,95.8c-.82.8-1.64,1.62-2.46,2.44l-7.57,7.58-15,15c-6.2,6.16-12.37,12.36-18.54,18.53L280.64,109c-.84-.84-1.68-1.67-2.51-2.51l-2.62-2.63c-.73-.72-1.42-1.4-2.1-2.09l-3.66,3.84,2,2,2.62,2.63c.85.84,1.69,1.67,2.52,2.51l30.44,30.48c.43.38.8.79,1.26,1.21l2.62,2.59,1.87-2.09a4.58,4.58,0,0,0,.42-.46c.23-.23.42-.46.61-.65l19.21-19.21,15-15c2.52-2.56,5.06-5.06,7.58-7.58.76-.78,1.54-1.56,2.34-2.35Z"/><path class="cls-1" d="M391.19,32.16a45.42,45.42,0,0,0-13.47-20.4,45.78,45.78,0,0,0-37-10.83,44.17,44.17,0,0,0-15.41,5.25,45.38,45.38,0,0,0-13.48,11.33c-.22.26-.41.5-.61.76l-1-1a45.06,45.06,0,0,0-15.06-12A45.57,45.57,0,0,0,264.5,1.62a44.53,44.53,0,0,0-17.66,8.3,45.78,45.78,0,0,0-17.92,39A39.64,39.64,0,0,0,232.69,64a47.88,47.88,0,0,0,7.46,11.22c2.9,3.24,6,6.5,9.4,10,1.22,1.26,6.89,6.85,10.77,10.74L244.1,113l3.85,3.65L285.67,77l8.09-8.48,17.4-18.23,43.41,45.48,3.65,3.83,16.19,17,3.83-3.64L311.16,42.62l-17.4,18.22-12.7,13.3L264,92c-3.84-3.84-9.47-9.39-10.65-10.61C250,78,247,74.85,244.1,71.65a41,41,0,0,1-6.62-10,35.38,35.38,0,0,1-3.27-13.17,40.59,40.59,0,0,1,5-21.84,40,40,0,0,1,10.85-12.59,39.59,39.59,0,0,1,15.56-7.31,44,44,0,0,1,9.29-1,40.32,40.32,0,0,1,32,15.83l4.75,4.87v-.07l8.53,8.82,33.68,35L366.7,83.47h-.05l3.7,3.84c2.09-2.12,4.22-4.22,6.31-6.35A67.82,67.82,0,0,0,387.81,66.5,41.83,41.83,0,0,0,393,51.44,43.92,43.92,0,0,0,391.19,32.16Zm-3.35,18.68A35.25,35.25,0,0,1,383.27,64,63.8,63.8,0,0,1,373,77.36l-2.47,2.47L315,22.15c.35-.46.69-.87,1-1.33a39.29,39.29,0,0,1,11.95-10,39.08,39.08,0,0,1,13.63-4.64A40.19,40.19,0,0,1,367,10.67a38,38,0,0,1,7.27,5.05A40.61,40.61,0,0,1,386.2,33.79,39.11,39.11,0,0,1,387.84,50.84Z"/><path class="cls-2" d="M228.37,0V146.91H394V0Zm65.39,68.54v7.55A11.07,11.07,0,0,1,313,75.15c7.28.36,10.72,6.45,10.32,12.26a12.4,12.4,0,0,1,1.46,5.72,13.08,13.08,0,0,1-.34,7.51h0a9.4,9.4,0,0,1-.39,1,10.35,10.35,0,0,1-9.89,6.11,13.09,13.09,0,0,1-2.57-.25,12.33,12.33,0,0,1-2.5.25,10.39,10.39,0,0,1-10.3-7.1c-6.8-2.2-8.82-10.43-6.08-16.24a12.77,12.77,0,0,1-.08-1.38v-.94a13.21,13.21,0,0,1,.78-5.06h-7.7Z"/><path class="cls-3" d="M306,82.76c-.35.75-.71,1.5-1.07,2.26-1.69,3.58-3.39,7.15-5,10.74a1.32,1.32,0,0,1-1.4.89H288.46a2.35,2.35,0,0,1-.53,0,.79.79,0,0,1-.72-.75.76.76,0,0,1,.51-.85,2.25,2.25,0,0,1,.73-.09h9.43a.69.69,0,0,0,.76-.47q3.53-7.51,7.07-15l.21-.44a.84.84,0,0,1,.94-.55.82.82,0,0,1,.72.81c.09,1.07.19,2.13.28,3.2q.52,6.08,1,12.16l.9,10.62c.22,2.65.45,5.3.67,7.95a1.24,1.24,0,0,0,.15.47l1.2-5.37q1.89-8.59,3.77-17.19c.11-.49.33-.88.89-.91s.77.3.92.93l2.1,8.93c.13-.25.2-.4.27-.55.86-1.94,1.74-3.87,2.57-5.82a1.24,1.24,0,0,1,1.28-.82h10.34a2,2,0,0,1,.59,0,.79.79,0,0,1,.62.88.8.8,0,0,1-.76.77H324.32a.65.65,0,0,0-.72.46c-1.15,2.63-2.32,5.25-3.49,7.87-.25.57-.58.78-1.06.67s-.61-.45-.7-.85c-.57-2.43-1.15-4.86-1.72-7.29a.49.49,0,0,0-.18-.3l-.78,3.53q-2.31,10.5-4.63,21c-.13.59-.45.9-.91.89s-.8-.34-.85-1c-.27-3.1-.53-6.19-.79-9.29q-.47-5.39-.92-10.77l-.9-10.62c-.18-2-.35-4.09-.53-6.13Z"/><path class="cls-1" d="M0,62.62c0-4.21,1.37-8.9,3.36-14L7,50c-1.55,4.51-2.7,8.85-2.61,12,.13,3.4,2.7,5.93,8.14,6,4.65.08,11.82-1.47,11.82-6.6,0-3-1-8.59-2.52-13.94L26,45.71c1.41,5.62,2.74,11.42,2.52,16-.28,7.29-6,11.75-16.26,11.71C4.21,73.37,0,69,0,62.62Zm10-20v-.27l2.7-3.23H13l3.41,2.79v.22l-2.75,3.32h-.22Z"/><path class="cls-1" d="M32.93,29.64l4.43-.49V61.82l-4.16.31Z"/><path class="cls-1" d="M38.29,68.68c8.49-.18,12.3-3.54,12.3-9.74,0-3-1-6.68-2.61-11.33l4.29-2c1.6,4.83,2.62,9.08,2.62,12.75,0,9.39-5.32,15.18-16.43,14.74Z"/><path class="cls-1" d="M60.06,50.62l-.18-21,4.43-.49V50.29c0,5.09,1.63,6.06,5.35,6.06A2.69,2.69,0,0,1,72.32,59a2.75,2.75,0,0,1-2.61,2.7C62.63,61.73,60.15,58.06,60.06,50.62Z"/><path class="cls-1" d="M69.71,56.37h2.57c5.22,0,9.82-1.1,10-3.18s-1.59-7.35-13-13.24l.44-5.36,17.89-6.41.4,4.91L75.15,38c9.65,6.11,12,11.38,11.65,15.76-.45,5.09-7,8-15,8h-2a2.68,2.68,0,1,1,0-5.36Z"/><path class="cls-1" d="M120.17,54.38c0,5.67-5,8.15-10.67,8.15-5.89,0-8.36-3-8.32-7,0-3.68,1.77-7.71,4.78-11.42-.62-.18-1.24-.4-1.9-.58l1.06-4.43C113.57,41.59,120.26,45.79,120.17,54.38Zm-10.89-8.85c-2.52,2.74-4.12,5.93-4,8.45.09,2.22,1.51,3.32,4.61,3.32s6.19-.88,6.19-2.87C116.1,51.24,114.55,48.1,109.28,45.53Z"/><path class="cls-1" d="M118.8,68.77c7.74-.62,11.33-3.76,11.33-9.83,0-3.27-1.07-7.35-2.26-11.51l4.34-1.81,1,4.2c1.28,5.36,2.56,6.55,7.39,6.55A2.69,2.69,0,0,1,143.23,59a2.75,2.75,0,0,1-2.61,2.7c-2.83,0-4.91-.62-6.38-2a14.62,14.62,0,0,1-2.83,8.5C128.93,71.35,125,73,119.24,73H118l-.13-4.25C118.18,68.76,118.49,68.76,118.8,68.77Zm6.86-29.88v-.27l2.74-3.23h.22L132,38.18v.22l-2.74,3.28H129Z"/><path class="cls-1" d="M162.57,59A2.72,2.72,0,0,1,160,61.7c-4.65,0-7.66-1.06-9.47-3.36a15.43,15.43,0,0,1-9.87,3.36,2.68,2.68,0,0,1,0-5.36c3.54,0,6.28-.66,8.1-2.08a23,23,0,0,1-.4-3.89l-.14-5.85,3.81-.39.4,5.62c.31,5.09,1.64,6.59,7.57,6.59A2.66,2.66,0,0,1,162.57,59Zm-17.88,7.83,3.23,2.66v.18l-2.57,3.1h-.22l-3.23-2.66v-.22l2.57-3.06Zm6.06-.75L154,68.77V69l-2.56,3.1h-.23L148,69.43v-.22l2.57-3.1Z"/><path class="cls-1" d="M160,56.37h2.56c5.23,0,9.83-1.1,10-3.18S171,45.84,159.56,40l.44-5.36,17.88-6.41.4,4.91L165.4,38c9.65,6.11,11.95,11.38,11.64,15.76-.44,5.09-6.95,8-15,8h-2a2.68,2.68,0,1,1,0-5.36Z"/><path class="cls-1" d="M186.47,50.62l-.18-21,4.43-.49V50.29c0,5.09,1.64,6.06,5.36,6.06A2.69,2.69,0,0,1,198.73,59a2.75,2.75,0,0,1-2.61,2.7C189,61.73,186.56,58.06,186.47,50.62Z"/><path class="cls-1" d="M196.12,56.37h.48c6.16,0,9.39-1.41,9.3-4.6,0-2.21-.53-4.87-2-10.53l4.38-1.51c1.38,6.2,1.64,8.5,1.73,11.64.13,6.82-4.47,10.36-13.41,10.36h-.53a2.68,2.68,0,0,1,0-5.36Zm1.19,14v-.22l2.57-3h.22l3.23,2.65V70l-2.56,3h-.23Zm3.85,5.45V75.6l2.48-3h.22l3.1,2.57v.17l-2.48,3h-.22Zm2.22-6.2V69.4l2.56-3.06h.23L209.4,69v.22l-2.61,3.1h-.18Z"/><path class="cls-1" d="M74.17,125c0-3.84.84-7.54,3.17-13.54l5.25,1.91c-1.83,5.84-2.21,8.88-2,11,.21,1.92,1.92,3.87,6.33,3.87,4,0,9.67-1.79,9.67-4.41a59.26,59.26,0,0,0-2.55-13l6.25-2.63c1.34,4.71,3.09,11.59,2.54,16.63-.7,6.54-6.7,11.16-16.45,11.16C78,135.89,74.17,131.31,74.17,125Zm9-19.62v-.17l3.88-3.83h.16l3.88,3.83v.17l-3.88,3.87h-.16Z"/><path class="cls-1" d="M106.17,113.69l-.25-19.62,6.54-.71v19.58c0,3.45.5,4.08,3.83,4.08a3.8,3.8,0,0,1,3.67,3.83,3.84,3.84,0,0,1-3.67,3.88C108.75,124.73,106.25,120.73,106.17,113.69Z"/><path class="cls-1" d="M139,120.85a3.84,3.84,0,0,1-3.67,3.88c-4.67,0-7.83-.92-9.83-2.92a15,15,0,0,1-9.12,2.92,3.81,3.81,0,0,1-3.67-3.88,3.76,3.76,0,0,1,3.67-3.83,14.08,14.08,0,0,0,6.5-1.17,21.51,21.51,0,0,1-.21-3l-.09-5.58,5.46-.54.5,5.29c.38,4.08,1,5,6.79,5A3.8,3.8,0,0,1,139,120.85Zm-13.08,6.42,3.87,3.83v.17l-3.87,3.91h-.17l-2.29-2.33-3.21,3.21H120l-3.87-3.88V132l3.87-3.84h.17l2.29,2.25,3.21-3.16Z"/><path class="cls-1" d="M171.37,114.85c0,7-2.84,9.88-7.92,9.88a10.19,10.19,0,0,1-6.58-2.59,11.33,11.33,0,0,1-7.5,2.59,11.53,11.53,0,0,1-6.2-2c-1.75,1.29-4.17,2-7.84,2a3.87,3.87,0,0,1-3.7-3.92A3.73,3.73,0,0,1,135.3,117h0c2.5,0,4.21-.54,5-1.38s1-1.29,1.46-6.24l5.12.2a55.8,55.8,0,0,1-.25,7.17,14.48,14.48,0,0,0,2.54.25,5.5,5.5,0,0,0,4.09-1.33c.79-.88,1-1.3,1.45-6.25l5.13.21a56.43,56.43,0,0,1-.21,6.54,9.23,9.23,0,0,0,3.87.83c1.13,0,1.84-.33,1.84-1.42a62.08,62.08,0,0,0-1.29-8.12l6.37-2.12A81.5,81.5,0,0,1,171.37,114.85Z"/><path class="cls-1" d="M168.5,129.31c8-.34,11-2.92,11-7.88,0-2.62-1-6.12-2.54-10.87l6.45-2.83c1.42,5,2.42,9.12,2.42,12.66,0,9.54-5.08,16-17.12,15.37Z"/><path class="cls-1" d="M189.83,113.69l-.25-19.62,6.54-.71v19.58c0,3.45.5,4.08,3.83,4.08a3.8,3.8,0,0,1,3.67,3.83,3.84,3.84,0,0,1-3.67,3.88C192.41,124.73,189.91,120.73,189.83,113.69Z"/><path class="cls-1" d="M200,124.73a3.87,3.87,0,0,1,0-7.73h.13c5,0,7.91-.83,7.91-3,0-1.87-.66-4.46-1.91-9.08l6.45-2.33a52.3,52.3,0,0,1,1.5,11c.17,7.16-4.7,11.08-13.83,11.08Zm9.54,3,3.88,3.84v.16l-3.88,3.88h-.16l-2.29-2.29-3.21,3.16h-.17l-3.87-3.87v-.17l3.87-3.83h.17l2.29,2.29,3.21-3.17Zm-2.37,7.71,3.58,3.58v.13l-3.58,3.58H207l-3.58-3.58V139l3.58-3.58Z"/></g></g></g></g>
</svg>